<svg xmlns="http://www.w3.org/2000/svg" xmlns:xlink="http://www.w3.org/1999/xlink" width="840" height="892.564" viewBox="0 0 840 892.564"><defs><radialGradient id="radial-gradient" cx="790.946" cy="747.914" r="65.569" gradientTransform="translate(331.974 -82.478) scale(0.581 1.109)" gradientUnits="userSpaceOnUse"><stop offset="0.45" stop-color="#0a64fe"/><stop offset="0.83" stop-color="#49ffff" stop-opacity="0.1"/><stop offset="1" stop-color="#fff" stop-opacity="0"/></radialGradient><radialGradient id="radial-gradient-2" cx="398.706" cy="836.702" r="66.027" gradientTransform="translate(169.998 131.703) scale(0.564 0.837)" xlink:href="#radial-gradient"/><radialGradient id="radial-gradient-3" cx="374.604" cy="528.545" r="64.385" gradientTransform="translate(0 211.418) scale(1 0.6)" xlink:href="#radial-gradient"/><radialGradient id="radial-gradient-4" cx="442.521" cy="208.066" r="45.421" gradientTransform="translate(138.431) scale(0.641 1)" xlink:href="#radial-gradient"/><radialGradient id="radial-gradient-5" cx="297.755" cy="113.839" r="41.736" gradientTransform="translate(112.012 -10.299) scale(0.561 1.163)" xlink:href="#radial-gradient"/><radialGradient id="radial-gradient-6" cx="464.037" cy="544.859" r="35.221" gradientTransform="translate(37.086 -108.972) scale(0.914 1.2)" xlink:href="#radial-gradient"/><radialGradient id="radial-gradient-7" cx="474.413" cy="501.217" r="49.891" gradientTransform="translate(0 100.243) scale(1 0.8)" xlink:href="#radial-gradient"/><radialGradient id="radial-gradient-8" cx="382.866" cy="496.754" r="28.411" gradientTransform="translate(15.745) scale(0.956 1)" xlink:href="#radial-gradient"/><radialGradient id="radial-gradient-9" cx="460.848" cy="577.426" r="30.183" gradientTransform="translate(-109.743 10.884) scale(1.251 0.996)" xlink:href="#radial-gradient"/><radialGradient id="radial-gradient-10" cx="487.305" cy="572.761" r="36.077" gradientTransform="translate(55.186 -161.077) scale(0.893 1.281)" xlink:href="#radial-gradient"/><symbol id="New_Symbol" data-name="New Symbol" viewBox="0 0 36.001 19.938"><path d="M1.473,3.1H4.418c3.2,0,5.25,1.585,5.25,5.17S7.62,13.537,4.562,13.537H1.473Zm2.818,8.531c1.76,0,2.96-.864,2.96-3.361s-1.2-3.265-2.96-3.265H3.842v6.626Z" stroke="#fff" stroke-width="0.513"/><path d="M10.993,12.192C13.585,9.744,15.411,8,15.411,6.558A1.367,1.367,0,0,0,13.97,5.021a2.6,2.6,0,0,0-1.809,1.041L10.88,4.8a4.307,4.307,0,0,1,3.41-1.616,3.118,3.118,0,0,1,3.361,3.233c0,1.713-1.6,3.538-3.249,5.266a15.727,15.727,0,0,1,1.7-.128h2.048v1.985H10.993Z" stroke="#fff" stroke-width="0.513"/><path d="M19.441,8.415c0-3.457,1.456-5.234,3.633-5.234s3.634,1.777,3.634,5.234-1.457,5.314-3.634,5.314S19.441,11.873,19.441,8.415Zm5.042,0c0-2.785-.608-3.409-1.409-3.409-.784,0-1.408.624-1.408,3.409,0,2.769.624,3.489,1.408,3.489C23.875,11.9,24.483,11.184,24.483,8.415Z" stroke="#fff" stroke-width="0.513"/><path d="M27.889,12.192C30.482,9.744,32.307,8,32.307,6.558a1.366,1.366,0,0,0-1.441-1.537,2.6,2.6,0,0,0-1.808,1.041L27.777,4.8a4.307,4.307,0,0,1,3.41-1.616,3.118,3.118,0,0,1,3.361,3.233c0,1.713-1.6,3.538-3.25,5.266a15.746,15.746,0,0,1,1.7-.128h2.049v1.985H27.889Z" stroke="#fff" stroke-width="0.513"/></symbol><symbol id="New_Symbol_1" data-name="New Symbol 1" viewBox="0 0 36.001 19.938"><path d="M1.473,3.1H4.418c3.2,0,5.25,1.585,5.25,5.17S7.62,13.537,4.562,13.537H1.473Zm2.818,8.531c1.76,0,2.96-.864,2.96-3.361s-1.2-3.265-2.96-3.265H3.842v6.626Z" stroke="#fff" stroke-width="0.513"/><path d="M10.993,12.192C13.585,9.744,15.411,8,15.411,6.558A1.367,1.367,0,0,0,13.97,5.021a2.6,2.6,0,0,0-1.809,1.041L10.88,4.8a4.307,4.307,0,0,1,3.41-1.616,3.118,3.118,0,0,1,3.361,3.233c0,1.713-1.6,3.538-3.249,5.266a15.727,15.727,0,0,1,1.7-.128h2.048v1.985H10.993Z" stroke="#fff" stroke-width="0.513"/><path d="M19.441,8.415c0-3.457,1.456-5.234,3.633-5.234s3.634,1.777,3.634,5.234-1.457,5.314-3.634,5.314S19.441,11.873,19.441,8.415Zm5.042,0c0-2.785-.608-3.409-1.409-3.409-.784,0-1.408.624-1.408,3.409,0,2.769.624,3.489,1.408,3.489C23.875,11.9,24.483,11.184,24.483,8.415Z" stroke="#fff" stroke-width="0.513"/><path d="M28.737,10.8a3.224,3.224,0,0,0,2.225,1.024c.993,0,1.649-.432,1.649-1.2,0-.9-.528-1.457-2.737-1.457V7.5c1.825,0,2.4-.544,2.4-1.36,0-.7-.448-1.121-1.249-1.121a2.823,2.823,0,0,0-1.9.9l-1.185-1.44a4.774,4.774,0,0,1,3.2-1.3c2.1,0,3.5,1.008,3.5,2.785a2.394,2.394,0,0,1-1.7,2.257v.064a2.523,2.523,0,0,1,2.017,2.481c0,1.889-1.729,2.961-3.777,2.961a4.424,4.424,0,0,1-3.538-1.44Z" stroke="#fff" stroke-width="0.513"/></symbol><symbol id="New_Symbol_6" data-name="New Symbol 6" viewBox="0 0 36.001 19.938"><path d="M1.473,3.1H4.418c3.2,0,5.25,1.585,5.25,5.17S7.62,13.537,4.562,13.537H1.473Zm2.818,8.531c1.76,0,2.96-.864,2.96-3.361s-1.2-3.265-2.96-3.265H3.842v6.626Z" stroke="#fff" stroke-width="0.513"/><path d="M10.993,12.192C13.585,9.744,15.411,8,15.411,6.558A1.367,1.367,0,0,0,13.97,5.021a2.6,2.6,0,0,0-1.809,1.041L10.88,4.8a4.307,4.307,0,0,1,3.41-1.616,3.118,3.118,0,0,1,3.361,3.233c0,1.713-1.6,3.538-3.249,5.266a15.727,15.727,0,0,1,1.7-.128h2.048v1.985H10.993Z" stroke="#fff" stroke-width="0.513"/><path d="M19.441,8.415c0-3.457,1.456-5.234,3.633-5.234s3.634,1.777,3.634,5.234-1.457,5.314-3.634,5.314S19.441,11.873,19.441,8.415Zm5.042,0c0-2.785-.608-3.409-1.409-3.409-.784,0-1.408.624-1.408,3.409,0,2.769.624,3.489,1.408,3.489C23.875,11.9,24.483,11.184,24.483,8.415Z" stroke="#fff" stroke-width="0.513"/><path d="M28.417,11.632h2.209V5.758h-1.9V4.3a7.077,7.077,0,0,0,2.528-.928h1.729v8.259h1.905v1.905H28.417Z" stroke="#fff" stroke-width="0.513"/></symbol><symbol id="New_Symbol_2" data-name="New Symbol 2" viewBox="0 0 36.002 19.938"><path d="M1.474,3.1H4.419c3.2,0,5.25,1.584,5.25,5.17S7.62,13.537,4.562,13.537H1.474ZM4.29,11.632c1.761,0,2.962-.864,2.962-3.361S6.051,5.005,4.29,5.005H3.843v6.627Z" stroke="#fff" stroke-width="0.513"/><path d="M10.992,12.192C13.586,9.743,15.41,8,15.41,6.558a1.365,1.365,0,0,0-1.44-1.537,2.6,2.6,0,0,0-1.809,1.041L10.881,4.8A4.3,4.3,0,0,1,14.29,3.181a3.118,3.118,0,0,1,3.361,3.233c0,1.712-1.6,3.537-3.249,5.266a15.708,15.708,0,0,1,1.7-.128h2.048v1.985H10.992Z" stroke="#fff" stroke-width="0.513"/><path d="M19.44,8.415c0-3.458,1.457-5.234,3.634-5.234s3.634,1.776,3.634,5.234-1.457,5.314-3.634,5.314S19.44,11.872,19.44,8.415Zm5.043,0c0-2.786-.608-3.41-1.409-3.41-.784,0-1.408.624-1.408,3.41,0,2.769.624,3.489,1.408,3.489C23.875,11.9,24.483,11.184,24.483,8.415Z" stroke="#fff" stroke-width="0.513"/><path d="M28.722,10.815a3.263,3.263,0,0,0,2.192,1.009,1.51,1.51,0,0,0,1.713-1.585,1.463,1.463,0,0,0-1.6-1.568,2.412,2.412,0,0,0-1.5.512l-1.055-.672.288-5.138h5.762V5.357h-3.73l-.176,1.9a2.548,2.548,0,0,1,1.137-.24,2.973,2.973,0,0,1,3.232,3.153,3.508,3.508,0,0,1-3.729,3.554A4.828,4.828,0,0,1,27.665,12.3Z" stroke="#fff" stroke-width="0.513"/></symbol><symbol id="New_Symbol_4" data-name="New Symbol 4" viewBox="0 0 36.002 19.938"><path d="M1.474,3.1H4.419c3.2,0,5.25,1.585,5.25,5.17S7.62,13.537,4.562,13.537H1.474ZM4.29,11.632c1.761,0,2.962-.864,2.962-3.361S6.051,5.006,4.29,5.006H3.843v6.626Z" stroke="#fff" stroke-width="0.513"/><path d="M10.992,12.192C13.586,9.744,15.41,8,15.41,6.558a1.366,1.366,0,0,0-1.44-1.537,2.6,2.6,0,0,0-1.809,1.041L10.881,4.8A4.3,4.3,0,0,1,14.29,3.181a3.118,3.118,0,0,1,3.361,3.233c0,1.713-1.6,3.538-3.249,5.266a15.708,15.708,0,0,1,1.7-.128h2.048v1.985H10.992Z" stroke="#fff" stroke-width="0.513"/><path d="M19.44,8.415c0-3.457,1.457-5.234,3.634-5.234s3.634,1.777,3.634,5.234-1.457,5.314-3.634,5.314S19.44,11.873,19.44,8.415Zm5.043,0c0-2.785-.608-3.409-1.409-3.409-.784,0-1.408.624-1.408,3.409,0,2.769.624,3.489,1.408,3.489C23.875,11.9,24.483,11.184,24.483,8.415Z" stroke="#fff" stroke-width="0.513"/><path d="M33.8,5.806a2.335,2.335,0,0,0-1.585-.72c-1.12,0-2.017.8-2.1,3.169a2.86,2.86,0,0,1,2.032-1.072,2.816,2.816,0,0,1,3.026,3.137A3.268,3.268,0,0,1,31.8,13.729c-1.969,0-3.842-1.472-3.842-5.042,0-3.793,1.969-5.506,4.113-5.506A4.039,4.039,0,0,1,35.028,4.4Zm-.769,4.514c0-1.072-.56-1.473-1.329-1.473a1.841,1.841,0,0,0-1.536,1.008c.208,1.6.88,2.113,1.585,2.113S33.027,11.472,33.027,10.32Z" stroke="#fff" stroke-width="0.513"/></symbol><symbol id="New_Symbol_5" data-name="New Symbol 5" viewBox="0 0 31.565 17.51"><path d="M1.321,2.744H3.9c2.8,0,4.594,1.387,4.594,4.525S6.7,11.877,4.025,11.877h-2.7ZM3.787,10.21c1.541,0,2.591-.756,2.591-2.941S5.328,4.411,3.787,4.411H3.4v5.8Z" stroke="#fff" stroke-width="0.513"/><path d="M9.651,10.7c2.269-2.143,3.866-3.67,3.866-4.93a1.2,1.2,0,0,0-1.261-1.345,2.27,2.27,0,0,0-1.582.91L9.553,4.229a3.77,3.77,0,0,1,2.984-1.415,2.729,2.729,0,0,1,2.941,2.83c0,1.5-1.4,3.1-2.843,4.608a13.745,13.745,0,0,1,1.485-.112h1.793v1.737H9.651Z" stroke="#fff" stroke-width="0.513"/><path d="M17.042,7.4c0-3.026,1.275-4.581,3.181-4.581S23.4,4.369,23.4,7.4s-1.275,4.65-3.179,4.65S17.042,10.42,17.042,7.4Zm4.413,0c0-2.438-.532-2.984-1.232-2.984S18.99,4.957,18.99,7.4s.546,3.053,1.233,3.053S21.455,9.818,21.455,7.4Z" stroke="#fff" stroke-width="0.513"/><path d="M28.525,4.719H24.533V2.982h6.192V4.243c-2.06,2.493-2.354,4.16-2.508,7.634H26.144A11.908,11.908,0,0,1,28.525,4.719Z" stroke="#fff" stroke-width="0.513"/></symbol><symbol id="New_Symbol_3" data-name="New Symbol 3" viewBox="0 0 31.565 17.51"><path d="M1.321,2.744H3.9c2.8,0,4.594,1.387,4.594,4.525S6.7,11.877,4.025,11.877h-2.7ZM3.787,10.21c1.541,0,2.591-.756,2.591-2.941S5.328,4.411,3.787,4.411H3.4v5.8Z" stroke="#fff" stroke-width="0.513"/><path d="M9.651,10.7c2.269-2.143,3.866-3.67,3.866-4.93a1.2,1.2,0,0,0-1.261-1.345,2.27,2.27,0,0,0-1.582.91L9.553,4.229a3.77,3.77,0,0,1,2.984-1.415,2.729,2.729,0,0,1,2.941,2.83c0,1.5-1.4,3.1-2.843,4.608a13.745,13.745,0,0,1,1.485-.112h1.793v1.737H9.651Z" stroke="#fff" stroke-width="0.513"/><path d="M17.042,7.4c0-3.026,1.275-4.581,3.181-4.581S23.4,4.369,23.4,7.4s-1.275,4.65-3.179,4.65S17.042,10.42,17.042,7.4Zm4.413,0c0-2.438-.532-2.984-1.232-2.984S18.99,4.957,18.99,7.4s.546,3.053,1.233,3.053S21.455,9.818,21.455,7.4Z" stroke="#fff" stroke-width="0.513"/><path d="M30.977,9.748H29.954v2.129H28.035V9.748H24.183V8.333l3.25-5.351h2.521v5.2h1.023ZM28.035,8.179V6.736c0-.574.056-1.428.084-1.989h-.057c-.223.49-.476,1-.728,1.5L26.158,8.179Z" stroke="#fff" stroke-width="0.513"/></symbol><symbol id="New_Symbol_7" data-name="New Symbol 7" viewBox="0 0 36.002 19.938"><path d="M1.474,3.1H4.419c3.2,0,5.25,1.584,5.25,5.17S7.62,13.537,4.562,13.537H1.474ZM4.29,11.632c1.761,0,2.962-.864,2.962-3.361S6.051,5.005,4.29,5.005H3.843v6.627Z" stroke="#fff" stroke-width="0.513"/><path d="M10.992,12.192C13.586,9.743,15.41,8,15.41,6.558a1.365,1.365,0,0,0-1.44-1.537,2.6,2.6,0,0,0-1.809,1.041L10.881,4.8A4.3,4.3,0,0,1,14.29,3.181a3.118,3.118,0,0,1,3.361,3.233c0,1.712-1.6,3.537-3.249,5.266a15.708,15.708,0,0,1,1.7-.128h2.048v1.985H10.992Z" stroke="#fff" stroke-width="0.513"/><path d="M19.969,11.632h2.209V5.757H20.273V4.3A7.075,7.075,0,0,0,22.8,3.373h1.729v8.259h1.905v1.905H19.969Z" stroke="#fff" stroke-width="0.513"/><path d="M28.737,10.8a3.221,3.221,0,0,0,2.225,1.025c.993,0,1.649-.432,1.649-1.2,0-.9-.528-1.457-2.737-1.457V7.5c1.824,0,2.4-.544,2.4-1.36,0-.7-.447-1.121-1.248-1.121a2.822,2.822,0,0,0-1.9.9l-1.184-1.44a4.771,4.771,0,0,1,3.2-1.3c2.1,0,3.5,1.008,3.5,2.784a2.4,2.4,0,0,1-1.7,2.258v.064a2.524,2.524,0,0,1,2.017,2.481c0,1.888-1.729,2.961-3.777,2.961a4.426,4.426,0,0,1-3.538-1.441Z" stroke="#fff" stroke-width="0.513"/></symbol><symbol id="New_Symbol_8" data-name="New Symbol 8" viewBox="0 0 31.566 17.51"><path d="M1.321,2.744H3.9c2.8,0,4.594,1.387,4.594,4.525S6.7,11.877,4.025,11.877h-2.7ZM3.787,10.21c1.541,0,2.591-.756,2.591-2.941S5.328,4.411,3.787,4.411H3.4v5.8Z" stroke="#fff" stroke-width="0.513"/><path d="M9.651,10.7c2.269-2.143,3.866-3.67,3.866-4.93a1.2,1.2,0,0,0-1.261-1.345,2.27,2.27,0,0,0-1.582.91L9.553,4.229a3.77,3.77,0,0,1,2.984-1.415,2.729,2.729,0,0,1,2.941,2.83c0,1.5-1.4,3.1-2.843,4.608a13.745,13.745,0,0,1,1.485-.112h1.793v1.737H9.651Z" stroke="#fff" stroke-width="0.513"/><path d="M17.505,10.21h1.933V5.069H17.771V3.794a6.2,6.2,0,0,0,2.214-.812H21.5V10.21h1.667v1.667h-5.66Z" stroke="#fff" stroke-width="0.513"/><path d="M24.435,7.4c0-3.026,1.274-4.581,3.18-4.581S30.794,4.369,30.794,7.4s-1.274,4.65-3.179,4.65S24.435,10.42,24.435,7.4Zm4.412,0c0-2.438-.532-2.984-1.232-2.984s-1.233.546-1.233,2.984.546,3.053,1.233,3.053S28.847,9.818,28.847,7.4Z" stroke="#fff" stroke-width="0.513"/></symbol><symbol id="New_Symbol_9" data-name="New Symbol 9" viewBox="0 0 36.001 19.938"><path d="M1.473,3.1H4.418c3.2,0,5.25,1.584,5.25,5.17S7.62,13.537,4.562,13.537H1.473Zm2.818,8.531c1.76,0,2.96-.864,2.96-3.361s-1.2-3.266-2.96-3.266H3.842v6.627Z" stroke="#fff" stroke-width="0.513"/><path d="M10.993,12.192C13.585,9.743,15.411,8,15.411,6.558A1.366,1.366,0,0,0,13.97,5.021a2.6,2.6,0,0,0-1.809,1.041L10.88,4.8a4.307,4.307,0,0,1,3.41-1.616,3.118,3.118,0,0,1,3.361,3.233c0,1.712-1.6,3.537-3.249,5.266a15.727,15.727,0,0,1,1.7-.128h2.048v1.985H10.993Z" stroke="#fff" stroke-width="0.513"/><path d="M19.441,8.415c0-3.458,1.456-5.234,3.633-5.234s3.634,1.776,3.634,5.234-1.457,5.314-3.634,5.314S19.441,11.872,19.441,8.415Zm5.042,0c0-2.786-.608-3.41-1.409-3.41-.784,0-1.408.624-1.408,3.41,0,2.769.624,3.489,1.408,3.489C23.875,11.9,24.483,11.184,24.483,8.415Z" stroke="#fff" stroke-width="0.513"/><path d="M29.7,8.447V8.382a2.933,2.933,0,0,1-1.361-2.4c0-1.728,1.361-2.8,3.249-2.8a2.779,2.779,0,0,1,3.09,2.784A2.74,2.74,0,0,1,33.347,8.19v.064a2.913,2.913,0,0,1,1.761,2.658c0,1.6-1.441,2.817-3.6,2.817-2.032,0-3.537-1.137-3.537-2.786A2.786,2.786,0,0,1,29.7,8.447ZM31.555,12.1a1.212,1.212,0,0,0,1.36-1.264c0-.9-.864-1.233-2.144-1.777a2.267,2.267,0,0,0-.785,1.616A1.444,1.444,0,0,0,31.555,12.1Zm1.216-5.971a1.19,1.19,0,0,0-1.232-1.312A1.075,1.075,0,0,0,30.4,5.981c0,.833.7,1.233,1.745,1.633A2.275,2.275,0,0,0,32.771,6.125Z" stroke="#fff" stroke-width="0.513"/></symbol><symbol id="New_Symbol_10" data-name="New Symbol 10" viewBox="0 0 31.566 17.51"><path d="M1.321,2.744H3.9c2.8,0,4.594,1.387,4.594,4.525S6.7,11.877,4.025,11.877h-2.7ZM3.787,10.21c1.541,0,2.591-.756,2.591-2.941S5.328,4.411,3.787,4.411H3.4v5.8Z" stroke="#fff" stroke-width="0.513"/><path d="M9.651,10.7c2.269-2.143,3.866-3.67,3.866-4.93a1.2,1.2,0,0,0-1.261-1.345,2.27,2.27,0,0,0-1.582.91L9.553,4.229a3.77,3.77,0,0,1,2.984-1.415,2.729,2.729,0,0,1,2.941,2.83c0,1.5-1.4,3.1-2.843,4.608a13.745,13.745,0,0,1,1.485-.112h1.793v1.737H9.651Z" stroke="#fff" stroke-width="0.513"/><path d="M17.505,10.21h1.933V5.069H17.771V3.794a6.2,6.2,0,0,0,2.214-.812H21.5V10.21h1.667v1.667h-5.66Z" stroke="#fff" stroke-width="0.513"/><path d="M24.435,10.7C26.7,8.557,28.3,7.03,28.3,5.77A1.2,1.2,0,0,0,27.04,4.425a2.27,2.27,0,0,0-1.582.91L24.337,4.229A3.767,3.767,0,0,1,27.32,2.814a2.73,2.73,0,0,1,2.942,2.83c0,1.5-1.4,3.1-2.844,4.608A13.783,13.783,0,0,1,28.9,10.14H30.7v1.737H24.435Z" stroke="#fff" stroke-width="0.513"/></symbol><symbol id="New_Symbol_11" data-name="New Symbol 11" viewBox="0 0 36.001 19.938"><path d="M1.474,3.1H4.419c3.2,0,5.25,1.585,5.25,5.17S7.62,13.537,4.562,13.537H1.474ZM4.29,11.632c1.761,0,2.962-.864,2.962-3.361S6.051,5.006,4.29,5.006H3.842v6.626Z" stroke="#fff" stroke-width="0.513"/><path d="M10.992,12.192C13.586,9.744,15.41,8,15.41,6.558a1.366,1.366,0,0,0-1.44-1.537,2.6,2.6,0,0,0-1.809,1.041L10.881,4.8A4.3,4.3,0,0,1,14.29,3.181a3.118,3.118,0,0,1,3.361,3.233c0,1.713-1.6,3.538-3.249,5.266a15.708,15.708,0,0,1,1.7-.128h2.048v1.985H10.992Z" stroke="#fff" stroke-width="0.513"/><path d="M19.969,11.632h2.209V5.758H20.273V4.3A7.075,7.075,0,0,0,22.8,3.373h1.729v8.259h1.905v1.905H19.969Z" stroke="#fff" stroke-width="0.513"/><path d="M35.364,11.1H34.2v2.433H32V11.1H27.6V9.487l3.713-6.114H34.2V9.312h1.169ZM32,9.312V7.663c0-.657.063-1.633.1-2.273h-.064c-.257.56-.545,1.136-.833,1.713L29.857,9.312Z" stroke="#fff" stroke-width="0.513"/></symbol><symbol id="New_Symbol_12" data-name="New Symbol 12" viewBox="0 0 36.001 19.938"><path d="M1.473,3.1H4.418c3.2,0,5.25,1.585,5.25,5.17S7.62,13.537,4.562,13.537H1.473Zm2.818,8.532c1.76,0,2.96-.865,2.96-3.362s-1.2-3.265-2.96-3.265H3.842v6.627Z" stroke="#fff" stroke-width="0.513"/><path d="M10.993,12.192C13.585,9.743,15.411,8,15.411,6.559A1.367,1.367,0,0,0,13.97,5.021a2.6,2.6,0,0,0-1.809,1.041L10.88,4.8a4.308,4.308,0,0,1,3.41-1.617,3.118,3.118,0,0,1,3.361,3.233c0,1.713-1.6,3.537-3.249,5.267a15.477,15.477,0,0,1,1.7-.128h2.048v1.984H10.993Z" stroke="#fff" stroke-width="0.513"/><path d="M19.441,8.415c0-3.457,1.456-5.234,3.633-5.234s3.634,1.777,3.634,5.234-1.457,5.314-3.634,5.314S19.441,11.872,19.441,8.415Zm5.042,0c0-2.785-.608-3.409-1.409-3.409-.784,0-1.408.624-1.408,3.409S22.29,11.9,23.074,11.9C23.875,11.9,24.483,11.185,24.483,8.415Z" stroke="#fff" stroke-width="0.513"/><path d="M29.234,11.1a2.261,2.261,0,0,0,1.568.72c1.137,0,2.017-.8,2.1-3.169a2.86,2.86,0,0,1-2.033,1.073A2.824,2.824,0,0,1,27.841,6.59a3.269,3.269,0,0,1,3.377-3.409c1.97,0,3.858,1.472,3.858,5.042,0,3.794-1.985,5.506-4.114,5.506a4.142,4.142,0,0,1-2.977-1.216Zm3.617-4.049c-.208-1.6-.864-2.114-1.584-2.114-.689,0-1.281.5-1.281,1.649,0,1.073.576,1.472,1.345,1.472A1.8,1.8,0,0,0,32.851,7.055Z" stroke="#fff" stroke-width="0.513"/></symbol><symbol id="New_Symbol_13" data-name="New Symbol 13" viewBox="0 0 36.001 19.938"><path d="M1.473,3.1H4.418c3.2,0,5.25,1.585,5.25,5.17S7.62,13.537,4.562,13.537H1.473Zm2.818,8.532c1.76,0,2.96-.865,2.96-3.362s-1.2-3.265-2.96-3.265H3.842v6.627Z" stroke="#fff" stroke-width="0.513"/><path d="M10.993,12.192C13.585,9.743,15.411,8,15.411,6.559A1.367,1.367,0,0,0,13.97,5.021a2.6,2.6,0,0,0-1.809,1.041L10.88,4.8a4.308,4.308,0,0,1,3.41-1.617,3.118,3.118,0,0,1,3.361,3.233c0,1.713-1.6,3.538-3.249,5.267a15.477,15.477,0,0,1,1.7-.128h2.048v1.984H10.993Z" stroke="#fff" stroke-width="0.513"/><path d="M20.289,10.8a3.218,3.218,0,0,0,2.225,1.024c.992,0,1.649-.431,1.649-1.2,0-.9-.528-1.457-2.737-1.457V7.5c1.824,0,2.4-.545,2.4-1.36,0-.7-.449-1.122-1.249-1.122a2.821,2.821,0,0,0-1.905.9l-1.184-1.44a4.772,4.772,0,0,1,3.2-1.3c2.1,0,3.506,1.008,3.506,2.785a2.4,2.4,0,0,1-1.7,2.257v.064a2.524,2.524,0,0,1,2.017,2.481c0,1.889-1.729,2.961-3.778,2.961a4.422,4.422,0,0,1-3.537-1.44Z" stroke="#fff" stroke-width="0.513"/><path d="M27.889,8.415c0-3.457,1.457-5.234,3.633-5.234s3.634,1.777,3.634,5.234-1.457,5.314-3.634,5.314S27.889,11.872,27.889,8.415Zm5.042,0c0-2.785-.608-3.409-1.409-3.409-.784,0-1.408.624-1.408,3.409s.624,3.489,1.408,3.489C32.323,11.9,32.931,11.185,32.931,8.415Z" stroke="#fff" stroke-width="0.513"/></symbol><symbol id="New_Symbol_14" data-name="New Symbol 14" viewBox="0 0 36.001 19.938"><path d="M1.473,3.1H4.418c3.2,0,5.25,1.585,5.25,5.17S7.62,13.537,4.562,13.537H1.473Zm2.818,8.532c1.76,0,2.96-.865,2.96-3.362s-1.2-3.265-2.96-3.265H3.842v6.627Z" stroke="#fff" stroke-width="0.513"/><path d="M10.993,12.192C13.585,9.743,15.411,8,15.411,6.559A1.367,1.367,0,0,0,13.97,5.021a2.6,2.6,0,0,0-1.809,1.041L10.88,4.8a4.308,4.308,0,0,1,3.41-1.617,3.118,3.118,0,0,1,3.361,3.233c0,1.713-1.6,3.537-3.249,5.267a15.477,15.477,0,0,1,1.7-.128h2.048v1.984H10.993Z" stroke="#fff" stroke-width="0.513"/><path d="M19.441,12.192C22.034,9.743,23.859,8,23.859,6.559a1.367,1.367,0,0,0-1.441-1.538,2.6,2.6,0,0,0-1.809,1.041L19.329,4.8a4.306,4.306,0,0,1,3.409-1.617A3.119,3.119,0,0,1,26.1,6.414c0,1.713-1.6,3.537-3.25,5.267a15.477,15.477,0,0,1,1.7-.128H26.6v1.984H19.441Z" stroke="#fff" stroke-width="0.513"/><path d="M29.234,11.1a2.261,2.261,0,0,0,1.568.72c1.137,0,2.017-.8,2.1-3.169a2.86,2.86,0,0,1-2.033,1.073A2.824,2.824,0,0,1,27.841,6.59a3.269,3.269,0,0,1,3.377-3.409c1.97,0,3.858,1.472,3.858,5.042,0,3.794-1.985,5.506-4.114,5.506a4.142,4.142,0,0,1-2.977-1.216Zm3.617-4.049c-.208-1.6-.864-2.114-1.584-2.114-.689,0-1.281.5-1.281,1.649,0,1.073.576,1.472,1.345,1.472A1.8,1.8,0,0,0,32.851,7.055Z" stroke="#fff" stroke-width="0.513"/></symbol><symbol id="New_Symbol_15" data-name="New Symbol 15" viewBox="0 0 36.001 19.938"><path d="M1.473,3.1H4.418c3.2,0,5.25,1.585,5.25,5.17S7.62,13.537,4.562,13.537H1.473Zm2.818,8.532c1.76,0,2.96-.865,2.96-3.362s-1.2-3.265-2.96-3.265H3.842v6.627Z" stroke="#fff" stroke-width="0.513"/><path d="M10.993,12.192C13.585,9.743,15.411,8,15.411,6.559A1.367,1.367,0,0,0,13.97,5.021a2.6,2.6,0,0,0-1.809,1.041L10.88,4.8a4.308,4.308,0,0,1,3.41-1.617,3.118,3.118,0,0,1,3.361,3.233c0,1.713-1.6,3.537-3.249,5.267a15.477,15.477,0,0,1,1.7-.128h2.048v1.984H10.993Z" stroke="#fff" stroke-width="0.513"/><path d="M19.441,12.192C22.034,9.743,23.859,8,23.859,6.559a1.367,1.367,0,0,0-1.441-1.538,2.6,2.6,0,0,0-1.809,1.041L19.329,4.8a4.306,4.306,0,0,1,3.409-1.617A3.119,3.119,0,0,1,26.1,6.414c0,1.713-1.6,3.537-3.25,5.267a15.477,15.477,0,0,1,1.7-.128H26.6v1.984H19.441Z" stroke="#fff" stroke-width="0.513"/><path d="M29.7,8.447V8.383a2.934,2.934,0,0,1-1.361-2.4c0-1.729,1.361-2.8,3.249-2.8a2.779,2.779,0,0,1,3.09,2.785,2.742,2.742,0,0,1-1.329,2.225v.064a2.911,2.911,0,0,1,1.761,2.657c0,1.6-1.441,2.817-3.6,2.817-2.032,0-3.537-1.136-3.537-2.785A2.787,2.787,0,0,1,29.7,8.447Zm1.857,3.65a1.212,1.212,0,0,0,1.36-1.265c0-.9-.864-1.232-2.144-1.776a2.267,2.267,0,0,0-.785,1.616A1.445,1.445,0,0,0,31.555,12.1Zm1.216-5.971a1.191,1.191,0,0,0-1.232-1.313A1.076,1.076,0,0,0,30.4,5.982c0,.832.7,1.233,1.745,1.632A2.274,2.274,0,0,0,32.771,6.126Z" stroke="#fff" stroke-width="0.513"/></symbol><symbol id="New_Symbol_16" data-name="New Symbol 16" viewBox="0 0 36.001 19.938"><path d="M1.473,3.1H4.418c3.2,0,5.25,1.585,5.25,5.17S7.62,13.537,4.562,13.537H1.473Zm2.818,8.532c1.76,0,2.96-.865,2.96-3.362s-1.2-3.265-2.96-3.265H3.842v6.627Z" stroke="#fff" stroke-width="0.513"/><path d="M10.993,12.192C13.585,9.743,15.411,8,15.411,6.559A1.367,1.367,0,0,0,13.97,5.021a2.6,2.6,0,0,0-1.809,1.041L10.88,4.8a4.308,4.308,0,0,1,3.41-1.617,3.118,3.118,0,0,1,3.361,3.233c0,1.713-1.6,3.537-3.249,5.267a15.477,15.477,0,0,1,1.7-.128h2.048v1.984H10.993Z" stroke="#fff" stroke-width="0.513"/><path d="M19.441,12.192C22.034,9.743,23.859,8,23.859,6.559a1.367,1.367,0,0,0-1.441-1.538,2.6,2.6,0,0,0-1.809,1.041L19.329,4.8a4.306,4.306,0,0,1,3.409-1.617A3.119,3.119,0,0,1,26.1,6.414c0,1.713-1.6,3.537-3.25,5.267a15.477,15.477,0,0,1,1.7-.128H26.6v1.984H19.441Z" stroke="#fff" stroke-width="0.513"/><path d="M32.563,5.357H28V3.373h7.075v1.44c-2.353,2.85-2.689,4.754-2.865,8.724H29.842A13.613,13.613,0,0,1,32.563,5.357Z" stroke="#fff" stroke-width="0.513"/></symbol><symbol id="New_Symbol_19" data-name="New Symbol 19" viewBox="0 0 36.001 19.938"><path d="M1.474,3.1H4.419c3.2,0,5.25,1.585,5.25,5.17S7.62,13.537,4.562,13.537H1.474ZM4.29,11.633c1.761,0,2.962-.865,2.962-3.362S6.051,5.006,4.29,5.006H3.842v6.627Z" stroke="#fff" stroke-width="0.513"/><path d="M10.992,12.192C13.586,9.743,15.41,8,15.41,6.559a1.365,1.365,0,0,0-1.44-1.538,2.6,2.6,0,0,0-1.809,1.041L10.881,4.8A4.3,4.3,0,0,1,14.29,3.181a3.118,3.118,0,0,1,3.361,3.233c0,1.713-1.6,3.537-3.249,5.267a15.458,15.458,0,0,1,1.7-.128h2.048v1.984H10.992Z" stroke="#fff" stroke-width="0.513"/><path d="M19.44,12.192C22.034,9.743,23.858,8,23.858,6.559a1.365,1.365,0,0,0-1.44-1.538,2.6,2.6,0,0,0-1.809,1.041L19.329,4.8a4.3,4.3,0,0,1,3.409-1.617A3.119,3.119,0,0,1,26.1,6.414c0,1.713-1.6,3.537-3.249,5.267a15.422,15.422,0,0,1,1.7-.128H26.6v1.984H19.44Z" stroke="#fff" stroke-width="0.513"/><path d="M33.8,5.806a2.335,2.335,0,0,0-1.585-.72c-1.12,0-2.017.8-2.1,3.169a2.86,2.86,0,0,1,2.032-1.072,2.816,2.816,0,0,1,3.026,3.136,3.268,3.268,0,0,1-3.377,3.41c-1.969,0-3.842-1.472-3.842-5.041,0-3.794,1.969-5.507,4.113-5.507A4.039,4.039,0,0,1,35.028,4.4Zm-.769,4.513c0-1.072-.56-1.471-1.329-1.471a1.84,1.84,0,0,0-1.536,1.007c.208,1.6.88,2.114,1.585,2.114S33.027,11.473,33.027,10.319Z" stroke="#fff" stroke-width="0.513"/></symbol><symbol id="New_Symbol_21" data-name="New Symbol 21" viewBox="0 0 36.001 19.938"><path d="M1.474,3.1H4.419c3.2,0,5.25,1.585,5.25,5.17S7.62,13.537,4.562,13.537H1.474ZM4.29,11.633c1.761,0,2.962-.865,2.962-3.362S6.051,5.006,4.29,5.006H3.842v6.627Z" stroke="#fff" stroke-width="0.513"/><path d="M10.992,12.192C13.586,9.743,15.41,8,15.41,6.559a1.365,1.365,0,0,0-1.44-1.538,2.6,2.6,0,0,0-1.809,1.041L10.881,4.8A4.3,4.3,0,0,1,14.29,3.181a3.118,3.118,0,0,1,3.361,3.233c0,1.713-1.6,3.537-3.249,5.267a15.458,15.458,0,0,1,1.7-.128h2.048v1.984H10.992Z" stroke="#fff" stroke-width="0.513"/><path d="M19.44,12.192C22.034,9.743,23.858,8,23.858,6.559a1.365,1.365,0,0,0-1.44-1.538,2.6,2.6,0,0,0-1.809,1.041L19.329,4.8a4.3,4.3,0,0,1,3.409-1.617A3.119,3.119,0,0,1,26.1,6.414c0,1.713-1.6,3.537-3.249,5.267a15.422,15.422,0,0,1,1.7-.128H26.6v1.984H19.44Z" stroke="#fff" stroke-width="0.513"/><path d="M28.722,10.816a3.267,3.267,0,0,0,2.192,1.008,1.509,1.509,0,0,0,1.713-1.584,1.464,1.464,0,0,0-1.6-1.569,2.407,2.407,0,0,0-1.5.513l-1.055-.673.288-5.138h5.762V5.357h-3.73L30.61,7.263a2.549,2.549,0,0,1,1.137-.241,2.975,2.975,0,0,1,3.233,3.154,3.508,3.508,0,0,1-3.73,3.553,4.831,4.831,0,0,1-3.585-1.424Z" stroke="#fff" stroke-width="0.513"/></symbol><symbol id="New_Symbol_23" data-name="New Symbol 23" viewBox="0 0 36.002 19.938"><path d="M1.474,3.1H4.419c3.2,0,5.25,1.585,5.25,5.17S7.62,13.537,4.562,13.537H1.474ZM4.29,11.633c1.761,0,2.962-.865,2.962-3.362S6.051,5.006,4.29,5.006H3.843v6.627Z" stroke="#fff" stroke-width="0.513"/><path d="M10.992,12.192C13.586,9.743,15.41,8,15.41,6.559a1.365,1.365,0,0,0-1.44-1.538,2.6,2.6,0,0,0-1.809,1.041L10.881,4.8A4.3,4.3,0,0,1,14.29,3.181a3.118,3.118,0,0,1,3.361,3.233c0,1.713-1.6,3.537-3.249,5.267a15.458,15.458,0,0,1,1.7-.128h2.048v1.984H10.992Z" stroke="#fff" stroke-width="0.513"/><path d="M19.44,12.192C22.034,9.743,23.858,8,23.858,6.559a1.365,1.365,0,0,0-1.44-1.538,2.6,2.6,0,0,0-1.809,1.041L19.329,4.8a4.3,4.3,0,0,1,3.409-1.617A3.119,3.119,0,0,1,26.1,6.414c0,1.713-1.6,3.537-3.249,5.267a15.422,15.422,0,0,1,1.7-.128H26.6v1.984H19.44Z" stroke="#fff" stroke-width="0.513"/><path d="M35.364,11.1H34.2v2.433H32V11.1H27.6V9.487l3.713-6.114H34.2V9.312h1.169ZM32,9.312V7.663c0-.656.063-1.633.1-2.273h-.064c-.257.56-.545,1.136-.833,1.713L29.858,9.312Z" stroke="#fff" stroke-width="0.513"/></symbol><symbol id="New_Symbol_25" data-name="New Symbol 25" viewBox="0 0 36.002 19.938"><path d="M1.474,3.1H4.419c3.2,0,5.25,1.585,5.25,5.17S7.62,13.537,4.562,13.537H1.474ZM4.29,11.633c1.761,0,2.962-.865,2.962-3.362S6.051,5.006,4.29,5.006H3.843v6.627Z" stroke="#fff" stroke-width="0.513"/><path d="M10.992,12.192C13.586,9.743,15.41,8,15.41,6.559a1.365,1.365,0,0,0-1.44-1.538,2.6,2.6,0,0,0-1.809,1.041L10.881,4.8A4.3,4.3,0,0,1,14.29,3.181a3.118,3.118,0,0,1,3.361,3.233c0,1.713-1.6,3.537-3.249,5.267a15.458,15.458,0,0,1,1.7-.128h2.048v1.984H10.992Z" stroke="#fff" stroke-width="0.513"/><path d="M19.44,12.192C22.034,9.743,23.858,8,23.858,6.559a1.365,1.365,0,0,0-1.44-1.538,2.6,2.6,0,0,0-1.809,1.041L19.329,4.8a4.3,4.3,0,0,1,3.409-1.617A3.119,3.119,0,0,1,26.1,6.414c0,1.713-1.6,3.537-3.249,5.267a15.422,15.422,0,0,1,1.7-.128H26.6v1.984H19.44Z" stroke="#fff" stroke-width="0.513"/><path d="M28.737,10.8a3.22,3.22,0,0,0,2.225,1.024c.993,0,1.649-.431,1.649-1.2,0-.9-.528-1.457-2.737-1.457V7.5c1.824,0,2.4-.545,2.4-1.36,0-.7-.447-1.122-1.248-1.122a2.819,2.819,0,0,0-1.9.9l-1.184-1.44a4.768,4.768,0,0,1,3.2-1.3c2.1,0,3.5,1.008,3.5,2.785a2.4,2.4,0,0,1-1.7,2.257v.064a2.524,2.524,0,0,1,2.017,2.481c0,1.889-1.729,2.961-3.777,2.961a4.426,4.426,0,0,1-3.538-1.44Z" stroke="#fff" stroke-width="0.513"/></symbol><symbol id="New_Symbol_24" data-name="New Symbol 24" viewBox="0 0 36.001 19.938"><path d="M1.474,3.1H4.419c3.2,0,5.25,1.585,5.25,5.17S7.62,13.537,4.562,13.537H1.474ZM4.29,11.633c1.761,0,2.962-.865,2.962-3.362S6.051,5.006,4.29,5.006H3.842v6.627Z" stroke="#fff" stroke-width="0.513"/><path d="M10.992,12.192C13.586,9.743,15.41,8,15.41,6.559a1.365,1.365,0,0,0-1.44-1.538,2.6,2.6,0,0,0-1.809,1.041L10.881,4.8A4.3,4.3,0,0,1,14.29,3.181a3.118,3.118,0,0,1,3.361,3.233c0,1.713-1.6,3.538-3.249,5.267a15.458,15.458,0,0,1,1.7-.128h2.048v1.984H10.992Z" stroke="#fff" stroke-width="0.513"/><path d="M19.44,12.192C22.034,9.743,23.858,8,23.858,6.559a1.365,1.365,0,0,0-1.44-1.538,2.6,2.6,0,0,0-1.809,1.041L19.329,4.8a4.3,4.3,0,0,1,3.409-1.617A3.119,3.119,0,0,1,26.1,6.414c0,1.713-1.6,3.538-3.249,5.267a15.422,15.422,0,0,1,1.7-.128H26.6v1.984H19.44Z" stroke="#fff" stroke-width="0.513"/><path d="M27.889,12.192C30.482,9.743,32.307,8,32.307,6.559a1.366,1.366,0,0,0-1.441-1.538,2.593,2.593,0,0,0-1.808,1.041L27.777,4.8a4.305,4.305,0,0,1,3.41-1.617,3.118,3.118,0,0,1,3.361,3.233c0,1.713-1.6,3.538-3.249,5.267a15.459,15.459,0,0,1,1.7-.128h2.049v1.984H27.889Z" stroke="#fff" stroke-width="0.513"/></symbol><symbol id="New_Symbol_22" data-name="New Symbol 22" viewBox="0 0 36.001 19.938"><path d="M1.474,3.1H4.419c3.2,0,5.25,1.585,5.25,5.17S7.62,13.537,4.562,13.537H1.474ZM4.29,11.633c1.761,0,2.962-.865,2.962-3.362S6.051,5.006,4.29,5.006H3.842v6.627Z" stroke="#fff" stroke-width="0.513"/><path d="M10.992,12.192C13.586,9.743,15.41,8,15.41,6.559a1.365,1.365,0,0,0-1.44-1.538,2.6,2.6,0,0,0-1.809,1.041L10.881,4.8A4.3,4.3,0,0,1,14.29,3.181a3.118,3.118,0,0,1,3.361,3.233c0,1.713-1.6,3.538-3.249,5.267a15.458,15.458,0,0,1,1.7-.128h2.048v1.984H10.992Z" stroke="#fff" stroke-width="0.513"/><path d="M19.44,12.192C22.034,9.743,23.858,8,23.858,6.559a1.365,1.365,0,0,0-1.44-1.538,2.6,2.6,0,0,0-1.809,1.041L19.329,4.8a4.3,4.3,0,0,1,3.409-1.617A3.119,3.119,0,0,1,26.1,6.414c0,1.713-1.6,3.538-3.249,5.267a15.422,15.422,0,0,1,1.7-.128H26.6v1.984H19.44Z" stroke="#fff" stroke-width="0.513"/><path d="M28.417,11.633h2.209V5.758h-1.9V4.3a7.058,7.058,0,0,0,2.528-.929h1.729v8.26h1.905v1.9H28.417Z" stroke="#fff" stroke-width="0.513"/></symbol><symbol id="New_Symbol_20" data-name="New Symbol 20" viewBox="0 0 36.002 19.938"><path d="M1.474,3.1H4.419c3.2,0,5.25,1.585,5.25,5.17S7.62,13.537,4.562,13.537H1.474ZM4.29,11.633c1.761,0,2.962-.865,2.962-3.362S6.051,5.006,4.29,5.006H3.843v6.627Z" stroke="#fff" stroke-width="0.513"/><path d="M10.992,12.192C13.586,9.743,15.41,8,15.41,6.559a1.365,1.365,0,0,0-1.44-1.538,2.6,2.6,0,0,0-1.809,1.041L10.881,4.8A4.3,4.3,0,0,1,14.29,3.181a3.118,3.118,0,0,1,3.361,3.233c0,1.713-1.6,3.538-3.249,5.267a15.458,15.458,0,0,1,1.7-.128h2.048v1.984H10.992Z" stroke="#fff" stroke-width="0.513"/><path d="M19.44,12.192C22.034,9.743,23.858,8,23.858,6.559a1.365,1.365,0,0,0-1.44-1.538,2.6,2.6,0,0,0-1.809,1.041L19.329,4.8a4.3,4.3,0,0,1,3.409-1.617A3.119,3.119,0,0,1,26.1,6.414c0,1.713-1.6,3.538-3.249,5.267a15.422,15.422,0,0,1,1.7-.128H26.6v1.984H19.44Z" stroke="#fff" stroke-width="0.513"/><path d="M27.889,8.415c0-3.457,1.457-5.234,3.633-5.234s3.634,1.777,3.634,5.234-1.457,5.314-3.634,5.314S27.889,11.872,27.889,8.415Zm5.042,0c0-2.785-.608-3.409-1.409-3.409-.784,0-1.408.624-1.408,3.409s.624,3.489,1.408,3.489C32.323,11.9,32.931,11.185,32.931,8.415Z" stroke="#fff" stroke-width="0.513"/></symbol><symbol id="New_Symbol_18" data-name="New Symbol 18" viewBox="0 0 36.002 19.938"><path d="M1.474,3.1H4.419c3.2,0,5.25,1.585,5.25,5.17S7.62,13.537,4.562,13.537H1.474ZM4.29,11.633c1.761,0,2.962-.865,2.962-3.362S6.051,5.006,4.29,5.006H3.843v6.627Z" stroke="#fff" stroke-width="0.513"/><path d="M10.992,12.192C13.586,9.743,15.41,8,15.41,6.559a1.365,1.365,0,0,0-1.44-1.538,2.6,2.6,0,0,0-1.809,1.041L10.881,4.8A4.3,4.3,0,0,1,14.29,3.181a3.118,3.118,0,0,1,3.361,3.233c0,1.713-1.6,3.537-3.249,5.267a15.458,15.458,0,0,1,1.7-.128h2.048v1.984H10.992Z" stroke="#fff" stroke-width="0.513"/><path d="M19.969,11.633h2.209V5.758H20.273V4.3A7.075,7.075,0,0,0,22.8,3.373h1.729v8.26h1.905v1.9H19.969Z" stroke="#fff" stroke-width="0.513"/><path d="M29.233,11.1a2.263,2.263,0,0,0,1.57.72c1.135,0,2.016-.8,2.1-3.169a2.862,2.862,0,0,1-2.033,1.073A2.824,2.824,0,0,1,27.841,6.59a3.27,3.27,0,0,1,3.378-3.409c1.969,0,3.857,1.472,3.857,5.042,0,3.794-1.985,5.506-4.114,5.506a4.142,4.142,0,0,1-2.977-1.216Zm3.619-4.049c-.209-1.6-.866-2.114-1.585-2.114-.689,0-1.281.5-1.281,1.649,0,1.073.576,1.472,1.344,1.472A1.8,1.8,0,0,0,32.852,7.055Z" stroke="#fff" stroke-width="0.513"/></symbol><symbol id="New_Symbol_17" data-name="New Symbol 17" viewBox="0 0 36.002 19.938"><path d="M1.474,3.1H4.419c3.2,0,5.25,1.585,5.25,5.17S7.62,13.537,4.562,13.537H1.474ZM4.29,11.633c1.761,0,2.962-.865,2.962-3.362S6.051,5.006,4.29,5.006H3.843v6.627Z" stroke="#fff" stroke-width="0.513"/><path d="M10.992,12.192C13.586,9.743,15.41,8,15.41,6.559a1.365,1.365,0,0,0-1.44-1.538,2.6,2.6,0,0,0-1.809,1.041L10.881,4.8A4.3,4.3,0,0,1,14.29,3.181a3.118,3.118,0,0,1,3.361,3.233c0,1.713-1.6,3.538-3.249,5.267a15.458,15.458,0,0,1,1.7-.128h2.048v1.984H10.992Z" stroke="#fff" stroke-width="0.513"/><path d="M19.969,11.633h2.209V5.758H20.273V4.3A7.056,7.056,0,0,0,22.8,3.373h1.729v8.26h1.905v1.9H19.969Z" stroke="#fff" stroke-width="0.513"/><path d="M29.7,8.447V8.383a2.932,2.932,0,0,1-1.361-2.4c0-1.729,1.361-2.8,3.25-2.8a2.778,2.778,0,0,1,3.089,2.785,2.743,2.743,0,0,1-1.328,2.225v.064a2.913,2.913,0,0,1,1.76,2.657c0,1.6-1.441,2.817-3.6,2.817-2.033,0-3.538-1.136-3.538-2.785A2.787,2.787,0,0,1,29.7,8.447Zm1.857,3.65a1.212,1.212,0,0,0,1.36-1.265c0-.9-.864-1.232-2.144-1.776a2.267,2.267,0,0,0-.785,1.616A1.445,1.445,0,0,0,31.555,12.1Zm1.216-5.971a1.191,1.191,0,0,0-1.232-1.313A1.075,1.075,0,0,0,30.4,5.982c0,.832.7,1.233,1.744,1.632A2.271,2.271,0,0,0,32.771,6.126Z" stroke="#fff" stroke-width="0.513"/></symbol><symbol id="stairs_on" data-name="stairs on" viewBox="0 0 76.108 84.108"><path id="Union_4-4" data-name="Union 4-4" d="M33.1,72.823H22.054a20,20,0,0,1-20-20V22.054a20,20,0,0,1,20-20h32a20,20,0,0,1,20,20V52.823a20,20,0,0,1-20,20H44.575l-5.737,9.231Z" stroke="#fff" stroke-linecap="round" stroke-linejoin="round" stroke-width="4.108"/><path id="stairs_on-3" data-name="stairs on" d="M43.766,22.019v7.32a1.541,1.541,0,0,1-1.537,1.543H34.9a2.554,2.554,0,0,0-2.555,2.549h0v7.32a1.541,1.541,0,0,1-1.537,1.543H23.473a2.55,2.55,0,0,0-2.552,2.548v6.341a2.551,2.551,0,0,0,2.552,2.549h29.16a2.553,2.553,0,0,0,2.555-2.549h0V22.019a2.552,2.552,0,0,0-2.555-2.548H46.319a2.551,2.551,0,0,0-2.553,2.548Z" fill="#fff"/></symbol><symbol id="lifts_on" data-name="lifts on" viewBox="0 0 76.108 84.108"><path id="Union_4-4-6" data-name="Union 4-4" d="M33.1,72.823H22.054a20,20,0,0,1-20-20V22.054a20,20,0,0,1,20-20h32a20,20,0,0,1,20,20V52.823a20,20,0,0,1-20,20H44.575l-5.737,9.231Z" stroke="#fff" stroke-linecap="round" stroke-linejoin="round" stroke-width="4.108"/><g id="Group_787-3" data-name="Group 787-3"><path id="Path_127-3" data-name="Path 127-3" d="M42.052,35.786l7.358-9.029,7.018,9.029" fill="none" stroke="#fff" stroke-linecap="round" stroke-linejoin="round" stroke-width="6.156"/><line id="Line_43-3" data-name="Line 43-3" x1="49.416" y1="48.49" x2="49.416" y2="26.759" stroke-width="6.156" stroke="#fff" stroke-linecap="round" stroke-linejoin="round" fill="none"/></g><g id="Group_788-3" data-name="Group 788-3"><path id="Path_128-3" data-name="Path 128-3" d="M19.68,39.461l7.357,9.029,7.018-9.029" fill="none" stroke="#fff" stroke-linecap="round" stroke-linejoin="round" stroke-width="6.156"/><line id="Line_44-3" data-name="Line 44-3" x1="27.037" y1="26.757" x2="27.037" y2="48.488" stroke-width="6.156" stroke="#fff" stroke-linecap="round" stroke-linejoin="round" fill="none"/></g></symbol><symbol id="accessible_on" data-name="accessible on" viewBox="0 0 76.108 84.108"><path id="Union_4-4-7" data-name="Union 4-4" d="M33.1,72.823H22.054a20,20,0,0,1-20-20V22.054a20,20,0,0,1,20-20h32a20,20,0,0,1,20,20V52.823a20,20,0,0,1-20,20H44.575l-5.737,9.231Z" stroke="#fff" stroke-linecap="round" stroke-linejoin="round" stroke-width="4.108"/><g id="accessible-2-3" data-name="accessible-2"><g id="Group_1512-2-3" data-name="Group 1512-2"><path id="Path_142-2-2-3" data-name="Path 142-2-2" d="M55.342,35.389a2.692,2.692,0,0,0-2.1-.845l-6.254.4a1.443,1.443,0,0,1-1.189-2.378l3.028-3.5a2.657,2.657,0,0,0,.634-2.945,3.262,3.262,0,0,0-1.264-1.676l-8.347-5.422a8.616,8.616,0,0,0-10.551.916l-3.028,2.814a2.877,2.877,0,0,0-.21,3.777,2.742,2.742,0,0,0,3.84.4c.06-.051.119-.1.175-.158l2.608-2.378a3.683,3.683,0,0,1,4.379-.4h0a1.439,1.439,0,0,1,.478,1.978l0,0a1.523,1.523,0,0,1-.151.2L32.1,32.274a1.5,1.5,0,0,1-.864.5,13.62,13.62,0,0,0-5.585,2.446,1.4,1.4,0,0,0-.376,1.93h0a1.056,1.056,0,0,0,.2.23l1.585,1.585a1.48,1.48,0,0,0,1.871.159,9.182,9.182,0,0,1,5.153-1.562,8.965,8.965,0,0,1,9.08,8.849V46.6A9.113,9.113,0,0,1,41.58,51.75a1.428,1.428,0,0,0,.155,1.828l1.554,1.565a1.458,1.458,0,0,0,2.062.007l.007-.007a1.31,1.31,0,0,0,.15-.174,14.263,14.263,0,0,0,2.707-8.351,11.387,11.387,0,0,0-.662-4.285,1.443,1.443,0,0,1,.864-1.847,1.632,1.632,0,0,1,.4-.083h0a1.444,1.444,0,0,1,1.514,1.364.883.883,0,0,1,0,.218l-.884,9.257a2.644,2.644,0,0,0,2.325,2.928h.41a2.745,2.745,0,0,0,2.742-2.516l1.261-14.269A2.27,2.27,0,0,0,55.342,35.389Z" fill="#fff"/><path id="Path_143-2-2-3" data-name="Path 143-2-2" d="M50.8,23.633a5.172,5.172,0,1,0-5.212-5.172h0A5.243,5.243,0,0,0,50.8,23.633Z" fill="#fff"/><path id="Path_144-2-2-3" data-name="Path 144-2-2" d="M34.125,55.59a9.021,9.021,0,0,1-9.116-8.918h0v-.134a9.969,9.969,0,0,1,1.146-4.447.95.95,0,0,0-.171-1.106l-2.326-2.307a.96.96,0,0,0-1.352,0h0a1.3,1.3,0,0,0-.119.147,13.726,13.726,0,0,0-2.271,7.7A14.153,14.153,0,0,0,34.1,60.647h.008a13.624,13.624,0,0,0,7.765-2.263.954.954,0,0,0,.15-1.462l-2.31-2.287a.956.956,0,0,0-1.154-.147A8.548,8.548,0,0,1,34.125,55.59Z" fill="#fff"/></g></g></symbol><symbol id="female_on" data-name="female on" viewBox="0 0 76.108 84.108"><path id="Union_4-4-8" data-name="Union 4-4" d="M33.1,72.823H22.054a20,20,0,0,1-20-20V22.054a20,20,0,0,1,20-20h32a20,20,0,0,1,20,20V52.823a20,20,0,0,1-20,20H44.575l-5.737,9.231Z" stroke="#fff" stroke-linecap="round" stroke-linejoin="round" stroke-width="4.108"/><g id="female-2-2" data-name="female-2"><path id="Path_9435-2-2" data-name="Path 9435-2" d="M44.391,35.733l1.431,2.752a1.778,1.778,0,0,0,1.582.987h0A1.82,1.82,0,0,0,49.2,37.626h0a1.738,1.738,0,0,0-.216-.828l-3.576-6.874a8.3,8.3,0,0,0-7.351-4.5h0a8.3,8.3,0,0,0-7.353,4.5L27.125,36.8a1.816,1.816,0,0,0,.746,2.458l.011.006a1.839,1.839,0,0,0,.844.215h0a1.779,1.779,0,0,0,1.582-.988l1.427-2.751a.1.1,0,0,1,.113-.057.091.091,0,0,1,.057.114h0L29.578,47.55a.994.994,0,0,0,.757,1.18h.034a.644.644,0,0,0,.2,0h1.753a.993.993,0,0,1,.988.988h0v8.887a1.892,1.892,0,0,0,1.858,1.926H35.2a1.913,1.913,0,0,0,1.893-1.919h0V49.722a.987.987,0,0,1,.984-.988h0a.987.987,0,0,1,.987.988h0v8.891a1.893,1.893,0,0,0,1.862,1.922h.031a1.892,1.892,0,0,0,1.892-1.892v-.027h0v-8.89a.988.988,0,0,1,.984-.988h1.753a.989.989,0,0,0,.988-.984h0a.845.845,0,0,0,0-.2L44.244,35.782a.116.116,0,0,1,.06-.154h0a.126.126,0,0,1,.156.065v.038Z" fill="#fff"/><circle id="Ellipse_521-2-2" data-name="Ellipse 521-2" cx="38.071" cy="19.254" r="5.057" fill="#fff"/></g></symbol><symbol id="male_on" data-name="male on" viewBox="0 0 76.108 84.108"><path id="Union_4-4-9" data-name="Union 4-4" d="M33.1,72.823H22.054a20,20,0,0,1-20-20V22.054a20,20,0,0,1,20-20h32a20,20,0,0,1,20,20V52.823a20,20,0,0,1-20,20H44.575l-5.737,9.231Z" stroke="#fff" stroke-linecap="round" stroke-linejoin="round" stroke-width="4.108"/><g id="Group_4326-3-2" data-name="Group 4326-3"><circle id="Ellipse_522-2-2" data-name="Ellipse 522-2" cx="38.058" cy="18.794" r="5.54" fill="#fff"/><path id="Path_9436-2-2" data-name="Path 9436-2" d="M39.37,25.53H36.893A8.666,8.666,0,0,0,30.83,28l-.128.128a8.646,8.646,0,0,0-2.6,6.194V40.1a1.765,1.765,0,0,0,1.765,1.765h0A1.766,1.766,0,0,0,31.635,40.1v0h0V34.032a.739.739,0,0,1,.728-.739h.256a.735.735,0,0,1,.735.735h0v24.5a1.97,1.97,0,0,0,1.727,1.989,1.935,1.935,0,0,0,2.091-1.718,1.57,1.57,0,0,0,0-.194V46.742a1.011,1.011,0,0,1,1.01-1.011h0a1.011,1.011,0,0,1,1.007,1.011h0v11.8a1.975,1.975,0,0,0,1.726,1.99,1.937,1.937,0,0,0,2.095-1.719,1.57,1.57,0,0,0,0-.194V34.047a.73.73,0,0,1,.727-.735h0a.735.735,0,0,1,.736.735h0V40.11a1.765,1.765,0,0,0,1.765,1.765h0a1.766,1.766,0,0,0,1.77-1.761v0h0V34.191a8.651,8.651,0,0,0-2.447-6.063h0A8.656,8.656,0,0,0,39.37,25.53Z" fill="#fff"/></g></symbol></defs><g id="floor_color_box" data-name="floor color box"><g id="floor"><path d="M428.232,834.752a2,2,0,0,0-2,1.981l-.415,44.191a2,2,0,0,1-2,1.98H394.266a2,2,0,0,1-2-2V811.856h-84.51a2,2,0,0,1-2-2V618.742a2,2,0,0,1,2-2h72.055v-34.66a2,2,0,0,1,2-2h42.362a2,2,0,0,0,2-2V559.716a.558.558,0,0,0-.558-.558l-71.57.38a2,2,0,0,1-2.011-1.985l-.221-31.131a2,2,0,0,1,2-2.015h31.735V494.745h-42.3a2,2,0,0,1-2-2V316.361a2,2,0,0,1,2-2h58.864l.319-60.128H316.26a2,2,0,0,1-2-2V129.817a2,2,0,0,0-2-2h-8.052a2,2,0,0,0-2,2v37.305H284.2V109.328a2,2,0,0,1,2-2H314.26V49.268a2,2,0,0,1,2-2h82.233c3.281,0,107.5,5.676,110.078,120.121v84.844a2,2,0,0,1-2,2h-80.5a2,2,0,0,0-2,2V314.5l110.353-.131a2,2,0,0,1,2,2V492.611a2,2,0,0,1-2,2h-15.52V616.742H789.433a2,2,0,0,1,2,2v85.781h30.24a2,2,0,0,1,2,2v86.862a2,2,0,0,1-2,2H787.181V806.91a2,2,0,0,1-2,2H445.548l.076,23.833a2,2,0,0,1-1.982,2.006Z" fill="#667b8e"/><path d="M414.059,820.579a2,2,0,0,0-2,1.981l-.416,44.191a2,2,0,0,1-2,1.98H380.092a2,2,0,0,1-2-2V797.683H293.583a2,2,0,0,1-2-2V604.568a2,2,0,0,1,2-2h72.055V567.909a2,2,0,0,1,2-2H410a2,2,0,0,0,2-2V545.543a.558.558,0,0,0-.558-.558l-71.571.38a2,2,0,0,1-2.01-1.986l-.222-31.131a2,2,0,0,1,2-2.014h31.736V480.572h-42.3a2,2,0,0,1-2-2V302.188a2,2,0,0,1,2-2h58.864l.319-60.128H302.087a2,2,0,0,1-2-2V115.644a2,2,0,0,0-2-2h-8.053a2,2,0,0,0-2,2v37.3H270.023V95.155a2,2,0,0,1,2-2h28.064V35.094a2,2,0,0,1,2-2h82.232c3.281,0,107.5,5.677,110.079,120.122V238.06a2,2,0,0,1-2,2H411.9a2,2,0,0,0-2,2v58.262l110.353-.132a2,2,0,0,1,2,2V478.438a2,2,0,0,1-2,2h-15.52V602.569H775.26a2,2,0,0,1,2,2V690.35H807.5a2,2,0,0,1,2,2v86.861a2,2,0,0,1-2,2H773.008v11.526a2,2,0,0,1-2,2H431.375l.076,23.832a2,2,0,0,1-1.983,2.007Z" fill="#fff"/></g><polygon id="footpath" points="298.087 93.155 298.087 113.644 388.254 113.644 388.254 417.933 412 417.933 412 480.572 393.258 480.572 393.258 494.968 412 494.968 412 821.012 431.458 821.012 431.458 710.865 809.5 710.865 809.5 690.35 445.309 690.35 445.309 480.572 435.341 480.572 435.341 397.176 409.897 397.176 409.897 336.713 457.236 336.713 457.236 322.73 409.897 322.73 409.897 161.854 435.408 161.854 435.408 140.092 409.897 140.092 409.897 113.644 398.715 93.155 298.087 93.155" fill="#e2e7eb"/><path id="stairs" d="M288.034,152.948H270.023V95.285a2.13,2.13,0,0,1,2.129-2.13h25.935v20.489l-9.81.414Z" fill="#deffe6"/><polygon id="stairs-2" data-name="stairs" points="411.542 240.06 435.408 240.06 435.408 181.74 409.428 181.74 409.428 242.267 411.542 240.06" fill="#deffe6"/><path id="stairs-3" data-name="stairs" d="M339.6,510.234H412a0,0,0,0,1,0,0v34.751a0,0,0,0,1,0,0H339.6a2,2,0,0,1-2-2V512.234A2,2,0,0,1,339.6,510.234Z" fill="#deffe6"/><path id="stairs-4" data-name="stairs" d="M378.167,797.683l32.22-.038L412,796.586v70.206a2,2,0,0,1-2,2H380.167a2,2,0,0,1-2-2Z" fill="#deffe6"/><path id="stairs-5" data-name="stairs" d="M773.008,781.309H807.5a2,2,0,0,0,2-2V710.37H772.047l.961,1.522Z" fill="#deffe6"/><path id="lift" d="M445.15,522l1.121.826h27.444a2,2,0,0,1,2,2v43.933H445.15Z" fill="#f1deff"/><path id="toilet" d="M504.732,544.985H475.715V524.822a2,2,0,0,0-2-2H447.15a2,2,0,0,1-2-2v-40.25h59.582Z" fill="#d1f3ff"/><polyline id="toilet-2" data-name="toilet" points="475.715 568.755 444.715 568.755 444.715 585.561 475.716 585.561 475.716 568.755" fill="#d1f3ff"/><polygon id="toilet-3" data-name="toilet" points="444.715 602.569 444.715 585.658 475.715 585.561 475.715 544.985 475.902 544.985 504.776 544.985 504.776 585.561 504.776 602.569 444.715 602.569" fill="#d1f3ff"/><path id="toilet-4" data-name="toilet" d="M371.375,510.234V480.572h21.883v12.4a2,2,0,0,0,2,2H412v15.266Z" fill="#d1f3ff"/></g><g id="overlay"><g id="exterior_outline" data-name="exterior outline"><path d="M270.023,152.948V95.155a2,2,0,0,1,2-2h28.064V35.094a2,2,0,0,1,2-2h82.232c3.281,0,107.5,5.677,110.079,120.122V238.06a2,2,0,0,1-2,2H411.9a2,2,0,0,0-2,2v58.262l110.353-.132a2,2,0,0,1,2,2V478.438a2,2,0,0,1-2,2h-15.52V602.569H775.26a2,2,0,0,1,2,2V690.35H807.5a2,2,0,0,1,2,2v86.861a2,2,0,0,1-2,2H773.008v11.526a2,2,0,0,1-2,2H431.458v23.979a2,2,0,0,1-2,2H414a2,2,0,0,0-2,2v44.069a2,2,0,0,1-2.006,2l-29.908-.095a2,2,0,0,1-1.994-2V797.683H293.583a2,2,0,0,1-2-2V604.568a2,2,0,0,1,2-2h72.055V567.909a2,2,0,0,1,2-2H410a2,2,0,0,0,2-2V544.985H339.667a2,2,0,0,1-2-2V512.234a2,2,0,0,1,2-2h31.67V480.572H329.071a2,2,0,0,1-2-2V302.188a2,2,0,0,1,2-2h58.864l.319-60.128H302.087a2,2,0,0,1-2-2V115.644a2,2,0,0,0-2-2h-8.053a2,2,0,0,0-2,2v37.3" fill="none" stroke="#a5afb7" stroke-linecap="round" stroke-linejoin="round" stroke-width="3"/><path d="M352.347,33.094V91.155a2,2,0,0,0,2,2h44.368" fill="none" stroke="#a5afb7" stroke-linecap="round" stroke-linejoin="round" stroke-width="3"/><line x1="295.583" y1="93.155" x2="336.378" y2="93.155" fill="none" stroke="#a5afb7" stroke-linecap="round" stroke-linejoin="round" stroke-width="3"/><path d="M428.809,140.092h5a2,2,0,0,0,2-2V113.644" fill="none" stroke="#a5afb7" stroke-linecap="round" stroke-linejoin="round" stroke-width="3"/><path d="M478.285,89.071l-42.011,24.3a1.987,1.987,0,0,1-1,.269H411.428a2,2,0,0,0-2,2v22.448a2,2,0,0,0,2,2h5.031" fill="none" stroke="#a5afb7" stroke-linecap="round" stroke-linejoin="round" stroke-width="3"/><line x1="494.398" y1="150.203" x2="436.212" y2="150.203" fill="none" stroke="#a5afb7" stroke-linecap="round" stroke-linejoin="round" stroke-width="3"/><path d="M416.459,161.854h-5.031a2,2,0,0,0-2,2v65.292" fill="none" stroke="#a5afb7" stroke-linecap="round" stroke-linejoin="round" stroke-width="3"/><path d="M435.408,240.06V163.854a2,2,0,0,0-2-2h-4.6" fill="none" stroke="#a5afb7" stroke-linecap="round" stroke-linejoin="round" stroke-width="3"/><line x1="409.428" y1="181.74" x2="435.408" y2="181.74" fill="none" stroke="#a5afb7" stroke-linecap="round" stroke-linejoin="round" stroke-width="3"/><line x1="422.619" y1="228.744" x2="422.619" y2="194.73" fill="none" stroke="#a5afb7" stroke-linecap="round" stroke-linejoin="round" stroke-width="3"/><path d="M388.254,240.06V115.644a2,2,0,0,0-2-2H369.79" fill="none" stroke="#a5afb7" stroke-linecap="round" stroke-linejoin="round" stroke-width="3"/><path d="M387.935,351.751v64.182a2,2,0,0,0,2,2H410a2,2,0,0,1,2,2v28.053" fill="none" stroke="#a5afb7" stroke-linecap="round" stroke-linejoin="round" stroke-width="3"/><line x1="387.935" y1="300.188" x2="387.935" y2="333.734" fill="none" stroke="#a5afb7" stroke-linecap="round" stroke-linejoin="round" stroke-width="3"/><path d="M327.071,406.349h41.79a2,2,0,0,0,2-2V375.917" fill="none" stroke="#a5afb7" stroke-linecap="round" stroke-linejoin="round" stroke-width="3"/><polyline points="368.026 480.572 412 480.572 412 464.044" fill="none" stroke="#a5afb7" stroke-linecap="round" stroke-linejoin="round" stroke-width="3"/><line x1="457.236" y1="336.713" x2="522.252" y2="336.713" fill="none" stroke="#a5afb7" stroke-linecap="round" stroke-linejoin="round" stroke-width="3"/><line x1="435.341" y1="422.151" x2="435.341" y2="336.713" fill="none" stroke="#a5afb7" stroke-linecap="round" stroke-linejoin="round" stroke-width="3"/><line x1="435.341" y1="452.717" x2="435.341" y2="438.991" fill="none" stroke="#a5afb7" stroke-linecap="round" stroke-linejoin="round" stroke-width="3"/><path d="M507.254,480.438H437.341a2,2,0,0,1-2-2V468.229" fill="none" stroke="#a5afb7" stroke-linecap="round" stroke-linejoin="round" stroke-width="3"/><path d="M435.341,300.322V320.73a2,2,0,0,0,2,2h17.686" fill="none" stroke="#a5afb7" stroke-linecap="round" stroke-linejoin="round" stroke-width="3"/><path d="M409.9,300.322v20.431a2,2,0,0,0,2,2H423.49" fill="none" stroke="#a5afb7" stroke-linecap="round" stroke-linejoin="round" stroke-width="3"/><path d="M435.341,397.176H411.9a2,2,0,0,1-2-2v-56.43a2,2,0,0,1,2-2H423.49" fill="none" stroke="#a5afb7" stroke-linecap="round" stroke-linejoin="round" stroke-width="3"/><line x1="366.037" y1="510.234" x2="412" y2="510.234" fill="none" stroke="#a5afb7" stroke-linecap="round" stroke-linejoin="round" stroke-width="3"/><path d="M393.258,480.572v12.4a2,2,0,0,0,2,2H412" fill="none" stroke="#a5afb7" stroke-linecap="round" stroke-linejoin="round" stroke-width="3"/><line x1="412" y1="548.333" x2="412" y2="527.743" fill="none" stroke="#a5afb7" stroke-linecap="round" stroke-linejoin="round" stroke-width="3"/><line x1="504.776" y1="544.859" x2="475.715" y2="544.859" fill="none" stroke="#a5afb7" stroke-linecap="round" stroke-linejoin="round" stroke-width="3"/><path d="M445.15,494.968v25.854a2,2,0,0,0,2,2h26.565a2,2,0,0,1,2,2v58.739a2,2,0,0,1-2,2l-29,.1" fill="none" stroke="#a5afb7" stroke-linecap="round" stroke-linejoin="round" stroke-width="3"/><line x1="475.715" y1="568.755" x2="444.715" y2="568.755" fill="none" stroke="#a5afb7" stroke-linecap="round" stroke-linejoin="round" stroke-width="3"/><path d="M444.715,657.139v-23.31a2,2,0,0,1,2-2h57.994" fill="none" stroke="#a5afb7" stroke-linecap="round" stroke-linejoin="round" stroke-width="3"/><path d="M537.92,690.35h-91.2a2,2,0,0,1-2-2V673.108" fill="none" stroke="#a5afb7" stroke-linecap="round" stroke-linejoin="round" stroke-width="3"/><line x1="650.685" y1="690.35" x2="558.275" y2="690.35" fill="none" stroke="#a5afb7" stroke-linecap="round" stroke-linejoin="round" stroke-width="3"/><line x1="715.943" y1="690.35" x2="671.157" y2="690.35" fill="none" stroke="#a5afb7" stroke-linecap="round" stroke-linejoin="round" stroke-width="3"/><line x1="788.776" y1="690.35" x2="737.298" y2="690.35" fill="none" stroke="#a5afb7" stroke-linecap="round" stroke-linejoin="round" stroke-width="3"/><polyline points="507.254 602.569 444.715 602.569 444.715 615.536" fill="none" stroke="#a5afb7" stroke-linecap="round" stroke-linejoin="round" stroke-width="3"/><path d="M412,662.429v19.962a2,2,0,0,1-2,2H353.611a2,2,0,0,0-2,2v38.442H320.566a2,2,0,0,1-2-2l0-5.347a2,2,0,0,0-1.98-2l-25-.249" fill="none" stroke="#a5afb7" stroke-linecap="round" stroke-linejoin="round" stroke-width="3"/><polyline points="359.5 602.568 412 602.568 412 644.484" fill="none" stroke="#a5afb7" stroke-linecap="round" stroke-linejoin="round" stroke-width="3"/><line x1="504.776" y1="598.309" x2="504.776" y2="690.35" fill="none" stroke="#a5afb7" stroke-linecap="round" stroke-linejoin="round" stroke-width="3"/><line x1="614.821" y1="602.568" x2="614.821" y2="690.35" fill="none" stroke="#a5afb7" stroke-linecap="round" stroke-linejoin="round" stroke-width="3"/><line x1="701.33" y1="690.35" x2="701.33" y2="602.569" fill="none" stroke="#a5afb7" stroke-linecap="round" stroke-linejoin="round" stroke-width="3"/><line x1="412" y1="607.032" x2="412" y2="581.321" fill="none" stroke="#a5afb7" stroke-linecap="round" stroke-linejoin="round" stroke-width="3"/><line x1="342.5" y1="724.833" x2="388.672" y2="724.833" fill="none" stroke="#a5afb7" stroke-linecap="round" stroke-linejoin="round" stroke-width="3"/><path d="M369.092,797.683H410a2,2,0,0,0,2-2V702" fill="none" stroke="#a5afb7" stroke-linecap="round" stroke-linejoin="round" stroke-width="3"/><line x1="395.434" y1="856.99" x2="395.434" y2="822.976" fill="none" stroke="#a5afb7" stroke-linecap="round" stroke-linejoin="round" stroke-width="3"/><path d="M695.8,710.37h-8.873a2,2,0,0,0-2,2v82.367" fill="none" stroke="#a5afb7" stroke-linecap="round" stroke-linejoin="round" stroke-width="3"/><path d="M714.93,710.37h56.078a2,2,0,0,1,2,2v75.439" fill="none" stroke="#a5afb7" stroke-linecap="round" stroke-linejoin="round" stroke-width="3"/><line x1="809.5" y1="710.37" x2="792.225" y2="710.37" fill="none" stroke="#a5afb7" stroke-linecap="round" stroke-linejoin="round" stroke-width="3"/><line x1="591.352" y1="710.37" x2="666.479" y2="710.37" fill="none" stroke="#a5afb7" stroke-linecap="round" stroke-linejoin="round" stroke-width="3"/><line x1="463.196" y1="710.37" x2="573.529" y2="710.37" fill="none" stroke="#a5afb7" stroke-linecap="round" stroke-linejoin="round" stroke-width="3"/><path d="M431.458,801.475V712.37a2,2,0,0,1,2-2h9.583" fill="none" stroke="#a5afb7" stroke-linecap="round" stroke-linejoin="round" stroke-width="3"/><line x1="519.306" y1="710.404" x2="519.306" y2="794.737" fill="none" stroke="#a5afb7" stroke-linecap="round" stroke-linejoin="round" stroke-width="3"/><line x1="792.225" y1="725.993" x2="792.225" y2="767.201" fill="none" stroke="#a5afb7" stroke-linecap="round" stroke-linejoin="round" stroke-width="3"/><line x1="395.062" y1="527.743" x2="353.853" y2="527.743" fill="none" stroke="#a5afb7" stroke-linecap="round" stroke-linejoin="round" stroke-width="3"/><line x1="270.023" y1="114.429" x2="288.034" y2="114.429" fill="none" stroke="#a5afb7" stroke-linecap="round" stroke-linejoin="round"/><line x1="270.023" y1="121.07" x2="288.034" y2="121.07" fill="none" stroke="#a5afb7" stroke-linecap="round" stroke-linejoin="round"/><line x1="270.023" y1="127.712" x2="288.034" y2="127.712" fill="none" stroke="#a5afb7" stroke-linecap="round" stroke-linejoin="round"/><line x1="270.023" y1="134.353" x2="288.034" y2="134.353" fill="none" stroke="#a5afb7" stroke-linecap="round" stroke-linejoin="round"/><line x1="270.023" y1="140.994" x2="288.034" y2="140.994" fill="none" stroke="#a5afb7" stroke-linecap="round" stroke-linejoin="round"/><line x1="409.428" y1="194.73" x2="435.408" y2="194.73" fill="none" stroke="#a5afb7" stroke-linecap="round" stroke-linejoin="round"/><line x1="409.428" y1="201.323" x2="435.408" y2="201.323" fill="none" stroke="#a5afb7" stroke-linecap="round" stroke-linejoin="round"/><line x1="409.428" y1="207.917" x2="435.408" y2="207.917" fill="none" stroke="#a5afb7" stroke-linecap="round" stroke-linejoin="round"/><line x1="409.428" y1="214.51" x2="435.408" y2="214.51" fill="none" stroke="#a5afb7" stroke-linecap="round" stroke-linejoin="round"/><line x1="409.428" y1="221.103" x2="435.408" y2="221.103" fill="none" stroke="#a5afb7" stroke-linecap="round" stroke-linejoin="round"/><line x1="409.428" y1="227.697" x2="435.408" y2="227.697" fill="none" stroke="#a5afb7" stroke-linecap="round" stroke-linejoin="round"/><line x1="395.062" y1="510.234" x2="395.062" y2="544.985" fill="none" stroke="#a5afb7" stroke-linecap="round" stroke-linejoin="round"/><line x1="386.82" y1="510.234" x2="386.82" y2="544.985" fill="none" stroke="#a5afb7" stroke-linecap="round" stroke-linejoin="round"/><line x1="378.579" y1="510.234" x2="378.579" y2="544.985" fill="none" stroke="#a5afb7" stroke-linecap="round" stroke-linejoin="round"/><line x1="370.337" y1="510.234" x2="370.337" y2="544.985" fill="none" stroke="#a5afb7" stroke-linecap="round" stroke-linejoin="round"/><line x1="362.095" y1="510.234" x2="362.095" y2="544.985" fill="none" stroke="#a5afb7" stroke-linecap="round" stroke-linejoin="round"/><line x1="353.853" y1="510.234" x2="353.853" y2="544.985" fill="none" stroke="#a5afb7" stroke-linecap="round" stroke-linejoin="round"/><line x1="378.167" y1="822.976" x2="412" y2="822.976" fill="none" stroke="#a5afb7" stroke-linecap="round" stroke-linejoin="round"/><line x1="378.167" y1="829.779" x2="412" y2="829.779" fill="none" stroke="#a5afb7" stroke-linecap="round" stroke-linejoin="round"/><line x1="378.167" y1="836.581" x2="412" y2="836.581" fill="none" stroke="#a5afb7" stroke-linecap="round" stroke-linejoin="round"/><line x1="378.167" y1="843.384" x2="412" y2="843.384" fill="none" stroke="#a5afb7" stroke-linecap="round" stroke-linejoin="round"/><line x1="378.167" y1="850.187" x2="412" y2="850.187" fill="none" stroke="#a5afb7" stroke-linecap="round" stroke-linejoin="round"/><line x1="378.167" y1="856.99" x2="412" y2="856.99" fill="none" stroke="#a5afb7" stroke-linecap="round" stroke-linejoin="round"/><line x1="773.008" y1="725.993" x2="809.5" y2="725.993" fill="none" stroke="#a5afb7" stroke-linecap="round" stroke-linejoin="round"/><line x1="773.008" y1="734.235" x2="809.5" y2="734.235" fill="none" stroke="#a5afb7" stroke-linecap="round" stroke-linejoin="round"/><line x1="773.008" y1="742.476" x2="809.5" y2="742.476" fill="none" stroke="#a5afb7" stroke-linecap="round" stroke-linejoin="round"/><line x1="773.008" y1="750.718" x2="809.5" y2="750.718" fill="none" stroke="#a5afb7" stroke-linecap="round" stroke-linejoin="round"/><line x1="773.008" y1="758.96" x2="809.5" y2="758.96" fill="none" stroke="#a5afb7" stroke-linecap="round" stroke-linejoin="round"/><line x1="773.008" y1="767.201" x2="809.5" y2="767.201" fill="none" stroke="#a5afb7" stroke-linecap="round" stroke-linejoin="round"/><line x1="444.715" y1="602.569" x2="444.715" y2="595.975" fill="none" stroke="#a5afb7" stroke-linecap="round" stroke-linejoin="round" stroke-width="3"/><line x1="604.48" y1="710.404" x2="604.48" y2="794.737" fill="none" stroke="#a5afb7" stroke-linecap="round" stroke-linejoin="round" stroke-width="3"/><line x1="412" y1="478.572" x2="412" y2="487.77" fill="none" stroke="#a5afb7" stroke-linecap="round" stroke-linejoin="round" stroke-width="3"/></g><g id="lifts_off" data-name="lifts off"><g id="lifts"><path id="Rectangle_1123-3" data-name="Rectangle 1123-3" d="M452.465,537.58H466.73a3.337,3.337,0,0,1,3.341,3.334v10.351a3.338,3.338,0,0,1-3.341,3.334H452.465a3.338,3.338,0,0,1-3.341-3.334V540.914A3.337,3.337,0,0,1,452.465,537.58Z" fill="#6979ff" stroke="#fff" stroke-width="1.335"/><g id="Group_787" data-name="Group 787"><path id="Path_127" data-name="Path 127" d="M461.085,545.153l2.739-3.358,2.612,3.358" fill="none" stroke="#fff" stroke-linecap="round" stroke-linejoin="round" stroke-width="1.679"/><line id="Line_43" data-name="Line 43" x1="463.828" y1="549.883" x2="463.828" y2="541.792" stroke-width="1.679" stroke="#fff" stroke-linecap="round" stroke-linejoin="round" fill="none"/></g><g id="Group_788" data-name="Group 788"><path id="Path_128" data-name="Path 128" d="M452.759,546.521l2.739,3.358,2.613-3.358" fill="none" stroke="#fff" stroke-linecap="round" stroke-linejoin="round" stroke-width="1.679"/><line id="Line_44" data-name="Line 44" x1="455.497" y1="541.792" x2="455.497" y2="549.883" stroke-width="1.679" stroke="#fff" stroke-linecap="round" stroke-linejoin="round" fill="none"/></g></g></g><g id="toilet_off" data-name="toilet off"><g id="accessible_off" data-name="accessible off"><rect x="374.458" y="485.896" width="15.408" height="18.963" rx="2.963" fill="#0a64fe" stroke="#fff" stroke-width="1.428"/><g id="accessible-2"><g id="Group_1512-2" data-name="Group 1512-2"><path id="Path_142-2-2" data-name="Path 142-2-2" d="M387.457,494.893a.822.822,0,0,0-.644-.258l-1.916.121a.443.443,0,0,1-.365-.729l.928-1.073a.812.812,0,0,0,.194-.9,1,1,0,0,0-.387-.514l-2.557-1.661a2.64,2.64,0,0,0-3.232.281l-.928.862a.882.882,0,0,0-.064,1.157.839.839,0,0,0,1.176.122c.019-.016.037-.032.054-.049l.8-.728a1.127,1.127,0,0,1,1.341-.122h0a.441.441,0,0,1,.147.606h0a.464.464,0,0,1-.046.061l-1.619,1.871a.461.461,0,0,1-.264.154,4.176,4.176,0,0,0-1.711.749.427.427,0,0,0-.115.592h0a.294.294,0,0,0,.062.07l.485.486a.452.452,0,0,0,.573.048,2.819,2.819,0,0,1,1.579-.478,2.746,2.746,0,0,1,2.781,2.711h0v.055a2.8,2.8,0,0,1-.485,1.579.437.437,0,0,0,.047.559l.476.48a.447.447,0,0,0,.632,0l0,0a.4.4,0,0,0,.046-.054,4.366,4.366,0,0,0,.829-2.558,3.487,3.487,0,0,0-.2-1.312.442.442,0,0,1,.264-.566.5.5,0,0,1,.122-.026h0a.442.442,0,0,1,.463.418.251.251,0,0,1,0,.067l-.27,2.836a.81.81,0,0,0,.712.9h.125a.841.841,0,0,0,.841-.771l.386-4.371A.7.7,0,0,0,387.457,494.893Z" fill="#fff"/><path id="Path_143-2-2" data-name="Path 143-2-2" d="M386.065,491.292a1.585,1.585,0,1,0-1.6-1.585h0A1.607,1.607,0,0,0,386.065,491.292Z" fill="#fff"/><path id="Path_144-2-2" data-name="Path 144-2-2" d="M380.958,501.082a2.765,2.765,0,0,1-2.793-2.732h0v-.041a3.069,3.069,0,0,1,.351-1.363.292.292,0,0,0-.052-.339l-.713-.706a.293.293,0,0,0-.414,0h0a.394.394,0,0,0-.036.045,4.2,4.2,0,0,0-.7,2.359,4.336,4.336,0,0,0,4.346,4.326h0a4.179,4.179,0,0,0,2.379-.693.292.292,0,0,0,.083-.4.284.284,0,0,0-.037-.047l-.708-.7a.293.293,0,0,0-.353-.045A2.617,2.617,0,0,1,380.958,501.082Z" fill="#fff"/></g></g></g><g id="accessible_off-2" data-name="accessible off"><rect x="455.146" y="571.679" width="8.903" height="10.958" rx="1.712" fill="#0a64fe" stroke="#fff" stroke-width="0.825"/><g id="accessible-2-2" data-name="accessible-2"><g id="Group_1512-2-2" data-name="Group 1512-2"><path id="Path_142-2-2-2" data-name="Path 142-2-2" d="M462.658,576.878a.475.475,0,0,0-.373-.149l-1.107.07a.255.255,0,0,1-.21-.421l.536-.62a.47.47,0,0,0,.112-.521.573.573,0,0,0-.224-.3l-1.477-.96a1.526,1.526,0,0,0-1.868.162l-.536.5a.509.509,0,0,0-.037.669.486.486,0,0,0,.68.07.4.4,0,0,0,.03-.028l.462-.421a.651.651,0,0,1,.775-.07h0a.255.255,0,0,1,.085.35h0a.3.3,0,0,1-.027.035l-.935,1.081a.27.27,0,0,1-.153.089,2.421,2.421,0,0,0-.989.433.248.248,0,0,0-.067.342h0a.172.172,0,0,0,.036.04l.281.281a.262.262,0,0,0,.331.028,1.627,1.627,0,0,1,.912-.276,1.587,1.587,0,0,1,1.608,1.566h0v.032a1.622,1.622,0,0,1-.281.912.252.252,0,0,0,.027.323l.275.277a.258.258,0,0,0,.365,0l0,0a.255.255,0,0,0,.026-.03,2.527,2.527,0,0,0,.479-1.479,2,2,0,0,0-.117-.758.256.256,0,0,1,.153-.327.282.282,0,0,1,.07-.015h0a.255.255,0,0,1,.268.241.128.128,0,0,1,0,.039l-.156,1.639a.468.468,0,0,0,.412.518h.072a.487.487,0,0,0,.486-.445l.223-2.526A.405.405,0,0,0,462.658,576.878Z" fill="#fff"/><path id="Path_143-2-2-2" data-name="Path 143-2-2" d="M461.853,574.8a.916.916,0,1,0-.922-.915h0A.927.927,0,0,0,461.853,574.8Z" fill="#fff"/><path id="Path_144-2-2-2" data-name="Path 144-2-2" d="M458.9,580.455a1.6,1.6,0,0,1-1.614-1.579h0v-.024a1.769,1.769,0,0,1,.2-.787.169.169,0,0,0-.03-.2l-.412-.408a.169.169,0,0,0-.239,0h0a.133.133,0,0,0-.021.026,2.427,2.427,0,0,0-.4,1.363,2.505,2.505,0,0,0,2.511,2.5h0a2.414,2.414,0,0,0,1.375-.4.167.167,0,0,0,.048-.231.186.186,0,0,0-.021-.028l-.41-.405a.171.171,0,0,0-.2-.026A1.507,1.507,0,0,1,458.9,580.455Z" fill="#fff"/></g></g></g><g id="female_off" data-name="female off"><rect x="467.108" y="488.737" width="20.28" height="24.96" rx="3.9" fill="#0a64fe" stroke="#fff" stroke-width="1.88"/><g id="female-2"><path id="Path_9435-2" data-name="Path 9435-2" d="M479.927,500.526l.6,1.164a.754.754,0,0,0,.669.418h0a.77.77,0,0,0,.759-.781h0a.743.743,0,0,0-.091-.351l-1.513-2.906a3.5,3.5,0,0,0-3.108-1.9h0a3.51,3.51,0,0,0-3.11,1.9l-1.512,2.906a.769.769,0,0,0,.315,1.04l.005,0a.766.766,0,0,0,.357.091h0a.752.752,0,0,0,.669-.417l.6-1.164a.041.041,0,0,1,.048-.024.038.038,0,0,1,.024.048h0l-.984,4.972a.42.42,0,0,0,.32.5H474a.3.3,0,0,0,.084,0h.741a.418.418,0,0,1,.417.418h0V510.2a.8.8,0,0,0,.786.814h.015a.809.809,0,0,0,.8-.812h0v-3.76a.417.417,0,0,1,.416-.417h0a.417.417,0,0,1,.418.417h0v3.76a.8.8,0,0,0,.787.813h.013a.8.8,0,0,0,.8-.8V510.2h0v-3.76a.419.419,0,0,1,.417-.418h.741a.417.417,0,0,0,.417-.416h0a.3.3,0,0,0,0-.085l-.984-4.978a.049.049,0,0,1,.025-.065h0a.051.051,0,0,1,.065.027v.016Z" fill="#fff"/><circle id="Ellipse_521-2" data-name="Ellipse 521-2" cx="477.254" cy="493.557" r="2.138" fill="#fff"/></g></g><g id="male_off" data-name="male off"><rect x="480.174" y="562.386" width="20.28" height="24.96" rx="3.9" fill="#0a64fe" stroke="#fff" stroke-width="1.88"/><g id="Group_4326-3" data-name="Group 4326-3"><circle id="Ellipse_522-2" data-name="Ellipse 522-2" cx="490.316" cy="567.382" r="2.29" fill="#fff"/><path id="Path_9436-2" data-name="Path 9436-2" d="M490.858,570.168h-1.024a3.573,3.573,0,0,0-2.506,1.019l-.053.053A3.577,3.577,0,0,0,486.2,573.8v2.388a.73.73,0,0,0,.73.73h0a.73.73,0,0,0,.732-.728v0h0v-2.507a.3.3,0,0,1,.3-.305h.106a.3.3,0,0,1,.3.3h0v10.127a.814.814,0,0,0,.714.822.8.8,0,0,0,.864-.71.534.534,0,0,0,0-.08v-4.9a.418.418,0,0,1,.418-.418h0a.418.418,0,0,1,.416.418h0v4.877a.817.817,0,0,0,.714.823.8.8,0,0,0,.866-.711.534.534,0,0,0,0-.08V573.689a.3.3,0,0,1,.3-.3h0a.3.3,0,0,1,.3.3h0V576.2a.73.73,0,0,0,.73.73h0a.729.729,0,0,0,.731-.728v0h0v-2.447a3.571,3.571,0,0,0-1.011-2.506h0A3.574,3.574,0,0,0,490.858,570.168Z" fill="#fff"/></g></g></g></g><g id="text"><use width="36.001" height="19.938" transform="translate(308.29 52.166)" xlink:href="#New_Symbol"/><use width="36.001" height="19.938" transform="translate(395.914 61.167)" xlink:href="#New_Symbol_1"/><use width="36.001" height="19.938" transform="translate(325.649 162.852)" xlink:href="#New_Symbol_6"/><use width="36.002" height="19.938" transform="translate(447.823 116.914)" xlink:href="#New_Symbol_2"/><use width="36.002" height="19.938" transform="translate(447.824 188.871)" xlink:href="#New_Symbol_4"/><use width="31.565" height="17.51" transform="translate(406.423 163.078)" xlink:href="#New_Symbol_5"/><use width="31.565" height="17.51" transform="translate(406.423 118.061)" xlink:href="#New_Symbol_3"/><use width="36.002" height="19.938" transform="translate(465.282 307.365)" xlink:href="#New_Symbol_7"/><use width="31.566" height="17.51" transform="translate(406.859 302.629)" xlink:href="#New_Symbol_8"/><use width="36.001" height="19.938" transform="translate(336.767 338.466)" xlink:href="#New_Symbol_9"/><use width="31.566" height="17.51" transform="translate(407.529 358.462)" xlink:href="#New_Symbol_10"/><use width="36.001" height="19.938" transform="translate(460.65 396.365)" xlink:href="#New_Symbol_11"/><use width="36.001" height="19.938" transform="translate(348.129 433.49)" xlink:href="#New_Symbol_12"/><use width="36.001" height="19.938" transform="translate(371.501 575.102)" xlink:href="#New_Symbol_13"/><use width="36.001" height="19.938" transform="translate(333.057 636.923)" xlink:href="#New_Symbol_14"/><use width="36.001" height="19.938" transform="translate(363.34 695.923)" xlink:href="#New_Symbol_15"/><use width="36.001" height="19.938" transform="translate(333.058 751.292)" xlink:href="#New_Symbol_16"/><use width="36.001" height="19.938" transform="translate(457.305 743.279)" xlink:href="#New_Symbol_19"/><use width="36.001" height="19.938" transform="translate(543.812 743.279)" xlink:href="#New_Symbol_21"/><use width="36.002" height="19.938" transform="translate(624.207 743.279)" xlink:href="#New_Symbol_23"/><use width="36.002" height="19.938" transform="translate(713.428 743.279)" xlink:href="#New_Symbol_25"/><use width="36.001" height="19.938" transform="translate(720.95 636.819)" xlink:href="#New_Symbol_24"/><use width="36.001" height="19.938" transform="translate(638.949 636.819)" xlink:href="#New_Symbol_22"/><use width="36.002" height="19.938" transform="translate(542.063 636.819)" xlink:href="#New_Symbol_20"/><use width="36.002" height="19.938" transform="translate(456.958 651.429)" xlink:href="#New_Symbol_18"/><use width="36.002" height="19.938" transform="translate(456.958 607.848)" xlink:href="#New_Symbol_17"/></g><g id="toggle"><g id="stair_on" data-name="stair on"><g id="highlight"><rect x="758.088" y="688.757" width="66.332" height="115.681" fill="url(#radial-gradient)"/><g id="stairs-6" data-name="stairs"><path d="M773.008,781.309H807.5a2,2,0,0,0,2-2V710.37H772.047l.961,1.522Z" fill="#0a64fe"/></g><polyline points="792.225 710.865 809.5 710.865 809.5 781.309 773.008 781.309 773.008 710.37" fill="none" stroke="#fff" stroke-linecap="round" stroke-linejoin="round" stroke-width="4"/></g><g id="highlight-2" data-name="highlight"><rect x="361.322" y="771.727" width="67.415" height="120.837" fill="url(#radial-gradient-2)"/><g id="stairs-7" data-name="stairs"><path d="M378.167,797.683l32.22-.038L412,796.586v70.206a2,2,0,0,1-2,2H380.167a2,2,0,0,1-2-2Z" fill="#0a64fe"/></g><polyline points="412 821.012 412 868.792 378.167 868.792 378.167 797.683 412 797.683" fill="none" stroke="#fff" stroke-linecap="round" stroke-linejoin="round" stroke-width="4"/></g><g id="highlight-3" data-name="highlight"><rect x="293.675" y="486.815" width="161.858" height="83.459" fill="url(#radial-gradient-3)"/><g id="stairs-8" data-name="stairs"><path d="M339.6,544.985H412V510.234H339.6a2,2,0,0,0-2,2v30.751A2,2,0,0,0,339.6,544.985Z" fill="#0a64fe"/></g><polyline points="412 510.234 337.599 510.234 337.599 544.985 412 544.985 412 527.61" fill="none" stroke="#fff" stroke-linecap="round" stroke-linejoin="round" stroke-width="4"/></g><g id="highlight-4" data-name="highlight"><rect x="397.212" y="157.067" width="50.1" height="101.997" fill="url(#radial-gradient-4)"/><g id="stairs-9" data-name="stairs"><polygon points="411.542 240.06 435.408 240.06 435.408 181.74 409.428 181.74 409.428 242.267 411.542 240.06" fill="#0a64fe"/></g><polyline points="409.428 229.146 409.428 181.74 435.408 181.74 435.408 240.06 409.428 240.06" fill="none" stroke="#fff" stroke-linecap="round" stroke-linejoin="round" stroke-width="4"/></g><g id="highlight-5" data-name="highlight"><rect x="256.514" y="68.839" width="45.029" height="106.534" fill="url(#radial-gradient-5)"/><g id="stairs-10" data-name="stairs"><path d="M288.034,152.948H270.023V95.285a2.13,2.13,0,0,1,2.129-2.13h25.935v20.489l-9.81.414Z" fill="#0a64fe"/></g><polyline points="270.023 152.948 270.023 93.155 298.087 93.155" fill="none" stroke="#fff" stroke-linecap="round" stroke-linejoin="round" stroke-width="4"/><polyline points="288.034 152.948 288.034 114.058 298.087 114.058" fill="none" stroke="#fff" stroke-linecap="round" stroke-linejoin="round" stroke-width="4"/></g></g><g id="lift_on" data-name="lift on"><g id="highlight-6" data-name="highlight"><rect x="431.088" y="507.505" width="60.23" height="74.708" fill="url(#radial-gradient-6)"/><g id="lift-2" data-name="lift"><path d="M445.15,522l1.121.826h27.444a2,2,0,0,1,2,2v43.933H445.15Z" fill="#0a64fe"/></g><polyline points="445.15 568.755 475.715 568.755 475.715 523.106 445.15 523.106" fill="none" stroke="#fff" stroke-linecap="round" stroke-linejoin="round" stroke-width="4"/></g></g><g id="toilet_on_color_box" data-name="toilet on color box"><g id="highlight-7" data-name="highlight"><rect x="426.669" y="449.268" width="95.487" height="103.898" fill="url(#radial-gradient-7)"/><g id="toilet-5" data-name="toilet"><path d="M504.732,544.985H475.715V524.822a2,2,0,0,0-2-2H447.15a2,2,0,0,1-2-2v-40.25h59.582Z" fill="#0a64fe"/></g><polyline points="445.15 480.572 504.732 480.572 504.732 544.985 475.715 544.985 475.715 522.789 445.15 522.789 445.15 494.968" fill="none" stroke="#fff" stroke-linecap="round" stroke-linejoin="round" stroke-width="4"/></g><g id="highlight-8" data-name="highlight"><rect x="358.487" y="464.817" width="46.617" height="63.874" fill="url(#radial-gradient-8)"/><g id="toilet-6" data-name="toilet"><path d="M371.375,510.234V480.572h21.883v12.4a2,2,0,0,0,2,2H412v15.266Z" fill="#0a64fe"/></g><polyline points="412 494.968 393.258 494.968 393.258 480.572 371.375 480.572 371.375 510.234 412 510.234" fill="none" stroke="#fff" stroke-linecap="round" stroke-linejoin="round" stroke-width="4"/></g><g id="highlight-9" data-name="highlight"><rect x="420" y="556.787" width="93.48" height="58.749" fill="url(#radial-gradient-9)"/><polyline id="toilet-7" data-name="toilet" points="475.715 568.755 444.715 568.755 444.715 585.561 475.716 585.561 475.716 568.755" fill="#0a64fe"/><polyline points="444.715 568.755 475.715 568.755 475.715 585.561 444.715 585.561" fill="none" stroke="#fff" stroke-linecap="round" stroke-linejoin="round" stroke-width="4"/></g><g id="highlight-10" data-name="highlight"><rect x="464.741" y="527.743" width="51.268" height="90.073" fill="url(#radial-gradient-10)"/><g id="toilet-8" data-name="toilet"><polygon points="444.715 602.569 444.715 585.658 475.715 585.561 475.715 544.985 475.902 544.985 504.776 544.985 504.776 585.561 504.776 602.569 444.715 602.569" fill="#0a64fe"/></g><polyline points="444.715 585.658 475.715 585.658 475.715 544.985 504.732 544.985 504.732 602.569 445.15 602.569 445.15 595.975" fill="none" stroke="#fff" stroke-linecap="round" stroke-linejoin="round" stroke-width="4"/></g></g></g><g id="floating"><g id="stair_on-2" data-name="stair on"><use width="76.108" height="84.108" transform="translate(759.869 632.854)" xlink:href="#stairs_on"/><use width="76.108" height="84.108" transform="translate(357.38 723.741)" xlink:href="#stairs_on"/><use width="76.108" height="84.108" transform="translate(336.403 446.683)" xlink:href="#stairs_on"/><use width="76.108" height="84.108" transform="translate(385.435 141.823)" xlink:href="#stairs_on"/><use width="76.108" height="84.108" transform="translate(243.809 21.239)" xlink:href="#stairs_on"/></g><g id="lift_on-2" data-name="lift on"><use width="76.108" height="84.108" transform="translate(426.429 472.747) scale(0.884)" xlink:href="#lifts_on"/></g><g id="toilet_on_color_box-2" data-name="toilet on color box"><use width="76.108" height="84.108" transform="translate(349.661 470.353) scale(0.699)" xlink:href="#accessible_on"/><use width="76.108" height="84.108" transform="translate(449.817 437.772) scale(0.699)" xlink:href="#female_on"/><use width="76.108" height="84.108" transform="translate(467.844 534.801) scale(0.699)" xlink:href="#male_on"/><use width="76.108" height="84.108" transform="translate(424.667 518.953) scale(0.699)" xlink:href="#accessible_on"/></g></g></svg>