<svg xmlns="http://www.w3.org/2000/svg" xmlns:xlink="http://www.w3.org/1999/xlink" width="648.806" height="960" viewBox="0 0 648.806 960"><defs><radialGradient id="radial-gradient" cx="293.895" cy="473.03" r="66.497" gradientTransform="translate(-12.559 150.609) scale(1 0.6)" gradientUnits="userSpaceOnUse"><stop offset="0.45" stop-color="#0a64fe"/><stop offset="0.83" stop-color="#49ffff" stop-opacity="0.1"/><stop offset="1" stop-color="#fff" stop-opacity="0"/></radialGradient><radialGradient id="radial-gradient-2" cx="308.232" cy="80.774" r="82.743" gradientTransform="translate(0 32.309) scale(1 0.6)" xlink:href="#radial-gradient"/><radialGradient id="radial-gradient-3" cx="384.215" cy="812.907" r="99.118" gradientTransform="translate(-8.625 215.022) scale(1 0.7)" xlink:href="#radial-gradient"/><radialGradient id="radial-gradient-4" cx="535.239" cy="433.298" r="47.149" gradientTransform="translate(0 43.33) scale(1 0.9)" xlink:href="#radial-gradient"/><radialGradient id="radial-gradient-5" cx="378.065" cy="434.582" r="64.9" gradientTransform="matrix(1, 0, 0, 1, 0, 0)" xlink:href="#radial-gradient"/><radialGradient id="radial-gradient-6" cx="464.151" cy="436.56" r="102.235" gradientTransform="translate(0 130.968) scale(1 0.7)" xlink:href="#radial-gradient"/><radialGradient id="radial-gradient-7" cx="319.568" cy="451.097" r="50.239" gradientTransform="translate(0 90.219) scale(1 0.8)" xlink:href="#radial-gradient"/><symbol id="New_Symbol" data-name="New Symbol" viewBox="0 0 38.033 19.938"><path d="M1.474,3.1h2.5l1.744,4.69.624,1.824H6.4l.624-1.824,1.7-4.69h2.5V13.537H9.013V9.712c0-1.024.191-2.545.3-3.554H9.253L8.4,8.575l-1.617,4.05H5.843l-1.6-4.05L3.41,6.158H3.346c.112,1.009.3,2.53.3,3.554v3.825H1.474Z" stroke="#fff" stroke-width="0.513"/><path d="M20.5,11.1H19.331v2.433H17.139V11.1h-4.4V9.487L16.45,3.373h2.881V9.312H20.5ZM17.139,9.312V7.663c0-.656.063-1.633.1-2.273h-.063c-.257.56-.545,1.136-.833,1.713L14.994,9.312Z" stroke="#fff" stroke-width="0.513"/><path d="M22,11.633H24.21V5.758h-1.9V4.3a7.058,7.058,0,0,0,2.528-.929h1.729v8.26h1.905v1.9H22Z" stroke="#fff" stroke-width="0.513"/><path d="M30.769,10.8a3.216,3.216,0,0,0,2.224,1.024c.993,0,1.65-.431,1.65-1.2,0-.9-.529-1.457-2.738-1.457V7.5c1.824,0,2.4-.545,2.4-1.36,0-.7-.448-1.122-1.248-1.122a2.819,2.819,0,0,0-1.905.9l-1.184-1.44a4.768,4.768,0,0,1,3.2-1.3c2.1,0,3.5,1.008,3.5,2.785a2.4,2.4,0,0,1-1.7,2.257v.064a2.524,2.524,0,0,1,2.016,2.481c0,1.889-1.728,2.961-3.777,2.961a4.422,4.422,0,0,1-3.537-1.44Z" stroke="#fff" stroke-width="0.513"/></symbol><symbol id="New_Symbol_2" data-name="New Symbol 2" viewBox="0 0 38.034 19.938"><path d="M1.473,3.1h2.5l1.745,4.69.624,1.825H6.4l.624-1.825,1.7-4.69h2.5V13.537H9.012V9.711c0-1.024.193-2.544.3-3.553H9.252L8.4,8.575l-1.616,4.05H5.843l-1.6-4.05L3.41,6.158H3.346c.112,1.009.3,2.529.3,3.553v3.826H1.473Z" stroke="#fff" stroke-width="0.513"/><path d="M20.5,11.1H19.332v2.433H17.139V11.1h-4.4V9.487L16.45,3.373h2.882V9.312H20.5ZM17.139,9.312V7.663c0-.657.064-1.633.1-2.273H17.17c-.255.56-.544,1.136-.832,1.713L14.994,9.312Z" stroke="#fff" stroke-width="0.513"/><path d="M22,11.632h2.208V5.758h-1.9V4.3a7.082,7.082,0,0,0,2.529-.928h1.728v8.259h1.9v1.905H22Z" stroke="#fff" stroke-width="0.513"/><path d="M34.6,5.358H30.033V3.373h7.075v1.44c-2.353,2.85-2.69,4.754-2.865,8.724H31.874A13.608,13.608,0,0,1,34.6,5.358Z" stroke="#fff" stroke-width="0.513"/></symbol><symbol id="New_Symbol_1" data-name="New Symbol 1" viewBox="0 0 33.343 17.51"><path d="M1.321,2.744H3.506l1.527,4.1.547,1.6h.056l.546-1.6,1.485-4.1H9.852v9.133H7.919V8.529c0-.9.168-2.227.266-3.11H8.129L7.387,7.535,5.972,11.079H5.146l-1.4-3.544L3.016,5.419H2.96c.1.883.267,2.214.267,3.11v3.348H1.321Z" stroke="#fff" stroke-width="0.513"/><path d="M17.97,9.748H16.948v2.129H15.029V9.748H11.177V8.333l3.25-5.351h2.521v5.2H17.97ZM15.029,8.179V6.736c0-.574.056-1.428.084-1.989h-.056c-.224.49-.476,1-.728,1.5L13.152,8.179Z" stroke="#fff" stroke-width="0.513"/><path d="M19.283,10.21h1.933V5.069H19.549V3.794a6.2,6.2,0,0,0,2.214-.812h1.512V10.21h1.667v1.667H19.283Z" stroke="#fff" stroke-width="0.513"/><path d="M31.382,5.111A2.042,2.042,0,0,0,30,4.481c-.98,0-1.765.7-1.835,2.773a2.5,2.5,0,0,1,1.779-.938,2.465,2.465,0,0,1,2.647,2.746,2.86,2.86,0,0,1-2.955,2.983c-1.723,0-3.362-1.289-3.362-4.412,0-3.32,1.723-4.819,3.6-4.819A3.532,3.532,0,0,1,32.46,3.878Zm-.673,3.951c0-.939-.49-1.289-1.162-1.289a1.611,1.611,0,0,0-1.345.882c.182,1.4.771,1.849,1.387,1.849S30.709,10.07,30.709,9.062Z" stroke="#fff" stroke-width="0.513"/></symbol><symbol id="New_Symbol_4" data-name="New Symbol 4" viewBox="0 0 38.033 19.938"><path d="M1.473,3.1h2.5l1.745,4.69.624,1.825H6.4l.624-1.825,1.7-4.69h2.5V13.537H9.012V9.711c0-1.024.193-2.544.3-3.553H9.252L8.4,8.575l-1.616,4.05H5.843l-1.6-4.05L3.41,6.158H3.346c.112,1.009.3,2.529.3,3.553v3.826H1.473Z" stroke="#fff" stroke-width="0.513"/><path d="M20.5,11.1H19.332v2.433H17.139V11.1h-4.4V9.487L16.45,3.373h2.882V9.312H20.5ZM17.139,9.312V7.663c0-.657.064-1.633.1-2.273H17.17c-.255.56-.544,1.136-.832,1.713L14.994,9.312Z" stroke="#fff" stroke-width="0.513"/><path d="M21.473,8.415c0-3.457,1.457-5.234,3.633-5.234S28.74,4.958,28.74,8.415s-1.457,5.314-3.634,5.314S21.473,11.873,21.473,8.415Zm5.042,0c0-2.785-.608-3.409-1.409-3.409-.784,0-1.408.624-1.408,3.409,0,2.769.624,3.489,1.408,3.489C25.907,11.9,26.515,11.184,26.515,8.415Z" stroke="#fff" stroke-width="0.513"/><path d="M37.4,11.1H36.228v2.433H34.035V11.1h-4.4V9.487l3.713-6.114h2.882V9.312H37.4ZM34.035,9.312V7.663c0-.657.064-1.633.1-2.273h-.064c-.255.56-.544,1.136-.832,1.713L31.89,9.312Z" stroke="#fff" stroke-width="0.513"/></symbol><symbol id="New_Symbol_5" data-name="New Symbol 5" viewBox="0 0 38.034 19.938"><path d="M1.473,3.1h2.5l1.745,4.69.624,1.824H6.4l.624-1.824,1.7-4.69h2.5V13.537H9.012V9.711c0-1.024.193-2.545.3-3.553H9.252L8.4,8.575,6.788,12.624H5.843l-1.6-4.049L3.41,6.158H3.346c.112,1.008.3,2.529.3,3.553v3.826H1.473Z" stroke="#fff" stroke-width="0.513"/><path d="M20.5,11.1H19.332v2.433H17.139V11.1h-4.4V9.487L16.45,3.373h2.882V9.311H20.5ZM17.139,9.311V7.662c0-.656.064-1.632.1-2.273H17.17c-.255.561-.544,1.137-.832,1.713L14.994,9.311Z" stroke="#fff" stroke-width="0.513"/><path d="M21.472,8.415c0-3.458,1.457-5.234,3.634-5.234S28.74,4.957,28.74,8.415s-1.457,5.314-3.634,5.314S21.472,11.872,21.472,8.415Zm5.042,0c0-2.786-.607-3.41-1.408-3.41-.784,0-1.408.624-1.408,3.41,0,2.769.624,3.489,1.408,3.489C25.907,11.9,26.514,11.184,26.514,8.415Z" stroke="#fff" stroke-width="0.513"/><path d="M29.92,12.192C32.514,9.743,34.338,8,34.338,6.558A1.365,1.365,0,0,0,32.9,5.021a2.6,2.6,0,0,0-1.809,1.041L29.809,4.8a4.3,4.3,0,0,1,3.409-1.616A3.118,3.118,0,0,1,36.58,6.414c0,1.712-1.6,3.537-3.249,5.266a15.672,15.672,0,0,1,1.7-.128h2.049v1.985H29.92Z" stroke="#fff" stroke-width="0.513"/></symbol><symbol id="New_Symbol_3" data-name="New Symbol 3" viewBox="0 0 38.034 19.938"><path d="M1.473,3.1h2.5l1.745,4.69.624,1.825H6.4l.624-1.825,1.7-4.69h2.5V13.537H9.012V9.711c0-1.024.193-2.544.3-3.553H9.252L8.4,8.575l-1.616,4.05H5.843l-1.6-4.05L3.41,6.158H3.346c.112,1.009.3,2.529.3,3.553v3.826H1.473Z" stroke="#fff" stroke-width="0.513"/><path d="M20.5,11.1H19.332v2.433H17.139V11.1h-4.4V9.487L16.45,3.373h2.882V9.312H20.5ZM17.139,9.312V7.663c0-.657.064-1.633.1-2.273H17.17c-.255.56-.544,1.136-.832,1.713L14.994,9.312Z" stroke="#fff" stroke-width="0.513"/><path d="M22,11.632h2.208V5.758h-1.9V4.3a7.082,7.082,0,0,0,2.529-.928h1.728v8.259h1.9v1.905H22Z" stroke="#fff" stroke-width="0.513"/><path d="M29.921,8.415c0-3.457,1.456-5.234,3.633-5.234s3.634,1.777,3.634,5.234-1.457,5.314-3.634,5.314S29.921,11.873,29.921,8.415Zm5.042,0c0-2.785-.609-3.409-1.409-3.409-.784,0-1.408.624-1.408,3.409,0,2.769.624,3.489,1.408,3.489C34.354,11.9,34.963,11.184,34.963,8.415Z" stroke="#fff" stroke-width="0.513"/></symbol><symbol id="stairs_on" data-name="stairs on" viewBox="0 0 76.108 84.108"><path id="Union_4-4" data-name="Union 4-4" d="M33.1,72.823H22.054a20,20,0,0,1-20-20V22.054a20,20,0,0,1,20-20h32a20,20,0,0,1,20,20V52.823a20,20,0,0,1-20,20H44.575l-5.737,9.231Z" stroke="#fff" stroke-linecap="round" stroke-linejoin="round" stroke-width="4.108"/><path id="stairs_on-3" data-name="stairs on" d="M43.766,22.019v7.32a1.541,1.541,0,0,1-1.537,1.543H34.9a2.554,2.554,0,0,0-2.555,2.549h0v7.32a1.541,1.541,0,0,1-1.537,1.543H23.473a2.55,2.55,0,0,0-2.552,2.548v6.341a2.551,2.551,0,0,0,2.552,2.549h29.16a2.553,2.553,0,0,0,2.555-2.549h0V22.019a2.552,2.552,0,0,0-2.555-2.548H46.319a2.551,2.551,0,0,0-2.553,2.548Z" fill="#fff"/></symbol><symbol id="lifts_on" data-name="lifts on" viewBox="0 0 76.108 84.108"><path id="Union_4-4-4" data-name="Union 4-4" d="M33.1,72.823H22.054a20,20,0,0,1-20-20V22.054a20,20,0,0,1,20-20h32a20,20,0,0,1,20,20V52.823a20,20,0,0,1-20,20H44.575l-5.737,9.231Z" stroke="#fff" stroke-linecap="round" stroke-linejoin="round" stroke-width="4.108"/><g id="Group_787-3" data-name="Group 787-3"><path id="Path_127-3" data-name="Path 127-3" d="M42.052,35.786l7.358-9.029,7.018,9.029" fill="none" stroke="#fff" stroke-linecap="round" stroke-linejoin="round" stroke-width="6.156"/><line id="Line_43-3" data-name="Line 43-3" x1="49.416" y1="48.49" x2="49.416" y2="26.759" stroke-width="6.156" stroke="#fff" stroke-linecap="round" stroke-linejoin="round" fill="none"/></g><g id="Group_788-3" data-name="Group 788-3"><path id="Path_128-3" data-name="Path 128-3" d="M19.68,39.461l7.357,9.029,7.018-9.029" fill="none" stroke="#fff" stroke-linecap="round" stroke-linejoin="round" stroke-width="6.156"/><line id="Line_44-3" data-name="Line 44-3" x1="27.037" y1="26.757" x2="27.037" y2="48.488" stroke-width="6.156" stroke="#fff" stroke-linecap="round" stroke-linejoin="round" fill="none"/></g></symbol><symbol id="accessible_on" data-name="accessible on" viewBox="0 0 76.108 84.108"><path id="Union_4-4-5" data-name="Union 4-4" d="M33.1,72.823H22.054a20,20,0,0,1-20-20V22.054a20,20,0,0,1,20-20h32a20,20,0,0,1,20,20V52.823a20,20,0,0,1-20,20H44.575l-5.737,9.231Z" stroke="#fff" stroke-linecap="round" stroke-linejoin="round" stroke-width="4.108"/><g id="accessible-2-2" data-name="accessible-2"><g id="Group_1512-2-2" data-name="Group 1512-2"><path id="Path_142-2-2-2" data-name="Path 142-2-2" d="M55.342,35.389a2.692,2.692,0,0,0-2.1-.845l-6.254.4a1.443,1.443,0,0,1-1.189-2.378l3.028-3.5a2.657,2.657,0,0,0,.634-2.945,3.262,3.262,0,0,0-1.264-1.676l-8.347-5.422a8.616,8.616,0,0,0-10.551.916l-3.028,2.814a2.877,2.877,0,0,0-.21,3.777,2.742,2.742,0,0,0,3.84.4c.06-.051.119-.1.175-.158l2.608-2.378a3.683,3.683,0,0,1,4.379-.4h0a1.439,1.439,0,0,1,.478,1.978l0,0a1.523,1.523,0,0,1-.151.2L32.1,32.274a1.5,1.5,0,0,1-.864.5,13.62,13.62,0,0,0-5.585,2.446,1.4,1.4,0,0,0-.376,1.93h0a1.056,1.056,0,0,0,.2.23l1.585,1.585a1.48,1.48,0,0,0,1.871.159,9.182,9.182,0,0,1,5.153-1.562,8.965,8.965,0,0,1,9.08,8.849V46.6A9.113,9.113,0,0,1,41.58,51.75a1.428,1.428,0,0,0,.155,1.828l1.554,1.565a1.458,1.458,0,0,0,2.062.007l.007-.007a1.31,1.31,0,0,0,.15-.174,14.263,14.263,0,0,0,2.707-8.351,11.387,11.387,0,0,0-.662-4.285,1.443,1.443,0,0,1,.864-1.847,1.632,1.632,0,0,1,.4-.083h0a1.444,1.444,0,0,1,1.514,1.364.883.883,0,0,1,0,.218l-.884,9.257a2.644,2.644,0,0,0,2.325,2.928h.41a2.745,2.745,0,0,0,2.742-2.516l1.261-14.269A2.27,2.27,0,0,0,55.342,35.389Z" fill="#fff"/><path id="Path_143-2-2-2" data-name="Path 143-2-2" d="M50.8,23.633a5.172,5.172,0,1,0-5.212-5.172h0A5.243,5.243,0,0,0,50.8,23.633Z" fill="#fff"/><path id="Path_144-2-2-2" data-name="Path 144-2-2" d="M34.125,55.59a9.021,9.021,0,0,1-9.116-8.918h0v-.134a9.969,9.969,0,0,1,1.146-4.447.95.95,0,0,0-.171-1.106l-2.326-2.307a.96.96,0,0,0-1.352,0h0a1.3,1.3,0,0,0-.119.147,13.726,13.726,0,0,0-2.271,7.7A14.153,14.153,0,0,0,34.1,60.647h.008a13.624,13.624,0,0,0,7.765-2.263.954.954,0,0,0,.15-1.462l-2.31-2.287a.956.956,0,0,0-1.154-.147A8.548,8.548,0,0,1,34.125,55.59Z" fill="#fff"/></g></g></symbol><symbol id="female_on" data-name="female on" viewBox="0 0 76.108 84.108"><path id="Union_4-4-6" data-name="Union 4-4" d="M33.1,72.823H22.054a20,20,0,0,1-20-20V22.054a20,20,0,0,1,20-20h32a20,20,0,0,1,20,20V52.823a20,20,0,0,1-20,20H44.575l-5.737,9.231Z" stroke="#fff" stroke-linecap="round" stroke-linejoin="round" stroke-width="4.108"/><g id="female-2-2" data-name="female-2"><path id="Path_9435-2-2" data-name="Path 9435-2" d="M44.391,35.733l1.431,2.752a1.778,1.778,0,0,0,1.582.987h0A1.82,1.82,0,0,0,49.2,37.626h0a1.738,1.738,0,0,0-.216-.828l-3.576-6.874a8.3,8.3,0,0,0-7.351-4.5h0a8.3,8.3,0,0,0-7.353,4.5L27.125,36.8a1.816,1.816,0,0,0,.746,2.458l.011.006a1.839,1.839,0,0,0,.844.215h0a1.779,1.779,0,0,0,1.582-.988l1.427-2.751a.1.1,0,0,1,.113-.057.091.091,0,0,1,.057.114h0L29.578,47.55a.994.994,0,0,0,.757,1.18h.034a.644.644,0,0,0,.2,0h1.753a.993.993,0,0,1,.988.988h0v8.887a1.892,1.892,0,0,0,1.858,1.926H35.2a1.913,1.913,0,0,0,1.893-1.919h0V49.722a.987.987,0,0,1,.984-.988h0a.987.987,0,0,1,.987.988h0v8.891a1.893,1.893,0,0,0,1.862,1.922h.031a1.892,1.892,0,0,0,1.892-1.892v-.027h0v-8.89a.988.988,0,0,1,.984-.988h1.753a.989.989,0,0,0,.988-.984h0a.845.845,0,0,0,0-.2L44.244,35.782a.116.116,0,0,1,.06-.154h0a.126.126,0,0,1,.156.065v.038Z" fill="#fff"/><circle id="Ellipse_521-2-2" data-name="Ellipse 521-2" cx="38.071" cy="19.254" r="5.057" fill="#fff"/></g></symbol><symbol id="male_on" data-name="male on" viewBox="0 0 76.108 84.108"><path id="Union_4-4-7" data-name="Union 4-4" d="M33.1,72.823H22.054a20,20,0,0,1-20-20V22.054a20,20,0,0,1,20-20h32a20,20,0,0,1,20,20V52.823a20,20,0,0,1-20,20H44.575l-5.737,9.231Z" stroke="#fff" stroke-linecap="round" stroke-linejoin="round" stroke-width="4.108"/><g id="Group_4326-3-2" data-name="Group 4326-3"><circle id="Ellipse_522-2-2" data-name="Ellipse 522-2" cx="38.058" cy="18.794" r="5.54" fill="#fff"/><path id="Path_9436-2-2" data-name="Path 9436-2" d="M39.37,25.53H36.893A8.666,8.666,0,0,0,30.83,28l-.128.128a8.646,8.646,0,0,0-2.6,6.194V40.1a1.765,1.765,0,0,0,1.765,1.765h0A1.766,1.766,0,0,0,31.635,40.1v0h0V34.032a.739.739,0,0,1,.728-.739h.256a.735.735,0,0,1,.735.735h0v24.5a1.97,1.97,0,0,0,1.727,1.989,1.935,1.935,0,0,0,2.091-1.718,1.57,1.57,0,0,0,0-.194V46.742a1.011,1.011,0,0,1,1.01-1.011h0a1.011,1.011,0,0,1,1.007,1.011h0v11.8a1.975,1.975,0,0,0,1.726,1.99,1.937,1.937,0,0,0,2.095-1.719,1.57,1.57,0,0,0,0-.194V34.047a.73.73,0,0,1,.727-.735h0a.735.735,0,0,1,.736.735h0V40.11a1.765,1.765,0,0,0,1.765,1.765h0a1.766,1.766,0,0,0,1.77-1.761v0h0V34.191a8.651,8.651,0,0,0-2.447-6.063h0A8.656,8.656,0,0,0,39.37,25.53Z" fill="#fff"/></g></symbol></defs><g id="floor_color_box" data-name="floor color box"><g id="floor"><path d="M618.954,447.72q0,19.11-1.14,37.23c-15.41,250.89-183.52,358.97-193.76,365.32a1.968,1.968,0,0,1-1.05.3h-62.95a2,2,0,0,1-2-2V484.89h-79.01a2.006,2.006,0,0,1-2-2V71.64a2.006,2.006,0,0,1,2-2h89.71a2,2,0,0,1,2,2v22.8a2,2,0,0,0,2,2h30.42a2,2,0,0,0,2-2V73.26a2,2,0,0,1,3.11-1.66c23.43,15.75,172.05,122.06,204.44,304.91A407.491,407.491,0,0,1,618.954,447.72Z" fill="#667b8e"/><path d="M604.781,433.546q0,19.11-1.14,37.23c-15.41,250.89-183.52,358.97-193.76,365.32a1.968,1.968,0,0,1-1.05.3h-62.95a2,2,0,0,1-2-2V470.716h-79.01a2.006,2.006,0,0,1-2-2V57.466a2.006,2.006,0,0,1,2-2h89.71a2,2,0,0,1,2,2v22.8a2,2,0,0,0,2,2H389a2,2,0,0,0,2-2V59.086a2,2,0,0,1,3.11-1.66c23.43,15.75,172.05,122.06,204.44,304.91A407.491,407.491,0,0,1,604.781,433.546Z" fill="#fff"/></g><path id="footpath" d="M604.781,433.546q0,19.11-1.14,37.23H560.7V453.9h-1.95v-40.86h-43.48v-12.18H318.641v32.3h-21.05v-32.3h-34.72v-17.29h34.72v-21.23h300.96A407.491,407.491,0,0,1,604.781,433.546Z" fill="#e1e6ea"/><path id="stairs" d="M264.874,55.47h89.708a2,2,0,0,1,2,2v47.883a0,0,0,0,1,0,0H262.874a0,0,0,0,1,0,0V57.47A2,2,0,0,1,264.874,55.47Z" fill="#dcffe4"/><path id="stairs-2" data-name="stairs" d="M262.874,400.858h34.713a0,0,0,0,1,0,0v69.856a0,0,0,0,1,0,0h-32.6a2.112,2.112,0,0,1-2.112-2.112V400.858A0,0,0,0,1,262.874,400.858Z" fill="#dcffe4"/><path id="stairs-3" data-name="stairs" d="M343.884,735.537h64.944a0,0,0,0,1,0,0V836.4a0,0,0,0,1,0,0H345.994a2.11,2.11,0,0,1-2.11-2.11V735.537A0,0,0,0,1,343.884,735.537Z" fill="#dcffe4"/><rect id="lifts" x="515.274" y="413.033" width="43.482" height="40.863" fill="#f0dcff"/><path id="toilets" d="M512.623,400.858H343.884v31.386h-46.3v38.537h214.8a2.591,2.591,0,0,0,2.591-2.591V403.213A2.355,2.355,0,0,0,512.623,400.858Z" fill="#cff2ff"/></g><g id="overlay"><g id="exterior_outline" data-name="exterior outline"><path d="M264.874,470.714a2,2,0,0,1-2-2V57.47a2,2,0,0,1,2-2h89.708a2,2,0,0,1,2,2v22.8a2,2,0,0,0,2,2H389a2,2,0,0,0,2-2V59.089a2,2,0,0,1,3.112-1.663c26.316,17.691,210.673,149.7,210.673,376.116,0,277.484-184.17,395.892-194.9,402.558a1.987,1.987,0,0,1-1.053.3H345.884a2,2,0,0,1-2-2V470.714Z" fill="none" stroke="#a4aeb6" stroke-linecap="round" stroke-linejoin="round" stroke-width="3"/><path d="M282.079,80.774h49.695a2,2,0,0,0,2-2V55.47" fill="none" stroke="#a4aeb6" stroke-linecap="round" stroke-linejoin="round" stroke-width="3"/><line x1="357.037" y1="105.353" x2="262.874" y2="105.353" fill="none" stroke="#a4aeb6" stroke-linecap="round" stroke-linejoin="round" stroke-width="3"/><line x1="263.146" y1="272.491" x2="319.34" y2="272.491" fill="none" stroke="#a4aeb6" stroke-linecap="round" stroke-linejoin="round" stroke-width="3"/><line x1="319.34" y1="362.287" x2="262.874" y2="362.287" fill="none" stroke="#a4aeb6" stroke-linecap="round" stroke-linejoin="round" stroke-width="3"/><line x1="514.978" y1="362.287" x2="598.549" y2="362.287" fill="none" stroke="#a4aeb6" stroke-linecap="round" stroke-linejoin="round" stroke-width="3"/><line x1="378.207" y1="362.287" x2="479.35" y2="362.287" fill="none" stroke="#a4aeb6" stroke-linecap="round" stroke-linejoin="round" stroke-width="3"/><path d="M339.548,272.491v87.8a2,2,0,0,0,2,2h12.435" fill="none" stroke="#a4aeb6" stroke-linecap="round" stroke-linejoin="round" stroke-width="3"/><path d="M339.548,313.277h49.427a2,2,0,0,1,2,2v47.01" fill="none" stroke="#a4aeb6" stroke-linecap="round" stroke-linejoin="round" stroke-width="3"/><path d="M514.978,453.9H558.7a2,2,0,0,1,2,2v14.885" fill="none" stroke="#a4aeb6" stroke-linecap="round" stroke-linejoin="round" stroke-width="3"/><path d="M341.361,470.714H512.978a2,2,0,0,0,2-2V402.858a2,2,0,0,0-2-2H440.321" fill="none" stroke="#a4aeb6" stroke-linecap="round" stroke-linejoin="round" stroke-width="3"/><path d="M362.577,400.858h47.479a2,2,0,0,1,2,2v67.856" fill="none" stroke="#a4aeb6" stroke-linecap="round" stroke-linejoin="round" stroke-width="3"/><path d="M318.641,400.858h23.243a2,2,0,0,1,2,2v70.094" fill="none" stroke="#a4aeb6" stroke-linecap="round" stroke-linejoin="round" stroke-width="3"/><path d="M297.587,470.714V402.858a2,2,0,0,0-2-2H279.863" fill="none" stroke="#a4aeb6" stroke-linecap="round" stroke-linejoin="round" stroke-width="3"/><path d="M514.978,413.033H558.7a2,2,0,0,0,2-2V400.858" fill="none" stroke="#a4aeb6" stroke-linecap="round" stroke-linejoin="round" stroke-width="3"/><line x1="374.963" y1="735.537" x2="343.884" y2="735.537" fill="none" stroke="#a4aeb6" stroke-linecap="round" stroke-linejoin="round" stroke-width="3"/><line x1="408.828" y1="836.4" x2="408.828" y2="735.537" fill="none" stroke="#a4aeb6" stroke-linecap="round" stroke-linejoin="round" stroke-width="3"/><line x1="375.612" y1="760.747" x2="375.612" y2="811.167" fill="none" stroke="#a4aeb6" stroke-linecap="round" stroke-linejoin="round" stroke-width="3"/><line x1="297.587" y1="382.988" x2="297.587" y2="362.338" fill="none" stroke="#a4aeb6" stroke-linecap="round" stroke-linejoin="round" stroke-width="3"/><line x1="279.863" y1="421.301" x2="279.863" y2="449.968" fill="none" stroke="#a4aeb6" stroke-linecap="round" stroke-linejoin="round" stroke-width="3"/><path d="M343.884,432.244H320.641a2,2,0,0,1-2-2V415.458" fill="none" stroke="#a4aeb6" stroke-linecap="round" stroke-linejoin="round" stroke-width="3"/><line x1="323.167" y1="55.47" x2="323.167" y2="105.353" fill="none" stroke="#a4aeb6" stroke-linecap="round" stroke-linejoin="round"/><line x1="314.949" y1="55.47" x2="314.949" y2="105.353" fill="none" stroke="#a4aeb6" stroke-linecap="round" stroke-linejoin="round"/><line x1="306.731" y1="55.47" x2="306.731" y2="105.353" fill="none" stroke="#a4aeb6" stroke-linecap="round" stroke-linejoin="round"/><line x1="298.514" y1="55.47" x2="298.514" y2="105.353" fill="none" stroke="#a4aeb6" stroke-linecap="round" stroke-linejoin="round"/><line x1="290.296" y1="55.47" x2="290.296" y2="105.353" fill="none" stroke="#a4aeb6" stroke-linecap="round" stroke-linejoin="round"/><line x1="282.079" y1="55.47" x2="282.079" y2="105.353" fill="none" stroke="#a4aeb6" stroke-linecap="round" stroke-linejoin="round"/><line x1="262.874" y1="421.301" x2="297.587" y2="421.301" fill="none" stroke="#a4aeb6" stroke-linecap="round" stroke-linejoin="round"/><line x1="262.874" y1="430.857" x2="297.587" y2="430.857" fill="none" stroke="#a4aeb6" stroke-linecap="round" stroke-linejoin="round"/><line x1="262.874" y1="440.413" x2="297.587" y2="440.413" fill="none" stroke="#a4aeb6" stroke-linecap="round" stroke-linejoin="round"/><line x1="262.874" y1="449.968" x2="297.587" y2="449.968" fill="none" stroke="#a4aeb6" stroke-linecap="round" stroke-linejoin="round"/><line x1="343.884" y1="760.747" x2="408.828" y2="760.747" fill="none" stroke="#a4aeb6" stroke-linecap="round" stroke-linejoin="round"/><line x1="343.884" y1="770.831" x2="408.828" y2="770.831" fill="none" stroke="#a4aeb6" stroke-linecap="round" stroke-linejoin="round"/><line x1="343.884" y1="780.915" x2="408.828" y2="780.915" fill="none" stroke="#a4aeb6" stroke-linecap="round" stroke-linejoin="round"/><line x1="343.884" y1="790.999" x2="408.828" y2="790.999" fill="none" stroke="#a4aeb6" stroke-linecap="round" stroke-linejoin="round"/><line x1="343.884" y1="801.083" x2="408.828" y2="801.083" fill="none" stroke="#a4aeb6" stroke-linecap="round" stroke-linejoin="round"/><line x1="343.884" y1="811.167" x2="408.828" y2="811.167" fill="none" stroke="#a4aeb6" stroke-linecap="round" stroke-linejoin="round"/></g><g id="lifts_off" data-name="lifts off"><g id="lifts-2" data-name="lifts"><path id="Rectangle_1123-3" data-name="Rectangle 1123-3" d="M527.218,423.067h17.43a4.078,4.078,0,0,1,4.082,4.074v12.648a4.077,4.077,0,0,1-4.082,4.073h-17.43a4.077,4.077,0,0,1-4.082-4.073V427.141A4.078,4.078,0,0,1,527.218,423.067Z" fill="#6979ff" stroke="#fff" stroke-width="1.631"/><g id="Group_787" data-name="Group 787"><path id="Path_127" data-name="Path 127" d="M537.75,432.321l3.346-4.1,3.193,4.1" fill="none" stroke="#fff" stroke-linecap="round" stroke-linejoin="round" stroke-width="2.052"/><line id="Line_43" data-name="Line 43" x1="541.101" y1="438.1" x2="541.101" y2="428.214" stroke-width="2.052" stroke="#fff" stroke-linecap="round" stroke-linejoin="round" fill="none"/></g><g id="Group_788" data-name="Group 788"><path id="Path_128" data-name="Path 128" d="M527.577,433.992l3.347,4.1,3.192-4.1" fill="none" stroke="#fff" stroke-linecap="round" stroke-linejoin="round" stroke-width="2.052"/><line id="Line_44" data-name="Line 44" x1="530.922" y1="428.214" x2="530.922" y2="438.1" stroke-width="2.052" stroke="#fff" stroke-linecap="round" stroke-linejoin="round" fill="none"/></g></g></g><g id="toilet_off" data-name="toilet off"><g id="accessible_off" data-name="accessible off"><rect x="308.758" y="439.005" width="20.795" height="25.594" rx="3.999" fill="#0a64fe" stroke="#fff" stroke-width="1.928"/><g id="accessible-2"><g id="Group_1512-2" data-name="Group 1512-2"><path id="Path_142-2-2" data-name="Path 142-2-2" d="M326.3,451.149a1.108,1.108,0,0,0-.87-.349l-2.586.164a.6.6,0,0,1-.491-.983l1.252-1.449a1.1,1.1,0,0,0,.262-1.218,1.349,1.349,0,0,0-.523-.693l-3.451-2.242a3.565,3.565,0,0,0-4.363.379l-1.252,1.164a1.188,1.188,0,0,0-.086,1.561,1.134,1.134,0,0,0,1.588.164c.024-.021.049-.042.072-.065l1.078-.984a1.523,1.523,0,0,1,1.811-.163h0a.594.594,0,0,1,.2.817v0a.609.609,0,0,1-.062.082l-2.184,2.525a.619.619,0,0,1-.358.208,5.624,5.624,0,0,0-2.309,1.012.576.576,0,0,0-.155.8h0a.468.468,0,0,0,.083.095l.656.655a.611.611,0,0,0,.773.066,3.789,3.789,0,0,1,2.131-.646,3.707,3.707,0,0,1,3.754,3.659v.076a3.772,3.772,0,0,1-.655,2.13.591.591,0,0,0,.063.756l.643.647a.6.6,0,0,0,.853,0l0,0a.542.542,0,0,0,.063-.072,5.905,5.905,0,0,0,1.119-3.453,4.709,4.709,0,0,0-.274-1.772.6.6,0,0,1,.357-.763.657.657,0,0,1,.164-.035h0a.6.6,0,0,1,.626.564.339.339,0,0,1,0,.09l-.365,3.828a1.094,1.094,0,0,0,.961,1.211H325a1.136,1.136,0,0,0,1.134-1.04l.521-5.9A.939.939,0,0,0,326.3,451.149Z" fill="#fff"/><path id="Path_143-2-2" data-name="Path 143-2-2" d="M324.424,446.288a2.139,2.139,0,1,0-2.155-2.138h0A2.167,2.167,0,0,0,324.424,446.288Z" fill="#fff"/><path id="Path_144-2-2" data-name="Path 144-2-2" d="M317.531,459.5a3.73,3.73,0,0,1-3.769-3.688h0v-.055a4.125,4.125,0,0,1,.474-1.839.394.394,0,0,0-.071-.457l-.962-.954a.4.4,0,0,0-.559,0h0a.485.485,0,0,0-.049.061,5.681,5.681,0,0,0-.939,3.184,5.852,5.852,0,0,0,5.865,5.839h0a5.632,5.632,0,0,0,3.21-.936.393.393,0,0,0,.113-.541.448.448,0,0,0-.051-.064l-.955-.945a.4.4,0,0,0-.477-.061A3.536,3.536,0,0,1,317.531,459.5Z" fill="#fff"/></g></g></g><g id="female_off" data-name="female off"><rect x="367.518" y="420.668" width="20.795" height="25.594" rx="3.999" fill="#0a64fe" stroke="#fff" stroke-width="1.928"/><g id="female-2"><path id="Path_9435-2" data-name="Path 9435-2" d="M380.664,432.756l.62,1.194a.772.772,0,0,0,.686.428h0a.789.789,0,0,0,.778-.8h0a.75.75,0,0,0-.093-.359l-1.551-2.981a3.6,3.6,0,0,0-3.188-1.953h0a3.6,3.6,0,0,0-3.189,1.953l-1.551,2.981a.788.788,0,0,0,.324,1.066l0,0a.8.8,0,0,0,.366.094h0a.773.773,0,0,0,.686-.429l.618-1.193a.043.043,0,0,1,.05-.024.038.038,0,0,1,.024.049h0l-1.009,5.1a.432.432,0,0,0,.328.512h.015a.3.3,0,0,0,.085,0h.76a.431.431,0,0,1,.429.428h0v3.854a.82.82,0,0,0,.8.835h.015a.828.828,0,0,0,.821-.832h0v-3.855a.429.429,0,0,1,.427-.429h0a.429.429,0,0,1,.428.429h0v3.855a.821.821,0,0,0,.807.834h.014a.82.82,0,0,0,.82-.821v-.011h0v-3.856a.428.428,0,0,1,.427-.428h.76a.428.428,0,0,0,.428-.427h0a.317.317,0,0,0,0-.087l-1.009-5.1a.051.051,0,0,1,.026-.067h0a.052.052,0,0,1,.067.028v.016Z" fill="#fff"/><circle id="Ellipse_521-2" data-name="Ellipse 521-2" cx="377.923" cy="425.61" r="2.193" fill="#fff"/></g></g><g id="male_off" data-name="male off"><rect x="453.912" y="420.668" width="20.795" height="25.594" rx="3.999" fill="#0a64fe" stroke="#fff" stroke-width="1.928"/><g id="Group_4326-3" data-name="Group 4326-3"><circle id="Ellipse_522-2" data-name="Ellipse 522-2" cx="464.311" cy="425.791" r="2.349" fill="#fff"/><path id="Path_9436-2" data-name="Path 9436-2" d="M464.867,428.647h-1.05a3.671,3.671,0,0,0-2.57,1.045l-.055.055a3.662,3.662,0,0,0-1.1,2.626v2.448a.748.748,0,0,0,.748.749h0a.749.749,0,0,0,.75-.747v0h0v-2.57a.313.313,0,0,1,.309-.313h.108a.312.312,0,0,1,.312.312h0v10.384a.835.835,0,0,0,.732.844.821.821,0,0,0,.886-.729.561.561,0,0,0,0-.082v-5.028a.428.428,0,0,1,.428-.428h0a.428.428,0,0,1,.427.428h0v5a.838.838,0,0,0,.732.844.821.821,0,0,0,.888-.729.561.561,0,0,0,0-.082V432.258a.31.31,0,0,1,.309-.312h0a.311.311,0,0,1,.311.312h0v2.57a.749.749,0,0,0,.749.748h0a.748.748,0,0,0,.75-.747h0v-2.51a3.669,3.669,0,0,0-1.037-2.57h0A3.67,3.67,0,0,0,464.867,428.647Z" fill="#fff"/></g></g></g></g><g id="text"><use width="38.033" height="19.938" transform="translate(439.514 594.036)" xlink:href="#New_Symbol"/><use width="38.034" height="19.938" transform="translate(261.294 363.888)" xlink:href="#New_Symbol_2"/><use width="33.343" height="17.51" transform="translate(314.747 407.174)" xlink:href="#New_Symbol_1"/><use width="38.033" height="19.938" transform="translate(282.298 311.299)" xlink:href="#New_Symbol_4"/><use width="38.034" height="19.938" transform="translate(397.962 220.042)" xlink:href="#New_Symbol_5"/><use width="38.034" height="19.938" transform="translate(346.849 328.049)" xlink:href="#New_Symbol_3"/></g><g id="toggle"><g id="stair_on" data-name="stair on"><g id="highlight"><rect x="214.839" y="367.93" width="132.994" height="132.994" transform="translate(715.763 153.091) rotate(90)" fill="url(#radial-gradient)"/><g id="stairs-4" data-name="stairs"><path d="M264.986,470.714h32.6V400.858H262.874V468.6A2.113,2.113,0,0,0,264.986,470.714Z" fill="#0a64fe"/></g><polyline points="279.863 400.858 297.587 400.858 297.587 470.714 262.871 470.714 262.871 400.856" fill="none" stroke="#fff" stroke-linecap="round" stroke-linejoin="round" stroke-width="4"/></g><g id="highlight-2" data-name="highlight"><rect x="225.489" y="-1.97" width="165.486" height="165.486" fill="url(#radial-gradient-2)"/><g id="stairs-5" data-name="stairs"><path d="M356.582,105.353H262.874V57.47a2,2,0,0,1,2-2h89.708a2,2,0,0,1,2,2Z" fill="#0a64fe"/></g><polyline points="356.582 105.353 262.874 105.353 262.874 55.47 356.581 55.47 356.581 82.268" fill="none" stroke="#fff" stroke-linecap="round" stroke-linejoin="round" stroke-width="4"/></g><g id="highlight-3" data-name="highlight"><rect x="276.472" y="684.939" width="198.235" height="198.235" transform="translate(1159.646 408.468) rotate(90)" fill="url(#radial-gradient-3)"/><g id="stairs-6" data-name="stairs"><path d="M343.884,735.537h64.944V836.4H345.994a2.11,2.11,0,0,1-2.11-2.111Z" fill="#0a64fe"/></g><polyline points="408.828 735.537 408.828 836.1 343.884 836.1 343.884 735.537 376.356 735.537" fill="none" stroke="#fff" stroke-linecap="round" stroke-linejoin="round" stroke-width="4"/></g></g><g id="lift_on" data-name="lift on"><g id="highlight-4" data-name="highlight"><rect x="488.09" y="386.148" width="94.299" height="94.299" fill="url(#radial-gradient-4)"/><g id="lifts-3" data-name="lifts"><rect x="515.274" y="413.033" width="43.482" height="40.863" fill="#0a64fe"/></g><polyline points="558.751 413.036 515.274 413.036 515.274 453.896 558.756 453.896" fill="none" stroke="#fff" stroke-linecap="round" stroke-linejoin="round" stroke-width="4"/></g></g><g id="toilet_on_color_box" data-name="toilet on color box"><g id="highlight-5" data-name="highlight"><rect x="313.164" y="369.681" width="129.801" height="129.801" fill="url(#radial-gradient-5)"/><rect x="343.881" y="400.858" width="68.175" height="69.856" fill="#0a64fe"/><polyline points="362.577 400.858 412.056 400.858 412.056 470.714 343.881 470.714 343.881 400.858" fill="none" stroke="#fff" stroke-linecap="round" stroke-linejoin="round" stroke-width="4"/></g><g id="highlight-6" data-name="highlight"><rect x="361.916" y="334.326" width="204.47" height="204.47" fill="url(#radial-gradient-6)"/><rect x="412.056" y="400.858" width="103.217" height="69.856" fill="#0a64fe"/><polyline points="412.056 400.858 412.056 470.714 515.274 470.714 515.274 400.856 440.321 400.856" fill="none" stroke="#fff" stroke-linecap="round" stroke-linejoin="round" stroke-width="4"/></g><g id="highlight-7" data-name="highlight"><rect x="269.329" y="400.858" width="100.478" height="100.478" fill="url(#radial-gradient-7)"/><rect x="297.587" y="432.244" width="43.774" height="38.537" fill="#0a64fe"/><polyline points="318.641 432.244 343.881 432.244 343.881 470.714 297.587 470.714 297.587 432.244" fill="none" stroke="#fff" stroke-linecap="round" stroke-linejoin="round" stroke-width="4"/></g></g></g><g id="floating"><g id="stair_on-2" data-name="stair on"><use width="76.108" height="84.108" transform="translate(337.863 743.185)" xlink:href="#stairs_on"/><use width="76.108" height="84.108" transform="translate(245.687 322.56)" xlink:href="#stairs_on"/><use width="76.108" height="84.108" transform="translate(272.415 8.82)" xlink:href="#stairs_on"/></g><g id="lift_on-2" data-name="lift on"><use width="76.108" height="84.108" transform="translate(498.892 346.138)" xlink:href="#lifts_on"/></g><g id="toilet_on_color_box-2" data-name="toilet on color box"><use width="76.108" height="84.108" transform="translate(271.374 374.5)" xlink:href="#accessible_on"/><use width="76.108" height="84.108" transform="translate(359.357 330.238)" xlink:href="#female_on"/><use width="76.108" height="84.108" transform="translate(442.26 330.238)" xlink:href="#male_on"/></g></g></svg>