<svg xmlns="http://www.w3.org/2000/svg" xmlns:xlink="http://www.w3.org/1999/xlink" width="1567.454" height="1100" viewBox="0 0 1567.454 1100"><defs><radialGradient id="radial-gradient" cx="768.437" cy="122.389" r="45.7" gradientTransform="translate(0 73.433) scale(1 0.4)" gradientUnits="userSpaceOnUse"><stop offset="0.45" stop-color="#0a64fe"/><stop offset="0.83" stop-color="#49ffff" stop-opacity="0.1"/><stop offset="1" stop-color="#fff" stop-opacity="0"/></radialGradient><radialGradient id="radial-gradient-2" cx="717.347" cy="228.74" r="48.343" gradientTransform="translate(-70.893 168.254) scale(1 0.4)" xlink:href="#radial-gradient"/><radialGradient id="radial-gradient-3" cx="661.35" cy="761.383" r="51.481" gradientTransform="translate(0 152.277) scale(1 0.8)" xlink:href="#radial-gradient"/><radialGradient id="radial-gradient-4" cx="243.225" cy="830.639" r="57.009" gradientTransform="translate(-14.763 286.459) scale(1 0.6)" xlink:href="#radial-gradient"/><radialGradient id="radial-gradient-5" cx="604.361" cy="361.808" r="35.705" gradientTransform="translate(0 72.362) scale(1 0.8)" xlink:href="#radial-gradient"/><radialGradient id="radial-gradient-6" cx="606.427" cy="397.763" r="64.503" gradientTransform="translate(0 79.553) scale(1 0.8)" xlink:href="#radial-gradient"/><radialGradient id="radial-gradient-7" cx="607.308" cy="443.66" r="71.325" gradientTransform="translate(0 177.464) scale(1 0.6)" xlink:href="#radial-gradient"/><radialGradient id="radial-gradient-8" cx="302.651" cy="798.461" r="50.573" gradientTransform="translate(-29.99 195.773) scale(1 0.7)" xlink:href="#radial-gradient"/><radialGradient id="radial-gradient-9" cx="273.305" cy="797.404" r="32.73" gradientTransform="translate(0 79.74) scale(1 0.9)" xlink:href="#radial-gradient"/><radialGradient id="radial-gradient-10" cx="253.961" cy="831.23" r="65.685" gradientTransform="translate(0 332.492) scale(1 0.6)" xlink:href="#radial-gradient"/><symbol id="New_Symbol_26" data-name="New Symbol 26" viewBox="0 0 34.498 20.193"><path d="M1.457,3.117H8.116V5.2H3.954V7.471H7.508V9.552H3.954v3.985h-2.5Z" stroke="#fff" stroke-width="0.513"/><path d="M9.794,11.536H12V5.854H10.1V4.317a6.686,6.686,0,0,0,2.56-.944h1.825v8.163h1.889v2H9.794Z" stroke="#fff" stroke-width="0.513"/><path d="M18.306,11.536h2.208V5.854h-1.9V4.317a6.685,6.685,0,0,0,2.561-.944H23v8.163h1.889v2H18.306Z" stroke="#fff" stroke-width="0.513"/><path d="M26.32,12.017C28.817,9.808,30.675,8,30.675,6.59A1.287,1.287,0,0,0,29.3,5.134a2.545,2.545,0,0,0-1.761,1.009l-1.28-1.282a4.167,4.167,0,0,1,3.377-1.68,3.162,3.162,0,0,1,3.41,3.25c0,1.824-1.665,3.472-3.378,5.137.528-.047,1.232-.112,1.7-.112H33.54v2.081H26.32Z" stroke="#fff" stroke-width="0.513"/></symbol><symbol id="New_Symbol_27" data-name="New Symbol 27" viewBox="0 0 34.497 20.194"><path d="M1.457,3.117H8.116V5.2H3.954V7.471H7.508V9.552H3.954v3.985h-2.5Z" stroke="#fff" stroke-width="0.513"/><path d="M9.794,11.536H12V5.854H10.1V4.317a6.686,6.686,0,0,0,2.56-.944h1.825v8.163h1.889v2H9.794Z" stroke="#fff" stroke-width="0.513"/><path d="M17.793,8.415c0-3.474,1.473-5.234,3.682-5.234s3.681,1.777,3.681,5.234-1.472,5.314-3.681,5.314S17.793,11.872,17.793,8.415Zm5.026,0c0-2.753-.608-3.313-1.344-3.313-.752,0-1.345.56-1.345,3.313,0,2.737.593,3.409,1.345,3.409C22.211,11.824,22.819,11.152,22.819,8.415Z" stroke="#fff" stroke-width="0.513"/><path d="M26.4,12.48l1.313-1.472a2.254,2.254,0,0,0,1.553.721c1.1,0,1.937-.769,2.033-3.041a2.841,2.841,0,0,1-5.042-2.082,3.3,3.3,0,0,1,3.425-3.425c1.969,0,3.889,1.457,3.889,5.058,0,3.761-1.984,5.49-4.129,5.49A4.158,4.158,0,0,1,26.4,12.48ZM29.794,8a1.688,1.688,0,0,0,1.457-.944c-.225-1.569-.864-2.017-1.505-2.017s-1.217.448-1.217,1.568C28.529,7.646,29.074,8,29.794,8Z" stroke="#fff" stroke-width="0.513"/></symbol><symbol id="New_Symbol_30" data-name="New Symbol 30" viewBox="0 0 34.497 20.194"><path d="M1.457,3.117H8.116V5.2H3.954V7.471H7.508V9.552H3.954v3.985h-2.5Z" stroke="#fff" stroke-width="0.513"/><path d="M9.794,11.536H12V5.854H10.1V4.317a6.686,6.686,0,0,0,2.56-.944h1.825v8.163h1.889v2H9.794Z" stroke="#fff" stroke-width="0.513"/><path d="M18.306,11.536h2.208V5.854h-1.9V4.317a6.685,6.685,0,0,0,2.561-.944H23v8.163h1.889v2H18.306Z" stroke="#fff" stroke-width="0.513"/><path d="M26.064,12.289,27.2,10.72a3.253,3.253,0,0,0,2.177,1.009c.976,0,1.6-.4,1.6-1.137,0-.849-.481-1.361-2.658-1.361V7.486c1.778,0,2.337-.528,2.337-1.3,0-.688-.431-1.056-1.2-1.056A2.673,2.673,0,0,0,27.6,6l-1.249-1.5A4.817,4.817,0,0,1,29.57,3.181c2.16,0,3.57,1.008,3.57,2.817a2.39,2.39,0,0,1-1.681,2.241V8.3a2.492,2.492,0,0,1,2,2.465c0,1.9-1.761,2.961-3.826,2.961A4.521,4.521,0,0,1,26.064,12.289Z" stroke="#fff" stroke-width="0.513"/></symbol><symbol id="New_Symbol_28" data-name="New Symbol 28" viewBox="0 0 34.497 20.193"><path d="M1.457,3.117H8.116V5.2H3.954V7.471H7.508V9.552H3.954v3.985h-2.5Z" stroke="#fff" stroke-width="0.513"/><path d="M9.794,11.536H12V5.854H10.1V4.317a6.686,6.686,0,0,0,2.56-.944h1.825v8.163h1.889v2H9.794Z" stroke="#fff" stroke-width="0.513"/><path d="M17.793,8.415c0-3.474,1.473-5.234,3.682-5.234s3.681,1.777,3.681,5.234-1.472,5.314-3.681,5.314S17.793,11.872,17.793,8.415Zm5.026,0c0-2.753-.608-3.313-1.344-3.313-.752,0-1.345.56-1.345,3.313,0,2.737.593,3.409,1.345,3.409C22.211,11.824,22.819,11.152,22.819,8.415Z" stroke="#fff" stroke-width="0.513"/><path d="M26.32,12.017C28.817,9.808,30.675,8,30.675,6.59A1.287,1.287,0,0,0,29.3,5.134a2.545,2.545,0,0,0-1.761,1.009l-1.28-1.282a4.167,4.167,0,0,1,3.377-1.68,3.162,3.162,0,0,1,3.41,3.25c0,1.824-1.665,3.472-3.378,5.137.528-.047,1.232-.112,1.7-.112H33.54v2.081H26.32Z" stroke="#fff" stroke-width="0.513"/></symbol><symbol id="New_Symbol_29" data-name="New Symbol 29" viewBox="0 0 34.497 20.193"><path d="M1.457,3.117H8.116V5.2H3.954V7.471H7.508V9.552H3.954v3.985h-2.5Z" stroke="#fff" stroke-width="0.513"/><path d="M9.794,11.536H12V5.854H10.1V4.317a6.686,6.686,0,0,0,2.56-.944h1.825v8.163h1.889v2H9.794Z" stroke="#fff" stroke-width="0.513"/><path d="M17.793,8.415c0-3.474,1.473-5.234,3.682-5.234s3.681,1.777,3.681,5.234-1.472,5.314-3.681,5.314S17.793,11.872,17.793,8.415Zm5.026,0c0-2.753-.608-3.313-1.344-3.313-.752,0-1.345.56-1.345,3.313,0,2.737.593,3.409,1.345,3.409C22.211,11.824,22.819,11.152,22.819,8.415Z" stroke="#fff" stroke-width="0.513"/><path d="M26.817,11.536h2.208V5.854h-1.9V4.317a6.685,6.685,0,0,0,2.561-.944h1.825v8.163H33.4v2H26.817Z" stroke="#fff" stroke-width="0.513"/></symbol><symbol id="New_Symbol_25" data-name="New Symbol 25" viewBox="0 0 34.498 20.194"><path d="M1.457,3.117H8.116V5.2H3.954V7.471H7.508V9.552H3.954v3.985h-2.5Z" stroke="#fff" stroke-width="0.513"/><path d="M9.794,11.536H12V5.854H10.1V4.317a6.686,6.686,0,0,0,2.56-.944h1.825v8.163h1.889v2H9.794Z" stroke="#fff" stroke-width="0.513"/><path d="M18.306,11.536h2.208V5.854h-1.9V4.317a6.685,6.685,0,0,0,2.561-.944H23v8.163h1.889v2H18.306Z" stroke="#fff" stroke-width="0.513"/><path d="M26.817,11.536h2.208V5.854h-1.9V4.317a6.685,6.685,0,0,0,2.561-.944h1.825v8.163H33.4v2H26.817Z" stroke="#fff" stroke-width="0.513"/></symbol><symbol id="New_Symbol_24" data-name="New Symbol 24" viewBox="0 0 34.497 20.194"><path d="M1.457,3.117H8.116V5.2H3.954V7.471H7.508V9.552H3.954v3.985h-2.5Z" stroke="#fff" stroke-width="0.513"/><path d="M9.794,11.536H12V5.854H10.1V4.317a6.686,6.686,0,0,0,2.56-.944h1.825v8.163h1.889v2H9.794Z" stroke="#fff" stroke-width="0.513"/><path d="M18.306,11.536h2.208V5.854h-1.9V4.317a6.685,6.685,0,0,0,2.561-.944H23v8.163h1.889v2H18.306Z" stroke="#fff" stroke-width="0.513"/><path d="M26.081,12.289l1.12-1.553a3.207,3.207,0,0,0,2.145.993c1.008,0,1.649-.513,1.649-1.5a1.409,1.409,0,0,0-1.537-1.489,2.357,2.357,0,0,0-1.473.512l-1.088-.7.272-5.17h5.843V5.454H29.3L29.154,7.23a2.514,2.514,0,0,1,1.073-.208,2.976,2.976,0,0,1,3.249,3.138,3.529,3.529,0,0,1-3.762,3.569A4.92,4.92,0,0,1,26.081,12.289Z" stroke="#fff" stroke-width="0.513"/></symbol><symbol id="New_Symbol_16" data-name="New Symbol 16" viewBox="0 0 34.498 20.194"><path d="M1.457,3.117H8.116V5.2H3.954V7.471H7.508V9.552H3.954v3.985h-2.5Z" stroke="#fff" stroke-width="0.513"/><path d="M9.794,11.536H12V5.854H10.1V4.317a6.686,6.686,0,0,0,2.56-.944h1.825v8.163h1.889v2H9.794Z" stroke="#fff" stroke-width="0.513"/><path d="M18.306,11.536h2.208V5.854h-1.9V4.317a6.685,6.685,0,0,0,2.561-.944H23v8.163h1.889v2H18.306Z" stroke="#fff" stroke-width="0.513"/><path d="M30.418,11.168H26.049V9.439l3.617-6.066h3.058V9.279h1.152v1.889H32.724v2.369H30.418Zm0-1.889v-1.5c0-.656.049-1.648.08-2.32h-.063c-.256.592-.544,1.168-.832,1.761L28.4,9.279Z" stroke="#fff" stroke-width="0.513"/></symbol><symbol id="New_Symbol_17" data-name="New Symbol 17" viewBox="0 0 34.497 20.194"><path d="M1.457,3.117H8.116V5.2H3.954V7.471H7.508V9.552H3.954v3.985h-2.5Z" stroke="#fff" stroke-width="0.513"/><path d="M9.794,11.536H12V5.854H10.1V4.317a6.686,6.686,0,0,0,2.56-.944h1.825v8.163h1.889v2H9.794Z" stroke="#fff" stroke-width="0.513"/><path d="M18.306,11.536h2.208V5.854h-1.9V4.317a6.685,6.685,0,0,0,2.561-.944H23v8.163h1.889v2H18.306Z" stroke="#fff" stroke-width="0.513"/><path d="M26.369,8.671c0-3.762,1.985-5.49,4.129-5.49A4.22,4.22,0,0,1,33.54,4.43L32.228,5.9a2.328,2.328,0,0,0-1.553-.72c-1.089,0-1.938.768-2.033,3.041A2.841,2.841,0,0,1,33.684,10.3a3.293,3.293,0,0,1-3.425,3.425C28.289,13.729,26.369,12.272,26.369,8.671Zm2.337,1.2c.208,1.552.848,2,1.488,2,.657,0,1.233-.448,1.233-1.568,0-1.04-.561-1.393-1.281-1.393A1.665,1.665,0,0,0,28.706,9.872Z" stroke="#fff" stroke-width="0.513"/></symbol><symbol id="New_Symbol_15" data-name="New Symbol 15" viewBox="0 0 34.498 20.193"><path d="M1.457,3.116H8.116V5.2H3.954V7.47H7.508V9.551H3.954v3.986h-2.5Z" stroke="#fff" stroke-width="0.513"/><path d="M9.794,11.536H12V5.854H10.1V4.317a6.686,6.686,0,0,0,2.56-.944h1.825v8.163h1.889v2H9.794Z" stroke="#fff" stroke-width="0.513"/><path d="M18.306,11.536h2.208V5.854h-1.9V4.317a6.685,6.685,0,0,0,2.561-.944H23v8.163h1.889v2H18.306Z" stroke="#fff" stroke-width="0.513"/><path d="M26.4,10.943a2.745,2.745,0,0,1,1.713-2.464V8.415a2.919,2.919,0,0,1-1.36-2.4c0-1.745,1.377-2.833,3.3-2.833,1.873,0,3.122,1.1,3.122,2.8a2.71,2.71,0,0,1-1.329,2.193v.064A2.915,2.915,0,0,1,33.6,10.9c0,1.616-1.457,2.833-3.633,2.833C27.922,13.729,26.4,12.592,26.4,10.943Zm4.9-.128c0-.848-.817-1.168-2.065-1.7a2.2,2.2,0,0,0-.705,1.536,1.373,1.373,0,0,0,1.49,1.361A1.14,1.14,0,0,0,31.3,10.815Zm-.145-4.657a1.128,1.128,0,0,0-1.168-1.265A1.017,1.017,0,0,0,28.93,6.014c0,.784.656,1.168,1.665,1.568A2.263,2.263,0,0,0,31.154,6.158Z" stroke="#fff" stroke-width="0.513"/></symbol><symbol id="New_Symbol_9" data-name="New Symbol 9" viewBox="0 0 34.498 20.193"><path d="M1.457,3.116H8.116V5.2H3.954V7.47H7.508V9.551H3.954v3.986h-2.5Z" stroke="#fff" stroke-width="0.513"/><path d="M9.794,11.536H12V5.854H10.1V4.317a6.686,6.686,0,0,0,2.56-.944h1.825v8.163h1.889v2H9.794Z" stroke="#fff" stroke-width="0.513"/><path d="M17.553,12.288l1.136-1.568a3.251,3.251,0,0,0,2.177,1.008c.977,0,1.6-.4,1.6-1.137,0-.848-.481-1.36-2.657-1.36V7.486c1.777,0,2.336-.528,2.336-1.3,0-.688-.431-1.056-1.2-1.056A2.675,2.675,0,0,0,19.09,6l-1.249-1.5a4.817,4.817,0,0,1,3.218-1.312c2.16,0,3.569,1.008,3.569,2.817a2.388,2.388,0,0,1-1.681,2.24V8.3a2.492,2.492,0,0,1,2,2.465c0,1.9-1.76,2.961-3.826,2.961A4.521,4.521,0,0,1,17.553,12.288Z" stroke="#fff" stroke-width="0.513"/><path d="M26.081,12.288l1.12-1.553a3.2,3.2,0,0,0,2.145.993c1.008,0,1.649-.512,1.649-1.5a1.408,1.408,0,0,0-1.537-1.488,2.357,2.357,0,0,0-1.473.512l-1.088-.7.272-5.169h5.843v2.08H29.3L29.154,7.23a2.514,2.514,0,0,1,1.073-.208,2.975,2.975,0,0,1,3.249,3.137,3.53,3.53,0,0,1-3.762,3.57A4.916,4.916,0,0,1,26.081,12.288Z" stroke="#fff" stroke-width="0.513"/></symbol><symbol id="New_Symbol_6" data-name="New Symbol 6" viewBox="0 0 34.497 20.193"><path d="M1.457,3.116H8.116V5.2H3.954V7.47H7.508V9.551H3.954v3.986h-2.5Z" stroke="#fff" stroke-width="0.513"/><path d="M9.794,11.536H12V5.854H10.1V4.317a6.686,6.686,0,0,0,2.56-.944h1.825v8.163h1.889v2H9.794Z" stroke="#fff" stroke-width="0.513"/><path d="M17.857,8.671c0-3.762,1.985-5.49,4.129-5.49a4.219,4.219,0,0,1,3.042,1.248L23.716,5.9a2.328,2.328,0,0,0-1.553-.72c-1.089,0-1.937.769-2.033,3.042a2.841,2.841,0,0,1,5.042,2.08,3.293,3.293,0,0,1-3.425,3.426C19.777,13.729,17.857,12.272,17.857,8.671Zm2.337,1.2c.208,1.553.848,2,1.489,2,.656,0,1.232-.448,1.232-1.569,0-1.04-.561-1.392-1.28-1.392A1.666,1.666,0,0,0,20.194,9.871Z" stroke="#fff" stroke-width="0.513"/><path d="M30.418,11.167H26.049V9.439l3.617-6.066h3.058V9.279h1.152v1.888H32.724v2.37H30.418Zm0-1.888v-1.5c0-.656.049-1.649.08-2.321h-.063c-.256.592-.544,1.169-.832,1.761L28.4,9.279Z" stroke="#fff" stroke-width="0.513"/></symbol><symbol id="New_Symbol_7" data-name="New Symbol 7" viewBox="0 0 34.497 20.193"><path d="M1.457,3.116H8.116V5.2H3.954V7.47H7.508V9.551H3.954v3.986h-2.5Z" stroke="#fff" stroke-width="0.513"/><path d="M9.794,11.536H12V5.854H10.1V4.317a6.686,6.686,0,0,0,2.56-.944h1.825v8.163h1.889v2H9.794Z" stroke="#fff" stroke-width="0.513"/><path d="M17.857,8.671c0-3.762,1.985-5.49,4.129-5.49a4.219,4.219,0,0,1,3.042,1.248L23.716,5.9a2.328,2.328,0,0,0-1.553-.72c-1.089,0-1.937.769-2.033,3.042a2.841,2.841,0,0,1,5.042,2.08,3.293,3.293,0,0,1-3.425,3.426C19.777,13.729,17.857,12.272,17.857,8.671Zm2.337,1.2c.208,1.553.848,2,1.489,2,.656,0,1.232-.448,1.232-1.569,0-1.04-.561-1.392-1.28-1.392A1.666,1.666,0,0,0,20.194,9.871Z" stroke="#fff" stroke-width="0.513"/><path d="M26.064,12.288,27.2,10.72a3.251,3.251,0,0,0,2.177,1.008c.976,0,1.6-.4,1.6-1.137,0-.848-.481-1.36-2.658-1.36V7.486c1.778,0,2.337-.528,2.337-1.3,0-.688-.431-1.056-1.2-1.056A2.675,2.675,0,0,0,27.6,6l-1.249-1.5A4.817,4.817,0,0,1,29.57,3.181c2.16,0,3.57,1.008,3.57,2.817a2.388,2.388,0,0,1-1.681,2.24V8.3a2.492,2.492,0,0,1,2,2.465c0,1.9-1.761,2.961-3.826,2.961A4.521,4.521,0,0,1,26.064,12.288Z" stroke="#fff" stroke-width="0.513"/></symbol><symbol id="New_Symbol_5" data-name="New Symbol 5" viewBox="0 0 34.497 20.193"><path d="M1.457,3.116H8.116V5.2H3.954V7.47H7.508V9.551H3.954v3.986h-2.5Z" stroke="#fff" stroke-width="0.513"/><path d="M9.794,11.536H12V5.854H10.1V4.317a6.686,6.686,0,0,0,2.56-.944h1.825v8.163h1.889v2H9.794Z" stroke="#fff" stroke-width="0.513"/><path d="M17.857,8.671c0-3.762,1.985-5.49,4.129-5.49a4.219,4.219,0,0,1,3.042,1.248L23.716,5.9a2.328,2.328,0,0,0-1.553-.72c-1.089,0-1.937.769-2.033,3.042a2.841,2.841,0,0,1,5.042,2.08,3.293,3.293,0,0,1-3.425,3.426C19.777,13.729,17.857,12.272,17.857,8.671Zm2.337,1.2c.208,1.553.848,2,1.489,2,.656,0,1.232-.448,1.232-1.569,0-1.04-.561-1.392-1.28-1.392A1.666,1.666,0,0,0,20.194,9.871Z" stroke="#fff" stroke-width="0.513"/><path d="M26.32,12.016C28.817,9.807,30.675,8,30.675,6.59A1.288,1.288,0,0,0,29.3,5.133a2.545,2.545,0,0,0-1.761,1.009l-1.28-1.281a4.167,4.167,0,0,1,3.377-1.68,3.161,3.161,0,0,1,3.41,3.249c0,1.824-1.665,3.473-3.378,5.138.528-.048,1.232-.112,1.7-.112H33.54v2.081H26.32Z" stroke="#fff" stroke-width="0.513"/></symbol><symbol id="New_Symbol_4" data-name="New Symbol 4" viewBox="0 0 34.497 20.193"><path d="M1.457,3.116H8.116V5.2H3.954V7.47H7.508V9.551H3.954v3.986h-2.5Z" stroke="#fff" stroke-width="0.513"/><path d="M9.794,11.536H12V5.854H10.1V4.317a6.686,6.686,0,0,0,2.56-.944h1.825v8.163h1.889v2H9.794Z" stroke="#fff" stroke-width="0.513"/><path d="M17.857,8.671c0-3.762,1.985-5.49,4.129-5.49a4.219,4.219,0,0,1,3.042,1.248L23.716,5.9a2.328,2.328,0,0,0-1.553-.72c-1.089,0-1.937.769-2.033,3.042a2.841,2.841,0,0,1,5.042,2.08,3.293,3.293,0,0,1-3.425,3.426C19.777,13.729,17.857,12.272,17.857,8.671Zm2.337,1.2c.208,1.553.848,2,1.489,2,.656,0,1.232-.448,1.232-1.569,0-1.04-.561-1.392-1.28-1.392A1.666,1.666,0,0,0,20.194,9.871Z" stroke="#fff" stroke-width="0.513"/><path d="M26.817,11.536h2.208V5.854h-1.9V4.317a6.685,6.685,0,0,0,2.561-.944h1.825v8.163H33.4v2H26.817Z" stroke="#fff" stroke-width="0.513"/></symbol><symbol id="New_Symbol_3" data-name="New Symbol 3" viewBox="0 0 34.498 20.193"><path d="M1.457,3.116H8.116V5.2H3.954V7.47H7.508V9.551H3.954v3.986h-2.5Z" stroke="#fff" stroke-width="0.513"/><path d="M9.794,11.536H12V5.854H10.1V4.317a6.686,6.686,0,0,0,2.56-.944h1.825v8.163h1.889v2H9.794Z" stroke="#fff" stroke-width="0.513"/><path d="M17.857,8.671c0-3.762,1.985-5.49,4.129-5.49a4.219,4.219,0,0,1,3.042,1.248L23.716,5.9a2.328,2.328,0,0,0-1.553-.72c-1.089,0-1.937.769-2.033,3.042a2.841,2.841,0,0,1,5.042,2.08,3.293,3.293,0,0,1-3.425,3.426C19.778,13.729,17.857,12.272,17.857,8.671Zm2.337,1.2c.208,1.553.848,2,1.489,2,.656,0,1.232-.448,1.232-1.569,0-1.04-.561-1.392-1.28-1.392A1.666,1.666,0,0,0,20.194,9.871Z" stroke="#fff" stroke-width="0.513"/><path d="M26.305,8.415c0-3.474,1.472-5.234,3.681-5.234s3.682,1.776,3.682,5.234-1.473,5.314-3.682,5.314S26.305,11.872,26.305,8.415Zm5.026,0c0-2.753-.608-3.314-1.345-3.314-.752,0-1.344.561-1.344,3.314,0,2.737.592,3.409,1.344,3.409C30.723,11.824,31.331,11.152,31.331,8.415Z" stroke="#fff" stroke-width="0.513"/></symbol><symbol id="New_Symbol_2" data-name="New Symbol 2" viewBox="0 0 34.498 20.193"><path d="M1.457,3.116H8.116V5.2H3.954V7.47H7.508V9.551H3.954v3.986h-2.5Z" stroke="#fff" stroke-width="0.513"/><path d="M9.794,11.536H12V5.854H10.1V4.317a6.686,6.686,0,0,0,2.56-.944h1.825v8.163h1.889v2H9.794Z" stroke="#fff" stroke-width="0.513"/><path d="M17.569,12.288l1.12-1.553a3.2,3.2,0,0,0,2.145.993c1.009,0,1.649-.512,1.649-1.5a1.408,1.408,0,0,0-1.537-1.488,2.353,2.353,0,0,0-1.472.512l-1.088-.7.271-5.169H24.5v2.08H20.786L20.643,7.23a2.509,2.509,0,0,1,1.072-.208,2.974,2.974,0,0,1,3.249,3.137,3.53,3.53,0,0,1-3.762,3.57A4.918,4.918,0,0,1,17.569,12.288Z" stroke="#fff" stroke-width="0.513"/><path d="M30.931,5.453h-4.5V3.373h7.138V4.909c-2.417,2.849-2.8,4.674-2.993,8.628H28.1A13.1,13.1,0,0,1,30.931,5.453Z" stroke="#fff" stroke-width="0.513"/></symbol><symbol id="New_Symbol_1" data-name="New Symbol 1" viewBox="0 0 34.497 20.193"><path d="M1.457,3.116H8.116V5.2H3.954V7.47H7.508V9.551H3.954v3.986h-2.5Z" stroke="#fff" stroke-width="0.513"/><path d="M9.794,11.536H12V5.854H10.1V4.317a6.686,6.686,0,0,0,2.56-.944h1.825v8.163h1.889v2H9.794Z" stroke="#fff" stroke-width="0.513"/><path d="M17.569,12.288l1.12-1.553a3.2,3.2,0,0,0,2.145.993c1.009,0,1.649-.512,1.649-1.5a1.408,1.408,0,0,0-1.537-1.488,2.353,2.353,0,0,0-1.472.512l-1.088-.7.271-5.169H24.5v2.08H20.786L20.643,7.23a2.509,2.509,0,0,1,1.072-.208,2.974,2.974,0,0,1,3.249,3.137,3.53,3.53,0,0,1-3.762,3.57A4.918,4.918,0,0,1,17.569,12.288Z" stroke="#fff" stroke-width="0.513"/><path d="M26.817,11.536h2.208V5.854h-1.9V4.317a6.685,6.685,0,0,0,2.561-.944h1.825v8.163H33.4v2H26.817Z" stroke="#fff" stroke-width="0.513"/></symbol><symbol id="New_Symbol" data-name="New Symbol" viewBox="0 0 34.498 20.193"><path d="M1.457,3.116H8.116V5.2H3.954V7.47H7.508V9.551H3.954v3.986h-2.5Z" stroke="#fff" stroke-width="0.513"/><path d="M9.794,11.536H12V5.854H10.1V4.317a6.686,6.686,0,0,0,2.56-.944h1.825v8.163h1.889v2H9.794Z" stroke="#fff" stroke-width="0.513"/><path d="M17.569,12.288l1.12-1.553a3.2,3.2,0,0,0,2.145.993c1.009,0,1.649-.512,1.649-1.5a1.408,1.408,0,0,0-1.537-1.488,2.353,2.353,0,0,0-1.472.512l-1.088-.7.271-5.169H24.5v2.08H20.786L20.643,7.23a2.509,2.509,0,0,1,1.072-.208,2.974,2.974,0,0,1,3.249,3.137,3.53,3.53,0,0,1-3.762,3.57A4.918,4.918,0,0,1,17.569,12.288Z" stroke="#fff" stroke-width="0.513"/><path d="M26.32,12.016C28.817,9.807,30.675,8,30.675,6.59A1.288,1.288,0,0,0,29.3,5.133a2.545,2.545,0,0,0-1.761,1.009l-1.28-1.281a4.167,4.167,0,0,1,3.377-1.68,3.161,3.161,0,0,1,3.41,3.249c0,1.824-1.665,3.473-3.378,5.138.528-.048,1.232-.112,1.7-.112H33.54v2.081H26.32Z" stroke="#fff" stroke-width="0.513"/></symbol><symbol id="New_Symbol_8" data-name="New Symbol 8" viewBox="0 0 34.498 20.193"><path d="M1.457,3.116H8.116V5.2H3.954V7.47H7.508V9.551H3.954v3.986h-2.5Z" stroke="#fff" stroke-width="0.513"/><path d="M9.794,11.536H12V5.854H10.1V4.317a6.686,6.686,0,0,0,2.56-.944h1.825v8.163h1.889v2H9.794Z" stroke="#fff" stroke-width="0.513"/><path d="M17.809,12.016C20.306,9.807,22.163,8,22.163,6.59a1.287,1.287,0,0,0-1.377-1.457,2.545,2.545,0,0,0-1.761,1.009l-1.28-1.281a4.168,4.168,0,0,1,3.377-1.68,3.161,3.161,0,0,1,3.41,3.249c0,1.824-1.665,3.473-3.378,5.138.529-.048,1.233-.112,1.7-.112h2.177v2.081H17.809Z" stroke="#fff" stroke-width="0.513"/><path d="M26.305,8.415c0-3.474,1.472-5.234,3.681-5.234s3.682,1.776,3.682,5.234-1.473,5.314-3.682,5.314S26.305,11.872,26.305,8.415Zm5.026,0c0-2.753-.608-3.314-1.345-3.314-.752,0-1.344.561-1.344,3.314,0,2.737.592,3.409,1.344,3.409C30.723,11.824,31.331,11.152,31.331,8.415Z" stroke="#fff" stroke-width="0.513"/></symbol><symbol id="New_Symbol_12" data-name="New Symbol 12" viewBox="0 0 34.497 20.193"><path d="M1.457,3.116H8.116V5.2H3.954V7.47H7.508V9.551H3.954v3.986h-2.5Z" stroke="#fff" stroke-width="0.513"/><path d="M9.794,11.536H12V5.854H10.1V4.317a6.686,6.686,0,0,0,2.56-.944h1.825v8.163h1.889v2H9.794Z" stroke="#fff" stroke-width="0.513"/><path d="M18.306,11.536h2.208V5.854h-1.9V4.317a6.685,6.685,0,0,0,2.561-.944H23v8.163h1.889v2H18.306Z" stroke="#fff" stroke-width="0.513"/><path d="M30.931,5.453h-4.5V3.373h7.138V4.909c-2.417,2.849-2.8,4.674-2.993,8.628H28.1A13.1,13.1,0,0,1,30.931,5.453Z" stroke="#fff" stroke-width="0.513"/></symbol><symbol id="New_Symbol_11" data-name="New Symbol 11" viewBox="0 0 34.497 20.193"><path d="M1.457,3.116H8.116V5.2H3.954V7.47H7.508V9.551H3.954v3.986h-2.5Z" stroke="#fff" stroke-width="0.513"/><path d="M9.794,11.536H12V5.854H10.1V4.317a6.686,6.686,0,0,0,2.56-.944h1.825v8.163h1.889v2H9.794Z" stroke="#fff" stroke-width="0.513"/><path d="M17.809,12.016C20.306,9.807,22.163,8,22.163,6.59a1.287,1.287,0,0,0-1.377-1.457,2.545,2.545,0,0,0-1.761,1.009l-1.28-1.281a4.168,4.168,0,0,1,3.377-1.68,3.161,3.161,0,0,1,3.41,3.249c0,1.824-1.665,3.473-3.378,5.138.529-.048,1.233-.112,1.7-.112h2.176v2.081H17.809Z" stroke="#fff" stroke-width="0.513"/><path d="M26.817,11.536h2.208V5.854h-1.9V4.317a6.685,6.685,0,0,0,2.561-.944h1.825v8.163H33.4v2H26.817Z" stroke="#fff" stroke-width="0.513"/></symbol><symbol id="New_Symbol_31" data-name="New Symbol 31" viewBox="0 0 34.498 20.193"><path d="M1.457,3.116H8.116V5.2H3.954V7.47H7.508V9.551H3.954v3.986h-2.5Z" stroke="#fff" stroke-width="0.513"/><path d="M9.794,11.536H12V5.854H10.1V4.317a6.686,6.686,0,0,0,2.56-.944h1.825v8.163h1.889v2H9.794Z" stroke="#fff" stroke-width="0.513"/><path d="M17.809,12.016C20.306,9.807,22.163,8,22.163,6.59a1.287,1.287,0,0,0-1.377-1.457,2.545,2.545,0,0,0-1.761,1.009l-1.28-1.281a4.168,4.168,0,0,1,3.377-1.68,3.161,3.161,0,0,1,3.41,3.249c0,1.824-1.665,3.473-3.378,5.138.529-.048,1.233-.112,1.7-.112h2.177v2.081H17.809Z" stroke="#fff" stroke-width="0.513"/><path d="M26.32,12.016C28.817,9.807,30.675,8,30.675,6.59A1.288,1.288,0,0,0,29.3,5.133a2.545,2.545,0,0,0-1.761,1.009l-1.28-1.281a4.167,4.167,0,0,1,3.377-1.68,3.161,3.161,0,0,1,3.41,3.249c0,1.824-1.665,3.473-3.378,5.138.528-.048,1.232-.112,1.7-.112H33.54v2.081H26.32Z" stroke="#fff" stroke-width="0.513"/></symbol><symbol id="New_Symbol_18" data-name="New Symbol 18" viewBox="0 0 34.497 20.194"><path d="M1.457,3.117H8.116V5.2H3.954V7.471H7.508V9.552H3.954v3.985h-2.5Z" stroke="#fff" stroke-width="0.513"/><path d="M9.794,11.536H12V5.854H10.1V4.317a6.686,6.686,0,0,0,2.56-.944h1.825v8.163h1.889v2H9.794Z" stroke="#fff" stroke-width="0.513"/><path d="M17.809,12.017C20.306,9.808,22.163,8,22.163,6.59a1.287,1.287,0,0,0-1.377-1.456,2.545,2.545,0,0,0-1.761,1.009l-1.28-1.282a4.168,4.168,0,0,1,3.377-1.68,3.162,3.162,0,0,1,3.41,3.25c0,1.824-1.665,3.472-3.378,5.137.529-.047,1.233-.112,1.7-.112h2.176v2.081H17.809Z" stroke="#fff" stroke-width="0.513"/><path d="M26.369,8.671c0-3.762,1.985-5.49,4.129-5.49A4.22,4.22,0,0,1,33.54,4.43L32.228,5.9a2.328,2.328,0,0,0-1.553-.72c-1.089,0-1.938.768-2.033,3.041A2.841,2.841,0,0,1,33.684,10.3a3.293,3.293,0,0,1-3.425,3.425C28.289,13.729,26.369,12.272,26.369,8.671Zm2.337,1.2c.208,1.552.848,2,1.488,2,.657,0,1.233-.448,1.233-1.568,0-1.04-.561-1.393-1.281-1.393A1.665,1.665,0,0,0,28.706,9.872Z" stroke="#fff" stroke-width="0.513"/></symbol><symbol id="New_Symbol_19" data-name="New Symbol 19" viewBox="0 0 28.126 16.504"><path d="M1.231,2.584H6.64V4.273H3.26V6.12H6.146V7.81H3.26v3.237H1.231Z" stroke="#fff" stroke-width="0.513"/><path d="M8.005,9.422H9.8V4.807H8.252V3.559a5.432,5.432,0,0,0,2.08-.767h1.482v6.63h1.535v1.625H8.005Z" stroke="#fff" stroke-width="0.513"/><path d="M14.519,9.812c2.027-1.794,3.536-3.263,3.536-4.408a1.045,1.045,0,0,0-1.118-1.182,2.064,2.064,0,0,0-1.431.819L14.466,4a3.385,3.385,0,0,1,2.743-1.365,2.567,2.567,0,0,1,2.77,2.638c0,1.483-1.353,2.822-2.744,4.174.429-.039,1-.092,1.378-.092h1.768v1.691H14.519Z" stroke="#fff" stroke-width="0.513"/><path d="M21.5,8.94a2.23,2.23,0,0,1,1.392-2V6.887a2.369,2.369,0,0,1-1.106-1.95c0-1.417,1.118-2.3,2.678-2.3A2.274,2.274,0,0,1,27,4.911a2.2,2.2,0,0,1-1.079,1.78v.053A2.366,2.366,0,0,1,27.35,8.9c0,1.314-1.184,2.3-2.952,2.3C22.734,11.2,21.5,10.28,21.5,8.94Zm3.979-.1c0-.69-.664-.949-1.678-1.378a1.789,1.789,0,0,0-.571,1.248,1.114,1.114,0,0,0,1.209,1.1A.926.926,0,0,0,25.478,8.837ZM25.36,5.054a.917.917,0,0,0-.949-1.028.827.827,0,0,0-.858.911c0,.636.533.949,1.352,1.274A1.84,1.84,0,0,0,25.36,5.054Z" stroke="#fff" stroke-width="0.513"/></symbol><symbol id="New_Symbol_20" data-name="New Symbol 20" viewBox="0 0 28.126 16.504"><path d="M1.231,2.584H6.64V4.273H3.26V6.12H6.146V7.81H3.26v3.237H1.231Z" stroke="#fff" stroke-width="0.513"/><path d="M8.005,9.422H9.8V4.807H8.252V3.559a5.432,5.432,0,0,0,2.08-.767h1.482v6.63h1.535v1.625H8.005Z" stroke="#fff" stroke-width="0.513"/><path d="M14.311,10.033l.922-1.274A2.642,2.642,0,0,0,17,9.578c.793,0,1.3-.325,1.3-.924,0-.688-.391-1.1-2.158-1.1V6.133c1.442,0,1.9-.429,1.9-1.053,0-.559-.351-.858-.975-.858a2.168,2.168,0,0,0-1.507.7L14.544,3.7a3.917,3.917,0,0,1,2.613-1.065c1.755,0,2.9.819,2.9,2.288a1.941,1.941,0,0,1-1.366,1.82V6.8a2.021,2.021,0,0,1,1.625,2c0,1.547-1.429,2.4-3.107,2.4A3.669,3.669,0,0,1,14.311,10.033Z" stroke="#fff" stroke-width="0.513"/><path d="M21.421,6.887c0-2.822,1.2-4.251,2.99-4.251S27.4,4.078,27.4,6.887s-1.2,4.316-2.99,4.316S21.421,9.7,21.421,6.887Zm4.082,0c0-2.237-.494-2.692-1.092-2.692s-1.092.455-1.092,2.692.481,2.769,1.092,2.769S25.5,9.109,25.5,6.887Z" stroke="#fff" stroke-width="0.513"/></symbol><symbol id="New_Symbol_21" data-name="New Symbol 21" viewBox="0 0 28.126 16.504"><path d="M1.231,2.584H6.64V4.273H3.26V6.12H6.146V7.81H3.26v3.237H1.231Z" stroke="#fff" stroke-width="0.513"/><path d="M8.005,9.422H9.8V4.807H8.252V3.559a5.432,5.432,0,0,0,2.08-.767h1.482v6.63h1.535v1.625H8.005Z" stroke="#fff" stroke-width="0.513"/><path d="M14.311,10.033l.922-1.274A2.642,2.642,0,0,0,17,9.578c.793,0,1.3-.325,1.3-.924,0-.688-.39-1.1-2.157-1.1V6.133c1.442,0,1.9-.429,1.9-1.053,0-.559-.351-.858-.975-.858a2.168,2.168,0,0,0-1.507.7L14.544,3.7a3.917,3.917,0,0,1,2.613-1.065c1.755,0,2.9.819,2.9,2.288a1.941,1.941,0,0,1-1.366,1.82V6.8a2.021,2.021,0,0,1,1.625,2c0,1.547-1.429,2.4-3.107,2.4A3.669,3.669,0,0,1,14.311,10.033Z" stroke="#fff" stroke-width="0.513"/><path d="M21.837,9.422h1.794V4.807H22.084V3.559a5.432,5.432,0,0,0,2.08-.767h1.482v6.63h1.535v1.625H21.837Z" stroke="#fff" stroke-width="0.513"/></symbol><symbol id="New_Symbol_22" data-name="New Symbol 22" viewBox="0 0 34.497 20.193"><path d="M1.457,3.117H8.116V5.2H3.954V7.471H7.508V9.552H3.954v3.985h-2.5Z" stroke="#fff" stroke-width="0.513"/><path d="M9.794,11.536H12V5.854H10.1V4.317a6.686,6.686,0,0,0,2.56-.944h1.825v8.163h1.889v2H9.794Z" stroke="#fff" stroke-width="0.513"/><path d="M17.809,12.017C20.306,9.808,22.163,8,22.163,6.59a1.287,1.287,0,0,0-1.377-1.456,2.545,2.545,0,0,0-1.761,1.009l-1.28-1.282a4.168,4.168,0,0,1,3.377-1.68,3.162,3.162,0,0,1,3.41,3.25c0,1.824-1.665,3.472-3.378,5.137.529-.047,1.233-.112,1.7-.112h2.176v2.081H17.809Z" stroke="#fff" stroke-width="0.513"/><path d="M26.4,12.48l1.313-1.472a2.254,2.254,0,0,0,1.553.721c1.1,0,1.937-.769,2.033-3.041a2.841,2.841,0,0,1-5.042-2.082,3.3,3.3,0,0,1,3.425-3.425c1.969,0,3.889,1.457,3.889,5.058,0,3.762-1.984,5.49-4.129,5.49A4.158,4.158,0,0,1,26.4,12.48ZM29.794,8a1.688,1.688,0,0,0,1.457-.944c-.225-1.569-.864-2.017-1.505-2.017s-1.217.448-1.217,1.568C28.529,7.646,29.074,8,29.794,8Z" stroke="#fff" stroke-width="0.513"/></symbol><symbol id="New_Symbol_23" data-name="New Symbol 23" viewBox="0 0 34.498 20.193"><path d="M1.457,3.117H8.116V5.2H3.954V7.471H7.508V9.552H3.954v3.985h-2.5Z" stroke="#fff" stroke-width="0.513"/><path d="M9.794,11.536H12V5.854H10.1V4.317a6.686,6.686,0,0,0,2.56-.944h1.825v8.163h1.889v2H9.794Z" stroke="#fff" stroke-width="0.513"/><path d="M17.809,12.017C20.306,9.808,22.163,8,22.163,6.59a1.287,1.287,0,0,0-1.377-1.456,2.545,2.545,0,0,0-1.761,1.009l-1.28-1.282a4.168,4.168,0,0,1,3.377-1.68,3.162,3.162,0,0,1,3.41,3.25c0,1.824-1.665,3.472-3.378,5.137.529-.047,1.233-.112,1.7-.112h2.177v2.081H17.809Z" stroke="#fff" stroke-width="0.513"/><path d="M30.931,5.454h-4.5V3.373h7.138V4.909c-2.417,2.85-2.8,4.675-2.993,8.628H28.1A13.1,13.1,0,0,1,30.931,5.454Z" stroke="#fff" stroke-width="0.513"/></symbol><symbol id="New_Symbol_10" data-name="New Symbol 10" viewBox="0 0 37.697 20.193"><path d="M1.457,3.116H8.116V5.2H3.954V7.47H7.508V9.551H3.954v3.986h-2.5Z" stroke="#fff" stroke-width="0.513"/><path d="M9.794,11.536H12V5.854H10.1V4.317a6.686,6.686,0,0,0,2.56-.944h1.825v8.163h1.889v2H9.794Z" stroke="#fff" stroke-width="0.513"/><path d="M17.553,12.288l1.136-1.568a3.251,3.251,0,0,0,2.177,1.008c.977,0,1.6-.4,1.6-1.137,0-.848-.481-1.36-2.657-1.36V7.486c1.777,0,2.336-.528,2.336-1.3,0-.688-.431-1.056-1.2-1.056A2.675,2.675,0,0,0,19.09,6l-1.249-1.5a4.817,4.817,0,0,1,3.218-1.312c2.16,0,3.569,1.008,3.569,2.817a2.388,2.388,0,0,1-1.681,2.24V8.3a2.492,2.492,0,0,1,2,2.465c0,1.9-1.76,2.961-3.826,2.961A4.521,4.521,0,0,1,17.553,12.288Z" stroke="#fff" stroke-width="0.513"/><path d="M26.4,10.943a2.745,2.745,0,0,1,1.713-2.464V8.415a2.919,2.919,0,0,1-1.36-2.4c0-1.745,1.377-2.833,3.3-2.833,1.873,0,3.122,1.1,3.122,2.8a2.71,2.71,0,0,1-1.329,2.193v.064A2.915,2.915,0,0,1,33.6,10.9c0,1.616-1.457,2.833-3.633,2.833C27.922,13.729,26.4,12.592,26.4,10.943Zm4.9-.128c0-.848-.817-1.168-2.065-1.7a2.2,2.2,0,0,0-.705,1.536,1.373,1.373,0,0,0,1.49,1.361A1.14,1.14,0,0,0,31.3,10.815Zm-.145-4.657a1.128,1.128,0,0,0-1.168-1.265A1.017,1.017,0,0,0,28.93,6.014c0,.784.656,1.168,1.665,1.568A2.263,2.263,0,0,0,31.154,6.158Z" stroke="#fff" stroke-width="0.513"/></symbol><symbol id="New_Symbol_13" data-name="New Symbol 13" viewBox="0 0 34.497 20.194"><path d="M1.457,3.117H8.116V5.2H3.954V7.471H7.508V9.552H3.954v3.985h-2.5Z" stroke="#fff" stroke-width="0.513"/><path d="M9.794,11.536H12V5.854H10.1V4.317a6.686,6.686,0,0,0,2.56-.944h1.825v8.163h1.889v2H9.794Z" stroke="#fff" stroke-width="0.513"/><path d="M17.809,12.017C20.306,9.808,22.163,8,22.163,6.59a1.287,1.287,0,0,0-1.377-1.456,2.545,2.545,0,0,0-1.761,1.009l-1.28-1.282a4.168,4.168,0,0,1,3.377-1.68,3.162,3.162,0,0,1,3.41,3.25c0,1.824-1.665,3.472-3.378,5.137.529-.047,1.233-.112,1.7-.112h2.176v2.081H17.809Z" stroke="#fff" stroke-width="0.513"/><path d="M26.081,12.289l1.12-1.553a3.207,3.207,0,0,0,2.145.993c1.008,0,1.649-.513,1.649-1.5a1.409,1.409,0,0,0-1.537-1.489,2.357,2.357,0,0,0-1.473.512l-1.088-.7.272-5.17h5.843V5.454H29.3L29.154,7.23a2.514,2.514,0,0,1,1.073-.208,2.976,2.976,0,0,1,3.249,3.138,3.529,3.529,0,0,1-3.762,3.569A4.92,4.92,0,0,1,26.081,12.289Z" stroke="#fff" stroke-width="0.513"/></symbol><symbol id="New_Symbol_14" data-name="New Symbol 14" viewBox="0 0 30.25 17.734"><path d="M1.308,2.758H7.135V4.579H3.492V6.568H6.6V8.389H3.492v3.488H1.308Z" stroke="#fff" stroke-width="0.513"/><path d="M8.6,10.126h1.933V5.153H8.867V3.809a5.865,5.865,0,0,0,2.241-.827h1.6v7.144h1.653v1.751H8.6Z" stroke="#fff" stroke-width="0.513"/><path d="M16.049,10.126h1.933V5.153H16.315V3.809a5.877,5.877,0,0,0,2.242-.827h1.6v7.144h1.654v1.751H16.049Z" stroke="#fff" stroke-width="0.513"/><path d="M23.133,10.953l1.149-1.289a1.975,1.975,0,0,0,1.359.63c.966,0,1.7-.672,1.779-2.661a2.486,2.486,0,0,1-4.413-1.821,2.89,2.89,0,0,1,3-3c1.723,0,3.4,1.275,3.4,4.426,0,3.292-1.736,4.805-3.613,4.805A3.642,3.642,0,0,1,23.133,10.953ZM26.1,7.03A1.478,1.478,0,0,0,27.378,6.2c-.2-1.373-.757-1.765-1.317-1.765-.575,0-1.065.392-1.065,1.373C25,6.722,25.473,7.03,26.1,7.03Z" stroke="#fff" stroke-width="0.513"/></symbol><symbol id="lifts_on" data-name="lifts on" viewBox="0 0 76.108 84.108"><path id="Union_4-4" data-name="Union 4-4" d="M33.1,72.823H22.054a20,20,0,0,1-20-20V22.054a20,20,0,0,1,20-20h32a20,20,0,0,1,20,20V52.823a20,20,0,0,1-20,20H44.575l-5.737,9.231Z" stroke="#fff" stroke-linecap="round" stroke-linejoin="round" stroke-width="4.108"/><g id="Group_787-3" data-name="Group 787-3"><path id="Path_127-3" data-name="Path 127-3" d="M42.052,35.786l7.358-9.029,7.018,9.029" fill="none" stroke="#fff" stroke-linecap="round" stroke-linejoin="round" stroke-width="6.156"/><line id="Line_43-3" data-name="Line 43-3" x1="49.416" y1="48.49" x2="49.416" y2="26.759" stroke-width="6.156" stroke="#fff" stroke-linecap="round" stroke-linejoin="round" fill="none"/></g><g id="Group_788-3" data-name="Group 788-3"><path id="Path_128-3" data-name="Path 128-3" d="M19.68,39.461l7.357,9.029,7.018-9.029" fill="none" stroke="#fff" stroke-linecap="round" stroke-linejoin="round" stroke-width="6.156"/><line id="Line_44-3" data-name="Line 44-3" x1="27.037" y1="26.757" x2="27.037" y2="48.488" stroke-width="6.156" stroke="#fff" stroke-linecap="round" stroke-linejoin="round" fill="none"/></g></symbol><symbol id="stairs_on" data-name="stairs on" viewBox="0 0 76.108 84.108"><path id="Union_4-4-2" data-name="Union 4-4" d="M33.1,72.823H22.054a20,20,0,0,1-20-20V22.054a20,20,0,0,1,20-20h32a20,20,0,0,1,20,20V52.823a20,20,0,0,1-20,20H44.575l-5.737,9.231Z" stroke="#fff" stroke-linecap="round" stroke-linejoin="round" stroke-width="4.108"/><path id="stairs_on-3" data-name="stairs on" d="M43.766,22.019v7.32a1.541,1.541,0,0,1-1.537,1.543H34.9a2.554,2.554,0,0,0-2.555,2.549h0v7.32a1.541,1.541,0,0,1-1.537,1.543H23.473a2.55,2.55,0,0,0-2.552,2.548v6.341a2.551,2.551,0,0,0,2.552,2.549h29.16a2.553,2.553,0,0,0,2.555-2.549h0V22.019a2.552,2.552,0,0,0-2.555-2.548H46.319a2.551,2.551,0,0,0-2.553,2.548Z" fill="#fff"/></symbol><symbol id="female_on" data-name="female on" viewBox="0 0 76.108 84.108"><path id="Union_4-4-6" data-name="Union 4-4" d="M33.1,72.823H22.054a20,20,0,0,1-20-20V22.054a20,20,0,0,1,20-20h32a20,20,0,0,1,20,20V52.823a20,20,0,0,1-20,20H44.575l-5.737,9.231Z" stroke="#fff" stroke-linecap="round" stroke-linejoin="round" stroke-width="4.108"/><g id="female-2-3" data-name="female-2"><path id="Path_9435-2-3" data-name="Path 9435-2" d="M44.391,35.733l1.431,2.752a1.778,1.778,0,0,0,1.582.987h0A1.82,1.82,0,0,0,49.2,37.626h0a1.738,1.738,0,0,0-.216-.828l-3.576-6.874a8.3,8.3,0,0,0-7.351-4.5h0a8.3,8.3,0,0,0-7.353,4.5L27.125,36.8a1.816,1.816,0,0,0,.746,2.458l.011.006a1.839,1.839,0,0,0,.844.215h0a1.779,1.779,0,0,0,1.582-.988l1.427-2.751a.1.1,0,0,1,.113-.057.091.091,0,0,1,.057.114h0L29.578,47.55a.994.994,0,0,0,.757,1.18h.034a.644.644,0,0,0,.2,0h1.753a.993.993,0,0,1,.988.988h0v8.887a1.892,1.892,0,0,0,1.858,1.926H35.2a1.913,1.913,0,0,0,1.893-1.919h0V49.722a.987.987,0,0,1,.984-.988h0a.987.987,0,0,1,.987.988h0v8.891a1.893,1.893,0,0,0,1.862,1.922h.031a1.892,1.892,0,0,0,1.892-1.892v-.027h0v-8.89a.988.988,0,0,1,.984-.988h1.753a.989.989,0,0,0,.988-.984h0a.845.845,0,0,0,0-.2L44.244,35.782a.116.116,0,0,1,.06-.154h0a.126.126,0,0,1,.156.065v.038Z" fill="#fff"/><circle id="Ellipse_521-2-3" data-name="Ellipse 521-2" cx="38.071" cy="19.254" r="5.057" fill="#fff"/></g></symbol><symbol id="accessible_on" data-name="accessible on" viewBox="0 0 76.108 84.108"><path id="Union_4-4-7" data-name="Union 4-4" d="M33.1,72.823H22.054a20,20,0,0,1-20-20V22.054a20,20,0,0,1,20-20h32a20,20,0,0,1,20,20V52.823a20,20,0,0,1-20,20H44.575l-5.737,9.231Z" stroke="#fff" stroke-linecap="round" stroke-linejoin="round" stroke-width="4.108"/><g id="accessible-2-2" data-name="accessible-2"><g id="Group_1512-2-2" data-name="Group 1512-2"><path id="Path_142-2-2-2" data-name="Path 142-2-2" d="M55.342,35.389a2.692,2.692,0,0,0-2.1-.845l-6.254.4a1.443,1.443,0,0,1-1.189-2.378l3.028-3.5a2.657,2.657,0,0,0,.634-2.945,3.262,3.262,0,0,0-1.264-1.676l-8.347-5.422a8.616,8.616,0,0,0-10.551.916l-3.028,2.814a2.877,2.877,0,0,0-.21,3.777,2.742,2.742,0,0,0,3.84.4c.06-.051.119-.1.175-.158l2.608-2.378a3.683,3.683,0,0,1,4.379-.4h0a1.439,1.439,0,0,1,.478,1.978l0,0a1.523,1.523,0,0,1-.151.2L32.1,32.274a1.5,1.5,0,0,1-.864.5,13.62,13.62,0,0,0-5.585,2.446,1.4,1.4,0,0,0-.376,1.93h0a1.056,1.056,0,0,0,.2.23l1.585,1.585a1.48,1.48,0,0,0,1.871.159,9.182,9.182,0,0,1,5.153-1.562,8.965,8.965,0,0,1,9.08,8.849V46.6A9.113,9.113,0,0,1,41.58,51.75a1.428,1.428,0,0,0,.155,1.828l1.554,1.565a1.458,1.458,0,0,0,2.062.007l.007-.007a1.31,1.31,0,0,0,.15-.174,14.263,14.263,0,0,0,2.707-8.351,11.387,11.387,0,0,0-.662-4.285,1.443,1.443,0,0,1,.864-1.847,1.632,1.632,0,0,1,.4-.083h0a1.444,1.444,0,0,1,1.514,1.364.883.883,0,0,1,0,.218l-.884,9.257a2.644,2.644,0,0,0,2.325,2.928h.41a2.745,2.745,0,0,0,2.742-2.516l1.261-14.269A2.27,2.27,0,0,0,55.342,35.389Z" fill="#fff"/><path id="Path_143-2-2-2" data-name="Path 143-2-2" d="M50.8,23.633a5.172,5.172,0,1,0-5.212-5.172h0A5.243,5.243,0,0,0,50.8,23.633Z" fill="#fff"/><path id="Path_144-2-2-2" data-name="Path 144-2-2" d="M34.125,55.59a9.021,9.021,0,0,1-9.116-8.918h0v-.134a9.969,9.969,0,0,1,1.146-4.447.95.95,0,0,0-.171-1.106l-2.326-2.307a.96.96,0,0,0-1.352,0h0a1.3,1.3,0,0,0-.119.147,13.726,13.726,0,0,0-2.271,7.7A14.153,14.153,0,0,0,34.1,60.647h.008a13.624,13.624,0,0,0,7.765-2.263.954.954,0,0,0,.15-1.462l-2.31-2.287a.956.956,0,0,0-1.154-.147A8.548,8.548,0,0,1,34.125,55.59Z" fill="#fff"/></g></g></symbol><symbol id="male_on" data-name="male on" viewBox="0 0 76.108 84.108"><path id="Union_4-4-8" data-name="Union 4-4" d="M33.1,72.823H22.054a20,20,0,0,1-20-20V22.054a20,20,0,0,1,20-20h32a20,20,0,0,1,20,20V52.823a20,20,0,0,1-20,20H44.575l-5.737,9.231Z" stroke="#fff" stroke-linecap="round" stroke-linejoin="round" stroke-width="4.108"/><g id="Group_4326-3-3" data-name="Group 4326-3"><circle id="Ellipse_522-2-3" data-name="Ellipse 522-2" cx="38.058" cy="18.794" r="5.54" fill="#fff"/><path id="Path_9436-2-3" data-name="Path 9436-2" d="M39.37,25.53H36.893A8.666,8.666,0,0,0,30.83,28l-.128.128a8.646,8.646,0,0,0-2.6,6.194V40.1a1.765,1.765,0,0,0,1.765,1.765h0A1.766,1.766,0,0,0,31.635,40.1v0h0V34.032a.739.739,0,0,1,.728-.739h.256a.735.735,0,0,1,.735.735h0v24.5a1.97,1.97,0,0,0,1.727,1.989,1.935,1.935,0,0,0,2.091-1.718,1.57,1.57,0,0,0,0-.194V46.742a1.011,1.011,0,0,1,1.01-1.011h0a1.011,1.011,0,0,1,1.007,1.011h0v11.8a1.975,1.975,0,0,0,1.726,1.99,1.937,1.937,0,0,0,2.095-1.719,1.57,1.57,0,0,0,0-.194V34.047a.73.73,0,0,1,.727-.735h0a.735.735,0,0,1,.736.735h0V40.11a1.765,1.765,0,0,0,1.765,1.765h0a1.766,1.766,0,0,0,1.77-1.761v0h0V34.191a8.651,8.651,0,0,0-2.447-6.063h0A8.656,8.656,0,0,0,39.37,25.53Z" fill="#fff"/></g></symbol></defs><title>Sunshine-Building F-F01</title><g id="floor_color_box" data-name="floor color box"><g id="floor"><path d="M970.532,365.311a2,2,0,0,0,1.96-1.627l9.182-48.3A2,2,0,0,1,984,313.8l436.329,79.573a2,2,0,0,1,1.609,2.329L1341.45,834.032a2,2,0,0,1-2.329,1.606l-230.269-42.391a2,2,0,0,1-.981-.484L923.934,624.869a2,2,0,0,0-3.309,1.123l-23.079,127.5a2,2,0,0,1-1.46,1.574L486.309,862.472l-.256.049-47.7,6.07-.252.016-111.882.008-.248-.016L229.6,856.483a2,2,0,0,1-1.75-1.984V833.722l-56.167-.071a2,2,0,0,1-2-2V747.033a2,2,0,0,1,2-2H227.7l.149-149.676a2,2,0,0,1,2-2l188-.176.833-462.29a2,2,0,0,1,2-2H887.351a2,2,0,0,1,2,2l-.084,234.584Z" fill="#667b8e"/><path d="M956.358,351.138a2,2,0,0,0,1.961-1.627l9.182-48.3a2,2,0,0,1,2.322-1.589L1406.152,379.2a2,2,0,0,1,1.609,2.329l-80.485,438.331a2,2,0,0,1-2.328,1.606l-230.269-42.391a2,2,0,0,1-.981-.484L909.761,610.7a2,2,0,0,0-3.309,1.122l-23.079,127.5a2,2,0,0,1-1.46,1.574L472.136,848.3l-.256.05-47.7,6.07-.253.016-111.881.008-.249-.016L215.428,842.31a2,2,0,0,1-1.751-1.984V819.548l-56.166-.07a2,2,0,0,1-2-2V732.86a2,2,0,0,1,2-2h56.017l.149-149.676a2,2,0,0,1,2-2l188-.177.834-462.29a2,2,0,0,1,2-2H873.177a2,2,0,0,1,2,2L875.094,351.3Z" fill="#fff"/></g><polygon id="footpath" points="679.511 473.209 679.511 138.05 702.889 114.715 646.349 114.715 646.349 197.247 636.991 229.34 636.991 348.309 620.636 348.309 620.636 375.298 646.692 375.298 646.692 409.304 634.605 409.304 634.605 435.495 646.692 435.495 646.692 700.465 467.373 700.465 467.373 579.13 449.007 579.13 449.007 700.465 212.961 700.465 212.961 729.89 242.013 729.89 242.013 798.798 257.132 798.798 257.132 729.354 630.102 729.354 648.556 801.953 777.43 767.824 764.864 714.369 800.763 714.369 800.763 722.564 840.301 722.564 840.301 714.369 855.751 714.369 855.751 700.715 761.439 700.715 757.807 688.774 679.177 708.834 679.177 629.907 748.38 629.907 748.38 611.131 679.177 611.131 679.177 495.906 899.785 495.906 922.84 518.559 934.428 473.209 679.511 473.209" fill="#e1e6ea"/><path id="stairs" d="M740.427,114.715h52.508v15.348H752.691a2,2,0,0,1-1.613-.818Z" fill="#dcffe4"/><path id="stairs-2" data-name="stairs" d="M637,292.4,654.921,279a2,2,0,0,0,.8-1.6V237.478H637Z" fill="#dcffe4"/><path id="stairs-3" data-name="stairs" d="M240.347,817.094H213.471V756.349h26.9l1.977-1.712v60.457A2,2,0,0,1,240.347,817.094Z" fill="#dcffe4"/><polygon id="stairs-4" data-name="stairs" points="681.948 733.845 634.085 745.425 645.123 788.595 687.407 777.346 681.948 733.845" fill="#dcffe4"/><path id="lifts" d="M620.636,348.443V375.3H590.087a2,2,0,0,1-2-2V350.317a2,2,0,0,1,2.008-2Z" fill="#f0dcff"/><path id="toilets" d="M288.508,783.755H259.132a2,2,0,0,1-2-2v-51.9h31.443Z" fill="#cff2ff"/><path id="toilets-2" data-name="toilets" d="M288.508,810.144V783.755h-29.7l-1.676-1.306v25.7a2,2,0,0,0,2,2Z" fill="#cff2ff"/><path id="toilets-3" data-name="toilets" d="M288.508,851.409V809.8H259.132a2,2,0,0,1-2-2v-9H242.079v16.3a2,2,0,0,1-2,2H213.591v23.29a2,2,0,0,0,1.754,1.985Z" fill="#cff2ff"/><path id="toilets-4" data-name="toilets" d="M574.373,367.358h13.714v5.94a2,2,0,0,0,2,2h54.605a2,2,0,0,1,2,2V407.3a2,2,0,0,1-2,2H634.605l.045,12.912H574.373Z" fill="#cff2ff"/><path id="toilets-5" data-name="toilets" d="M574.373,422.216v45.793h72.319V437.5a2,2,0,0,0-2-2H634.65V422.216Z" fill="#cff2ff"/></g><g id="overlay"><g id="exterior_outline" data-name="exterior outline"><path d="M1385.761,501.965l21.984-120.5a2,2,0,0,0-1.609-2.329l-130.521-23.744" fill="none" stroke="#a4aeb6" stroke-linecap="round" stroke-linejoin="round" stroke-width="3"/><path d="M1151.386,789.3l173.625,32.167a2,2,0,0,0,2.328-1.606l55.3-302.019" fill="none" stroke="#a4aeb6" stroke-linecap="round" stroke-linejoin="round" stroke-width="3"/><path d="M753.736,773.941l128.177-33.09a2,2,0,0,0,1.46-1.573l23.132-127.507a2,2,0,0,1,3.312-1.118l183.9,167.95a2,2,0,0,0,.984.487l42.646,7.792" fill="none" stroke="#a4aeb6" stroke-linecap="round" stroke-linejoin="round" stroke-width="3"/><path d="M155.511,767.186v50.292a2,2,0,0,0,2,2h10.978" fill="none" stroke="#a4aeb6" stroke-linecap="round" stroke-linejoin="round" stroke-width="3"/><path d="M155.511,745.243V732.86a2,2,0,0,1,2-2h33.434" fill="none" stroke="#a4aeb6" stroke-linecap="round" stroke-linejoin="round" stroke-width="3"/><path d="M404.511,263.161V116.715a2,2,0,0,1,2-2H644.349a2,2,0,0,1,2,2v80.532a1.956,1.956,0,0,1-.047.431l-3,13.622" fill="none" stroke="#a4aeb6" stroke-linecap="round" stroke-linejoin="round" stroke-width="3"/><path d="M1259.3,352.416,969.823,299.465a2,2,0,0,0-2.323,1.6l-9,48.445a2,2,0,0,1-1.965,1.628H875.156V116.715a2,2,0,0,0-2-2H702.889a2,2,0,0,0-1.441.613l-21.711,22.437a2,2,0,0,0-.56,1.388v50.062" fill="none" stroke="#a4aeb6" stroke-linecap="round" stroke-linejoin="round" stroke-width="3"/><path d="M679.177,208.637h20.841a2,2,0,0,1,2,2v49.687a2,2,0,0,1-2,2H679.177" fill="none" stroke="#a4aeb6" stroke-linecap="round" stroke-linejoin="round" stroke-width="3"/><line x1="855.751" y1="714.369" x2="887.891" y2="714.369" fill="none" stroke="#a4aeb6" stroke-linecap="round" stroke-linejoin="round" stroke-width="3"/><line x1="840.301" y1="714.369" x2="840.301" y2="751.593" fill="none" stroke="#a4aeb6" stroke-linecap="round" stroke-linejoin="round" stroke-width="3"/><path d="M777.43,767.824l-12.508-50.981a2,2,0,0,1,1.943-2.474h21.789" fill="none" stroke="#a4aeb6" stroke-linecap="round" stroke-linejoin="round" stroke-width="3"/><path d="M819.7,700.715H798.414a2,2,0,0,1-2-2V664.294" fill="none" stroke="#a4aeb6" stroke-linecap="round" stroke-linejoin="round" stroke-width="3"/><path d="M846.121,700.715h22.251a2,2,0,0,0,2-2V664.428" fill="none" stroke="#a4aeb6" stroke-linecap="round" stroke-linejoin="round" stroke-width="3"/><path d="M719.144,630.476H681.177a2,2,0,0,0-2,2v74.357a2,2,0,0,0,2.508,1.934l74.105-19.635a2,2,0,0,1,2.447,1.448l2.064,7.725a2,2,0,0,0,1.94,1.514h22.8" fill="none" stroke="#a4aeb6" stroke-linecap="round" stroke-linejoin="round" stroke-width="3"/><path d="M679.177,585.245v-87.2a2,2,0,0,1,2-2h40.577" fill="none" stroke="#a4aeb6" stroke-linecap="round" stroke-linejoin="round" stroke-width="3"/><line x1="679.177" y1="281.023" x2="679.177" y2="381.775" fill="none" stroke="#a4aeb6" stroke-linecap="round" stroke-linejoin="round" stroke-width="3"/><path d="M655.723,237.478v39.869a2,2,0,0,1-.8,1.6L637,292.4" fill="none" stroke="#a4aeb6" stroke-linecap="round" stroke-linejoin="round" stroke-width="3"/><line x1="876.862" y1="351.134" x2="679.511" y2="351.134" fill="none" stroke="#a4aeb6" stroke-linecap="round" stroke-linejoin="round" stroke-width="3"/><path d="M721.754,473.16l-40.573.086a2,2,0,0,1-2-2V399.035" fill="none" stroke="#a4aeb6" stroke-linecap="round" stroke-linejoin="round" stroke-width="3"/><line x1="744.567" y1="473.246" x2="775.264" y2="473.184" fill="none" stroke="#a4aeb6" stroke-linecap="round" stroke-linejoin="round" stroke-width="3"/><line x1="875.155" y1="473.121" x2="797.618" y2="473.309" fill="none" stroke="#a4aeb6" stroke-linecap="round" stroke-linejoin="round" stroke-width="3"/><path d="M952.139,386.257,936.39,471.57a2,2,0,0,1-1.962,1.639l-37.73.1" fill="none" stroke="#a4aeb6" stroke-linecap="round" stroke-linejoin="round" stroke-width="3"/><path d="M917.386,550l6-29.622a2,2,0,0,0-.546-1.819L901.2,496.491a2,2,0,0,0-1.413-.585H774.705" fill="none" stroke="#a4aeb6" stroke-linecap="round" stroke-linejoin="round" stroke-width="3"/><line x1="909.35" y1="592.333" x2="914.805" y2="565.215" fill="none" stroke="#a4aeb6" stroke-linecap="round" stroke-linejoin="round" stroke-width="3"/><path d="M748.38,495.906V609.131a2,2,0,0,1-2,2h-67.2" fill="none" stroke="#a4aeb6" stroke-linecap="round" stroke-linejoin="round" stroke-width="3"/><line x1="759.92" y1="579.13" x2="748.38" y2="579.13" fill="none" stroke="#a4aeb6" stroke-linecap="round" stroke-linejoin="round" stroke-width="3"/><line x1="911.999" y1="579.13" x2="777.504" y2="579.13" fill="none" stroke="#a4aeb6" stroke-linecap="round" stroke-linejoin="round" stroke-width="3"/><path d="M896.976,664.294H748.38V631.907a2,2,0,0,0-2-2H733.26" fill="none" stroke="#a4aeb6" stroke-linecap="round" stroke-linejoin="round" stroke-width="3"/><line x1="719.144" y1="664.294" x2="679.177" y2="664.294" fill="none" stroke="#a4aeb6" stroke-linecap="round" stroke-linejoin="round" stroke-width="3"/><line x1="750.086" y1="664.294" x2="733.26" y2="664.294" fill="none" stroke="#a4aeb6" stroke-linecap="round" stroke-linejoin="round" stroke-width="3"/><line x1="831.47" y1="700.715" x2="831.47" y2="664.294" fill="none" stroke="#a4aeb6" stroke-linecap="round" stroke-linejoin="round" stroke-width="3"/><path d="M800.763,714.369v6.195a2,2,0,0,0,2,2h23.355" fill="none" stroke="#a4aeb6" stroke-linecap="round" stroke-linejoin="round" stroke-width="3"/><path d="M242.013,729.856H215.259a2,2,0,0,0-2,2.008l.42,108.54a2,2,0,0,0,1.756,1.978l96.451,12.029a1.985,1.985,0,0,0,.244.015l112.065-.007a2.135,2.135,0,0,0,.253-.016l47.433-6.076a2.206,2.206,0,0,0,.255-.049l245.012-63.841" fill="none" stroke="#a4aeb6" stroke-linecap="round" stroke-linejoin="round" stroke-width="3"/><path d="M257.132,744.24v37.515a2,2,0,0,0,2,2h29.376" fill="none" stroke="#a4aeb6" stroke-linecap="round" stroke-linejoin="round" stroke-width="3"/><line x1="327.243" y1="729.856" x2="257.132" y2="729.856" fill="none" stroke="#a4aeb6" stroke-linecap="round" stroke-linejoin="round" stroke-width="3"/><line x1="505.332" y1="729.856" x2="350.391" y2="729.856" fill="none" stroke="#a4aeb6" stroke-linecap="round" stroke-linejoin="round" stroke-width="3"/><line x1="563.518" y1="729.856" x2="520.953" y2="729.856" fill="none" stroke="#a4aeb6" stroke-linecap="round" stroke-linejoin="round" stroke-width="3"/><path d="M648.556,801.953l-18.071-70.592a2,2,0,0,0-1.938-1.5H579.056" fill="none" stroke="#a4aeb6" stroke-linecap="round" stroke-linejoin="round" stroke-width="3"/><line x1="681.948" y1="733.845" x2="689.18" y2="791.538" fill="none" stroke="#a4aeb6" stroke-linecap="round" stroke-linejoin="round" stroke-width="3"/><line x1="155.511" y1="776.857" x2="212.961" y2="776.857" fill="none" stroke="#a4aeb6" stroke-linecap="round" stroke-linejoin="round" stroke-width="3"/><line x1="288.508" y1="729.89" x2="288.508" y2="851.409" fill="none" stroke="#a4aeb6" stroke-linecap="round" stroke-linejoin="round" stroke-width="3"/><path d="M288.508,809.8H259.132a2,2,0,0,1-2-2V796.957" fill="none" stroke="#a4aeb6" stroke-linecap="round" stroke-linejoin="round" stroke-width="3"/><path d="M213.591,756.349h26.422a2,2,0,0,0,2-2V744.173" fill="none" stroke="#a4aeb6" stroke-linecap="round" stroke-linejoin="round" stroke-width="3"/><path d="M242.079,770.465v44.629a2,2,0,0,1-2,2H213.591" fill="none" stroke="#a4aeb6" stroke-linecap="round" stroke-linejoin="round" stroke-width="3"/><line x1="569.827" y1="822.823" x2="560.523" y2="787.085" fill="none" stroke="#a4aeb6" stroke-linecap="round" stroke-linejoin="round" stroke-width="3"/><path d="M506.068,779.061H499.7a2,2,0,0,1-2-2V729.89" fill="none" stroke="#a4aeb6" stroke-linecap="round" stroke-linejoin="round" stroke-width="3"/><path d="M545.552,729.856l10.4,39.656a.557.557,0,0,1-.4.68l-33.961,8.869" fill="none" stroke="#a4aeb6" stroke-linecap="round" stroke-linejoin="round" stroke-width="3"/><path d="M403.677,579.007l45.33.123a2,2,0,0,1,2,2V647.9" fill="none" stroke="#a4aeb6" stroke-linecap="round" stroke-linejoin="round" stroke-width="3"/><line x1="473.019" y1="468.009" x2="404.511" y2="468.009" fill="none" stroke="#a4aeb6" stroke-linecap="round" stroke-linejoin="round" stroke-width="3"/><path d="M537.544,468.009H499.511a2,2,0,0,1-2-2V347.99" fill="none" stroke="#a4aeb6" stroke-linecap="round" stroke-linejoin="round" stroke-width="3"/><path d="M467.265,579.162l177.427-.032a2,2,0,0,0,2-2V468.009h-90.2" fill="none" stroke="#a4aeb6" stroke-linecap="round" stroke-linejoin="round" stroke-width="3"/><path d="M646.744,610.841l-.013-7.637a2,2,0,0,0-2-2H624.474a2,2,0,0,0-2,2v27.911a2,2,0,0,0,2,2H646.78" fill="none" stroke="#a4aeb6" stroke-linecap="round" stroke-linejoin="round" stroke-width="3"/><line x1="646.858" y1="678.354" x2="646.764" y2="623.485" fill="none" stroke="#a4aeb6" stroke-linecap="round" stroke-linejoin="round" stroke-width="3"/><path d="M467,700.465H644.889a2,2,0,0,0,2-2l-.013-6.605" fill="none" stroke="#a4aeb6" stroke-linecap="round" stroke-linejoin="round" stroke-width="3"/><line x1="451.009" y1="700.465" x2="451.009" y2="632.516" fill="none" stroke="#a4aeb6" stroke-linecap="round" stroke-linejoin="round" stroke-width="3"/><path d="M480.266,593.8v36.713a2,2,0,0,0,2,2H601.6" fill="none" stroke="#a4aeb6" stroke-linecap="round" stroke-linejoin="round" stroke-width="3"/><line x1="551.66" y1="632.55" x2="551.66" y2="700.465" fill="none" stroke="#a4aeb6" stroke-linecap="round" stroke-linejoin="round" stroke-width="3"/><path d="M421.506,675.667v22.8a2,2,0,0,1-2,2H215.677a2,2,0,0,1-2-2V581.13a2,2,0,0,1,2-2l188.161-.123.673-278.382H469.54" fill="none" stroke="#a4aeb6" stroke-linecap="round" stroke-linejoin="round" stroke-width="3"/><path d="M404.4,347.675H467.54a2,2,0,0,0,2-2V329.592" fill="none" stroke="#a4aeb6" stroke-linecap="round" stroke-linejoin="round" stroke-width="3"/><line x1="469.54" y1="295.768" x2="469.54" y2="316.781" fill="none" stroke="#a4aeb6" stroke-linecap="round" stroke-linejoin="round" stroke-width="3"/><path d="M404.506,302.62l.005-24.407H467.54a2,2,0,0,1,2,2v2.8" fill="none" stroke="#a4aeb6" stroke-linecap="round" stroke-linejoin="round" stroke-width="3"/><path d="M574.373,468.009V367.358H523.588a2,2,0,0,1-2-2V329.017a2,2,0,0,1,2-2h64.265" fill="none" stroke="#a4aeb6" stroke-linecap="round" stroke-linejoin="round" stroke-width="3"/><line x1="565.901" y1="367.358" x2="587.853" y2="367.358" fill="none" stroke="#a4aeb6" stroke-linecap="round" stroke-linejoin="round" stroke-width="3"/><path d="M646.692,475.736V437.5a2,2,0,0,0-2-2H634.65" fill="none" stroke="#a4aeb6" stroke-linecap="round" stroke-linejoin="round" stroke-width="3"/><line x1="636.991" y1="331.399" x2="636.991" y2="229.34" fill="none" stroke="#a4aeb6" stroke-linecap="round" stroke-linejoin="round" stroke-width="3"/><path d="M634.605,409.3h10.087a2,2,0,0,0,2-2V377.3a2,2,0,0,0-2-2H590.087a2,2,0,0,1-2-2V350.309a2,2,0,0,1,2-2h46.9" fill="none" stroke="#a4aeb6" stroke-linecap="round" stroke-linejoin="round" stroke-width="3"/><line x1="634.65" y1="422.216" x2="574.373" y2="422.216" fill="none" stroke="#a4aeb6" stroke-linecap="round" stroke-linejoin="round" stroke-width="3"/><path d="M792.935,130.063H752.708a2,2,0,0,1-1.582-.777l-10.7-14.571" fill="none" stroke="#a4aeb6" stroke-linecap="round" stroke-linejoin="round" stroke-width="3"/><line x1="645.123" y1="788.595" x2="687.407" y2="777.346" fill="none" stroke="#a4aeb6" stroke-linecap="round" stroke-linejoin="round" stroke-width="3"/><line x1="650.874" y1="741.105" x2="662.591" y2="783.948" fill="none" stroke="#a4aeb6" stroke-linecap="round" stroke-linejoin="round" stroke-width="3"/><line x1="228.176" y1="771.537" x2="228.176" y2="804.59" fill="none" stroke="#a4aeb6" stroke-linecap="round" stroke-linejoin="round" stroke-width="3"/><line x1="785.835" y1="114.715" x2="785.835" y2="130.063" fill="none" stroke="#a4aeb6" stroke-linecap="round" stroke-linejoin="round"/><line x1="777.594" y1="114.715" x2="777.594" y2="130.063" fill="none" stroke="#a4aeb6" stroke-linecap="round" stroke-linejoin="round"/><line x1="769.352" y1="114.715" x2="769.352" y2="130.063" fill="none" stroke="#a4aeb6" stroke-linecap="round" stroke-linejoin="round"/><line x1="761.11" y1="114.715" x2="761.11" y2="130.063" fill="none" stroke="#a4aeb6" stroke-linecap="round" stroke-linejoin="round"/><line x1="752.869" y1="114.715" x2="752.869" y2="130.063" fill="none" stroke="#a4aeb6" stroke-linecap="round" stroke-linejoin="round"/><line x1="655.723" y1="278.048" x2="637.004" y2="278.048" fill="none" stroke="#a4aeb6" stroke-linecap="round" stroke-linejoin="round"/><line x1="655.723" y1="269.807" x2="637.004" y2="269.807" fill="none" stroke="#a4aeb6" stroke-linecap="round" stroke-linejoin="round"/><line x1="655.723" y1="261.565" x2="637.004" y2="261.565" fill="none" stroke="#a4aeb6" stroke-linecap="round" stroke-linejoin="round"/><line x1="655.723" y1="253.323" x2="637.004" y2="253.323" fill="none" stroke="#a4aeb6" stroke-linecap="round" stroke-linejoin="round"/><line x1="655.723" y1="245.082" x2="637.004" y2="245.082" fill="none" stroke="#a4aeb6" stroke-linecap="round" stroke-linejoin="round"/><line x1="242.013" y1="804.503" x2="213.472" y2="804.503" fill="none" stroke="#a4aeb6" stroke-linecap="round" stroke-linejoin="round"/><line x1="242.013" y1="796.262" x2="213.472" y2="796.262" fill="none" stroke="#a4aeb6" stroke-linecap="round" stroke-linejoin="round"/><line x1="242.013" y1="788.02" x2="213.472" y2="788.02" fill="none" stroke="#a4aeb6" stroke-linecap="round" stroke-linejoin="round"/><line x1="242.013" y1="779.778" x2="213.472" y2="779.778" fill="none" stroke="#a4aeb6" stroke-linecap="round" stroke-linejoin="round"/><line x1="242.013" y1="771.537" x2="213.472" y2="771.537" fill="none" stroke="#a4aeb6" stroke-linecap="round" stroke-linejoin="round"/><line x1="686.518" y1="770.261" x2="643.29" y2="781.222" fill="none" stroke="#a4aeb6" stroke-linecap="round" stroke-linejoin="round"/><line x1="685.603" y1="762.967" x2="641.47" y2="774.158" fill="none" stroke="#a4aeb6" stroke-linecap="round" stroke-linejoin="round"/><line x1="684.684" y1="755.674" x2="639.649" y2="767.093" fill="none" stroke="#a4aeb6" stroke-linecap="round" stroke-linejoin="round"/><line x1="683.772" y1="748.379" x2="637.829" y2="760.028" fill="none" stroke="#a4aeb6" stroke-linecap="round" stroke-linejoin="round"/><line x1="682.857" y1="741.085" x2="636.009" y2="752.964" fill="none" stroke="#a4aeb6" stroke-linecap="round" stroke-linejoin="round"/></g><g id="lifts_off" data-name="lifts off"><g id="lifts-2" data-name="lifts"><path id="Rectangle_1123-3" data-name="Rectangle 1123-3" d="M597.579,353.5h14.229a3.329,3.329,0,0,1,3.333,3.326V367.15a3.329,3.329,0,0,1-3.333,3.326H597.579a3.329,3.329,0,0,1-3.332-3.326V356.825A3.329,3.329,0,0,1,597.579,353.5Z" fill="#6979ff" stroke="#fff" stroke-width="1.332"/><g id="Group_787" data-name="Group 787"><path id="Path_127" data-name="Path 127" d="M606.177,361.054l2.732-3.35,2.606,3.35" fill="none" stroke="#fff" stroke-linecap="round" stroke-linejoin="round" stroke-width="1.675"/><line id="Line_43" data-name="Line 43" x1="608.913" y1="365.772" x2="608.913" y2="357.702" stroke-width="1.675" stroke="#fff" stroke-linecap="round" stroke-linejoin="round" fill="none"/></g><g id="Group_788" data-name="Group 788"><path id="Path_128" data-name="Path 128" d="M597.872,362.418l2.732,3.35,2.606-3.35" fill="none" stroke="#fff" stroke-linecap="round" stroke-linejoin="round" stroke-width="1.675"/><line id="Line_44" data-name="Line 44" x1="600.603" y1="357.702" x2="600.603" y2="365.772" stroke-width="1.675" stroke="#fff" stroke-linecap="round" stroke-linejoin="round" fill="none"/></g></g></g><g id="toilet_off" data-name="toilet off"><g id="accessible_off" data-name="accessible off"><rect x="264.489" y="786.459" width="16.729" height="20.589" rx="3.217" fill="#0a64fe" stroke="#fff" stroke-width="1.551"/><g id="accessible-2"><g id="Group_1512-2" data-name="Group 1512-2"><path id="Path_142-2-2" data-name="Path 142-2-2" d="M278.6,796.228a.894.894,0,0,0-.7-.281l-2.081.132a.479.479,0,0,1-.395-.791l1.007-1.166a.883.883,0,0,0,.211-.979,1.089,1.089,0,0,0-.421-.558l-2.776-1.8a2.866,2.866,0,0,0-3.509.3l-1.008.936a.958.958,0,0,0-.069,1.257.912.912,0,0,0,1.277.131c.02-.017.04-.034.058-.052l.867-.791a1.225,1.225,0,0,1,1.457-.132h0a.478.478,0,0,1,.159.658h0a.441.441,0,0,1-.05.066l-1.757,2.032a.5.5,0,0,1-.287.167,4.527,4.527,0,0,0-1.858.813.464.464,0,0,0-.125.642h0a.329.329,0,0,0,.067.077l.527.527a.493.493,0,0,0,.623.053,3.039,3.039,0,0,1,1.713-.519,2.982,2.982,0,0,1,3.021,2.943v.061a3.031,3.031,0,0,1-.528,1.714.476.476,0,0,0,.052.608l.517.52a.485.485,0,0,0,.686,0l0,0a.463.463,0,0,0,.05-.058,4.75,4.75,0,0,0,.9-2.777,3.775,3.775,0,0,0-.22-1.425.481.481,0,0,1,.287-.615.5.5,0,0,1,.132-.027h0a.48.48,0,0,1,.5.453.3.3,0,0,1,0,.073l-.294,3.079a.88.88,0,0,0,.773.974h.137a.914.914,0,0,0,.912-.837l.419-4.746A.756.756,0,0,0,278.6,796.228Z" fill="#fff"/><path id="Path_143-2-2" data-name="Path 143-2-2" d="M277.092,792.317a1.72,1.72,0,1,0-1.734-1.72h0A1.744,1.744,0,0,0,277.092,792.317Z" fill="#fff"/><path id="Path_144-2-2" data-name="Path 144-2-2" d="M271.547,802.947a3,3,0,0,1-3.032-2.966h0v-.045a3.3,3.3,0,0,1,.381-1.479.317.317,0,0,0-.057-.368l-.774-.767a.319.319,0,0,0-.45,0h0a.454.454,0,0,0-.039.048,4.557,4.557,0,0,0-.755,2.562,4.707,4.707,0,0,0,4.718,4.7h0a4.53,4.53,0,0,0,2.583-.753.316.316,0,0,0,.091-.435.4.4,0,0,0-.041-.051l-.769-.761a.318.318,0,0,0-.383-.049A2.84,2.84,0,0,1,271.547,802.947Z" fill="#fff"/></g></g></g><g id="female_off" data-name="female off"><rect x="264.489" y="746.297" width="16.729" height="20.589" rx="3.217" fill="#0a64fe" stroke="#fff" stroke-width="1.551"/><g id="female-2"><path id="Path_9435-2" data-name="Path 9435-2" d="M275.064,756.022l.5.959a.62.62,0,0,0,.552.345h0a.635.635,0,0,0,.626-.644h0a.607.607,0,0,0-.075-.289l-1.248-2.4a2.891,2.891,0,0,0-2.564-1.571h0A2.893,2.893,0,0,0,270.289,754l-1.248,2.4a.634.634,0,0,0,.26.857l0,0a.645.645,0,0,0,.294.075h0a.618.618,0,0,0,.552-.344l.5-.96a.035.035,0,0,1,.04-.02.031.031,0,0,1,.019.04h0l-.812,4.1a.348.348,0,0,0,.265.412h.011a.266.266,0,0,0,.069,0h.611a.345.345,0,0,1,.345.344h0V764a.659.659,0,0,0,.648.672h.012a.665.665,0,0,0,.66-.669h0v-3.1a.345.345,0,0,1,.344-.345h0a.344.344,0,0,1,.344.345h0V764a.66.66,0,0,0,.65.671h.01a.661.661,0,0,0,.661-.66V764h0v-3.1a.345.345,0,0,1,.343-.345h.611a.345.345,0,0,0,.345-.343h0a.273.273,0,0,0,0-.07l-.812-4.106a.041.041,0,0,1,.021-.054h0a.043.043,0,0,1,.054.022v.013Z" fill="#fff"/><circle id="Ellipse_521-2" data-name="Ellipse 521-2" cx="272.859" cy="750.273" r="1.764" fill="#fff"/></g></g><g id="male_off" data-name="male off"><rect x="244.908" y="820.082" width="16.729" height="20.589" rx="3.217" fill="#0a64fe" stroke="#fff" stroke-width="1.551"/><g id="Group_4326-3" data-name="Group 4326-3"><circle id="Ellipse_522-2" data-name="Ellipse 522-2" cx="253.274" cy="824.204" r="1.889" fill="#fff"/><path id="Path_9436-2" data-name="Path 9436-2" d="M253.722,826.5h-.845a2.954,2.954,0,0,0-2.068.841l-.043.044a2.947,2.947,0,0,0-.888,2.112v1.97a.6.6,0,0,0,.6.6h0a.6.6,0,0,0,.6-.6v0h0V829.4a.251.251,0,0,1,.248-.252h.087a.25.25,0,0,1,.251.25h0v8.354a.672.672,0,0,0,.589.679.661.661,0,0,0,.713-.586q0-.033,0-.066v-4.045a.344.344,0,0,1,.344-.344h0a.344.344,0,0,1,.344.344h0v4.023a.672.672,0,0,0,.589.679.66.66,0,0,0,.714-.586q0-.033,0-.066v-8.379a.249.249,0,0,1,.248-.251h0a.251.251,0,0,1,.251.251h0v2.068a.6.6,0,0,0,.6.6h0a.6.6,0,0,0,.6-.6h0v-2.019a2.947,2.947,0,0,0-.834-2.068h0A2.952,2.952,0,0,0,253.722,826.5Z" fill="#fff"/></g></g><g id="female_off-2" data-name="female off"><rect x="601.151" y="436.231" width="16.729" height="20.589" rx="3.217" fill="#0a64fe" stroke="#fff" stroke-width="1.551"/><g id="female-2-2" data-name="female-2"><path id="Path_9435-2-2" data-name="Path 9435-2" d="M611.726,445.956l.5.96a.619.619,0,0,0,.552.344h0a.635.635,0,0,0,.626-.644h0a.611.611,0,0,0-.076-.289l-1.247-2.4a2.9,2.9,0,0,0-2.564-1.571h0a2.9,2.9,0,0,0-2.566,1.571l-1.248,2.4a.635.635,0,0,0,.261.858l0,0a.639.639,0,0,0,.294.075h0a.622.622,0,0,0,.552-.345l.5-.96a.033.033,0,0,1,.039-.019.031.031,0,0,1,.02.039h0l-.812,4.1a.347.347,0,0,0,.264.412h.012a.266.266,0,0,0,.069,0h.611a.347.347,0,0,1,.345.345h0v3.1a.66.66,0,0,0,.648.672h.012a.667.667,0,0,0,.66-.67h0v-3.1a.345.345,0,0,1,.343-.345h0a.345.345,0,0,1,.345.345h0v3.1a.66.66,0,0,0,.649.671h.011a.659.659,0,0,0,.66-.66v-.009h0v-3.1a.344.344,0,0,1,.343-.344h.612a.344.344,0,0,0,.344-.344h0a.273.273,0,0,0,0-.07l-.812-4.106a.042.042,0,0,1,.021-.054h0a.044.044,0,0,1,.054.023v.013Z" fill="#fff"/><circle id="Ellipse_521-2-2" data-name="Ellipse 521-2" cx="609.521" cy="440.207" r="1.764" fill="#fff"/></g></g><g id="male_off-2" data-name="male off"><rect x="601.151" y="388.462" width="16.729" height="20.589" rx="3.217" fill="#0a64fe" stroke="#fff" stroke-width="1.551"/><g id="Group_4326-3-2" data-name="Group 4326-3"><circle id="Ellipse_522-2-2" data-name="Ellipse 522-2" cx="609.516" cy="392.584" r="1.889" fill="#fff"/><path id="Path_9436-2-2" data-name="Path 9436-2" d="M609.964,394.881h-.845a2.954,2.954,0,0,0-2.068.841l-.043.044a2.942,2.942,0,0,0-.887,2.112v1.97a.6.6,0,0,0,.6.6h0a.6.6,0,0,0,.6-.6v0h0v-2.067a.251.251,0,0,1,.248-.252h.087a.25.25,0,0,1,.251.25h0v8.354a.672.672,0,0,0,.589.679.66.66,0,0,0,.713-.586.364.364,0,0,0,0-.066v-4.045a.344.344,0,0,1,.345-.344h0a.344.344,0,0,1,.343.344h0v4.023a.673.673,0,0,0,.589.679.66.66,0,0,0,.714-.586.364.364,0,0,0,0-.066v-8.379a.25.25,0,0,1,.248-.251h0a.251.251,0,0,1,.251.251h0v2.068a.6.6,0,0,0,.6.6h0a.6.6,0,0,0,.6-.6h0v-2.019a2.952,2.952,0,0,0-.835-2.068h0A2.952,2.952,0,0,0,609.964,394.881Z" fill="#fff"/></g></g></g></g><g id="text"><use width="34.498" height="20.193" transform="translate(393.935 783.648)" xlink:href="#New_Symbol_26"/><use width="34.497" height="20.194" transform="translate(210.586 734.153)" xlink:href="#New_Symbol_27"/><use width="34.497" height="20.194" transform="translate(312.284 629.918)" xlink:href="#New_Symbol_30"/><use width="34.497" height="20.193" transform="translate(167.065 745.4)" xlink:href="#New_Symbol_28"/><use width="34.497" height="20.193" transform="translate(167.065 790.132)" xlink:href="#New_Symbol_29"/><use width="34.498" height="20.194" transform="translate(505.789 744.262)" xlink:href="#New_Symbol_25"/><use width="34.497" height="20.194" transform="translate(582.795 763.86)" xlink:href="#New_Symbol_24"/><use width="34.498" height="20.194" transform="translate(487.459 656.539)" xlink:href="#New_Symbol_16"/><use width="34.497" height="20.194" transform="translate(582.925 656.539)" xlink:href="#New_Symbol_17"/><use width="34.498" height="20.193" transform="translate(535.393 597.461)" xlink:href="#New_Symbol_15"/><use width="34.498" height="20.193" transform="translate(510.338 514.509)" xlink:href="#New_Symbol_9"/><use width="34.497" height="20.193" transform="translate(433.268 404.403)" xlink:href="#New_Symbol_6"/><use width="34.497" height="20.193" transform="translate(518.712 404.403)" xlink:href="#New_Symbol_7"/><use width="34.497" height="20.193" transform="translate(539.45 337.308)" xlink:href="#New_Symbol_5"/><use width="34.497" height="20.193" transform="translate(421.227 313.938)" xlink:href="#New_Symbol_4"/><use width="34.498" height="20.193" transform="translate(419.72 279.205)" xlink:href="#New_Symbol_3"/><use width="34.498" height="20.193" transform="translate(503.291 226.254)" xlink:href="#New_Symbol_2"/><use width="34.497" height="20.193" transform="translate(671.684 226.254)" xlink:href="#New_Symbol_1"/><use width="34.498" height="20.193" transform="translate(772.768 226.254)" xlink:href="#New_Symbol"/><use width="34.498" height="20.193" transform="translate(797.072 406.684)" xlink:href="#New_Symbol_8"/><use width="34.497" height="20.193" transform="translate(810.903 612.702)" xlink:href="#New_Symbol_12"/><use width="34.497" height="20.193" transform="translate(810.903 529.55)" xlink:href="#New_Symbol_11"/><use width="34.498" height="20.193" transform="translate(1141.412 556.036)" xlink:href="#New_Symbol_31"/><use width="34.497" height="20.194" transform="translate(718.571 669.092)" xlink:href="#New_Symbol_18"/><use width="28.126" height="16.504" transform="translate(799.69 674.683)" xlink:href="#New_Symbol_19"/><use width="28.126" height="16.504" transform="translate(834.909 674.681)" xlink:href="#New_Symbol_20"/><use width="28.126" height="16.504" transform="translate(867.85 674.681)" xlink:href="#New_Symbol_21"/><use width="34.497" height="20.193" transform="translate(845.241 720.308)" xlink:href="#New_Symbol_22"/><use width="34.498" height="20.193" transform="translate(787.617 731.112)" xlink:href="#New_Symbol_23"/><use width="37.697" height="20.193" transform="translate(695.093 543.836)" xlink:href="#New_Symbol_10"/><use width="34.497" height="20.194" transform="translate(696.692 637.891)" xlink:href="#New_Symbol_13"/><use width="30.25" height="17.734" transform="translate(620.479 609.34)" xlink:href="#New_Symbol_14"/></g><g id="toggle"><g id="stair_on" data-name="stair on"><g id="highlight"><rect x="722.736" y="76.688" width="91.401" height="91.401" fill="url(#radial-gradient)"/><g id="stairs-5" data-name="stairs"><path d="M740.427,114.715h52.508v15.348H752.691a2,2,0,0,1-1.613-.818Z" fill="#0a64fe"/></g><polyline points="792.935 114.715 740.427 114.715 751.692 130.063 792.935 130.063" fill="none" stroke="#fff" stroke-linecap="round" stroke-linejoin="round" stroke-width="4"/></g><g id="highlight-2" data-name="highlight"><rect x="598.112" y="211.408" width="96.685" height="96.685" transform="translate(386.704 906.205) rotate(-90)" fill="url(#radial-gradient-2)"/><g id="stairs-6" data-name="stairs"><path d="M637,292.4,654.921,279a2,2,0,0,0,.8-1.6V237.478H637Z" fill="#0a64fe"/></g><polyline points="655.723 237.478 655.723 278.048 637.004 292.396 637.004 237.478" fill="none" stroke="#fff" stroke-linecap="round" stroke-linejoin="round" stroke-width="4"/></g><g id="highlight-3" data-name="highlight"><rect x="609.87" y="709.903" width="102.961" height="102.961" fill="url(#radial-gradient-3)"/><g id="stairs-7" data-name="stairs"><polygon points="681.948 733.845 634.085 745.425 645.123 788.595 687.407 777.346 681.948 733.845" fill="#0a64fe"/></g><polyline points="681.948 733.845 687.407 777.346 645.123 788.595 634.085 745.425" fill="none" stroke="#fff" stroke-linecap="round" stroke-linejoin="round" stroke-width="4"/></g><g id="highlight-4" data-name="highlight"><rect x="171.453" y="727.833" width="114.019" height="114.019" transform="translate(1013.304 556.38) rotate(90)" fill="url(#radial-gradient-4)"/><g id="stairs-8" data-name="stairs"><path d="M240.347,817.094H213.471V756.349h26.9l1.977-1.712v60.457A2,2,0,0,1,240.347,817.094Z" fill="#0a64fe"/></g><polyline points="242.079 756.349 213.591 756.349 213.591 817.094 242.013 817.094 242.079 770.465" fill="none" stroke="#fff" stroke-linecap="round" stroke-linejoin="round" stroke-width="4"/></g></g><g id="lift_on" data-name="lift on"><g id="highlight-5" data-name="highlight"><rect x="568.656" y="326.103" width="71.41" height="71.41" fill="url(#radial-gradient-5)"/><g id="lifts-3" data-name="lifts"><path d="M620.636,348.443V375.3H590.087a2,2,0,0,1-2-2V350.317a2,2,0,0,1,2.008-2Z" fill="#0a64fe"/></g><polyline points="620.636 348.309 588.087 348.309 588.087 375.298 620.636 375.298" fill="none" stroke="#fff" stroke-linecap="round" stroke-linejoin="round" stroke-width="4"/></g></g><g id="toilet_on_color_box" data-name="toilet on color box"><g id="highlight-6" data-name="highlight"><rect x="541.924" y="333.26" width="129.007" height="129.007" fill="url(#radial-gradient-6)"/><g id="toilets-6" data-name="toilets"><path d="M574.373,367.358h13.714v5.94a2,2,0,0,0,2,2h54.605a2,2,0,0,1,2,2V407.3a2,2,0,0,1-2,2H634.605l.045,12.912H574.373Z" fill="#0a64fe"/></g><polyline points="634.605 409.304 646.692 409.304 646.692 375.298 588.087 375.298 588.087 367.358 574.373 367.358 574.373 422.216 634.605 422.216" fill="none" stroke="#fff" stroke-linecap="round" stroke-linejoin="round" stroke-width="4"/></g><g id="highlight-7" data-name="highlight"><rect x="535.983" y="372.335" width="142.65" height="142.65" fill="url(#radial-gradient-7)"/><g id="toilets-7" data-name="toilets"><path d="M574.373,422.216v45.793h72.319V437.5a2,2,0,0,0-2-2H634.65V422.216Z" fill="#0a64fe"/></g><polyline points="634.65 422.216 574.373 422.216 574.373 468.009 646.692 468.009 646.692 435.495 634.65 435.495" fill="none" stroke="#fff" stroke-linecap="round" stroke-linejoin="round" stroke-width="4"/></g><g id="highlight-8" data-name="highlight"><rect x="222.088" y="704.123" width="101.146" height="101.146" transform="translate(1027.357 482.035) rotate(90)" fill="url(#radial-gradient-8)"/><g id="toilets-8" data-name="toilets"><path d="M288.508,783.755H259.132a2,2,0,0,1-2-2v-51.9h31.443Z" fill="#0a64fe"/></g><polyline points="257.132 744.24 257.132 783.755 288.508 783.755 288.508 729.856 257.132 729.856" fill="none" stroke="#fff" stroke-linecap="round" stroke-linejoin="round" stroke-width="4"/></g><g id="highlight-9" data-name="highlight"><rect x="240.575" y="764.674" width="65.46" height="65.46" fill="url(#radial-gradient-9)"/><g id="toilets-9" data-name="toilets"><path d="M288.508,810.144V783.755h-29.7l-1.676-1.306v25.7a2,2,0,0,0,2,2Z" fill="#0a64fe"/></g><polyline points="257.132 783.755 288.508 783.755 288.508 809.798 257.132 809.798 257.132 796.957" fill="none" stroke="#fff" stroke-linecap="round" stroke-linejoin="round" stroke-width="4"/></g><g id="highlight-10" data-name="highlight"><rect x="188.276" y="765.545" width="131.369" height="131.369" fill="url(#radial-gradient-10)"/><g id="toilets-10" data-name="toilets"><path d="M288.508,851.409V809.8H259.132a2,2,0,0,1-2-2v-9H242.079v16.3a2,2,0,0,1-2,2H213.591v23.29a2,2,0,0,0,1.754,1.985Z" fill="#0a64fe"/></g><polyline points="257.132 796.957 257.132 809.798 288.508 809.798 288.508 851.409 213.677 842.352 213.677 817.094 242.079 817.094 242.079 797.229" fill="none" stroke="#fff" stroke-linecap="round" stroke-linejoin="round" stroke-width="4"/></g></g></g><g id="floating"><g id="lift_on-2" data-name="lift on"><use width="76.108" height="84.108" transform="translate(566.053 279.965)" xlink:href="#lifts_on"/></g><g id="stair_on-2" data-name="stair on"><use width="76.108" height="84.108" transform="translate(729.273 40.414)" xlink:href="#stairs_on"/><use width="76.108" height="84.108" transform="translate(608.003 158.103)" xlink:href="#stairs_on"/><use width="76.108" height="84.108" transform="translate(618.194 663.52)" xlink:href="#stairs_on"/><use width="76.108" height="84.108" transform="translate(189.321 685.939)" xlink:href="#stairs_on"/></g><g id="toilet_on_color_box-2" data-name="toilet on color box"><use width="76.108" height="84.108" transform="translate(257.251 698.459) scale(0.512)" xlink:href="#female_on"/><use width="76.108" height="84.108" transform="translate(259.849 752.29) scale(0.512)" xlink:href="#accessible_on"/><use width="76.108" height="84.108" transform="translate(249.476 801.277) scale(0.512)" xlink:href="#male_on"/><use width="76.108" height="84.108" transform="translate(578.384 416.905) scale(0.512)" xlink:href="#female_on"/><use width="76.108" height="84.108" transform="translate(578.382 369.486) scale(0.512)" xlink:href="#male_on"/></g></g></svg>