<svg xmlns="http://www.w3.org/2000/svg" xmlns:xlink="http://www.w3.org/1999/xlink" width="1200" height="640.484" viewBox="0 0 1200 640.484"><defs><radialGradient id="radial-gradient" cx="1069.946" cy="289.908" r="111.085" gradientTransform="translate(7.432 115.814) scale(1 0.6)" gradientUnits="userSpaceOnUse"><stop offset="0.45" stop-color="#0a64fe"/><stop offset="0.83" stop-color="#49ffff" stop-opacity="0.1"/><stop offset="1" stop-color="#fff" stop-opacity="0"/></radialGradient><radialGradient id="radial-gradient-2" cx="1069.946" cy="-238.736" r="111.085" gradientTransform="translate(-521.212 433.001) scale(1 0.6)" xlink:href="#radial-gradient"/><radialGradient id="radial-gradient-3" cx="1071.312" cy="-635.557" r="111.085" gradientTransform="translate(-919.399 669.727) scale(1 0.6)" xlink:href="#radial-gradient"/><symbol id="New_Symbol_5" data-name="New Symbol 5" viewBox="0 0 35.138 19.938"><path d="M5.955,2.909A4.384,4.384,0,0,1,9.044,4.27l-1.3,1.456a2.465,2.465,0,0,0-1.761-.785c-1.456,0-2.593,1.265-2.593,3.362,0,2.145,1.008,3.393,2.529,3.393a2.558,2.558,0,0,0,1.985-.928l1.3,1.424a4.26,4.26,0,0,1-3.314,1.537c-2.7,0-4.914-1.84-4.914-5.346C.977,4.926,3.266,2.909,5.955,2.909Z" stroke="#fff" stroke-width="0.513"/><path d="M10.961,10.816a3.269,3.269,0,0,0,2.193,1.008,1.51,1.51,0,0,0,1.713-1.584,1.464,1.464,0,0,0-1.6-1.569,2.4,2.4,0,0,0-1.5.513l-1.057-.673.288-5.138h5.762V5.358H13.026L12.85,7.263a2.534,2.534,0,0,1,1.136-.241,2.975,2.975,0,0,1,3.234,3.154,3.508,3.508,0,0,1-3.73,3.553A4.826,4.826,0,0,1,9.9,12.305Z" stroke="#fff" stroke-width="0.513"/><path d="M19.105,11.632h2.208V5.758h-1.9V4.3a7.082,7.082,0,0,0,2.529-.928h1.729v8.259h1.9v1.905H19.105Z" stroke="#fff" stroke-width="0.513"/><path d="M27.857,10.816a3.269,3.269,0,0,0,2.193,1.008,1.51,1.51,0,0,0,1.713-1.584,1.464,1.464,0,0,0-1.6-1.569,2.4,2.4,0,0,0-1.5.513L27.6,8.511l.288-5.138h5.762V5.358H29.922l-.176,1.905a2.534,2.534,0,0,1,1.136-.241,2.975,2.975,0,0,1,3.234,3.154,3.508,3.508,0,0,1-3.73,3.553A4.826,4.826,0,0,1,26.8,12.305Z" stroke="#fff" stroke-width="0.513"/></symbol><symbol id="New_Symbol_8" data-name="New Symbol 8" viewBox="0 0 35.137 19.938"><path d="M5.955,2.908A4.388,4.388,0,0,1,9.044,4.269l-1.3,1.457a2.461,2.461,0,0,0-1.761-.785c-1.456,0-2.593,1.265-2.593,3.362,0,2.144,1.008,3.393,2.529,3.393a2.558,2.558,0,0,0,1.985-.928l1.3,1.424a4.26,4.26,0,0,1-3.314,1.537c-2.7,0-4.914-1.841-4.914-5.347C.977,4.925,3.266,2.908,5.955,2.908Z" stroke="#fff" stroke-width="0.513"/><path d="M10.961,10.815a3.266,3.266,0,0,0,2.193,1.009,1.51,1.51,0,0,0,1.713-1.585,1.463,1.463,0,0,0-1.6-1.568,2.406,2.406,0,0,0-1.5.512l-1.057-.672.288-5.138h5.762V5.357H13.026l-.176,1.9a2.547,2.547,0,0,1,1.136-.24,2.974,2.974,0,0,1,3.234,3.153,3.509,3.509,0,0,1-3.73,3.554A4.826,4.826,0,0,1,9.9,12.3Z" stroke="#fff" stroke-width="0.513"/><path d="M19.105,11.632h2.209V5.757h-1.9V4.3a7.077,7.077,0,0,0,2.528-.928h1.729v8.259h1.9v1.905H19.105Z" stroke="#fff" stroke-width="0.513"/><path d="M34.5,11.1H33.332v2.433H31.139V11.1h-4.4V9.487L30.45,3.373h2.882V9.311H34.5ZM31.139,9.311V7.662c0-.656.064-1.632.1-2.273H31.17c-.255.561-.544,1.137-.832,1.713L28.994,9.311Z" stroke="#fff" stroke-width="0.513"/></symbol><symbol id="New_Symbol_9" data-name="New Symbol 9" viewBox="0 0 30.81 17.51"><path d="M5.244,2.576a3.835,3.835,0,0,1,2.7,1.191L6.812,5.042a2.153,2.153,0,0,0-1.541-.687C4,4.355,3,5.461,3,7.3c0,1.877.883,2.97,2.213,2.97a2.242,2.242,0,0,0,1.738-.812L8.087,10.7a3.726,3.726,0,0,1-2.9,1.345c-2.368,0-4.3-1.611-4.3-4.678C.887,4.341,2.89,2.576,5.244,2.576Z" stroke="#fff" stroke-width="0.513"/><path d="M9.623,9.5a2.861,2.861,0,0,0,1.919.882,1.321,1.321,0,0,0,1.5-1.387,1.28,1.28,0,0,0-1.4-1.372,2.1,2.1,0,0,0-1.316.448L9.4,7.479l.252-4.5h5.043V4.719H11.43l-.154,1.667a2.23,2.23,0,0,1,1-.21A2.6,2.6,0,0,1,15.1,8.936a3.069,3.069,0,0,1-3.264,3.109A4.218,4.218,0,0,1,8.7,10.8Z" stroke="#fff" stroke-width="0.513"/><path d="M16.749,10.21h1.933V5.069H17.015V3.794a6.2,6.2,0,0,0,2.214-.812h1.512V10.21h1.667v1.667H16.749Z" stroke="#fff" stroke-width="0.513"/><path d="M23.679,10.7c2.269-2.143,3.866-3.67,3.866-4.93a1.2,1.2,0,0,0-1.261-1.345,2.27,2.27,0,0,0-1.582.91L23.581,4.229a3.768,3.768,0,0,1,2.983-1.415,2.73,2.73,0,0,1,2.942,2.83c0,1.5-1.4,3.1-2.843,4.608a13.746,13.746,0,0,1,1.484-.112H29.94v1.737H23.679Z" stroke="#fff" stroke-width="0.513"/></symbol><symbol id="New_Symbol_10" data-name="New Symbol 10" viewBox="0 0 35.138 19.938"><path d="M5.955,2.908A4.388,4.388,0,0,1,9.044,4.269l-1.3,1.457a2.461,2.461,0,0,0-1.761-.785c-1.456,0-2.593,1.265-2.593,3.362,0,2.144,1.008,3.393,2.529,3.393a2.558,2.558,0,0,0,1.985-.928l1.3,1.424a4.26,4.26,0,0,1-3.314,1.537c-2.7,0-4.914-1.841-4.914-5.347C.977,4.925,3.266,2.908,5.955,2.908Z" stroke="#fff" stroke-width="0.513"/><path d="M10.961,10.815a3.266,3.266,0,0,0,2.193,1.009,1.51,1.51,0,0,0,1.713-1.585,1.463,1.463,0,0,0-1.6-1.568,2.406,2.406,0,0,0-1.5.512l-1.057-.672.288-5.138h5.762V5.357H13.026l-.176,1.9a2.547,2.547,0,0,1,1.136-.24,2.974,2.974,0,0,1,3.234,3.153,3.509,3.509,0,0,1-3.73,3.554A4.826,4.826,0,0,1,9.9,12.3Z" stroke="#fff" stroke-width="0.513"/><path d="M19.105,11.632h2.208V5.757h-1.9V4.3a7.082,7.082,0,0,0,2.529-.928h1.729v8.259h1.9v1.905H19.105Z" stroke="#fff" stroke-width="0.513"/><path d="M27.025,8.415c0-3.458,1.456-5.234,3.633-5.234s3.634,1.776,3.634,5.234-1.457,5.314-3.634,5.314S27.025,11.872,27.025,8.415Zm5.042,0c0-2.786-.609-3.41-1.409-3.41-.784,0-1.408.624-1.408,3.41,0,2.769.624,3.489,1.408,3.489C31.458,11.9,32.067,11.184,32.067,8.415Z" stroke="#fff" stroke-width="0.513"/></symbol><symbol id="New_Symbol_3" data-name="New Symbol 3" viewBox="0 0 35.137 19.938"><path d="M5.955,2.909A4.384,4.384,0,0,1,9.044,4.27l-1.3,1.456a2.465,2.465,0,0,0-1.761-.785c-1.456,0-2.593,1.265-2.593,3.362,0,2.145,1.008,3.393,2.529,3.393a2.558,2.558,0,0,0,1.985-.928l1.3,1.424a4.26,4.26,0,0,1-3.314,1.537c-2.7,0-4.914-1.84-4.914-5.346C.977,4.926,3.266,2.909,5.955,2.909Z" stroke="#fff" stroke-width="0.513"/><path d="M10.961,10.816a3.269,3.269,0,0,0,2.193,1.008,1.51,1.51,0,0,0,1.713-1.584,1.464,1.464,0,0,0-1.6-1.569,2.4,2.4,0,0,0-1.5.513l-1.057-.673.288-5.138h5.762V5.358H13.026L12.85,7.263a2.534,2.534,0,0,1,1.136-.241,2.975,2.975,0,0,1,3.234,3.154,3.508,3.508,0,0,1-3.73,3.553A4.826,4.826,0,0,1,9.9,12.305Z" stroke="#fff" stroke-width="0.513"/><path d="M19.105,11.632h2.209V5.758h-1.9V4.3a7.077,7.077,0,0,0,2.528-.928h1.729v8.259h1.9v1.905H19.105Z" stroke="#fff" stroke-width="0.513"/><path d="M27.553,11.632h2.209V5.758H27.857V4.3a7.082,7.082,0,0,0,2.529-.928h1.729v8.259H34.02v1.905H27.553Z" stroke="#fff" stroke-width="0.513"/></symbol><symbol id="New_Symbol_4" data-name="New Symbol 4" viewBox="0 0 35.137 19.938"><path d="M5.955,2.908A4.388,4.388,0,0,1,9.044,4.269l-1.3,1.457a2.461,2.461,0,0,0-1.761-.785c-1.456,0-2.593,1.265-2.593,3.362,0,2.144,1.008,3.393,2.529,3.393a2.558,2.558,0,0,0,1.985-.928l1.3,1.424a4.26,4.26,0,0,1-3.314,1.537c-2.7,0-4.914-1.841-4.914-5.347C.977,4.925,3.266,2.908,5.955,2.908Z" stroke="#fff" stroke-width="0.513"/><path d="M10.961,10.815a3.266,3.266,0,0,0,2.193,1.009,1.51,1.51,0,0,0,1.713-1.585,1.463,1.463,0,0,0-1.6-1.568,2.406,2.406,0,0,0-1.5.512l-1.057-.672.288-5.138h5.762V5.357H13.026l-.176,1.9a2.547,2.547,0,0,1,1.136-.24,2.974,2.974,0,0,1,3.234,3.153,3.509,3.509,0,0,1-3.73,3.554A4.826,4.826,0,0,1,9.9,12.3Z" stroke="#fff" stroke-width="0.513"/><path d="M19.105,11.632h2.209V5.757h-1.9V4.3a7.077,7.077,0,0,0,2.528-.928h1.729v8.259h1.9v1.905H19.105Z" stroke="#fff" stroke-width="0.513"/><path d="M27.873,10.8A3.219,3.219,0,0,0,30.1,11.824c.992,0,1.649-.432,1.649-1.2,0-.9-.528-1.457-2.737-1.457V7.5c1.824,0,2.4-.544,2.4-1.36,0-.7-.449-1.121-1.249-1.121a2.824,2.824,0,0,0-1.9.9l-1.184-1.44a4.775,4.775,0,0,1,3.2-1.3c2.1,0,3.506,1.008,3.506,2.784a2.4,2.4,0,0,1-1.7,2.258v.064A2.524,2.524,0,0,1,34.1,10.768c0,1.888-1.729,2.961-3.778,2.961a4.423,4.423,0,0,1-3.537-1.441Z" stroke="#fff" stroke-width="0.513"/></symbol><symbol id="New_Symbol_7" data-name="New Symbol 7" viewBox="0 0 44.817 19.938"><path d="M5.955,2.909A4.384,4.384,0,0,1,9.044,4.27l-1.3,1.456a2.465,2.465,0,0,0-1.761-.785c-1.456,0-2.593,1.265-2.593,3.362,0,2.145,1.008,3.393,2.529,3.393a2.558,2.558,0,0,0,1.985-.928l1.3,1.424a4.26,4.26,0,0,1-3.314,1.537c-2.7,0-4.914-1.84-4.914-5.346C.977,4.926,3.266,2.909,5.955,2.909Z" stroke="#fff" stroke-width="0.513"/><path d="M10.961,10.816a3.269,3.269,0,0,0,2.193,1.008,1.51,1.51,0,0,0,1.713-1.584,1.464,1.464,0,0,0-1.6-1.569,2.4,2.4,0,0,0-1.5.513l-1.057-.673.288-5.138h5.762V5.358H13.026L12.85,7.263a2.534,2.534,0,0,1,1.136-.241,2.975,2.975,0,0,1,3.234,3.154,3.508,3.508,0,0,1-3.73,3.553A4.826,4.826,0,0,1,9.9,12.305Z" stroke="#fff" stroke-width="0.513"/><path d="M19.2,3.1h3.81c2.273,0,4.082.832,4.082,3.361C27.093,8.911,25.22,10,23.011,10H21.57v3.537H19.2Zm3.666,5.026c1.3,0,1.921-.576,1.921-1.665s-.673-1.488-1.921-1.488h-1.3V8.127Z" stroke="#fff" stroke-width="0.513"/><path d="M28.257,8.415c0-3.457,1.456-5.234,3.633-5.234s3.634,1.777,3.634,5.234-1.457,5.314-3.634,5.314S28.257,11.873,28.257,8.415Zm5.042,0c0-2.785-.609-3.409-1.409-3.409-.784,0-1.408.624-1.408,3.409,0,2.769.624,3.489,1.408,3.489C32.69,11.9,33.3,11.184,33.3,8.415Z" stroke="#fff" stroke-width="0.513"/><path d="M37.233,11.632h2.209V5.758h-1.9V4.3a7.077,7.077,0,0,0,2.528-.928H41.8v8.259H43.7v1.905H37.233Z" stroke="#fff" stroke-width="0.513"/></symbol><symbol id="New_Symbol_6" data-name="New Symbol 6" viewBox="0 0 35.138 19.938"><path d="M5.955,2.909A4.384,4.384,0,0,1,9.044,4.27l-1.3,1.456a2.465,2.465,0,0,0-1.761-.785c-1.456,0-2.593,1.265-2.593,3.362,0,2.145,1.008,3.393,2.529,3.393a2.558,2.558,0,0,0,1.985-.928l1.3,1.424a4.26,4.26,0,0,1-3.314,1.537c-2.7,0-4.914-1.84-4.914-5.346C.977,4.926,3.266,2.909,5.955,2.909Z" stroke="#fff" stroke-width="0.513"/><path d="M10.961,10.816a3.269,3.269,0,0,0,2.193,1.008,1.51,1.51,0,0,0,1.713-1.584,1.464,1.464,0,0,0-1.6-1.569,2.4,2.4,0,0,0-1.5.513l-1.057-.673.288-5.138h5.762V5.358H13.026L12.85,7.263a2.534,2.534,0,0,1,1.136-.241,2.975,2.975,0,0,1,3.234,3.154,3.508,3.508,0,0,1-3.73,3.553A4.826,4.826,0,0,1,9.9,12.305Z" stroke="#fff" stroke-width="0.513"/><path d="M19.105,11.632h2.208V5.758h-1.9V4.3a7.082,7.082,0,0,0,2.529-.928h1.729v8.259h1.9v1.905H19.105Z" stroke="#fff" stroke-width="0.513"/><path d="M32.931,5.806a2.331,2.331,0,0,0-1.584-.72c-1.121,0-2.017.8-2.1,3.169a2.859,2.859,0,0,1,2.033-1.072,2.816,2.816,0,0,1,3.025,3.137,3.269,3.269,0,0,1-3.377,3.409c-1.97,0-3.842-1.472-3.842-5.042,0-3.793,1.969-5.506,4.114-5.506A4.04,4.04,0,0,1,34.164,4.4Zm-.768,4.514c0-1.072-.56-1.473-1.329-1.473A1.84,1.84,0,0,0,29.3,9.855c.208,1.6.88,2.113,1.584,2.113S32.163,11.472,32.163,10.32Z" stroke="#fff" stroke-width="0.513"/></symbol><symbol id="New_Symbol_2" data-name="New Symbol 2" viewBox="0 0 35.138 19.938"><path d="M5.955,2.909A4.382,4.382,0,0,1,9.044,4.27l-1.3,1.456a2.465,2.465,0,0,0-1.761-.785C4.53,4.941,3.4,6.206,3.4,8.3,3.4,10.448,4.4,11.7,5.923,11.7a2.56,2.56,0,0,0,1.985-.928l1.3,1.424a4.256,4.256,0,0,1-3.312,1.537c-2.706,0-4.914-1.84-4.914-5.346C.978,4.926,3.266,2.909,5.955,2.909Z" stroke="#fff" stroke-width="0.513"/><path d="M10.961,10.816a3.267,3.267,0,0,0,2.192,1.008,1.509,1.509,0,0,0,1.713-1.584,1.463,1.463,0,0,0-1.6-1.569,2.4,2.4,0,0,0-1.505.513l-1.056-.673.288-5.138h5.762V5.358h-3.73L12.85,7.263a2.528,2.528,0,0,1,1.136-.241,2.976,2.976,0,0,1,3.234,3.154,3.508,3.508,0,0,1-3.731,3.553A4.828,4.828,0,0,1,9.9,12.305Z" stroke="#fff" stroke-width="0.513"/><path d="M18.576,8.415c0-3.457,1.457-5.234,3.634-5.234s3.634,1.777,3.634,5.234-1.457,5.314-3.634,5.314S18.576,11.873,18.576,8.415Zm5.042,0c0-2.785-.607-3.409-1.408-3.409-.784,0-1.408.624-1.408,3.409,0,2.769.624,3.489,1.408,3.489C23.011,11.9,23.618,11.184,23.618,8.415Z" stroke="#fff" stroke-width="0.513"/><path d="M28.369,11.1a2.263,2.263,0,0,0,1.569.72c1.136,0,2.017-.8,2.1-3.169A2.858,2.858,0,0,1,30,9.728,2.824,2.824,0,0,1,26.977,6.59a3.269,3.269,0,0,1,3.377-3.409c1.969,0,3.858,1.472,3.858,5.042,0,3.794-1.985,5.506-4.114,5.506a4.142,4.142,0,0,1-2.977-1.216Zm3.618-4.049c-.209-1.6-.865-2.114-1.585-2.114-.688,0-1.28.5-1.28,1.649,0,1.073.576,1.473,1.344,1.473A1.8,1.8,0,0,0,31.987,7.055Z" stroke="#fff" stroke-width="0.513"/></symbol><symbol id="New_Symbol_1" data-name="New Symbol 1" viewBox="0 0 35.138 19.938"><path d="M5.955,2.909A4.382,4.382,0,0,1,9.044,4.27l-1.3,1.456a2.465,2.465,0,0,0-1.761-.785C4.53,4.941,3.4,6.206,3.4,8.3,3.4,10.448,4.4,11.7,5.923,11.7a2.56,2.56,0,0,0,1.985-.928l1.3,1.424a4.257,4.257,0,0,1-3.313,1.537c-2.7,0-4.913-1.84-4.913-5.346C.978,4.926,3.266,2.909,5.955,2.909Z" stroke="#fff" stroke-width="0.513"/><path d="M10.962,10.816a3.267,3.267,0,0,0,2.192,1.008,1.509,1.509,0,0,0,1.713-1.584,1.463,1.463,0,0,0-1.6-1.569,2.4,2.4,0,0,0-1.5.513l-1.056-.673.288-5.138h5.762V5.358h-3.73l-.175,1.905a2.528,2.528,0,0,1,1.136-.241,2.976,2.976,0,0,1,3.234,3.154,3.508,3.508,0,0,1-3.731,3.553A4.828,4.828,0,0,1,9.9,12.305Z" stroke="#fff" stroke-width="0.513"/><path d="M18.576,8.415c0-3.457,1.457-5.234,3.634-5.234s3.634,1.777,3.634,5.234-1.457,5.314-3.634,5.314S18.576,11.873,18.576,8.415Zm5.043,0c0-2.785-.608-3.409-1.409-3.409-.784,0-1.408.624-1.408,3.409,0,2.769.624,3.489,1.408,3.489C23.011,11.9,23.619,11.184,23.619,8.415Z" stroke="#fff" stroke-width="0.513"/><path d="M31.7,5.358H27.137V3.373h7.075v1.44c-2.354,2.85-2.69,4.754-2.865,8.724H28.978A13.608,13.608,0,0,1,31.7,5.358Z" stroke="#fff" stroke-width="0.513"/></symbol><symbol id="New_Symbol" data-name="New Symbol" viewBox="0 0 35.138 19.938"><path d="M5.955,2.909A4.382,4.382,0,0,1,9.044,4.27l-1.3,1.456a2.465,2.465,0,0,0-1.761-.785C4.53,4.941,3.4,6.206,3.4,8.3,3.4,10.448,4.4,11.7,5.923,11.7a2.56,2.56,0,0,0,1.985-.928l1.3,1.424a4.257,4.257,0,0,1-3.313,1.537c-2.7,0-4.913-1.84-4.913-5.346C.978,4.926,3.266,2.909,5.955,2.909Z" stroke="#fff" stroke-width="0.513"/><path d="M10.962,10.816a3.267,3.267,0,0,0,2.192,1.008,1.509,1.509,0,0,0,1.713-1.584,1.463,1.463,0,0,0-1.6-1.569,2.4,2.4,0,0,0-1.5.513l-1.056-.673.288-5.138h5.762V5.358h-3.73l-.175,1.905a2.528,2.528,0,0,1,1.136-.241,2.976,2.976,0,0,1,3.234,3.154,3.508,3.508,0,0,1-3.731,3.553A4.828,4.828,0,0,1,9.9,12.305Z" stroke="#fff" stroke-width="0.513"/><path d="M18.576,8.415c0-3.457,1.457-5.234,3.634-5.234s3.634,1.777,3.634,5.234-1.457,5.314-3.634,5.314S18.576,11.873,18.576,8.415Zm5.043,0c0-2.785-.608-3.409-1.409-3.409-.784,0-1.408.624-1.408,3.409,0,2.769.624,3.489,1.408,3.489C23.011,11.9,23.619,11.184,23.619,8.415Z" stroke="#fff" stroke-width="0.513"/><path d="M27.857,10.816a3.271,3.271,0,0,0,2.193,1.008,1.509,1.509,0,0,0,1.713-1.584,1.464,1.464,0,0,0-1.6-1.569,2.406,2.406,0,0,0-1.5.513L27.6,8.511l.288-5.138h5.761V5.358H29.922l-.176,1.905a2.535,2.535,0,0,1,1.137-.241,2.974,2.974,0,0,1,3.232,3.154,3.507,3.507,0,0,1-3.729,3.553A4.828,4.828,0,0,1,26.8,12.305Z" stroke="#fff" stroke-width="0.513"/></symbol><symbol id="New_Symbol_13" data-name="New Symbol 13" viewBox="0 0 35.138 19.938"><path d="M5.955,2.908A4.386,4.386,0,0,1,9.044,4.269l-1.3,1.457a2.461,2.461,0,0,0-1.761-.785C4.53,4.941,3.4,6.206,3.4,8.3,3.4,10.447,4.4,11.7,5.923,11.7a2.56,2.56,0,0,0,1.985-.928l1.3,1.424a4.256,4.256,0,0,1-3.312,1.537c-2.706,0-4.914-1.841-4.914-5.347C.978,4.925,3.266,2.908,5.955,2.908Z" stroke="#fff" stroke-width="0.513"/><path d="M10.961,10.815a3.263,3.263,0,0,0,2.192,1.009,1.51,1.51,0,0,0,1.713-1.585,1.463,1.463,0,0,0-1.6-1.568,2.408,2.408,0,0,0-1.505.512l-1.056-.672.288-5.138h5.762V5.357h-3.73l-.175,1.9a2.541,2.541,0,0,1,1.136-.24,2.975,2.975,0,0,1,3.234,3.153,3.509,3.509,0,0,1-3.731,3.554A4.828,4.828,0,0,1,9.9,12.3Z" stroke="#fff" stroke-width="0.513"/><path d="M18.576,8.415c0-3.458,1.457-5.234,3.634-5.234s3.634,1.776,3.634,5.234-1.457,5.314-3.634,5.314S18.576,11.872,18.576,8.415Zm5.042,0c0-2.786-.607-3.41-1.408-3.41-.784,0-1.408.624-1.408,3.41,0,2.769.624,3.489,1.408,3.489C23.011,11.9,23.618,11.184,23.618,8.415Z" stroke="#fff" stroke-width="0.513"/><path d="M27.024,12.192C29.618,9.743,31.442,8,31.442,6.558A1.365,1.365,0,0,0,30,5.021a2.6,2.6,0,0,0-1.809,1.041L26.913,4.8a4.3,4.3,0,0,1,3.409-1.616,3.118,3.118,0,0,1,3.362,3.233c0,1.712-1.6,3.537-3.249,5.266a15.672,15.672,0,0,1,1.7-.128H34.18v1.985H27.024Z" stroke="#fff" stroke-width="0.513"/></symbol><symbol id="New_Symbol_11" data-name="New Symbol 11" viewBox="0 0 35.138 19.938"><path d="M5.955,2.908A4.386,4.386,0,0,1,9.044,4.269l-1.3,1.457a2.461,2.461,0,0,0-1.761-.785C4.53,4.941,3.4,6.206,3.4,8.3,3.4,10.447,4.4,11.7,5.923,11.7a2.56,2.56,0,0,0,1.985-.928l1.3,1.424a4.257,4.257,0,0,1-3.313,1.537c-2.7,0-4.913-1.841-4.913-5.347C.978,4.925,3.266,2.908,5.955,2.908Z" stroke="#fff" stroke-width="0.513"/><path d="M10.962,10.815a3.263,3.263,0,0,0,2.192,1.009,1.51,1.51,0,0,0,1.713-1.585,1.463,1.463,0,0,0-1.6-1.568,2.408,2.408,0,0,0-1.5.512l-1.056-.672.288-5.138h5.762V5.357h-3.73l-.175,1.9a2.541,2.541,0,0,1,1.136-.24,2.975,2.975,0,0,1,3.234,3.153,3.509,3.509,0,0,1-3.731,3.554A4.828,4.828,0,0,1,9.9,12.3Z" stroke="#fff" stroke-width="0.513"/><path d="M18.576,8.415c0-3.458,1.457-5.234,3.634-5.234s3.634,1.776,3.634,5.234-1.457,5.314-3.634,5.314S18.576,11.872,18.576,8.415Zm5.043,0c0-2.786-.608-3.41-1.409-3.41-.784,0-1.408.624-1.408,3.41,0,2.769.624,3.489,1.408,3.489C23.011,11.9,23.619,11.184,23.619,8.415Z" stroke="#fff" stroke-width="0.513"/><path d="M34.5,11.1H33.331v2.433H31.139V11.1h-4.4V9.487L30.45,3.373h2.881V9.311H34.5ZM31.139,9.311V7.662c0-.656.063-1.632.1-2.273h-.063c-.257.561-.545,1.137-.833,1.713L28.994,9.311Z" stroke="#fff" stroke-width="0.513"/></symbol><symbol id="New_Symbol_12" data-name="New Symbol 12" viewBox="0 0 44.417 19.938"><path d="M5.955,2.908A4.388,4.388,0,0,1,9.044,4.269l-1.3,1.457a2.461,2.461,0,0,0-1.761-.785c-1.456,0-2.593,1.265-2.593,3.362,0,2.144,1.008,3.393,2.529,3.393a2.558,2.558,0,0,0,1.985-.928l1.3,1.424a4.26,4.26,0,0,1-3.314,1.537c-2.7,0-4.914-1.841-4.914-5.347C.977,4.925,3.266,2.908,5.955,2.908Z" stroke="#fff" stroke-width="0.513"/><path d="M10.961,10.815a3.266,3.266,0,0,0,2.193,1.009,1.51,1.51,0,0,0,1.713-1.585,1.463,1.463,0,0,0-1.6-1.568,2.406,2.406,0,0,0-1.5.512l-1.057-.672.288-5.138h5.762V5.357H13.026l-.176,1.9a2.547,2.547,0,0,1,1.136-.24,2.974,2.974,0,0,1,3.234,3.153,3.509,3.509,0,0,1-3.73,3.554A4.826,4.826,0,0,1,9.9,12.3Z" stroke="#fff" stroke-width="0.513"/><path d="M18.577,8.415c0-3.458,1.457-5.234,3.633-5.234s3.634,1.776,3.634,5.234-1.457,5.314-3.634,5.314S18.577,11.872,18.577,8.415Zm5.042,0c0-2.786-.608-3.41-1.409-3.41-.784,0-1.408.624-1.408,3.41,0,2.769.624,3.489,1.408,3.489C23.011,11.9,23.619,11.184,23.619,8.415Z" stroke="#fff" stroke-width="0.513"/><path d="M27.025,12.192C29.618,9.743,31.443,8,31.443,6.558A1.366,1.366,0,0,0,30,5.021a2.6,2.6,0,0,0-1.809,1.041L26.913,4.8a4.305,4.305,0,0,1,3.409-1.616,3.118,3.118,0,0,1,3.362,3.233c0,1.712-1.6,3.537-3.25,5.266a15.727,15.727,0,0,1,1.7-.128H34.18v1.985H27.025Z" stroke="#fff" stroke-width="0.513"/><path d="M40.579,2.908a4.388,4.388,0,0,1,3.089,1.361l-1.3,1.457a2.465,2.465,0,0,0-1.761-.785c-1.457,0-2.593,1.265-2.593,3.362,0,2.144,1.008,3.393,2.529,3.393a2.558,2.558,0,0,0,1.984-.928l1.3,1.424a4.258,4.258,0,0,1-3.313,1.537c-2.7,0-4.914-1.841-4.914-5.347C35.6,4.925,37.89,2.908,40.579,2.908Z" stroke="#fff" stroke-width="0.513"/></symbol><symbol id="New_Symbol_14" data-name="New Symbol 14" viewBox="0 0 44.401 19.938"><path d="M5.955,2.908A4.388,4.388,0,0,1,9.044,4.269l-1.3,1.457a2.461,2.461,0,0,0-1.761-.785c-1.456,0-2.593,1.265-2.593,3.362,0,2.144,1.008,3.393,2.529,3.393a2.558,2.558,0,0,0,1.985-.928l1.3,1.424a4.26,4.26,0,0,1-3.314,1.537c-2.7,0-4.914-1.841-4.914-5.347C.977,4.925,3.266,2.908,5.955,2.908Z" stroke="#fff" stroke-width="0.513"/><path d="M10.961,10.815a3.266,3.266,0,0,0,2.193,1.009,1.51,1.51,0,0,0,1.713-1.585,1.463,1.463,0,0,0-1.6-1.568,2.406,2.406,0,0,0-1.5.512l-1.057-.672.288-5.138h5.762V5.357H13.026l-.176,1.9a2.547,2.547,0,0,1,1.136-.24,2.974,2.974,0,0,1,3.234,3.153,3.509,3.509,0,0,1-3.73,3.554A4.826,4.826,0,0,1,9.9,12.3Z" stroke="#fff" stroke-width="0.513"/><path d="M18.577,8.415c0-3.458,1.456-5.234,3.633-5.234s3.634,1.776,3.634,5.234-1.457,5.314-3.634,5.314S18.577,11.872,18.577,8.415Zm5.042,0c0-2.786-.609-3.41-1.409-3.41-.784,0-1.408.624-1.408,3.41,0,2.769.624,3.489,1.408,3.489C23.01,11.9,23.619,11.184,23.619,8.415Z" stroke="#fff" stroke-width="0.513"/><path d="M27.025,12.192C29.618,9.743,31.443,8,31.443,6.558A1.366,1.366,0,0,0,30,5.021a2.6,2.6,0,0,0-1.809,1.041L26.913,4.8a4.305,4.305,0,0,1,3.409-1.616,3.118,3.118,0,0,1,3.362,3.233c0,1.712-1.6,3.537-3.25,5.266a15.727,15.727,0,0,1,1.7-.128H34.18v1.985H27.025Z" stroke="#fff" stroke-width="0.513"/><path d="M41.011,11.056h-3.2l-.64,2.481h-2.4L38.05,3.1h2.817l3.281,10.436h-2.5Zm-.48-1.841-.256-.961c-.288-1.04-.56-2.273-.848-3.361h-.064c-.24,1.105-.529,2.321-.817,3.361l-.256.961Z" stroke="#fff" stroke-width="0.513"/></symbol><symbol id="stairs_on" data-name="stairs on" viewBox="0 0 76.108 84.108"><path id="Union_4-4" data-name="Union 4-4" d="M33.1,72.823H22.054a20,20,0,0,1-20-20V22.054a20,20,0,0,1,20-20h32a20,20,0,0,1,20,20V52.823a20,20,0,0,1-20,20H44.575l-5.737,9.231Z" stroke="#fff" stroke-linecap="round" stroke-linejoin="round" stroke-width="4.108"/><path id="stairs_on-3" data-name="stairs on" d="M43.766,22.019v7.32a1.541,1.541,0,0,1-1.537,1.543H34.9a2.554,2.554,0,0,0-2.555,2.549h0v7.32a1.541,1.541,0,0,1-1.537,1.543H23.473a2.55,2.55,0,0,0-2.552,2.548v6.341a2.551,2.551,0,0,0,2.552,2.549h29.16a2.553,2.553,0,0,0,2.555-2.549h0V22.019a2.552,2.552,0,0,0-2.555-2.548H46.319a2.551,2.551,0,0,0-2.553,2.548Z" fill="#fff"/></symbol></defs><g id="floor_color_box" data-name="floor color box"><g id="floor"><path d="M138.173,360.667a2.166,2.166,0,0,0,2.163,2.169l977.841-.006a2.165,2.165,0,0,0,2.163-2.168V84.028a2.165,2.165,0,0,0-2.162-2.169H140.336a2.166,2.166,0,0,0-2.163,2.169Z" fill="#667b8e"/><path d="M124,346.494a2.165,2.165,0,0,0,2.162,2.169L1104,348.657a2.166,2.166,0,0,0,2.163-2.169V69.854A2.165,2.165,0,0,0,1104,67.686H126.162A2.165,2.165,0,0,0,124,69.854Z" fill="#fff"/></g><polygon id="footpath" points="179.827 234.906 124 234.906 124 67.686 217.428 67.686 217.428 153.989 229.49 153.989 229.49 182.637 1106.036 182.637 1106.036 234.127 519.241 234.127 519.241 220.955 179.827 220.955 179.827 234.906" fill="#e1e6ea"/><path id="stairs" d="M124,234.906h55.826a0,0,0,0,1,0,0V348.657a0,0,0,0,1,0,0H126a2,2,0,0,1-2-2V234.906A0,0,0,0,1,124,234.906Z" fill="#dcffe4"/><path id="stairs-2" data-name="stairs" d="M1103.794,348.657h-56.427V236.29L1046,234.127h60.167l-.142,111.759C1106.023,347.8,1105.051,348.657,1103.794,348.657Z" fill="#dcffe4"/><rect id="stairs-3" data-name="stairs" x="519.241" y="234.127" width="58.985" height="114.53" fill="#dcffe4"/></g><g id="overlay"><g id="exterior_outline" data-name="exterior outline"><path d="M124,219.4v127.1a2.162,2.162,0,0,0,2.163,2.163H1104a2.163,2.163,0,0,0,2.163-2.163V69.849A2.163,2.163,0,0,0,1104,67.686H126.163A2.162,2.162,0,0,0,124,69.849V187.5a2.162,2.162,0,0,0,2.163,2.163H177.9a2.162,2.162,0,0,0,2.163-2.163V114.558" fill="none" stroke="#a4aeb6" stroke-linecap="round" stroke-linejoin="round" stroke-width="3"/><line x1="1082.222" y1="182.637" x2="1106.036" y2="182.637" fill="none" stroke="#a4aeb6" stroke-linecap="round" stroke-linejoin="round" stroke-width="3"/><line x1="980.315" y1="182.637" x2="1058.169" y2="182.637" fill="none" stroke="#a4aeb6" stroke-linecap="round" stroke-linejoin="round" stroke-width="3"/><line x1="865.016" y1="182.637" x2="951.989" y2="182.637" fill="none" stroke="#a4aeb6" stroke-linecap="round" stroke-linejoin="round" stroke-width="3"/><line x1="766.405" y1="182.637" x2="833.241" y2="182.637" fill="none" stroke="#a4aeb6" stroke-linecap="round" stroke-linejoin="round" stroke-width="3"/><line x1="671.386" y1="182.637" x2="737.767" y2="182.637" fill="none" stroke="#a4aeb6" stroke-linecap="round" stroke-linejoin="round" stroke-width="3"/><line x1="579.134" y1="182.637" x2="650.241" y2="182.637" fill="none" stroke="#a4aeb6" stroke-linecap="round" stroke-linejoin="round" stroke-width="3"/><line x1="482.384" y1="182.637" x2="554.217" y2="182.637" fill="none" stroke="#a4aeb6" stroke-linecap="round" stroke-linejoin="round" stroke-width="3"/><line x1="409.362" y1="182.637" x2="455.109" y2="182.637" fill="none" stroke="#a4aeb6" stroke-linecap="round" stroke-linejoin="round" stroke-width="3"/><line x1="294.702" y1="182.637" x2="357.115" y2="182.637" fill="none" stroke="#a4aeb6" stroke-linecap="round" stroke-linejoin="round" stroke-width="3"/><path d="M217.428,67.686v84.14a2.163,2.163,0,0,0,2.163,2.163h52.27a2.162,2.162,0,0,1,2.163,2.163v26.485" fill="none" stroke="#a4aeb6" stroke-linecap="round" stroke-linejoin="round" stroke-width="3"/><path d="M229.49,153.989v26.485a2.162,2.162,0,0,0,2.163,2.163h13.041" fill="none" stroke="#a4aeb6" stroke-linecap="round" stroke-linejoin="round" stroke-width="3"/><line x1="330.283" y1="182.637" x2="330.283" y2="67.686" fill="none" stroke="#a4aeb6" stroke-linecap="round" stroke-linejoin="round" stroke-width="3"/><path d="M387.062,182.281V131.3a2.164,2.164,0,0,0-2.163-2.163h-54.68" fill="none" stroke="#a4aeb6" stroke-linecap="round" stroke-linejoin="round" stroke-width="3"/><line x1="424.827" y1="182.637" x2="424.827" y2="67.686" fill="none" stroke="#a4aeb6" stroke-linecap="round" stroke-linejoin="round" stroke-width="3"/><line x1="613.656" y1="67.686" x2="613.656" y2="182.637" fill="none" stroke="#a4aeb6" stroke-linecap="round" stroke-linejoin="round" stroke-width="3"/><line x1="783.601" y1="67.686" x2="783.601" y2="182.637" fill="none" stroke="#a4aeb6" stroke-linecap="round" stroke-linejoin="round" stroke-width="3"/><line x1="934.663" y1="67.686" x2="934.663" y2="182.637" fill="none" stroke="#a4aeb6" stroke-linecap="round" stroke-linejoin="round" stroke-width="3"/><path d="M219.258,220.955H181.989a2.162,2.162,0,0,0-2.162,2.163V348.657" fill="none" stroke="#a4aeb6" stroke-linecap="round" stroke-linejoin="round" stroke-width="3"/><path d="M519.241,348.657V223.118a2.162,2.162,0,0,0-2.163-2.163H426.86" fill="none" stroke="#a4aeb6" stroke-linecap="round" stroke-linejoin="round" stroke-width="3"/><line x1="659.001" y1="234.127" x2="552.984" y2="234.127" fill="none" stroke="#a4aeb6" stroke-linecap="round" stroke-linejoin="round" stroke-width="3"/><path d="M764.113,234.127H691.08a2.163,2.163,0,0,0-2.163,2.163V348.657" fill="none" stroke="#a4aeb6" stroke-linecap="round" stroke-linejoin="round" stroke-width="3"/><path d="M967.667,234.127H1045.2a2.163,2.163,0,0,1,2.163,2.163V348.657" fill="none" stroke="#a4aeb6" stroke-linecap="round" stroke-linejoin="round" stroke-width="3"/><line x1="839" y1="234.127" x2="941.333" y2="234.127" fill="none" stroke="#a4aeb6" stroke-linecap="round" stroke-linejoin="round" stroke-width="3"/><line x1="795" y1="234.127" x2="813" y2="234.127" fill="none" stroke="#a4aeb6" stroke-linecap="round" stroke-linejoin="round" stroke-width="3"/><line x1="1105.906" y1="234.127" x2="1082.222" y2="234.127" fill="none" stroke="#a4aeb6" stroke-linecap="round" stroke-linejoin="round" stroke-width="3"/><line x1="124.779" y1="234.906" x2="145.284" y2="234.906" fill="none" stroke="#a4aeb6" stroke-linecap="round" stroke-linejoin="round" stroke-width="3"/><line x1="151.751" y1="278.663" x2="151.751" y2="328.801" fill="none" stroke="#a4aeb6" stroke-linecap="round" stroke-linejoin="round" stroke-width="3"/><path d="M244.24,220.955H375.814a2.162,2.162,0,0,1,2.163,2.163v56.021a2.164,2.164,0,0,0,2.163,2.163H403a2.164,2.164,0,0,0,2.163-2.163V223.118A2.163,2.163,0,0,0,403,220.955h-8.068" fill="none" stroke="#a4aeb6" stroke-linecap="round" stroke-linejoin="round" stroke-width="3"/><line x1="350.075" y1="348.657" x2="350.075" y2="299.925" fill="none" stroke="#a4aeb6" stroke-linecap="round" stroke-linejoin="round" stroke-width="3"/><line x1="578.226" y1="234.127" x2="578.226" y2="348.657" fill="none" stroke="#a4aeb6" stroke-linecap="round" stroke-linejoin="round" stroke-width="3"/><path d="M519.241,279.031h27.33a2.163,2.163,0,0,1,2.163,2.163v42.848" fill="none" stroke="#a4aeb6" stroke-linecap="round" stroke-linejoin="round" stroke-width="3"/><path d="M1105.906,273.58h-26.365a2.163,2.163,0,0,0-2.163,2.163v42.913" fill="none" stroke="#a4aeb6" stroke-linecap="round" stroke-linejoin="round" stroke-width="3"/><line x1="124" y1="278.663" x2="179.827" y2="278.663" fill="none" stroke="#a4aeb6" stroke-linecap="round" stroke-linejoin="round"/><line x1="124" y1="288.736" x2="179.827" y2="288.736" fill="none" stroke="#a4aeb6" stroke-linecap="round" stroke-linejoin="round"/><line x1="124" y1="298.809" x2="179.827" y2="298.809" fill="none" stroke="#a4aeb6" stroke-linecap="round" stroke-linejoin="round"/><line x1="124" y1="308.882" x2="179.827" y2="308.882" fill="none" stroke="#a4aeb6" stroke-linecap="round" stroke-linejoin="round"/><line x1="124" y1="318.955" x2="179.827" y2="318.955" fill="none" stroke="#a4aeb6" stroke-linecap="round" stroke-linejoin="round"/><line x1="124" y1="329.028" x2="179.827" y2="329.028" fill="none" stroke="#a4aeb6" stroke-linecap="round" stroke-linejoin="round"/><line x1="519.241" y1="289.759" x2="578.227" y2="289.759" fill="none" stroke="#a4aeb6" stroke-linecap="round" stroke-linejoin="round"/><line x1="519.241" y1="298.33" x2="578.227" y2="298.33" fill="none" stroke="#a4aeb6" stroke-linecap="round" stroke-linejoin="round"/><line x1="519.241" y1="306.901" x2="578.227" y2="306.901" fill="none" stroke="#a4aeb6" stroke-linecap="round" stroke-linejoin="round"/><line x1="519.241" y1="315.471" x2="578.227" y2="315.471" fill="none" stroke="#a4aeb6" stroke-linecap="round" stroke-linejoin="round"/><line x1="519.241" y1="324.042" x2="578.227" y2="324.042" fill="none" stroke="#a4aeb6" stroke-linecap="round" stroke-linejoin="round"/><line x1="1047.367" y1="284.712" x2="1106.167" y2="284.712" fill="none" stroke="#a4aeb6" stroke-linecap="round" stroke-linejoin="round"/><line x1="1047.367" y1="293.198" x2="1106.167" y2="293.198" fill="none" stroke="#a4aeb6" stroke-linecap="round" stroke-linejoin="round"/><line x1="1047.367" y1="301.684" x2="1106.167" y2="301.684" fill="none" stroke="#a4aeb6" stroke-linecap="round" stroke-linejoin="round"/><line x1="1047.367" y1="310.17" x2="1106.167" y2="310.17" fill="none" stroke="#a4aeb6" stroke-linecap="round" stroke-linejoin="round"/><line x1="1047.367" y1="318.656" x2="1106.167" y2="318.656" fill="none" stroke="#a4aeb6" stroke-linecap="round" stroke-linejoin="round"/><line x1="934.663" y1="348.657" x2="934.663" y2="234.127" fill="none" stroke="#a4aeb6" stroke-linecap="round" stroke-linejoin="round" stroke-width="3"/><line x1="802.667" y1="348.657" x2="802.667" y2="234.127" fill="none" stroke="#a4aeb6" stroke-linecap="round" stroke-linejoin="round" stroke-width="3"/></g></g><g id="text"><use width="35.138" height="19.938" transform="translate(256.196 101.347)" xlink:href="#New_Symbol_5"/><use width="35.137" height="19.938" transform="translate(251.524 284.979)" xlink:href="#New_Symbol_8"/><use width="30.81" height="17.51" transform="translate(376.027 244.968)" xlink:href="#New_Symbol_9"/><use width="35.138" height="19.938" transform="translate(427.807 284.979)" xlink:href="#New_Symbol_10"/><use width="35.137" height="19.938" transform="translate(503.835 115.347)" xlink:href="#New_Symbol_3"/><use width="35.137" height="19.938" transform="translate(361.577 92.438)" xlink:href="#New_Symbol_4"/><use width="44.817" height="19.938" transform="translate(336.751 146.518)" xlink:href="#New_Symbol_7"/><use width="35.138" height="19.938" transform="translate(234.696 158.274)" xlink:href="#New_Symbol_6"/><use width="35.138" height="19.938" transform="translate(684.175 115.347)" xlink:href="#New_Symbol_2"/><use width="35.138" height="19.938" transform="translate(846.474 115.347)" xlink:href="#New_Symbol_1"/><use width="35.138" height="19.938" transform="translate(1003.57 115.347)" xlink:href="#New_Symbol"/><use width="35.138" height="19.938" transform="translate(851.54 283.469)" xlink:href="#New_Symbol_13"/><use width="35.138" height="19.938" transform="translate(616.029 283.469)" xlink:href="#New_Symbol_11"/><use width="44.417" height="19.938" transform="translate(719.49 283.401)" xlink:href="#New_Symbol_12"/><use width="44.401" height="19.938" transform="translate(967.935 283.401)" xlink:href="#New_Symbol_14"/></g><g id="toggle"><g id="stair_on" data-name="stair on"><g id="highlight"><rect x="969.9" y="175.181" width="214.957" height="229.156" transform="translate(787.619 1367.137) rotate(-90)" fill="url(#radial-gradient)"/><g id="stairs-4" data-name="stairs"><path d="M1103.794,348.657h-56.427V236.29L1046,234.127h60.167l-.142,111.759C1106.023,347.8,1105.051,348.657,1103.794,348.657Z" fill="#0a64fe"/></g><polyline points="1082.222 234.127 1106.167 234.127 1106.167 348.663 1047.367 348.663 1047.367 234.127" fill="none" stroke="#fff" stroke-linecap="round" stroke-linejoin="round" stroke-width="4"/></g><g id="highlight-2" data-name="highlight"><rect x="441.256" y="175.181" width="214.957" height="229.156" transform="translate(258.975 838.493) rotate(-90)" fill="url(#radial-gradient-2)"/><g id="stairs-5" data-name="stairs"><rect x="519.241" y="234.127" width="58.985" height="114.53" fill="#0a64fe"/></g><polyline points="552.984 234.127 578.226 234.127 578.226 348.657 519.241 348.657 519.241 234.127" fill="none" stroke="#fff" stroke-linecap="round" stroke-linejoin="round" stroke-width="4"/></g><g id="highlight-3" data-name="highlight"><rect x="44.435" y="173.815" width="214.957" height="229.156" transform="translate(-136.479 440.306) rotate(-90)" fill="url(#radial-gradient-3)"/><g id="stairs-6" data-name="stairs"><path d="M124,234.906h55.827V348.657H126a2,2,0,0,1-2-2Z" fill="#0a64fe"/></g><polyline points="145.284 234.906 124 234.906 124 348.657 179.827 348.657 179.827 234.906" fill="none" stroke="#fff" stroke-linecap="round" stroke-linejoin="round" stroke-width="4"/></g></g></g><g id="floating"><g id="stair_on-2" data-name="stair on"><use width="76.108" height="84.108" transform="translate(1038.713 247.705)" xlink:href="#stairs_on"/><use width="76.108" height="84.108" transform="translate(509.822 247.705)" xlink:href="#stairs_on"/><use width="76.108" height="84.108" transform="translate(113.697 247.705)" xlink:href="#stairs_on"/></g></g></svg>