<svg xmlns="http://www.w3.org/2000/svg" xmlns:xlink="http://www.w3.org/1999/xlink" width="1541.815" height="755.023" viewBox="0 0 1541.815 755.023"><defs><symbol id="New_Symbol" data-name="New Symbol" viewBox="0 0 53.659 37.432"><path d="M1.44,3.22H4.381L6.067,7.681l.595,1.752h.066l.6-1.752L8.942,3.22h2.942V13.961H9.24V10.788A36.918,36.918,0,0,1,9.6,6.954H9.537L8.645,9.466,7.158,13.085H6.1L4.613,9.466l-.86-2.512H3.688a37.472,37.472,0,0,1,.363,3.834v3.173H1.44Z" fill="#1e1248" stroke="#fff" stroke-miterlimit="10" stroke-width="0.5"/><path d="M14.259,3.22H21.2V5.6H17.1V7.285h3.5v2.38H17.1v1.916h4.264v2.38H14.259Z" fill="#1e1248" stroke="#fff" stroke-miterlimit="10" stroke-width="0.5"/><path d="M25.492,5.6H22.65V3.22h8.527V5.6H28.335v8.362H25.492Z" fill="#1e1248" stroke="#fff" stroke-miterlimit="10" stroke-width="0.5"/><path d="M38.544,13.961l-1.851-3.6H35.6v3.6H32.76V3.22h4.065c2.314,0,4.3.793,4.3,3.47A3.293,3.293,0,0,1,39.387,9.8l2.33,4.165ZM35.6,8.111h1.024c1.124,0,1.719-.5,1.719-1.421s-.595-1.223-1.719-1.223H35.6Z" fill="#1e1248" stroke="#fff" stroke-miterlimit="10" stroke-width="0.5"/><path d="M42.705,8.541c0-3.537,2.016-5.52,4.99-5.52s4.991,2,4.991,5.52c0,3.536-2.016,5.618-4.991,5.618S42.705,12.077,42.705,8.541Zm7.072,0c0-1.95-.793-3.074-2.082-3.074s-2.082,1.124-2.082,3.074.793,3.172,2.082,3.172S49.777,10.491,49.777,8.541Z" fill="#1e1248" stroke="#fff" stroke-miterlimit="10" stroke-width="0.5"/><path d="M6.444,19.7H9.353l.6,4.693c.115,1.124.248,2.247.364,3.371h.065c.2-1.124.4-2.264.6-3.371L12,19.7h2.379L15.4,24.394c.2,1.074.4,2.231.6,3.371h.066c.116-1.14.248-2.281.364-3.371l.6-4.693h2.71L17.946,30.442h-3.6l-.826-4.264c-.166-.826-.3-1.718-.4-2.511h-.066c-.116.793-.232,1.685-.4,2.511l-.793,4.264H8.329Z" fill="#1e1248" stroke="#fff" stroke-miterlimit="10" stroke-width="0.5"/><path d="M21.081,19.7h6.94V22.08h-4.1v1.686h3.5v2.38h-3.5v1.916h4.264v2.38H21.081Z" fill="#1e1248" stroke="#fff" stroke-miterlimit="10" stroke-width="0.5"/><path d="M31.224,27.153a4.357,4.357,0,0,0,2.512,1.041c.859,0,1.222-.28,1.222-.76,0-.512-.544-.677-1.454-1.041l-1.338-.561A3.175,3.175,0,0,1,30,22.84c0-1.834,1.653-3.338,4-3.338a5.166,5.166,0,0,1,3.57,1.438l-1.422,1.785A3.535,3.535,0,0,0,34,21.948c-.694,0-1.124.248-1.124.727,0,.513.612.694,1.587,1.074l1.306.512a2.953,2.953,0,0,1,2.1,2.942c0,1.818-1.52,3.437-4.2,3.437A6.221,6.221,0,0,1,29.6,29.1Z" fill="#1e1248" stroke="#fff" stroke-miterlimit="10" stroke-width="0.5"/><path d="M41.3,22.08H38.459V19.7h8.527V22.08H44.144v8.362H41.3Z" fill="#1e1248" stroke="#fff" stroke-miterlimit="10" stroke-width="0.5"/></symbol><symbol id="New_Symbol_4" data-name="New Symbol 4" viewBox="0 0 99.913 37.432"><path d="M1.44,3.22H5.6c2.313,0,4.3.859,4.3,3.569,0,2.628-2.049,3.768-4.3,3.768H4.282v3.4H1.44ZM5.472,8.309c1.124,0,1.653-.561,1.653-1.52S6.53,5.467,5.472,5.467H4.282V8.309Z" fill="#1e1248" stroke="#fff" stroke-miterlimit="10" stroke-width="0.5"/><path d="M12.442,10.672a4.362,4.362,0,0,0,2.512,1.041c.859,0,1.223-.28,1.223-.76,0-.512-.545-.677-1.454-1.041l-1.339-.561a3.176,3.176,0,0,1-2.165-2.992c0-1.834,1.653-3.338,4-3.338a5.166,5.166,0,0,1,3.57,1.438L17.367,6.244a3.536,3.536,0,0,0-2.149-.777c-.694,0-1.123.248-1.123.727,0,.513.611.694,1.586,1.074l1.306.512a2.953,2.953,0,0,1,2.1,2.942c0,1.818-1.52,3.437-4.2,3.437a6.219,6.219,0,0,1-4.065-1.536Z" fill="#1e1248" stroke="#fff" stroke-miterlimit="10" stroke-width="0.5"/><path d="M22.354,10.259,19.115,3.22h3.041l.793,2.247c.264.81.529,1.554.81,2.4h.066c.28-.842.562-1.586.842-2.4l.794-2.247h2.974L25.2,10.259v3.7H22.354Z" fill="#1e1248" stroke="#fff" stroke-miterlimit="10" stroke-width="0.5"/><path d="M33.918,3.021a4.706,4.706,0,0,1,3.273,1.421L35.637,6.194a2.38,2.38,0,0,0-1.685-.727c-1.289,0-2.38,1.157-2.38,3.107,0,2.016.926,3.139,2.314,3.139a2.483,2.483,0,0,0,1.884-.859l1.553,1.719a4.494,4.494,0,0,1-3.47,1.586c-2.81,0-5.189-1.818-5.189-5.486C28.664,5.07,31.143,3.021,33.918,3.021Z" fill="#1e1248" stroke="#fff" stroke-miterlimit="10" stroke-width="0.5"/><path d="M38.807,3.22h2.842v4h3.206v-4H47.7V13.961H44.855V9.7H41.649v4.264H38.807Z" fill="#1e1248" stroke="#fff" stroke-miterlimit="10" stroke-width="0.5"/><path d="M49.61,8.541c0-3.537,2.016-5.52,4.991-5.52s4.991,2,4.991,5.52c0,3.536-2.016,5.618-4.991,5.618S49.61,12.077,49.61,8.541Zm7.073,0c0-1.95-.793-3.074-2.082-3.074s-2.082,1.124-2.082,3.074.793,3.172,2.082,3.172S56.683,10.491,56.683,8.541Z" fill="#1e1248" stroke="#fff" stroke-miterlimit="10" stroke-width="0.5"/><path d="M61.5,3.22h2.843v8.361h4.065v2.38H61.5Z" fill="#1e1248" stroke="#fff" stroke-miterlimit="10" stroke-width="0.5"/><path d="M69.136,8.541c0-3.537,2.016-5.52,4.99-5.52s4.991,2,4.991,5.52c0,3.536-2.016,5.618-4.991,5.618S69.136,12.077,69.136,8.541Zm7.072,0c0-1.95-.792-3.074-2.082-3.074s-2.082,1.124-2.082,3.074.793,3.172,2.082,3.172S76.208,10.491,76.208,8.541Z" fill="#1e1248" stroke="#fff" stroke-miterlimit="10" stroke-width="0.5"/><path d="M85.988,3.021a4.8,4.8,0,0,1,3.437,1.421L87.872,6.194a2.487,2.487,0,0,0-1.851-.727c-1.455,0-2.545,1.157-2.545,3.107,0,2.016.892,3.139,2.809,3.139a1.609,1.609,0,0,0,.826-.2V10.028H85.525V7.714h4.1v5.123a6.063,6.063,0,0,1-3.7,1.322c-2.941,0-5.354-1.818-5.354-5.486A5.285,5.285,0,0,1,85.988,3.021Z" fill="#1e1248" stroke="#fff" stroke-miterlimit="10" stroke-width="0.5"/><path d="M93.585,10.259,90.347,3.22h3.04l.793,2.247c.265.81.529,1.554.81,2.4h.066c.281-.842.562-1.586.843-2.4l.793-2.247h2.975l-3.239,7.039v3.7H93.585Z" fill="#1e1248" stroke="#fff" stroke-miterlimit="10" stroke-width="0.5"/><path d="M31.027,19.5A4.7,4.7,0,0,1,34.3,20.923l-1.553,1.752a2.38,2.38,0,0,0-1.685-.727c-1.29,0-2.38,1.156-2.38,3.107,0,2.016.925,3.139,2.314,3.139a2.479,2.479,0,0,0,1.883-.859l1.554,1.719a4.5,4.5,0,0,1-3.471,1.586c-2.809,0-5.189-1.818-5.189-5.486C25.772,21.551,28.251,19.5,31.027,19.5Z" fill="#1e1248" stroke="#fff" stroke-miterlimit="10" stroke-width="0.5"/><path d="M35.916,19.7h2.842v8.361h4.065v2.38H35.916Z" fill="#1e1248" stroke="#fff" stroke-miterlimit="10" stroke-width="0.5"/><path d="M44.671,19.7h2.842V30.442H44.671Z" fill="#1e1248" stroke="#fff" stroke-miterlimit="10" stroke-width="0.5"/><path d="M49.891,19.7H52.8l2.38,4.792L56.2,26.905h.066a38.6,38.6,0,0,1-.364-4.1V19.7h2.71V30.442H55.708l-2.38-4.809-1.024-2.4h-.066a40.251,40.251,0,0,1,.363,4.1v3.107h-2.71Z" fill="#1e1248" stroke="#fff" stroke-miterlimit="10" stroke-width="0.5"/><path d="M60.992,19.7h2.842V30.442H60.992Z" fill="#1e1248" stroke="#fff" stroke-miterlimit="10" stroke-width="0.5"/><path d="M71,19.5a4.705,4.705,0,0,1,3.272,1.421l-1.553,1.752a2.383,2.383,0,0,0-1.686-.727c-1.289,0-2.379,1.156-2.379,3.107,0,2.016.925,3.139,2.313,3.139a2.483,2.483,0,0,0,1.884-.859l1.553,1.719a4.493,4.493,0,0,1-3.47,1.586c-2.809,0-5.189-1.818-5.189-5.486C65.749,21.551,68.228,19.5,71,19.5Z" fill="#1e1248" stroke="#fff" stroke-miterlimit="10" stroke-width="0.5"/></symbol><symbol id="New_Symbol_3" data-name="New Symbol 3" viewBox="0 0 109.597 128.241"><g id="accessible_toilet-2" data-name="accessible toilet"><path d="M88.146,0H21.451A21.451,21.451,0,0,0,0,21.452V95.21a21.451,21.451,0,0,0,21.451,21.451h24.12l9.228,11.58,9.227-11.58h24.12A21.451,21.451,0,0,0,109.6,95.21V21.452A21.451,21.451,0,0,0,88.146,0Z" fill="#0a64fe"/><path id="Rectangle_491" data-name="Rectangle 491" d="M19.277,10.065H90.32a9.792,9.792,0,0,1,9.792,9.792v38.1a5.9,5.9,0,0,1-5.895,5.9H15.381a5.9,5.9,0,0,1-5.9-5.9v-38.1A9.792,9.792,0,0,1,19.277,10.065Z" fill="#3688ff"/><g id="accessible-2"><g id="Group_1512-2" data-name="Group 1512-2"><path id="Path_142-2-2" data-name="Path 142-2-2" d="M71.016,35.947a2.525,2.525,0,0,0-1.975-.792l-5.867.372A1.353,1.353,0,0,1,62.059,33.3l2.84-3.287a2.49,2.49,0,0,0,.595-2.762,3.061,3.061,0,0,0-1.186-1.573l-7.83-5.086a8.083,8.083,0,0,0-9.9.859l-2.841,2.64a2.7,2.7,0,0,0-.2,3.543,2.572,2.572,0,0,0,3.6.372c.055-.048.111-.1.163-.149l2.447-2.23a3.454,3.454,0,0,1,4.108-.372h0a1.35,1.35,0,0,1,.449,1.855l0,0a1.421,1.421,0,0,1-.141.186l-4.956,5.729a1.412,1.412,0,0,1-.811.473,12.754,12.754,0,0,0-5.238,2.294,1.308,1.308,0,0,0-.354,1.81h0a.979.979,0,0,0,.19.216l1.487,1.487a1.386,1.386,0,0,0,1.755.149,8.6,8.6,0,0,1,4.834-1.465,8.411,8.411,0,0,1,8.518,8.3v.173A8.555,8.555,0,0,1,58.106,51.3a1.34,1.34,0,0,0,.145,1.714l1.458,1.469a1.369,1.369,0,0,0,1.935.006l.006-.006a1.3,1.3,0,0,0,.141-.164,13.387,13.387,0,0,0,2.54-7.834,10.7,10.7,0,0,0-.621-4.019,1.354,1.354,0,0,1,.81-1.733,1.521,1.521,0,0,1,.372-.078h0a1.354,1.354,0,0,1,1.42,1.279.782.782,0,0,1,0,.2l-.829,8.685a2.48,2.48,0,0,0,2.181,2.746h.385a2.577,2.577,0,0,0,2.573-2.361L71.8,37.821A2.132,2.132,0,0,0,71.016,35.947Z" fill="#fff"/><path id="Path_143-2-2" data-name="Path 143-2-2" d="M66.751,24.919a4.852,4.852,0,1,0-4.889-4.852h0A4.919,4.919,0,0,0,66.751,24.919Z" fill="#fff"/><path id="Path_144-2-2" data-name="Path 144-2-2" d="M51.113,54.9a8.463,8.463,0,0,1-8.552-8.366h0v-.126a9.358,9.358,0,0,1,1.075-4.172.893.893,0,0,0-.16-1.037l-2.183-2.164a.9.9,0,0,0-1.268,0h0a1.136,1.136,0,0,0-.111.138A12.873,12.873,0,0,0,37.783,46.4,13.277,13.277,0,0,0,51.09,59.642H51.1a12.779,12.779,0,0,0,7.284-2.123.892.892,0,0,0,.256-1.227.939.939,0,0,0-.115-.145L56.355,54a.9.9,0,0,0-1.082-.138A8.018,8.018,0,0,1,51.113,54.9Z" fill="#fff"/></g></g><path d="M36.172,83.238h2.435V94.911H44.3v2.058H36.172Z" fill="#fff"/><path d="M44.236,86.66h2.456l1.639,5.354c.272,1.008.588,2.058.86,3.107h.084c.294-1.049.588-2.1.882-3.107L51.8,86.66h2.331L50.619,96.969H47.827Z" fill="#fff"/><path d="M55.911,82.146h2.415v12.3c0,.587.272.8.524.8a1.449,1.449,0,0,0,.379-.042l.315,1.806a3.3,3.3,0,0,1-1.282.21c-1.72,0-2.351-1.112-2.351-2.9Z" fill="#fff"/><path d="M65.928,95H68.91V86.219H66.454V84.707a8.978,8.978,0,0,0,3.086-1.091h1.8V95h2.624v1.974H65.928Z" fill="#fff"/></g></symbol><symbol id="New_Symbol_2" data-name="New Symbol 2" viewBox="0 0 109.597 128.241"><g id="male_toilet-2" data-name="male toilet"><path d="M88.146,0H21.451A21.451,21.451,0,0,0,0,21.452V95.21a21.451,21.451,0,0,0,21.451,21.451h24.12l9.228,11.58,9.227-11.58h24.12A21.451,21.451,0,0,0,109.6,95.21V21.452A21.451,21.451,0,0,0,88.146,0Z" fill="#0a64fe"/><path id="Rectangle_491-2" data-name="Rectangle 491" d="M19.277,10.065H90.32a9.792,9.792,0,0,1,9.792,9.792v38.1a5.9,5.9,0,0,1-5.895,5.9H15.381a5.9,5.9,0,0,1-5.9-5.9v-38.1A9.792,9.792,0,0,1,19.277,10.065Z" fill="#3688ff"/><g id="Group_4326-3" data-name="Group 4326-3"><circle id="Ellipse_522-2" data-name="Ellipse 522-2" cx="54.802" cy="20.079" r="5.147" fill="#fff"/><path id="Path_9436-2" data-name="Path 9436-2" d="M56.021,26.338h-2.3a8.043,8.043,0,0,0-5.632,2.291l-.119.119A8.035,8.035,0,0,0,45.551,34.5v5.366a1.64,1.64,0,0,0,1.64,1.64h0a1.64,1.64,0,0,0,1.644-1.636v0h0V34.237a.687.687,0,0,1,.676-.687h.238a.683.683,0,0,1,.683.683h0V56.99a1.832,1.832,0,0,0,1.6,1.849,1.8,1.8,0,0,0,1.943-1.6,1.352,1.352,0,0,0,0-.18V46.045a.938.938,0,0,1,.938-.939h0a.939.939,0,0,1,.935.939h0v10.96a1.835,1.835,0,0,0,1.605,1.848,1.8,1.8,0,0,0,1.946-1.6,1.337,1.337,0,0,0,0-.179V34.251a.679.679,0,0,1,.676-.683h0a.683.683,0,0,1,.683.683h0v5.633a1.64,1.64,0,0,0,1.64,1.64h0a1.641,1.641,0,0,0,1.644-1.637v0h0v-5.5a8.04,8.04,0,0,0-2.273-5.633h0A8.04,8.04,0,0,0,56.021,26.338Z" fill="#fff"/></g><path d="M36.172,83.354h2.435V95.028H44.3v2.057H36.172Z" fill="#fff"/><path d="M44.236,86.776h2.456l1.639,5.354c.272,1.008.588,2.058.86,3.108h.084c.294-1.05.588-2.1.882-3.108L51.8,86.776h2.331L50.619,97.085H47.827Z" fill="#fff"/><path d="M55.911,82.262h2.415v12.3c0,.588.272.8.524.8a1.449,1.449,0,0,0,.379-.042l.315,1.8a3.3,3.3,0,0,1-1.282.21c-1.72,0-2.351-1.112-2.351-2.9Z" fill="#fff"/><path d="M65.928,95.112H68.91V86.335H66.454V84.824a8.978,8.978,0,0,0,3.086-1.092h1.8v11.38h2.624v1.973H65.928Z" fill="#fff"/></g></symbol><symbol id="New_Symbol_1" data-name="New Symbol 1" viewBox="0 0 109.597 128.241"><g id="female_toilet-2" data-name="female toilet"><path d="M88.146,0H21.451A21.451,21.451,0,0,0,0,21.452V95.21a21.451,21.451,0,0,0,21.451,21.451h24.12l9.228,11.58,9.227-11.58h24.12A21.451,21.451,0,0,0,109.6,95.21V21.452A21.451,21.451,0,0,0,88.146,0Z" fill="#0a64fe"/><path id="Rectangle_491-3" data-name="Rectangle 491" d="M19.277,10.065H90.32a9.792,9.792,0,0,1,9.792,9.792v38.1a5.9,5.9,0,0,1-5.895,5.9H15.381a5.9,5.9,0,0,1-5.9-5.9v-38.1A9.792,9.792,0,0,1,19.277,10.065Z" fill="#3688ff"/><g id="female-2"><path id="Path_9435-2" data-name="Path 9435-2" d="M60.8,35.365l1.355,2.607a1.687,1.687,0,0,0,1.5.935h0a1.724,1.724,0,0,0,1.7-1.749h0a1.649,1.649,0,0,0-.2-.786l-3.388-6.511A7.856,7.856,0,0,0,54.8,25.6h0a7.862,7.862,0,0,0-6.967,4.266l-3.388,6.511a1.721,1.721,0,0,0,.707,2.329l.01.006a1.772,1.772,0,0,0,.8.2h0a1.683,1.683,0,0,0,1.5-.936l1.352-2.606a.093.093,0,0,1,.108-.054.087.087,0,0,1,.054.108h0l-2.2,11.136a.944.944,0,0,0,.717,1.119h.032a.724.724,0,0,0,.186,0h1.661a.937.937,0,0,1,.935.935h0v8.419a1.794,1.794,0,0,0,1.76,1.825h.033a1.811,1.811,0,0,0,1.793-1.818h0V48.617a.935.935,0,0,1,.932-.936h0a.936.936,0,0,1,.936.936h0v8.422a1.792,1.792,0,0,0,1.763,1.821h.029a1.792,1.792,0,0,0,1.793-1.792v-.026h0V48.62a.936.936,0,0,1,.932-.935h1.66a.936.936,0,0,0,.936-.933h0a.672.672,0,0,0,0-.19l-2.2-11.15a.111.111,0,0,1,.057-.147h0a.117.117,0,0,1,.147.061v.036Z" fill="#fff"/><circle id="Ellipse_521-2" data-name="Ellipse 521-2" cx="54.814" cy="19.754" r="4.79" fill="#fff"/></g><path d="M36.171,82.133h2.435V93.807H44.3v2.058H36.171Z" fill="#fff"/><path d="M44.235,85.555h2.456L48.33,90.91c.272,1.007.588,2.057.86,3.107h.084c.294-1.05.588-2.1.882-3.107l1.638-5.355h2.331l-3.507,10.31H47.826Z" fill="#fff"/><path d="M55.91,81.041h2.415v12.3c0,.588.272.8.524.8a1.449,1.449,0,0,0,.379-.042l.315,1.806a3.3,3.3,0,0,1-1.282.21c-1.72,0-2.351-1.113-2.351-2.9Z" fill="#fff"/><path d="M65.927,93.891h2.982V85.115H66.453V83.6a8.978,8.978,0,0,0,3.086-1.092h1.8v11.38h2.625v1.974H65.927Z" fill="#fff"/></g></symbol></defs><g id="background"><rect width="1541.815" height="755.738" fill="#d8eaf0"/><path d="M423.05,133.813,405.59,147.78a9.173,9.173,0,0,0-3.439,6.958l-3.821,171.4a9.172,9.172,0,0,0,9.017,9.375l174.742,2.9a9.171,9.171,0,0,0,9.256-10.28l-6.68-54.784a9.172,9.172,0,0,0-7.483-7.917l-11.764-2.113a9.17,9.17,0,0,1-7.543-9.371L560.241,191a9.171,9.171,0,0,1,9.526-8.82l37.479,1.476a9.171,9.171,0,0,0,9.53-8.956l.648-28.612a9.171,9.171,0,0,0-8.918-9.376l-179.476-4.9A9.171,9.171,0,0,0,423.05,133.813Z" fill="#b7d2d8"/></g><g id="road"><path d="M781.591,662.183l14.726-463.569s-.02-63-14.569-70.595-520.565-15.553-520.565-15.553" fill="none" stroke="#f0fbff" stroke-linecap="round" stroke-linejoin="round" stroke-width="29"/><path d="M333.592,557.9l240.757,100,207.242,4.285s24.3-8.071,40.187-17.4,622.241-436.7,622.241-436.7" fill="none" stroke="#f0fbff" stroke-linecap="round" stroke-linejoin="round" stroke-width="29"/><path d="M1257.353,331.144l6.471-217.66S799.48,96.91,781.748,128.019" fill="none" stroke="#f0fbff" stroke-linecap="round" stroke-linejoin="round" stroke-width="29"/><line x1="384.003" y1="114.64" x2="374.206" y2="574.77" fill="none" stroke="#f0fbff" stroke-linecap="round" stroke-linejoin="round" stroke-width="29"/></g><g id="road_name" data-name="road name"><path d="M779.216,493.251l.1-2.617,8.26-4.156,3.114-1.38,0-.088c-1.479.076-3.311.2-4.916.144l-6.245-.236.092-2.42,14.38.545-.1,2.617-8.261,4.156-3.114,1.381,0,.088c1.522-.074,3.267-.207,4.872-.146l6.288.238L793.6,493.8Z" fill="#6f909b"/><path d="M780.005,479.389a1.569,1.569,0,1,1,1.488-1.508A1.454,1.454,0,0,1,780.005,479.389Zm3.331-.16.1-2.53,10.8.41-.1,2.528Z" fill="#6f909b"/><path d="M783.469,468.754a4.458,4.458,0,0,1,1.373-3.119l1.56,1.269a2.7,2.7,0,0,0-.862,1.8c-.065,1.738,1.319,3,3.5,3.083,2.155.081,3.629-1.052,3.693-2.744a3.571,3.571,0,0,0-.839-2.256l1.644-1a5.41,5.41,0,0,1,1.252,3.593c-.112,2.945-2.264,5.133-5.848,5A5.328,5.328,0,0,1,783.469,468.754Z" fill="#6f909b"/><path d="M779.212,463.133l.1-2.529,4,.152,2.086.168a4.952,4.952,0,0,1-1.5-3.514c.087-2.308,1.686-3.262,4.413-3.158l6.772.257-.1,2.528-6.442-.244c-1.781-.067-2.46.414-2.5,1.6a3.421,3.421,0,0,0,1.248,2.512l7.541.286-.1,2.528Z" fill="#6f909b"/><path d="M784.308,446.615c.1-2.7,2.261-5.066,5.867-4.929,3.584.134,5.559,2.654,5.456,5.359-.1,2.682-2.261,5.044-5.845,4.908C786.18,451.816,784.206,449.3,784.308,446.615Zm9.257.352c.059-1.584-1.333-2.606-3.488-2.688-2.176-.082-3.643.831-3.7,2.414s1.334,2.583,3.511,2.666C792.039,449.44,793.5,448.549,793.565,446.967Z" fill="#6f909b"/><path d="M780.134,438.8l.1-2.529,12.884.488c.616.023.847-.254.857-.518a1.489,1.489,0,0,0-.029-.4l1.9-.26a3.436,3.436,0,0,1,.169,1.35c-.068,1.8-1.259,2.419-3.128,2.347Z" fill="#6f909b"/><path d="M793.029,433.209a4.812,4.812,0,0,0,1.322-2.944c.044-1.165-.485-1.737-1.233-1.765-.9-.034-1.34,1.117-1.824,2.243-.582,1.409-1.456,2.984-3.259,2.915-1.891-.071-3.174-1.638-3.083-4.058a5.834,5.834,0,0,1,1.433-3.535l1.5,1.224a4.027,4.027,0,0,0-1.014,2.34c-.041,1.077.447,1.6,1.128,1.627.835.032,1.228-1.031,1.69-2.182.605-1.451,1.37-3.053,3.393-2.975,1.848.069,3.287,1.6,3.184,4.326a6.839,6.839,0,0,1-1.65,4.032Z" fill="#6f909b"/><path d="M785.35,419.113c.1-2.7,2.261-5.066,5.867-4.929,3.584.134,5.559,2.654,5.456,5.359-.1,2.682-2.261,5.044-5.845,4.908C787.222,424.314,785.248,421.8,785.35,419.113Zm9.257.352c.059-1.584-1.333-2.606-3.488-2.688-2.176-.082-3.643.831-3.7,2.414s1.334,2.583,3.511,2.666C793.081,421.938,794.546,421.047,794.607,419.465Z" fill="#6f909b"/><path d="M785.9,411.473l.079-2.088,1.458-.121,0-.088a5.02,5.02,0,0,1-1.582-3.606c.088-2.308,1.687-3.26,4.414-3.158l6.772.258-.1,2.528-6.442-.244c-1.781-.067-2.46.413-2.5,1.6a3.421,3.421,0,0,0,1.248,2.513l7.542.286-.1,2.529Z" fill="#6f909b"/><path d="M793.778,394.248a5.734,5.734,0,0,0,1.769-3.7c.061-1.606-.631-2.533-1.752-2.576-1.187-.045-1.6.864-2.195,2.162l-.932,1.925a4.119,4.119,0,0,1-3.936,2.757c-2.287-.087-3.969-2.176-3.864-4.968a6.366,6.366,0,0,1,1.994-4.372l1.577,1.38a4.645,4.645,0,0,0-1.349,3.076c-.052,1.363.553,2.266,1.607,2.307,1.123.042,1.582-1.042,2.11-2.211l.888-1.9c.79-1.687,1.913-2.834,4-2.755,2.331.089,4.193,2.1,4.07,5.329a7.4,7.4,0,0,1-2.307,5.088Z" fill="#6f909b"/><path d="M789.007,382.441l-.059,1.54-1.89-.071-.047-1.676-2.935-.419.08-2.11,2.947.111.1-2.749,2,.076-.1,2.749,5.144.195c1.276.048,1.909-.412,1.948-1.446a3.062,3.062,0,0,0-.2-1.13l1.886-.369a6.84,6.84,0,0,1,.312,2.213c-.094,2.506-1.712,3.371-4.043,3.282Z" fill="#6f909b"/><path d="M1033.4,488.9l2.046-1.525,8.6,11.539L1042,500.441Z" fill="#6f909b"/><path d="M1040.309,488.229l1.676-1.249,1.285,1.43.07-.053a3.671,3.671,0,0,1,1.15-3.574,2.77,2.77,0,0,1,1.12-.56l.962,2.028a3.527,3.527,0,0,0-1,.529c-.688.513-1.163,1.607-.719,3.307l3.945,5.294-2.029,1.512Z" fill="#6f909b"/><path d="M1046.024,483.971l2.064-1.538,4.729,3.473c.86.676,1.782,1.361,2.67,2.073l.07-.053c-.41-1.067-.82-2.133-1.2-3.164l-1.977-5.524,1.959-1.459,3.508,10.858-2.346,1.749Z" fill="#6f909b"/><path d="M1053.618,474.169a1.568,1.568,0,1,1,2.107.214A1.453,1.453,0,0,1,1053.618,474.169Zm2.214,2.493,2.03-1.512,6.455,8.663-2.03,1.512Z" fill="#6f909b"/><path d="M1060.455,473.219l1.676-1.25,1.008,1.059.071-.051a5.019,5.019,0,0,1,1.816-3.493c1.852-1.38,3.6-.733,5.227,1.455l4.05,5.434-2.029,1.512-3.852-5.17c-1.065-1.429-1.865-1.655-2.818-.945a3.416,3.416,0,0,0-1.174,2.548l4.509,6.051-2.029,1.512Z" fill="#6f909b"/><path d="M1077.231,473.752l-.053-.07a2.028,2.028,0,0,1-1.854-.869,2.607,2.607,0,0,1-.244-2.315l-.051-.07a3.65,3.65,0,0,1-2.839-1.453c-1.485-2-.708-4.3,1.109-5.656a4.912,4.912,0,0,1,1.428-.735l3.105-2.313,1.117,1.5-1.587,1.182a2.885,2.885,0,0,1,1.585,1.1c1.433,1.923.748,4.023-1.086,5.39a3.965,3.965,0,0,1-1.354.652,1.24,1.24,0,0,0,.195,1.144c.368.494.945.533,2-.257l1.535-1.144c2.082-1.551,3.649-1.731,4.767-.231,1.275,1.711.474,4.393-2.349,6.5-2.064,1.539-4.152,1.941-5.282.423A2.784,2.784,0,0,1,1077.231,473.752Zm-.119-8.445a1.9,1.9,0,1,0-3.016,2.248,1.9,1.9,0,1,0,3.016-2.248Zm4.878,9.235c1.394-1.038,1.861-2.4,1.309-3.143-.5-.67-1.191-.457-2.18.28l-1.181.881a5.722,5.722,0,0,1-1.276.756,1.821,1.821,0,0,0,.184,1.647C1079.425,475.74,1080.613,475.567,1081.99,474.542Z" fill="#6f909b"/><path d="M1087.983,461.709a5.73,5.73,0,0,0,3.989-.943c1.288-.959,1.577-2.081.907-2.981-.71-.953-1.674-.7-3.061-.353l-2.083.482a4.118,4.118,0,0,1-4.617-1.335c-1.368-1.835-.8-4.456,1.445-6.126a6.359,6.359,0,0,1,4.655-1.189l-.085,2.093a4.651,4.651,0,0,0-3.242.879c-1.094.815-1.418,1.853-.787,2.7.67.9,1.8.578,3.045.255l2.038-.5c1.81-.444,3.407-.29,4.657,1.387,1.393,1.87,1,4.579-1.6,6.513a7.4,7.4,0,0,1-5.409,1.394Z" fill="#6f909b"/><path d="M1094.182,450.586l-1.237.921-1.129-1.517,1.274-1.088-1.514-2.548,1.694-1.262,1.761,2.364,2.206-1.643,1.2,1.605-2.206,1.644,3.076,4.128c.763,1.023,1.518,1.228,2.349.611a3.1,3.1,0,0,0,.753-.865l1.471,1.237a6.857,6.857,0,0,1-1.527,1.632c-2.012,1.5-3.7.781-5.092-1.09Z" fill="#6f909b"/><path d="M634.039,649.328l2.552.057-.319,14.386-2.552-.056Z" fill="#6f909b"/><path d="M639.9,653.045l2.089.046.134,1.918.088,0a3.672,3.672,0,0,1,3.106-2.111,2.747,2.747,0,0,1,1.227.248l-.489,2.19a3.523,3.523,0,0,0-1.117-.2c-.858-.019-1.905.552-2.6,2.166l-.146,6.6-2.53-.056Z" fill="#6f909b"/><path d="M647.024,653.2l2.573.057,1.592,5.646c.263,1.063.568,2.17.83,3.278l.088,0c.332-1.094.665-2.188,1-3.237l1.84-5.571,2.441.054-3.912,10.72-2.926-.065Z" fill="#6f909b"/><path d="M659.253,653.473l2.529.056-.238,10.8-2.53-.056Zm-.213-3.327a1.569,1.569,0,1,1,1.53,1.463A1.452,1.452,0,0,1,659.04,650.146Z" fill="#6f909b"/><path d="M665.015,653.6l2.09.045.144,1.457h.088a5.029,5.029,0,0,1,3.579-1.637c2.31.052,3.288,1.636,3.228,4.363l-.15,6.775-2.53-.055.143-6.446c.039-1.782-.453-2.453-1.64-2.479a3.426,3.426,0,0,0-2.494,1.287l-.167,7.546-2.529-.056Z" fill="#6f909b"/><path d="M677.915,664.34l0-.088a2.031,2.031,0,0,1-.929-1.824,2.611,2.611,0,0,1,1.233-1.977l0-.088a3.643,3.643,0,0,1-1.344-2.89c.055-2.485,2.087-3.827,4.353-3.778a4.906,4.906,0,0,1,1.577.3l3.872.086-.041,1.87-1.98-.044a2.89,2.89,0,0,1,.576,1.84c-.054,2.4-1.886,3.633-4.173,3.582a3.972,3.972,0,0,1-1.468-.318,1.243,1.243,0,0,0-.551,1.022c-.013.616.419,1,1.738,1.03l1.914.042c2.6.058,3.942.878,3.9,2.75-.047,2.132-2.329,3.755-5.848,3.677-2.574-.056-4.468-1.023-4.426-2.914A2.789,2.789,0,0,1,677.915,664.34Zm3.266,3.551c1.738.038,2.944-.749,2.965-1.674.018-.836-.658-1.092-1.89-1.119l-1.474-.034a5.671,5.671,0,0,1-1.47-.187,1.818,1.818,0,0,0-.868,1.412C678.422,667.256,679.466,667.852,681.181,667.891Zm1.835-10.282a1.9,1.9,0,1,0-3.762-.084,1.9,1.9,0,1,0,3.762.084Z" fill="#6f909b"/><path d="M693.8,661.457a5.73,5.73,0,0,0,3.726,1.711c1.606.035,2.523-.671,2.548-1.793.026-1.187-.889-1.582-2.2-2.16l-1.939-.9a4.118,4.118,0,0,1-2.819-3.892c.051-2.288,2.114-4,4.908-3.941a6.369,6.369,0,0,1,4.4,1.924l-1.356,1.6a4.646,4.646,0,0,0-3.1-1.3c-1.364-.03-2.258.589-2.282,1.644-.024,1.122,1.067,1.564,2.244,2.074l1.918.857c1.7.764,2.863,1.869,2.817,3.958-.051,2.331-2.03,4.225-5.264,4.154a7.4,7.4,0,0,1-5.122-2.227Z" fill="#6f909b"/><path d="M705.529,656.5l-1.541-.033.042-1.893,1.674-.072.374-2.941,2.112.046-.066,2.948,2.75.06-.044,2-2.75-.06-.114,5.148c-.028,1.275.442,1.9,1.476,1.925a3.07,3.07,0,0,0,1.128-.218l.4,1.881a6.953,6.953,0,0,1-2.209.347c-2.507-.056-3.4-1.661-3.345-3.992Z" fill="#6f909b"/><path d="M381.374,375.819l-.126,4.818,3.864,1.223-.069,2.618-14.262-5.085.079-2.992,14.508-4.307L385.3,374.8Zm-2.016.52-1.773.459c-1.53.4-3.191.8-4.785,1.174l0,.088c1.595.437,3.212.9,4.717,1.4l1.747.552Z" fill="#6f909b"/><path d="M369.879,370.17l.066-2.529,12.89.338c.615.017.843-.264.85-.527a1.543,1.543,0,0,0-.033-.4l1.9-.28a3.448,3.448,0,0,1,.185,1.348c-.047,1.8-1.23,2.432-3.1,2.383Z" fill="#6f909b"/><path d="M370.035,364.21l.066-2.529,4,.105,1.8.113a4.926,4.926,0,0,1-1.259-3.158c.071-2.7,2.268-4.211,5.589-4.124,3.717.1,5.792,2.376,5.73,4.774a4.353,4.353,0,0,1-1.442,2.911v.066l1.094.249-.053,2Zm13.827-4.347c.038-1.429-1.209-2.563-3.651-2.627-2.156-.056-3.45.614-3.492,2.242a3.448,3.448,0,0,0,1.147,2.407l5.037.132A3.374,3.374,0,0,0,383.862,359.863Z" fill="#6f909b"/><path d="M374.938,347.657c.077-2.925,2.229-4.409,5.242-4.33a5.387,5.387,0,0,1,1.185.141l-.18,6.862a3.1,3.1,0,0,0,3.141-3.109,4.519,4.519,0,0,0-.726-2.528l1.606-.816a6.814,6.814,0,0,1,1.069,3.726c-.079,2.991-2.229,5.267-5.793,5.174C376.963,352.685,374.871,350.187,374.938,347.657Zm4.766-2.142c-1.716-.045-2.768.654-2.807,2.128-.034,1.275.883,2.4,2.681,2.668Z" fill="#6f909b"/><path d="M375.382,340.781l.055-2.089,1.919-.126,0-.088a3.673,3.673,0,0,1-2.1-3.115,2.754,2.754,0,0,1,.252-1.225l2.189.5a3.548,3.548,0,0,0-.206,1.117c-.022.858.545,1.907,2.155,2.61l6.6.173-.067,2.53Z" fill="#6f909b"/><path d="M377.609,332.257l-.04,1.54-1.892-.049-.066-1.675-2.939-.385.055-2.112,2.948.077.071-2.75,2,.053-.072,2.75,5.147.134c1.276.034,1.905-.433,1.932-1.467a3.11,3.11,0,0,0-.213-1.128l1.882-.391a6.9,6.9,0,0,1,.337,2.21c-.066,2.507-1.673,3.39-4.005,3.328Z" fill="#6f909b"/><path d="M383.157,319.639a5.73,5.73,0,0,0,1.726-3.719c.042-1.606-.66-2.526-1.782-2.556-1.187-.031-1.586.883-2.17,2.188l-.909,1.935a4.122,4.122,0,0,1-3.9,2.8c-2.287-.061-3.994-2.131-3.921-4.924a6.363,6.363,0,0,1,1.943-4.4l1.593,1.362a4.648,4.648,0,0,0-1.314,3.091c-.036,1.364.58,2.261,1.634,2.289,1.122.029,1.57-1.061,2.084-2.235l.866-1.914c.771-1.7,1.88-2.857,3.969-2.8,2.331.062,4.216,2.048,4.131,5.281a7.4,7.4,0,0,1-2.247,5.114Z" fill="#6f909b"/><path d="M378.249,307.89l-.04,1.54-1.892-.05-.067-1.674-2.939-.386.056-2.112,2.947.078.072-2.75,2,.053-.072,2.749,5.147.135c1.275.034,1.9-.433,1.931-1.468a3.072,3.072,0,0,0-.213-1.128l1.882-.391a6.9,6.9,0,0,1,.338,2.211c-.066,2.507-1.674,3.389-4,3.328Z" fill="#6f909b"/><path d="M567.442,108.87l4.834.254c3.142.165,5.391,1.383,5.216,4.724-.167,3.186-2.617,4.533-5.693,4.372l-2.286-.12-.276,5.275-2.549-.134Zm4.244,7.3c2.153.112,3.209-.692,3.3-2.45.094-1.8-.951-2.451-3.039-2.56l-2.065-.109-.263,5.01Z" fill="#6f909b"/><path d="M584.824,117.273c.038-1.144-.395-2.136-1.845-2.212a6,6,0,0,0-3.087.9l-.835-1.741a8.382,8.382,0,0,1,4.491-1.174c2.7.142,3.935,1.858,3.777,4.869l-.336,6.394-2.065-.108-.136-1.2-.066,0a5.269,5.269,0,0,1-3.416,1.275,3.039,3.039,0,0,1-3.042-3.333C578.385,118.631,580.382,117.525,584.824,117.273Zm-2.623,5.062a3.39,3.39,0,0,0,2.413-1.063l.127-2.417c-2.942.221-3.949.938-4,2.015C580.685,121.837,581.3,122.288,582.2,122.335Z" fill="#6f909b"/><path d="M590.63,113.677l2.526.133-.565,10.789-2.527-.133Zm-.112-3.333a1.568,1.568,0,1,1,1.485,1.51A1.453,1.453,0,0,1,590.518,110.344Z" fill="#6f909b"/><path d="M596.079,121.917A4.81,4.81,0,0,0,599,123.283c1.165.06,1.742-.459,1.781-1.206.048-.9-1.095-1.358-2.215-1.858-1.4-.6-2.962-1.5-2.868-3.3.1-1.89,1.685-3.15,4.1-3.023a5.83,5.83,0,0,1,3.514,1.483l-1.245,1.478a4.018,4.018,0,0,0-2.325-1.048c-1.076-.057-1.608.422-1.643,1.1-.044.835,1.014,1.243,2.156,1.721,1.443.626,3.033,1.415,2.927,3.437-.1,1.846-1.647,3.263-4.372,3.12a6.845,6.845,0,0,1-4.009-1.709Z" fill="#6f909b"/><path d="M606.1,109.751l2.527.133-.676,12.876c-.032.615.242.851.506.865a1.587,1.587,0,0,0,.4-.024l.23,1.907a3.444,3.444,0,0,1-1.351.15c-1.8-.095-2.4-1.294-2.3-3.162Z" fill="#6f909b"/><path d="M616.085,114.749c2.922.153,4.349,2.342,4.191,5.352a5.414,5.414,0,0,1-.172,1.182l-6.855-.36a3.1,3.1,0,0,0,3.026,3.221,4.522,4.522,0,0,0,2.546-.659l.774,1.626a6.819,6.819,0,0,1-3.752.972c-2.989-.157-5.208-2.367-5.022-5.926C611.006,116.641,613.558,114.616,616.085,114.749Zm2.016,4.82c.09-1.714-.581-2.785-2.053-2.862-1.275-.067-2.423.821-2.737,2.611Z" fill="#6f909b"/><path d="M622.8,128.584a2.26,2.26,0,0,0,2.25-1.732l.234-.671L621.606,115.3l2.571.135,1.59,5.393c.258.961.509,2.053.786,3.083l.088,0c.315-.975.657-2.038.971-2.991l1.9-5.21,2.439.128-4.5,11.068c-1.028,2.391-2.229,3.849-4.58,3.725a4.163,4.163,0,0,1-1.4-.293l.566-1.954A2.594,2.594,0,0,0,622.8,128.584Z" fill="#6f909b"/><path d="M638.628,123.421a5.73,5.73,0,0,0,3.672,1.824c1.6.084,2.543-.594,2.6-1.715.062-1.186-.842-1.608-2.131-2.227l-1.911-.959a4.119,4.119,0,0,1-2.7-3.975c.12-2.286,2.234-3.938,5.024-3.791a6.368,6.368,0,0,1,4.343,2.056l-1.4,1.557a4.646,4.646,0,0,0-3.055-1.394c-1.362-.071-2.275.52-2.331,1.575-.058,1.121,1.019,1.595,2.18,2.14l1.89.915c1.677.816,2.807,1.954,2.7,4.041-.123,2.329-2.158,4.162-5.388,3.992a7.4,7.4,0,0,1-5.053-2.379Z" fill="#6f909b"/><path d="M650.5,118.822l-1.539-.08.1-1.89,1.676-.022.462-2.929,2.109.111-.154,2.945,2.747.143-.105,2-2.747-.144-.27,5.142c-.066,1.274.385,1.915,1.417,1.969a3.083,3.083,0,0,0,1.134-.184l.342,1.892a6.921,6.921,0,0,1-2.219.28c-2.5-.132-3.344-1.763-3.222-4.091Z" fill="#6f909b"/><path d="M981.507,98.809l4.839.148c3.144.1,5.42,1.266,5.318,4.609-.1,3.189-2.518,4.59-5.6,4.5l-2.288-.07-.161,5.278-2.551-.078Zm4.4,7.2c2.156.067,3.193-.76,3.247-2.519.055-1.8-1-2.431-3.093-2.495L984,100.932l-.153,5.014Z" fill="#6f909b"/><path d="M999.069,106.831c.013-1.144-.441-2.127-1.892-2.171a6,6,0,0,0-3.067.962l-.873-1.721a8.363,8.363,0,0,1,4.463-1.272c2.706.082,3.975,1.772,3.883,4.785l-.2,6.4-2.067-.063-.162-1.194-.066,0A5.258,5.258,0,0,1,995.7,113.9a3.038,3.038,0,0,1-3.114-3.265C992.661,108.33,994.634,107.179,999.069,106.831Zm-2.512,5.118a3.391,3.391,0,0,0,2.389-1.115l.075-2.42c-2.937.285-3.928,1.024-3.961,2.1C995.03,111.484,995.655,111.921,996.557,111.949Z" fill="#6f909b"/><path d="M1004.8,103.11l2.529.078-.331,10.8-2.529-.078Zm-.184-3.33a1.568,1.568,0,1,1,1.517,1.477A1.453,1.453,0,0,1,1004.611,99.78Z" fill="#6f909b"/><path d="M1010.423,111.229a4.8,4.8,0,0,0,2.953,1.3c1.166.036,1.733-.5,1.755-1.244.028-.9-1.125-1.334-2.255-1.808-1.414-.573-3-1.436-2.939-3.239.057-1.891,1.616-3.186,4.036-3.112a5.833,5.833,0,0,1,3.545,1.407l-1.213,1.5a4.018,4.018,0,0,0-2.347-1c-1.078-.034-1.6.457-1.62,1.139-.025.836,1.041,1.22,2.194,1.673,1.456.6,3.063,1.349,3,3.373-.055,1.847-1.575,3.3-4.3,3.214a6.843,6.843,0,0,1-4.045-1.621Z" fill="#6f909b"/><path d="M1020.178,98.848l2.529.078-.394,12.888c-.02.615.259.844.523.852a1.538,1.538,0,0,0,.4-.032l.272,1.9a3.434,3.434,0,0,1-1.349.179c-1.8-.055-2.426-1.241-2.37-3.11Z" fill="#6f909b"/><path d="M1030.267,103.626c2.925.09,4.4,2.248,4.307,5.261a5.389,5.389,0,0,1-.146,1.184l-6.861-.21a3.1,3.1,0,0,0,3.1,3.155,4.525,4.525,0,0,0,2.532-.715l.808,1.609a6.814,6.814,0,0,1-3.729,1.053c-2.992-.091-5.259-2.252-5.15-5.816C1025.231,105.629,1027.737,103.549,1030.267,103.626Zm2.121,4.775c.053-1.715-.642-2.771-2.115-2.816-1.276-.039-2.4.873-2.679,2.67Z" fill="#6f909b"/><path d="M1037.286,117.313a2.264,2.264,0,0,0,2.212-1.781l.22-.676-3.918-10.8,2.572.078,1.707,5.358c.28.955.554,2.042.853,3.064l.088,0c.3-.982.613-2.051.907-3.011l1.79-5.25,2.441.074-4.26,11.163c-.977,2.413-2.145,3.9-4.5,3.825a4.2,4.2,0,0,1-1.4-.263l.523-1.966A2.614,2.614,0,0,0,1037.286,117.313Z" fill="#6f909b"/><path d="M1052.994,111.807a5.73,5.73,0,0,0,3.711,1.742c1.606.049,2.53-.649,2.564-1.771.036-1.187-.875-1.59-2.179-2.18l-1.931-.917a4.12,4.12,0,0,1-2.786-3.916c.071-2.287,2.148-3.985,4.941-3.9a6.356,6.356,0,0,1,4.386,1.962l-1.369,1.587a4.644,4.644,0,0,0-3.085-1.328c-1.364-.042-2.263.57-2.3,1.625-.034,1.122,1.053,1.573,2.226,2.093l1.91.874c1.693.778,2.848,1.892,2.784,3.981-.071,2.331-2.066,4.208-5.3,4.109a7.409,7.409,0,0,1-5.1-2.27Z" fill="#6f909b"/><path d="M1064.765,106.95l-1.54-.047.057-1.891,1.676-.06.4-2.937,2.111.064-.09,2.947,2.749.085-.061,2-2.749-.084-.159,5.146c-.039,1.276.427,1.907,1.46,1.938a3.072,3.072,0,0,0,1.129-.208l.383,1.883a6.9,6.9,0,0,1-2.212.329c-2.507-.077-3.382-1.689-3.31-4.02Z" fill="#6f909b"/><path d="M1252.293,249.563l.091-2.55,12.227.436.212-5.96,2.155.077-.3,8.51Z" fill="#6f909b"/><path d="M1256.14,234.928c.1-2.924,2.27-4.388,5.282-4.281a5.537,5.537,0,0,1,1.185.152l-.245,6.861a3.1,3.1,0,0,0,3.169-3.08,4.5,4.5,0,0,0-.7-2.535l1.614-.8a6.809,6.809,0,0,1,1.034,3.735c-.107,2.991-2.279,5.247-5.841,5.12C1258.117,239.975,1256.05,237.457,1256.14,234.928Zm4.786-2.1c-1.715-.061-2.774.627-2.826,2.1-.046,1.276.86,2.408,2.655,2.693Z" fill="#6f909b"/><path d="M1256.537,223.782c.105-2.925,2.27-4.388,5.283-4.281a5.506,5.506,0,0,1,1.183.152l-.244,6.861a3.1,3.1,0,0,0,3.17-3.08,4.533,4.533,0,0,0-.7-2.535l1.613-.8a6.82,6.82,0,0,1,1.034,3.735c-.106,2.991-2.278,5.247-5.841,5.12C1258.515,228.828,1256.447,226.311,1256.537,223.782Zm4.786-2.1c-1.714-.061-2.774.628-2.827,2.1-.045,1.275.862,2.408,2.657,2.693Z" fill="#6f909b"/><path d="M1256.922,212.987a3.989,3.989,0,0,1,1.288-2.795l-1.74.027-3.914-.139.09-2.529,15.524.553-.074,2.089-1.172.135,0,.088a4.5,4.5,0,0,1,1.32,3.107c-.1,2.7-2.247,4.367-5.809,4.24C1258.913,217.638,1256.838,215.34,1256.922,212.987Zm9.252-.155a2.916,2.916,0,0,0-1.128-2.308l-5.036-.179a3.218,3.218,0,0,0-.98,2.167c-.049,1.385,1.208,2.553,3.473,2.634C1264.834,215.229,1266.118,214.393,1266.174,212.832Z" fill="#6f909b"/><path d="M1265.43,204.683a4.813,4.813,0,0,0,1.316-2.947c.041-1.166-.488-1.735-1.236-1.761-.9-.033-1.339,1.118-1.819,2.246-.579,1.41-1.45,2.987-3.253,2.923-1.892-.068-3.178-1.632-3.092-4.051a5.822,5.822,0,0,1,1.425-3.538l1.5,1.219a4.024,4.024,0,0,0-1.009,2.343c-.038,1.077.449,1.6,1.131,1.625.836.03,1.226-1.035,1.685-2.185.6-1.454,1.364-3.057,3.387-2.984,1.848.066,3.29,1.592,3.192,4.319a6.837,6.837,0,0,1-1.64,4.037Z" fill="#6f909b"/><path d="M1265.223,190.1a5.728,5.728,0,0,0,1.761-3.7c.057-1.605-.636-2.532-1.757-2.572-1.188-.042-1.6.868-2.192,2.168l-.926,1.926a4.121,4.121,0,0,1-3.931,2.766c-2.287-.081-3.974-2.167-3.874-4.959a6.363,6.363,0,0,1,1.983-4.377l1.58,1.377a4.651,4.651,0,0,0-1.341,3.079c-.049,1.363.557,2.265,1.612,2.3,1.122.04,1.579-1.045,2.1-2.215l.883-1.906c.787-1.689,1.907-2.839,4-2.764,2.33.083,4.2,2.087,4.081,5.319a7.4,7.4,0,0,1-2.3,5.093Z" fill="#6f909b"/><path d="M1260.425,178.309l-.055,1.539-1.89-.067-.051-1.676-2.936-.413.076-2.11,2.946.105.1-2.749,2,.071-.1,2.749,5.146.183c1.275.045,1.908-.416,1.945-1.45a3.08,3.08,0,0,0-.2-1.13l1.885-.373a6.875,6.875,0,0,1,.318,2.213c-.089,2.507-1.7,3.374-4.036,3.291Z" fill="#6f909b"/><path d="M1356.017,327.823h8.691v2.156h-6.139v4.071h5.214v2.156h-5.214v6.007h-2.552Z" fill="#6f909b"/><path d="M1371.022,331.146c2.707,0,5.149,2.068,5.149,5.676,0,3.586-2.442,5.655-5.149,5.655-2.685,0-5.127-2.069-5.127-5.655C1365.9,333.214,1368.337,331.146,1371.022,331.146Zm0,9.262c1.585,0,2.552-1.429,2.552-3.586,0-2.178-.967-3.608-2.552-3.608s-2.531,1.43-2.531,3.608C1368.491,338.979,1369.438,340.408,1371.022,340.408Z" fill="#6f909b"/><path d="M1383.1,331.146c2.706,0,5.148,2.068,5.148,5.676,0,3.586-2.442,5.655-5.148,5.655-2.685,0-5.127-2.069-5.127-5.655C1377.973,333.214,1380.415,331.146,1383.1,331.146Zm0,9.262c1.584,0,2.552-1.429,2.552-3.586,0-2.178-.968-3.608-2.552-3.608s-2.53,1.43-2.53,3.608C1380.57,338.979,1381.516,340.408,1383.1,340.408Z" fill="#6f909b"/><path d="M1391.129,333.412h-1.54V331.52l1.672-.111.309-2.948h2.112v2.948h2.751v2h-2.751v5.149c0,1.276.484,1.892,1.518,1.892a3.093,3.093,0,0,0,1.122-.242l.441,1.87a6.912,6.912,0,0,1-2.2.4c-2.509,0-3.433-1.584-3.433-3.916Z" fill="#6f909b"/><path d="M1398.807,339.353a4.809,4.809,0,0,0,2.992,1.21c1.167,0,1.717-.55,1.717-1.3,0-.9-1.166-1.3-2.311-1.739-1.429-.528-3.036-1.342-3.036-3.146,0-1.893,1.518-3.234,3.939-3.234a5.837,5.837,0,0,1,3.586,1.3l-1.166,1.54a4.029,4.029,0,0,0-2.376-.923c-1.079,0-1.584.5-1.584,1.188,0,.836,1.078,1.188,2.244,1.606,1.473.55,3.1,1.254,3.1,3.279,0,1.847-1.474,3.344-4.2,3.344a6.836,6.836,0,0,1-4.092-1.5Z" fill="#6f909b"/><path d="M1412.888,331.146a4.458,4.458,0,0,1,3.169,1.253l-1.21,1.607a2.694,2.694,0,0,0-1.827-.792c-1.739,0-2.949,1.43-2.949,3.608,0,2.157,1.189,3.586,2.883,3.586a3.564,3.564,0,0,0,2.222-.924l1.057,1.607a5.413,5.413,0,0,1-3.543,1.386c-2.949,0-5.214-2.069-5.214-5.655A5.328,5.328,0,0,1,1412.888,331.146Z" fill="#6f909b"/><path d="M1418.344,331.409h2.09l.176,1.914h.087a3.671,3.671,0,0,1,3.059-2.177,2.746,2.746,0,0,1,1.232.219l-.44,2.2a3.56,3.56,0,0,0-1.122-.175c-.857,0-1.892.593-2.552,2.222v6.6h-2.53Z" fill="#6f909b"/><path d="M1431.852,335.3c-.022-1.144-.506-2.113-1.958-2.113a6.011,6.011,0,0,0-3.036,1.057l-.925-1.694a8.375,8.375,0,0,1,4.423-1.408c2.707,0,4.026,1.65,4.026,4.664v6.4h-2.067l-.2-1.189h-.066a5.255,5.255,0,0,1-3.345,1.453,3.038,3.038,0,0,1-3.212-3.168C1425.493,337,1427.43,335.788,1431.852,335.3ZM1429.5,340.5a3.392,3.392,0,0,0,2.354-1.188v-2.421c-2.926.374-3.895,1.144-3.895,2.222C1427.957,340.078,1428.6,340.5,1429.5,340.5Z" fill="#6f909b"/><path d="M1438.011,344.611a2.263,2.263,0,0,0,2.156-1.848l.2-.682-4.246-10.672h2.575l1.87,5.3c.307.946.616,2.024.946,3.036h.088c.264-.989.551-2.067.814-3.036l1.628-5.3h2.443l-3.916,11.288c-.9,2.443-2.026,3.96-4.38,3.96a4.228,4.228,0,0,1-1.408-.219l.462-1.981A2.655,2.655,0,0,0,1438.011,344.611Z" fill="#6f909b"/><path d="M1368.2,360.626a5.721,5.721,0,0,0,3.761,1.629c1.607,0,2.509-.727,2.509-1.849,0-1.188-.924-1.562-2.244-2.112l-1.959-.858a4.119,4.119,0,0,1-2.9-3.829c0-2.288,2.024-4.048,4.819-4.048a6.364,6.364,0,0,1,4.444,1.826l-1.32,1.629a4.644,4.644,0,0,0-3.124-1.233c-1.364,0-2.245.638-2.245,1.695,0,1.122,1.1,1.54,2.289,2.024l1.935.813c1.717.727,2.906,1.805,2.906,3.9,0,2.333-1.937,4.269-5.171,4.269a7.4,7.4,0,0,1-5.172-2.113Z" fill="#6f909b"/><path d="M1379.81,355.412h-1.54V353.52l1.672-.111.308-2.948h2.112v2.948h2.75v2h-2.75v5.149c0,1.276.484,1.892,1.518,1.892a3.093,3.093,0,0,0,1.122-.242l.441,1.87a6.9,6.9,0,0,1-2.2.4c-2.508,0-3.432-1.584-3.432-3.916Z" fill="#6f909b"/><path d="M1392.945,357.3c-.022-1.144-.506-2.113-1.958-2.113a6.018,6.018,0,0,0-3.038,1.057l-.923-1.694a8.372,8.372,0,0,1,4.422-1.408c2.707,0,4.027,1.65,4.027,4.664v6.4h-2.068l-.2-1.189h-.066a5.26,5.26,0,0,1-3.345,1.453,3.038,3.038,0,0,1-3.213-3.168C1386.585,359,1388.522,357.788,1392.945,357.3Zm-2.355,5.193a3.394,3.394,0,0,0,2.355-1.188v-2.421c-2.927.374-3.895,1.144-3.895,2.222C1389.05,362.078,1389.688,362.5,1390.59,362.5Z" fill="#6f909b"/><path d="M1398.928,355.412h-1.54V353.52l1.672-.111.308-2.948h2.113v2.948h2.75v2h-2.75v5.149c0,1.276.483,1.892,1.517,1.892a3.093,3.093,0,0,0,1.122-.242l.441,1.87a6.9,6.9,0,0,1-2.2.4c-2.509,0-3.433-1.584-3.433-3.916Z" fill="#6f909b"/><path d="M1406.21,350.087a1.568,1.568,0,1,1,1.562,1.43A1.452,1.452,0,0,1,1406.21,350.087Zm.286,3.322h2.531v10.8H1406.5Z" fill="#6f909b"/><path d="M1416.683,353.146c2.706,0,5.148,2.068,5.148,5.676,0,3.586-2.442,5.655-5.148,5.655-2.686,0-5.127-2.069-5.127-5.655C1411.556,355.214,1414,353.146,1416.683,353.146Zm0,9.262c1.584,0,2.552-1.429,2.552-3.586,0-2.178-.968-3.608-2.552-3.608s-2.531,1.43-2.531,3.608C1414.152,360.979,1415.1,362.408,1416.683,362.408Z" fill="#6f909b"/><path d="M1424.338,353.409h2.091l.176,1.452h.088a5.015,5.015,0,0,1,3.542-1.715c2.31,0,3.323,1.561,3.323,4.29v6.777h-2.53v-6.447c0-1.783-.507-2.443-1.695-2.443a3.428,3.428,0,0,0-2.465,1.343v7.547h-2.53Z" fill="#6f909b"/></g><g id="tree"><g id="Group_5033" data-name="Group 5033"><g id="Group_5032" data-name="Group 5032"><path id="Path_9919" data-name="Path 9919" d="M757.036,249.008a4.2,4.2,0,0,1,3.721-2.45c2.624-.042,3.421,1.022,3.479,1.105,0,.008,0,.006.007,0,.137-.094,4.1-2.788,7.321-.812,3.18,1.954,2.571,4.4,2.534,4.536,0,.011-.007,0,0,.008a5.042,5.042,0,0,1,2.574,4.667,6.778,6.778,0,0,1-2.158,4.887c.094.062.272,4.936-3.081,7.365-3.693,2.675-7.071,3.5-10.7,2.485-2.89-.808-5.781-5.518-5.781-5.518a7.735,7.735,0,0,1-4.814-7.438C750.067,253.4,753.128,249.512,757.036,249.008Z" fill="#b4dcea"/><path id="Path_9920" data-name="Path 9920" d="M764.57,252.773c-.544-3.853-3.389-2.881-2.17.677-4.64-4.574-6.087-1.338-3,1.946-.21.486-2.225.012-2.886-.006-4.7-.121,1.43,3.162,2.626,3.638-4.325.07-5.9,3.861-.486,3.472-3.623,3.207,1.037,4.28,3.271,1.328.039,2.451,2.9,5.845,3.229,2.6.136-1.358-.674-1.673-.394-3.273.908,1.217.47,1.26,1.267,2.582.751,1.249,2,.721,2.4-.779a3.584,3.584,0,0,0-.194-2.045c1.661.772,2.78.638,1.652-2.474,4.472-2.27,3.7-5.424-.391-2.517.879-2.065,2.29-5.106-.976-4.361C768.384,250.54,765.771,249.947,764.57,252.773Z" fill="#9bcdd1"/><g id="Group_5028" data-name="Group 5028"><path id="Path_9921" data-name="Path 9921" d="M765.862,266.655c.242.939.97.555.343-.372.888-.432.5-1.039-.135-.533.048-.563-.408-.658-.5-.39a1.076,1.076,0,0,0,0,.392c-.575-.068-.562.365-.183.59C764.878,267.012,765.537,267.022,765.862,266.655Z" fill="#74c4a5"/><path id="Path_9922" data-name="Path 9922" d="M765.711,266.444c.106.584.645.966.292-.1.733.226.851-.124.046-.266.431-.624.163-.708-.04-.393-.127.2-.259.448-.288.429C764.936,265.621,764.77,266.281,765.711,266.444Z" fill="#98dfc5"/></g><g id="Group_5029" data-name="Group 5029"><path id="Path_9923" data-name="Path 9923" d="M768.53,253.4c.283,1.1,1.136.651.4-.435,1.041-.508.59-1.219-.159-.625.056-.66-.479-.77-.588-.457a1.259,1.259,0,0,0,0,.462c-.674-.081-.659.427-.215.69C767.375,253.815,768.153,253.829,768.53,253.4Z" fill="#74c4a5"/><path id="Path_9924" data-name="Path 9924" d="M768.35,253.149c.124.684.755,1.132.342-.118.86.264,1-.146.055-.312.5-.731.191-.83-.047-.46-.15.231-.3.524-.338.5C767.442,252.183,767.248,252.959,768.35,253.149Z" fill="#98dfc5"/></g><g id="Group_5030" data-name="Group 5030"><path id="Path_9925" data-name="Path 9925" d="M757.84,258.3c1.106.258,1.1-.706-.2-.558.032-1.158-.807-1.087-.629-.148-.56-.354-.9.068-.678.309a1.249,1.249,0,0,0,.409.213c-.384.56.074.782.513.511C757.678,259.512,758.051,258.829,757.84,258.3Z" fill="#74c4a5"/><path id="Path_9926" data-name="Path 9926" d="M757.54,258.339c.663.2,1.353-.146.054-.358.634-.637.333-.951-.251-.192-.414-.786-.647-.554-.43-.172a2.387,2.387,0,0,1,.29.532C756.264,258.7,756.863,259.23,757.54,258.339Z" fill="#98dfc5"/></g><g id="Group_5031" data-name="Group 5031"><path id="Path_9927" data-name="Path 9927" d="M765.706,257.693c.979-1.442-.407-1.968-.91-.019-1.642-.681-2,.56-.557.817-.815.606-.4,1.334.071,1.141a1.917,1.917,0,0,0,.53-.469c.593.858,1.161.324,1.013-.454C767.362,258.6,766.588,257.689,765.706,257.693Z" fill="#a7e4c0"/><path id="Path_9928" data-name="Path 9928" d="M765.605,258.152c.662-.838.535-2.02-.484-.277-.57-1.257-1.181-1-.414.254-1.357.164-1.148.624-.483.523a3.548,3.548,0,0,1,.922-.122C765.414,260.179,766.507,259.614,765.605,258.152Z" fill="#98dfc5"/></g></g></g><g id="Group_5033-2" data-name="Group 5033"><g id="Group_5032-2" data-name="Group 5032"><path id="Path_9919-2" data-name="Path 9919" d="M751.276,379.255a4.482,4.482,0,0,1,3.966-2.612c2.8-.044,3.647,1.09,3.709,1.178,0,.009,0,.007.007,0,.146-.1,4.375-2.972,7.8-.866,3.39,2.082,2.74,4.688,2.7,4.835,0,.011-.008,0,0,.009a5.37,5.37,0,0,1,2.743,4.974,7.219,7.219,0,0,1-2.3,5.208c.1.067.29,5.261-3.283,7.85-3.936,2.852-7.537,3.728-11.4,2.648-3.08-.861-6.161-5.88-6.161-5.88a8.246,8.246,0,0,1-5.132-7.928C743.849,383.931,747.111,379.792,751.276,379.255Z" fill="#b4dcea"/><path id="Path_9920-2" data-name="Path 9920" d="M759.306,383.267c-.579-4.106-3.612-3.07-2.312.722-4.946-4.875-6.488-1.426-3.2,2.074-.224.518-2.371.013-3.077-.006-5.008-.129,1.525,3.371,2.8,3.877-4.61.075-6.286,4.116-.519,3.7-3.861,3.419,1.106,4.562,3.487,1.415.042,2.613,3.087,6.23,3.441,2.773.145-1.448-.718-1.783-.419-3.489.967,1.3.5,1.343,1.35,2.753.8,1.331,2.133.768,2.561-.83a3.818,3.818,0,0,0-.206-2.181c1.77.823,2.963.68,1.76-2.637,4.766-2.419,3.94-5.781-.417-2.682.937-2.2,2.441-5.442-1.04-4.649C763.372,380.887,760.587,380.256,759.306,383.267Z" fill="#9bcdd1"/><g id="Group_5028-2" data-name="Group 5028"><path id="Path_9921-2" data-name="Path 9921" d="M760.684,398.064c.258,1,1.033.592.366-.4.946-.462.537-1.108-.144-.569.05-.6-.436-.7-.535-.416a1.114,1.114,0,0,0,0,.419c-.614-.074-.6.388-.2.628C759.635,398.444,760.337,398.455,760.684,398.064Z" fill="#74c4a5"/><path id="Path_9922-2" data-name="Path 9922" d="M760.522,397.839c.114.622.688,1.029.312-.108.781.241.907-.132.049-.284.459-.665.174-.754-.042-.418-.136.211-.277.477-.308.457C759.7,396.961,759.52,397.665,760.522,397.839Z" fill="#98dfc5"/></g><g id="Group_5029-2" data-name="Group 5029"><path id="Path_9923-2" data-name="Path 9923" d="M763.527,383.932c.3,1.172,1.212.693.429-.464,1.109-.541.629-1.3-.169-.666.059-.7-.511-.821-.627-.487a1.334,1.334,0,0,0,0,.492c-.718-.086-.7.455-.228.736C762.3,384.378,763.125,384.393,763.527,383.932Z" fill="#74c4a5"/><path id="Path_9924-2" data-name="Path 9924" d="M763.335,383.668c.133.729.8,1.207.365-.126.916.282,1.064-.155.058-.332.538-.779.2-.885-.05-.49-.159.247-.323.559-.36.536C762.368,382.639,762.161,383.466,763.335,383.668Z" fill="#98dfc5"/></g><g id="Group_5030-2" data-name="Group 5030"><path id="Path_9925-2" data-name="Path 9925" d="M752.133,389.153c1.179.276,1.175-.752-.214-.6.034-1.233-.86-1.158-.67-.157-.6-.378-.964.072-.723.329a1.336,1.336,0,0,0,.436.227c-.409.6.079.834.547.545C751.961,390.451,752.358,389.722,752.133,389.153Z" fill="#74c4a5"/><path id="Path_9926-2" data-name="Path 9926" d="M751.814,389.2c.706.219,1.442-.155.057-.382.675-.678.355-1.013-.267-.2-.441-.838-.689-.59-.458-.183a2.553,2.553,0,0,1,.308.567C750.454,389.581,751.092,390.15,751.814,389.2Z" fill="#98dfc5"/></g><g id="Group_5031-2" data-name="Group 5031"><path id="Path_9927-2" data-name="Path 9927" d="M760.517,388.512c1.044-1.537-.433-2.1-.97-.021-1.75-.726-2.133.6-.593.871-.869.647-.426,1.422.075,1.217a2.082,2.082,0,0,0,.566-.5c.631.914,1.237.345,1.079-.484C762.283,389.476,761.457,388.507,760.517,388.512Z" fill="#a7e4c0"/><path id="Path_9928-2" data-name="Path 9928" d="M760.41,389c.705-.893.569-2.153-.517-.295-.607-1.341-1.258-1.067-.441.271-1.446.175-1.223.665-.514.557a3.841,3.841,0,0,1,.983-.131C760.206,391.161,761.371,390.559,760.41,389Z" fill="#98dfc5"/></g></g></g><g id="Group_5033-3" data-name="Group 5033"><g id="Group_5032-3" data-name="Group 5032"><path id="Path_9919-3" data-name="Path 9919" d="M747.647,434.31a4.479,4.479,0,0,1,3.966-2.611c2.8-.045,3.647,1.089,3.709,1.177,0,.009,0,.007.007,0,.146-.1,4.375-2.972,7.8-.866,3.39,2.082,2.74,4.688,2.7,4.835,0,.011-.008,0,0,.009a5.37,5.37,0,0,1,2.743,4.974,7.219,7.219,0,0,1-2.3,5.208c.1.067.29,5.261-3.283,7.851-3.936,2.851-7.537,3.727-11.4,2.647-3.08-.861-6.161-5.88-6.161-5.88a8.246,8.246,0,0,1-5.132-7.928C740.22,438.986,743.482,434.847,747.647,434.31Z" fill="#b4dcea"/><path id="Path_9920-3" data-name="Path 9920" d="M755.677,438.322c-.579-4.106-3.612-3.07-2.312.722-4.946-4.874-6.488-1.426-3.2,2.074-.224.518-2.371.013-3.077-.006-5.008-.129,1.525,3.371,2.8,3.877-4.61.075-6.286,4.116-.519,3.7-3.861,3.419,1.106,4.562,3.487,1.415.042,2.613,3.087,6.23,3.441,2.773.145-1.448-.718-1.783-.419-3.489.967,1.3.5,1.343,1.35,2.753.8,1.331,2.133.768,2.561-.83a3.818,3.818,0,0,0-.206-2.181c1.77.823,2.963.68,1.76-2.637,4.766-2.419,3.94-5.781-.417-2.682.937-2.2,2.441-5.442-1.04-4.649C759.743,435.942,756.958,435.311,755.677,438.322Z" fill="#9bcdd1"/><g id="Group_5028-3" data-name="Group 5028"><path id="Path_9921-3" data-name="Path 9921" d="M757.055,453.119c.258,1,1.033.592.366-.4.946-.462.537-1.108-.144-.569.05-.6-.436-.7-.535-.416a1.114,1.114,0,0,0,0,.419c-.614-.074-.6.388-.2.628C756.006,453.5,756.708,453.51,757.055,453.119Z" fill="#74c4a5"/><path id="Path_9922-3" data-name="Path 9922" d="M756.893,452.894c.114.622.688,1.029.312-.108.781.241.907-.132.049-.284.459-.665.174-.754-.042-.418-.136.211-.277.477-.308.457C756.068,452.016,755.891,452.72,756.893,452.894Z" fill="#98dfc5"/></g><g id="Group_5029-3" data-name="Group 5029"><path id="Path_9923-3" data-name="Path 9923" d="M759.9,438.987c.3,1.172,1.212.693.429-.464,1.109-.541.629-1.3-.169-.666.059-.7-.511-.821-.627-.487a1.334,1.334,0,0,0,0,.492c-.718-.086-.7.455-.228.736C758.667,439.433,759.5,439.448,759.9,438.987Z" fill="#74c4a5"/><path id="Path_9924-3" data-name="Path 9924" d="M759.706,438.723c.133.729.8,1.207.365-.126.916.282,1.064-.155.058-.332.538-.779.2-.885-.05-.49-.159.247-.323.559-.36.536C758.739,437.694,758.532,438.521,759.706,438.723Z" fill="#98dfc5"/></g><g id="Group_5030-3" data-name="Group 5030"><path id="Path_9925-3" data-name="Path 9925" d="M748.5,444.208c1.179.276,1.175-.752-.213-.6.033-1.233-.861-1.158-.671-.157-.6-.378-.964.072-.723.329a1.336,1.336,0,0,0,.436.227c-.409.6.079.834.547.545C748.332,445.506,748.729,444.777,748.5,444.208Z" fill="#74c4a5"/><path id="Path_9926-3" data-name="Path 9926" d="M748.185,444.255c.706.219,1.442-.155.058-.381.674-.679.354-1.014-.268-.205-.441-.838-.689-.59-.458-.183a2.553,2.553,0,0,1,.308.567C746.825,444.636,747.463,445.205,748.185,444.255Z" fill="#98dfc5"/></g><g id="Group_5031-3" data-name="Group 5031"><path id="Path_9927-3" data-name="Path 9927" d="M756.888,443.567c1.044-1.537-.433-2.1-.97-.021-1.75-.726-2.133.6-.593.872-.869.646-.426,1.421.075,1.216a2.082,2.082,0,0,0,.566-.5c.631.914,1.237.345,1.079-.484C758.654,444.531,757.828,443.562,756.888,443.567Z" fill="#a7e4c0"/><path id="Path_9928-3" data-name="Path 9928" d="M756.781,444.056c.705-.893.569-2.153-.517-.295-.607-1.34-1.258-1.067-.441.271-1.446.175-1.223.665-.514.557a3.841,3.841,0,0,1,.983-.131C756.577,446.216,757.742,445.614,756.781,444.056Z" fill="#98dfc5"/></g></g></g><g id="Group_5033-4" data-name="Group 5033"><g id="Group_5032-4" data-name="Group 5032"><path id="Path_9919-4" data-name="Path 9919" d="M755.962,204.448a4.481,4.481,0,0,1,3.967-2.612c2.8-.045,3.646,1.089,3.708,1.177,0,.009,0,.007.008,0,.146-.1,4.374-2.971,7.8-.866,3.39,2.083,2.74,4.688,2.7,4.835,0,.012-.008,0,0,.009a5.376,5.376,0,0,1,2.743,4.974,7.226,7.226,0,0,1-2.3,5.209c.1.066.291,5.26-3.283,7.85-3.936,2.851-7.537,3.728-11.4,2.648-3.081-.861-6.162-5.881-6.162-5.881a8.246,8.246,0,0,1-5.132-7.928C748.535,209.123,751.8,204.985,755.962,204.448Z" fill="#b4dcea"/><path id="Path_9920-4" data-name="Path 9920" d="M763.992,208.46c-.579-4.107-3.612-3.071-2.312.722-4.946-4.875-6.488-1.427-3.2,2.074-.225.518-2.372.013-3.077-.006-5.009-.13,1.525,3.37,2.8,3.877-4.609.074-6.286,4.115-.519,3.7-3.861,3.418,1.107,4.562,3.487,1.415.042,2.612,3.088,6.23,3.442,2.772.145-1.447-.719-1.783-.42-3.488.967,1.3.5,1.343,1.35,2.752.8,1.332,2.133.768,2.562-.83a3.829,3.829,0,0,0-.207-2.181c1.77.824,2.963.681,1.761-2.636,4.766-2.419,3.94-5.781-.418-2.683.938-2.2,2.442-5.442-1.04-4.648C768.058,206.08,765.273,205.449,763.992,208.46Z" fill="#9bcdd1"/><g id="Group_5028-4" data-name="Group 5028"><path id="Path_9921-4" data-name="Path 9921" d="M765.37,223.257c.258,1,1.033.591.366-.4.946-.461.537-1.108-.144-.568.05-.6-.436-.7-.534-.416a1.13,1.13,0,0,0,0,.418c-.613-.073-.6.389-.2.629C764.321,223.636,765.023,223.647,765.37,223.257Z" fill="#74c4a5"/><path id="Path_9922-4" data-name="Path 9922" d="M765.209,223.031c.113.622.687,1.029.311-.107.782.24.907-.132.049-.284.46-.665.174-.755-.042-.419-.136.211-.276.477-.308.458C764.383,222.154,764.206,222.858,765.209,223.031Z" fill="#98dfc5"/></g><g id="Group_5029-4" data-name="Group 5029"><path id="Path_9923-4" data-name="Path 9923" d="M768.214,209.124c.3,1.173,1.211.694.428-.464,1.109-.54.629-1.3-.169-.665.059-.7-.511-.821-.627-.488a1.34,1.34,0,0,0,0,.493c-.719-.087-.7.455-.229.736C766.982,209.57,767.811,209.585,768.214,209.124Z" fill="#74c4a5"/><path id="Path_9924-4" data-name="Path 9924" d="M768.022,208.861c.132.729.8,1.207.364-.126.917.282,1.064-.155.058-.332.539-.779.2-.885-.049-.491-.16.247-.323.559-.361.536C767.054,207.832,766.847,208.658,768.022,208.861Z" fill="#98dfc5"/></g><g id="Group_5030-4" data-name="Group 5030"><path id="Path_9925-4" data-name="Path 9925" d="M756.819,214.346c1.179.275,1.175-.753-.213-.595.034-1.234-.86-1.159-.671-.158-.6-.377-.964.072-.723.33a1.336,1.336,0,0,0,.436.227c-.408.6.079.834.547.544C756.648,215.643,757.044,214.915,756.819,214.346Z" fill="#74c4a5"/><path id="Path_9926-4" data-name="Path 9926" d="M756.5,214.392c.706.219,1.442-.155.058-.381.675-.679.355-1.014-.268-.2-.441-.837-.689-.59-.458-.183a2.5,2.5,0,0,1,.308.568C755.14,214.774,755.778,215.342,756.5,214.392Z" fill="#98dfc5"/></g><g id="Group_5031-4" data-name="Group 5031"><path id="Path_9927-4" data-name="Path 9927" d="M765.2,213.7c1.043-1.536-.434-2.1-.97-.02-1.751-.726-2.134.6-.594.871-.868.646-.426,1.421.075,1.216a2.051,2.051,0,0,0,.566-.5c.631.914,1.237.345,1.08-.484C766.969,214.669,766.143,213.7,765.2,213.7Z" fill="#a7e4c0"/><path id="Path_9928-4" data-name="Path 9928" d="M765.1,214.194c.705-.893.57-2.153-.516-.3-.608-1.34-1.259-1.066-.441.271-1.446.175-1.224.665-.514.557a3.826,3.826,0,0,1,.982-.13C764.893,216.354,766.058,215.751,765.1,214.194Z" fill="#98dfc5"/></g></g></g><g id="Group_5033-5" data-name="Group 5033"><g id="Group_5032-5" data-name="Group 5032"><path id="Path_9919-5" data-name="Path 9919" d="M757.623,159.421a4.481,4.481,0,0,1,3.967-2.612c2.8-.045,3.646,1.089,3.708,1.177,0,.009,0,.007.007,0,.147-.1,4.375-2.971,7.8-.866,3.39,2.083,2.74,4.688,2.7,4.836,0,.011-.008,0,0,.008a5.376,5.376,0,0,1,2.743,4.974,7.226,7.226,0,0,1-2.3,5.209c.1.066.291,5.26-3.283,7.85-3.936,2.851-7.537,3.728-11.4,2.648-3.08-.861-6.161-5.881-6.161-5.881a8.246,8.246,0,0,1-5.132-7.928C750.2,164.1,753.458,159.958,757.623,159.421Z" fill="#b4dcea"/><path id="Path_9920-5" data-name="Path 9920" d="M765.653,163.433c-.579-4.106-3.612-3.07-2.312.722-4.946-4.875-6.488-1.427-3.2,2.074-.224.518-2.371.013-3.077-.006-5.008-.13,1.526,3.37,2.8,3.877-4.609.074-6.286,4.115-.519,3.7-3.861,3.418,1.106,4.562,3.487,1.415.042,2.612,3.087,6.23,3.442,2.773.145-1.448-.719-1.784-.42-3.489.967,1.3.5,1.343,1.35,2.752.8,1.332,2.133.768,2.561-.83a3.82,3.82,0,0,0-.206-2.181c1.77.824,2.963.681,1.761-2.636,4.766-2.419,3.94-5.781-.418-2.683.938-2.2,2.442-5.442-1.04-4.648C769.719,161.053,766.934,160.422,765.653,163.433Z" fill="#9bcdd1"/><g id="Group_5028-5" data-name="Group 5028"><path id="Path_9921-5" data-name="Path 9921" d="M767.031,178.23c.258,1,1.033.591.366-.4.946-.461.537-1.108-.144-.568.05-.6-.436-.7-.534-.416a1.13,1.13,0,0,0,0,.418c-.614-.073-.6.389-.2.629C765.982,178.61,766.684,178.62,767.031,178.23Z" fill="#74c4a5"/><path id="Path_9922-5" data-name="Path 9922" d="M766.869,178c.114.623.688,1.03.312-.107.781.241.907-.132.049-.284.459-.665.174-.755-.042-.419-.136.211-.277.478-.308.458C766.044,177.127,765.867,177.831,766.869,178Z" fill="#98dfc5"/></g><g id="Group_5029-5" data-name="Group 5029"><path id="Path_9923-5" data-name="Path 9923" d="M769.875,164.1c.3,1.172,1.211.693.428-.465,1.109-.54.629-1.3-.169-.665.059-.7-.511-.821-.627-.488a1.34,1.34,0,0,0,0,.493c-.719-.087-.7.455-.229.736C768.643,164.543,769.472,164.558,769.875,164.1Z" fill="#74c4a5"/><path id="Path_9924-5" data-name="Path 9924" d="M769.682,163.834c.133.729.8,1.207.365-.126.917.282,1.064-.155.058-.332.538-.779.2-.885-.049-.491-.16.247-.323.559-.361.536C768.715,162.805,768.508,163.631,769.682,163.834Z" fill="#98dfc5"/></g><g id="Group_5030-5" data-name="Group 5030"><path id="Path_9925-5" data-name="Path 9925" d="M758.48,169.319c1.179.275,1.175-.753-.213-.595.034-1.234-.86-1.159-.671-.158-.6-.377-.964.073-.723.33a1.336,1.336,0,0,0,.436.227c-.409.6.079.834.547.544C758.308,170.616,758.705,169.888,758.48,169.319Z" fill="#74c4a5"/><path id="Path_9926-5" data-name="Path 9926" d="M758.161,169.365c.706.219,1.442-.155.058-.381.675-.679.354-1.014-.268-.205-.441-.837-.689-.589-.458-.183a2.538,2.538,0,0,1,.308.568C756.8,169.747,757.439,170.315,758.161,169.365Z" fill="#98dfc5"/></g><g id="Group_5031-5" data-name="Group 5031"><path id="Path_9927-5" data-name="Path 9927" d="M766.865,168.677c1.043-1.536-.434-2.1-.971-.02-1.75-.726-2.133.6-.593.871-.868.646-.426,1.421.075,1.216a2.063,2.063,0,0,0,.566-.5c.631.913,1.237.344,1.079-.485C768.63,169.642,767.8,168.673,766.865,168.677Z" fill="#a7e4c0"/><path id="Path_9928-5" data-name="Path 9928" d="M766.757,169.167c.705-.893.57-2.153-.517-.3-.607-1.34-1.258-1.066-.441.271-1.446.175-1.223.665-.514.557a3.84,3.84,0,0,1,.983-.13C766.554,171.327,767.719,170.724,766.757,169.167Z" fill="#98dfc5"/></g></g></g><g id="Group_5033-6" data-name="Group 5033"><g id="Group_5032-6" data-name="Group 5032"><path id="Path_9919-6" data-name="Path 9919" d="M747.359,495.17a4.481,4.481,0,0,1,3.966-2.612c2.8-.045,3.647,1.089,3.709,1.177,0,.009,0,.007.007,0,.146-.1,4.374-2.972,7.8-.867,3.39,2.083,2.74,4.688,2.7,4.836,0,.011-.008,0,0,.008a5.372,5.372,0,0,1,2.743,4.974,7.225,7.225,0,0,1-2.3,5.209c.1.066.29,5.26-3.283,7.85-3.936,2.851-7.538,3.728-11.4,2.648-3.08-.861-6.162-5.881-6.162-5.881a8.245,8.245,0,0,1-5.131-7.928C739.932,499.845,743.194,495.707,747.359,495.17Z" fill="#b4dcea"/><path id="Path_9920-6" data-name="Path 9920" d="M755.389,499.182c-.579-4.106-3.612-3.07-2.312.722-4.946-4.875-6.488-1.427-3.2,2.074-.224.518-2.371.013-3.077-.006-5.008-.13,1.525,3.37,2.8,3.877-4.61.074-6.286,4.115-.519,3.7-3.861,3.418,1.106,4.562,3.487,1.415.042,2.612,3.087,6.23,3.441,2.773.145-1.448-.718-1.784-.419-3.489.967,1.3.5,1.343,1.35,2.752.8,1.332,2.132.768,2.561-.83a3.816,3.816,0,0,0-.206-2.18c1.769.823,2.962.68,1.76-2.637,4.766-2.419,3.94-5.781-.417-2.683.937-2.2,2.441-5.442-1.04-4.648C759.454,496.8,756.67,496.171,755.389,499.182Z" fill="#9bcdd1"/><g id="Group_5028-6" data-name="Group 5028"><path id="Path_9921-6" data-name="Path 9921" d="M756.767,513.979c.257,1,1.033.591.365-.4.947-.461.537-1.108-.144-.568.051-.6-.435-.7-.534-.416a1.13,1.13,0,0,0,0,.418c-.613-.073-.6.389-.195.629C755.717,514.359,756.42,514.37,756.767,513.979Z" fill="#74c4a5"/><path id="Path_9922-6" data-name="Path 9922" d="M756.605,513.753c.113.623.687,1.03.312-.107.781.241.907-.132.049-.284.459-.665.174-.755-.043-.419-.135.211-.276.478-.307.458C755.779,512.876,755.6,513.58,756.605,513.753Z" fill="#98dfc5"/></g><g id="Group_5029-6" data-name="Group 5029"><path id="Path_9923-6" data-name="Path 9923" d="M759.61,499.847c.3,1.172,1.211.693.429-.465,1.109-.54.629-1.3-.17-.665.059-.7-.51-.821-.627-.488a1.34,1.34,0,0,0,0,.493c-.719-.087-.7.455-.229.736C758.379,500.292,759.208,500.307,759.61,499.847Z" fill="#74c4a5"/><path id="Path_9924-6" data-name="Path 9924" d="M759.418,499.583c.132.729.8,1.207.365-.126.916.282,1.063-.155.058-.332.538-.779.2-.885-.05-.491-.159.247-.323.559-.36.536C758.451,498.554,758.244,499.38,759.418,499.583Z" fill="#98dfc5"/></g><g id="Group_5030-6" data-name="Group 5030"><path id="Path_9925-6" data-name="Path 9925" d="M748.216,505.068c1.179.275,1.175-.753-.214-.595.034-1.234-.86-1.159-.67-.157-.6-.378-.964.072-.723.329a1.336,1.336,0,0,0,.436.227c-.409.6.079.834.547.544C748.044,506.365,748.441,505.637,748.216,505.068Z" fill="#74c4a5"/><path id="Path_9926-6" data-name="Path 9926" d="M747.9,505.114c.706.219,1.442-.155.057-.381.675-.679.355-1.014-.267-.2-.441-.837-.69-.589-.459-.183a2.5,2.5,0,0,1,.309.568C746.537,505.5,747.174,506.064,747.9,505.114Z" fill="#98dfc5"/></g><g id="Group_5031-6" data-name="Group 5031"><path id="Path_9927-6" data-name="Path 9927" d="M756.6,504.426c1.044-1.536-.433-2.1-.97-.02-1.75-.726-2.133.6-.594.871-.868.646-.425,1.421.076,1.216a2.074,2.074,0,0,0,.565-.5c.632.913,1.238.344,1.08-.485C758.366,505.391,757.54,504.422,756.6,504.426Z" fill="#a7e4c0"/><path id="Path_9928-6" data-name="Path 9928" d="M756.493,504.916c.7-.893.569-2.153-.517-.3-.607-1.34-1.258-1.066-.441.271-1.446.175-1.223.665-.514.557a3.884,3.884,0,0,1,.983-.13C756.289,507.076,757.454,506.473,756.493,504.916Z" fill="#98dfc5"/></g></g></g><g id="Group_5033-7" data-name="Group 5033"><g id="Group_5032-7" data-name="Group 5032"><path id="Path_9919-7" data-name="Path 9919" d="M746.988,565.838a4.481,4.481,0,0,1,3.966-2.612c2.8-.045,3.646,1.089,3.709,1.177,0,.009,0,.007.007,0,.146-.1,4.374-2.971,7.8-.866,3.389,2.083,2.74,4.688,2.7,4.836,0,.011-.007,0,0,.008a5.374,5.374,0,0,1,2.743,4.974,7.225,7.225,0,0,1-2.3,5.209c.1.066.29,5.26-3.284,7.85-3.936,2.851-7.537,3.728-11.4,2.648-3.081-.861-6.162-5.881-6.162-5.881a8.245,8.245,0,0,1-5.131-7.928C739.56,570.513,742.823,566.375,746.988,565.838Z" fill="#b4dcea"/><path id="Path_9920-7" data-name="Path 9920" d="M755.018,569.85c-.58-4.106-3.612-3.07-2.312.722-4.946-4.875-6.488-1.427-3.2,2.074-.225.518-2.372.013-3.077-.006-5.008-.13,1.525,3.37,2.8,3.877-4.61.074-6.287,4.115-.519,3.7-3.861,3.418,1.106,4.562,3.486,1.415.042,2.612,3.088,6.23,3.442,2.773.145-1.448-.719-1.784-.419-3.489.967,1.3.5,1.343,1.35,2.752.8,1.332,2.132.768,2.561-.83a3.828,3.828,0,0,0-.206-2.181c1.769.824,2.962.681,1.76-2.636,4.766-2.419,3.94-5.781-.417-2.683.937-2.2,2.441-5.442-1.04-4.648C759.083,567.47,756.3,566.839,755.018,569.85Z" fill="#9bcdd1"/><g id="Group_5028-7" data-name="Group 5028"><path id="Path_9921-7" data-name="Path 9921" d="M756.4,584.647c.258,1,1.034.591.366-.4.947-.461.537-1.108-.144-.568.051-.6-.435-.7-.534-.416a1.13,1.13,0,0,0,0,.418c-.613-.073-.6.389-.195.629C755.346,585.027,756.048,585.038,756.4,584.647Z" fill="#74c4a5"/><path id="Path_9922-7" data-name="Path 9922" d="M756.234,584.421c.113.623.687,1.03.311-.107.782.241.908-.132.05-.284.459-.665.174-.755-.043-.419-.136.211-.276.478-.307.458C755.408,583.544,755.231,584.248,756.234,584.421Z" fill="#98dfc5"/></g><g id="Group_5029-7" data-name="Group 5029"><path id="Path_9923-7" data-name="Path 9923" d="M759.239,570.515c.3,1.172,1.211.693.428-.465,1.11-.54.629-1.3-.169-.665.059-.7-.51-.821-.627-.488a1.34,1.34,0,0,0,0,.493c-.719-.087-.7.455-.229.736C758.007,570.96,758.837,570.975,759.239,570.515Z" fill="#74c4a5"/><path id="Path_9924-7" data-name="Path 9924" d="M759.047,570.251c.132.729.8,1.207.364-.126.917.282,1.064-.155.059-.332.538-.779.2-.885-.05-.491-.16.247-.323.559-.361.536C758.08,569.222,757.872,570.048,759.047,570.251Z" fill="#98dfc5"/></g><g id="Group_5030-7" data-name="Group 5030"><path id="Path_9925-7" data-name="Path 9925" d="M747.844,575.736c1.179.275,1.175-.753-.213-.6.034-1.234-.86-1.159-.671-.158-.6-.377-.964.073-.723.33a1.34,1.34,0,0,0,.437.227c-.409.6.078.834.547.544C747.673,577.033,748.07,576.3,747.844,575.736Z" fill="#74c4a5"/><path id="Path_9926-7" data-name="Path 9926" d="M747.526,575.782c.706.219,1.442-.155.057-.381.675-.679.355-1.014-.267-.2-.442-.837-.69-.589-.459-.183a2.5,2.5,0,0,1,.309.568C746.166,576.164,746.8,576.732,747.526,575.782Z" fill="#98dfc5"/></g><g id="Group_5031-7" data-name="Group 5031"><path id="Path_9927-7" data-name="Path 9927" d="M756.229,575.094c1.043-1.536-.433-2.1-.97-.02-1.75-.726-2.133.6-.594.871-.868.646-.426,1.421.076,1.216a2.074,2.074,0,0,0,.565-.5c.631.913,1.238.344,1.08-.485C757.994,576.059,757.169,575.09,756.229,575.094Z" fill="#a7e4c0"/><path id="Path_9928-7" data-name="Path 9928" d="M756.122,575.584c.705-.893.569-2.153-.517-.3-.607-1.34-1.259-1.066-.441.271-1.446.175-1.224.665-.514.557a3.834,3.834,0,0,1,.983-.13C755.918,577.744,757.083,577.141,756.122,575.584Z" fill="#98dfc5"/></g></g></g><g id="Group_5033-8" data-name="Group 5033"><g id="Group_5032-8" data-name="Group 5032"><path id="Path_9919-8" data-name="Path 9919" d="M694.076,616.063a4.479,4.479,0,0,1,3.966-2.612c2.8-.045,3.647,1.089,3.709,1.177,0,.009,0,.007.007,0,.146-.1,4.374-2.971,7.8-.866,3.389,2.083,2.74,4.688,2.7,4.835,0,.012-.008,0,0,.009a5.372,5.372,0,0,1,2.743,4.974,7.225,7.225,0,0,1-2.3,5.209c.1.066.29,5.26-3.284,7.85-3.935,2.851-7.537,3.728-11.4,2.648-3.081-.861-6.162-5.881-6.162-5.881a8.245,8.245,0,0,1-5.131-7.928C686.648,620.738,689.911,616.6,694.076,616.063Z" fill="#b4dcea"/><path id="Path_9920-8" data-name="Path 9920" d="M702.106,620.075c-.579-4.107-3.612-3.071-2.312.722-4.946-4.875-6.488-1.427-3.2,2.074-.224.518-2.372.013-3.077-.006-5.008-.13,1.525,3.37,2.8,3.877-4.61.074-6.286,4.115-.519,3.7-3.861,3.418,1.106,4.562,3.487,1.415.042,2.612,3.087,6.23,3.441,2.772.145-1.447-.718-1.783-.419-3.488.967,1.3.5,1.343,1.35,2.752.8,1.331,2.132.768,2.561-.83a3.828,3.828,0,0,0-.206-2.181c1.769.824,2.962.681,1.76-2.636,4.766-2.419,3.94-5.781-.417-2.683.937-2.2,2.441-5.442-1.04-4.648C706.171,617.7,703.386,617.064,702.106,620.075Z" fill="#9bcdd1"/><g id="Group_5028-8" data-name="Group 5028"><path id="Path_9921-8" data-name="Path 9921" d="M703.483,634.872c.258,1,1.034.591.366-.4.947-.461.537-1.108-.144-.568.051-.6-.435-.7-.534-.416a1.13,1.13,0,0,0,0,.418c-.613-.073-.6.389-.2.629C702.434,635.251,703.137,635.262,703.483,634.872Z" fill="#74c4a5"/><path id="Path_9922-8" data-name="Path 9922" d="M703.322,634.646c.113.622.687,1.029.311-.107.782.24.908-.132.05-.284.459-.665.174-.755-.043-.419-.136.211-.276.477-.307.458C702.5,633.769,702.319,634.473,703.322,634.646Z" fill="#98dfc5"/></g><g id="Group_5029-8" data-name="Group 5029"><path id="Path_9923-8" data-name="Path 9923" d="M706.327,620.739c.3,1.173,1.211.694.428-.464,1.11-.54.63-1.3-.169-.665.059-.7-.51-.821-.627-.488a1.334,1.334,0,0,0,0,.492c-.719-.086-.7.456-.229.737C705.1,621.185,705.925,621.2,706.327,620.739Z" fill="#74c4a5"/><path id="Path_9924-8" data-name="Path 9924" d="M706.135,620.476c.132.729.805,1.207.365-.126.916.282,1.063-.155.058-.332.538-.779.2-.885-.05-.491-.159.247-.323.559-.361.536C705.168,619.447,704.961,620.273,706.135,620.476Z" fill="#98dfc5"/></g><g id="Group_5030-8" data-name="Group 5030"><path id="Path_9925-8" data-name="Path 9925" d="M694.933,625.961c1.179.275,1.175-.753-.214-.6.034-1.234-.86-1.159-.671-.158-.6-.377-.963.072-.722.329a1.319,1.319,0,0,0,.436.228c-.409.6.079.833.547.544C694.761,627.258,695.158,626.53,694.933,625.961Z" fill="#74c4a5"/><path id="Path_9926-8" data-name="Path 9926" d="M694.614,626.007c.706.219,1.442-.155.057-.381.675-.679.355-1.014-.267-.2-.441-.837-.69-.59-.459-.183a2.5,2.5,0,0,1,.309.568C693.254,626.389,693.891,626.957,694.614,626.007Z" fill="#98dfc5"/></g><g id="Group_5031-8" data-name="Group 5031"><path id="Path_9927-8" data-name="Path 9927" d="M703.317,625.319c1.044-1.536-.433-2.1-.97-.02-1.75-.726-2.133.6-.594.871-.868.646-.426,1.421.076,1.216a2.061,2.061,0,0,0,.565-.5c.632.914,1.238.345,1.08-.484C705.082,626.284,704.257,625.315,703.317,625.319Z" fill="#a7e4c0"/><path id="Path_9928-8" data-name="Path 9928" d="M703.21,625.809c.7-.893.569-2.153-.517-.3-.607-1.34-1.259-1.066-.441.271-1.446.175-1.224.665-.514.557a3.834,3.834,0,0,1,.983-.13C703.006,627.969,704.171,627.366,703.21,625.809Z" fill="#98dfc5"/></g></g></g><g id="Group_5033-9" data-name="Group 5033"><g id="Group_5032-9" data-name="Group 5032"><path id="Path_9919-9" data-name="Path 9919" d="M526.368,593.071a3.655,3.655,0,0,1,3.234-2.13c2.28-.036,2.974.889,3.024.961,0,.007,0,0,.006,0,.12-.082,3.567-2.423,6.363-.706,2.764,1.7,2.234,3.822,2.2,3.943,0,.009-.006,0,0,.007a4.381,4.381,0,0,1,2.237,4.056,5.886,5.886,0,0,1-1.876,4.247c.082.054.237,4.29-2.677,6.4-3.21,2.325-6.146,3.04-9.3,2.16-2.512-.7-5.025-4.8-5.025-4.8a6.725,6.725,0,0,1-4.184-6.464C520.311,596.884,522.972,593.509,526.368,593.071Z" fill="#b4dcea"/><path id="Path_9920-9" data-name="Path 9920" d="M532.916,596.343c-.472-3.349-2.946-2.5-1.885.589-4.034-3.976-5.291-1.164-2.612,1.691-.183.422-1.934.01-2.509,0-4.084-.106,1.243,2.748,2.283,3.161-3.759.061-5.126,3.356-.423,3.018-3.149,2.788.9,3.72,2.843,1.154.034,2.131,2.517,5.08,2.806,2.261.119-1.18-.586-1.454-.342-2.845.789,1.058.408,1.1,1.1,2.245.653,1.085,1.739.626,2.089-.677a3.123,3.123,0,0,0-.168-1.778c1.443.671,2.415.555,1.435-2.151,3.886-1.972,3.213-4.713-.34-2.187.764-1.795,1.991-4.438-.848-3.79C536.231,594.4,533.96,593.887,532.916,596.343Z" fill="#9bcdd1"/><g id="Group_5028-9" data-name="Group 5028"><path id="Path_9921-9" data-name="Path 9921" d="M534.039,608.409c.211.816.843.482.3-.323.771-.377.437-.9-.118-.464.041-.489-.355-.572-.435-.339a.889.889,0,0,0,0,.341c-.5-.06-.489.317-.16.513C533.184,608.719,533.756,608.727,534.039,608.409Z" fill="#74c4a5"/><path id="Path_9922-9" data-name="Path 9922" d="M533.908,608.225c.092.507.56.839.254-.088.637.2.739-.107.04-.231.374-.542.142-.615-.035-.342-.111.172-.225.39-.251.374C533.234,607.51,533.09,608.084,533.908,608.225Z" fill="#98dfc5"/></g><g id="Group_5029-9" data-name="Group 5029"><path id="Path_9923-9" data-name="Path 9923" d="M536.358,596.885c.246.956.988.565.349-.379.9-.441.513-1.059-.138-.542.049-.574-.416-.67-.511-.4a1.109,1.109,0,0,0,0,.4c-.586-.071-.572.371-.186.6C535.354,597.248,536.03,597.261,536.358,596.885Z" fill="#74c4a5"/><path id="Path_9924-9" data-name="Path 9924" d="M536.2,596.67c.107.594.656.984.3-.1.747.23.867-.126.047-.271.439-.635.166-.721-.04-.4-.13.2-.264.456-.294.437C535.413,595.831,535.244,596.505,536.2,596.67Z" fill="#98dfc5"/></g><g id="Group_5030-9" data-name="Group 5030"><path id="Path_9925-9" data-name="Path 9925" d="M527.067,601.142c.961.225.958-.613-.174-.485.027-1.006-.7-.944-.547-.128-.487-.308-.786.059-.59.268a1.092,1.092,0,0,0,.356.186c-.333.486.064.68.446.444C526.927,602.2,527.25,601.606,527.067,601.142Z" fill="#74c4a5"/><path id="Path_9926-9" data-name="Path 9926" d="M526.807,601.18c.575.179,1.175-.126.046-.311.551-.553.29-.826-.218-.167-.359-.682-.562-.48-.373-.149a2.1,2.1,0,0,1,.251.463C525.7,601.492,526.217,601.955,526.807,601.18Z" fill="#98dfc5"/></g><g id="Group_5031-9" data-name="Group 5031"><path id="Path_9927-9" data-name="Path 9927" d="M533.9,600.619c.851-1.253-.354-1.71-.791-.016-1.428-.592-1.74.486-.484.71-.708.527-.348,1.159.061.992a1.7,1.7,0,0,0,.461-.408c.515.745,1.009.282.881-.394C535.343,601.406,534.67,600.616,533.9,600.619Z" fill="#a7e4c0"/><path id="Path_9928-9" data-name="Path 9928" d="M533.816,601.019c.575-.729.464-1.756-.421-.242-.5-1.092-1.026-.869-.36.222-1.179.142-1,.542-.419.454a3.141,3.141,0,0,1,.8-.107C533.65,602.78,534.6,602.289,533.816,601.019Z" fill="#98dfc5"/></g></g></g><g id="Group_5033-10" data-name="Group 5033"><g id="Group_5032-10" data-name="Group 5032"><path id="Path_9919-10" data-name="Path 9919" d="M467.165,572.319a3.652,3.652,0,0,1,3.234-2.13c2.28-.037,2.974.888,3.024.96,0,.007,0,0,.006,0,.119-.082,3.567-2.423,6.363-.706,2.764,1.7,2.234,3.823,2.2,3.943,0,.009-.006,0,0,.007a4.381,4.381,0,0,1,2.237,4.056,5.893,5.893,0,0,1-1.876,4.247c.082.054.237,4.29-2.677,6.4-3.21,2.325-6.146,3.039-9.3,2.159-2.512-.7-5.025-4.8-5.025-4.8A6.724,6.724,0,0,1,461.173,580C461.108,576.131,463.768,572.757,467.165,572.319Z" fill="#b4dcea"/><path id="Path_9920-10" data-name="Path 9920" d="M473.713,575.59c-.473-3.348-2.946-2.5-1.886.589-4.033-3.975-5.29-1.163-2.611,1.691-.183.422-1.934.011-2.509,0-4.084-.105,1.243,2.748,2.283,3.162-3.759.06-5.126,3.356-.423,3.018-3.149,2.787.9,3.72,2.843,1.154.034,2.13,2.517,5.08,2.806,2.26.118-1.18-.586-1.454-.342-2.844.789,1.057.408,1.1,1.1,2.244.653,1.086,1.739.626,2.089-.677a3.117,3.117,0,0,0-.169-1.778c1.443.671,2.416.555,1.436-2.15,3.886-1.973,3.213-4.714-.34-2.188.764-1.8,1.99-4.437-.848-3.79C477.028,573.649,474.757,573.135,473.713,575.59Z" fill="#9bcdd1"/><g id="Group_5028-10" data-name="Group 5028"><path id="Path_9921-10" data-name="Path 9921" d="M474.836,587.656c.211.816.843.483.3-.323.771-.376.437-.9-.118-.464.041-.489-.355-.571-.435-.339a.889.889,0,0,0,0,.341c-.5-.06-.489.317-.16.513C473.981,587.966,474.553,587.975,474.836,587.656Z" fill="#74c4a5"/><path id="Path_9922-10" data-name="Path 9922" d="M474.705,587.472c.092.508.56.84.254-.087.637.2.739-.108.04-.232.374-.542.142-.615-.035-.341-.111.172-.225.389-.251.373C474.031,586.757,473.887,587.331,474.705,587.472Z" fill="#98dfc5"/></g><g id="Group_5029-10" data-name="Group 5029"><path id="Path_9923-10" data-name="Path 9923" d="M477.155,576.132c.246.956.988.565.349-.378.9-.441.513-1.06-.138-.543.048-.574-.416-.67-.511-.4a1.109,1.109,0,0,0,0,.4c-.586-.07-.572.371-.186.6C476.151,576.5,476.827,576.508,477.155,576.132Z" fill="#74c4a5"/><path id="Path_9924-10" data-name="Path 9924" d="M477,575.917c.108.595.657.984.3-.1.747.23.867-.126.047-.27.439-.636.166-.722-.04-.4-.13.2-.264.455-.294.437C476.21,575.078,476.041,575.752,477,575.917Z" fill="#98dfc5"/></g><g id="Group_5030-10" data-name="Group 5030"><path id="Path_9925-10" data-name="Path 9925" d="M467.864,580.39c.961.224.958-.614-.175-.485.028-1.006-.7-.945-.546-.129-.487-.308-.786.059-.59.269a1.09,1.09,0,0,0,.356.185c-.334.487.064.68.446.444C467.724,581.448,468.047,580.854,467.864,580.39Z" fill="#74c4a5"/><path id="Path_9926-10" data-name="Path 9926" d="M467.6,580.428c.576.178,1.176-.127.047-.311.551-.554.29-.827-.218-.167-.359-.683-.562-.481-.374-.149a2.031,2.031,0,0,1,.252.462C466.5,580.739,467.014,581.2,467.6,580.428Z" fill="#98dfc5"/></g><g id="Group_5031-10" data-name="Group 5031"><path id="Path_9927-10" data-name="Path 9927" d="M474.7,579.867c.85-1.253-.354-1.711-.792-.017-1.427-.592-1.739.486-.484.71-.708.527-.347,1.159.062.992a1.677,1.677,0,0,0,.461-.407c.515.745,1.009.281.88-.395C476.14,580.653,475.467,579.863,474.7,579.867Z" fill="#a7e4c0"/><path id="Path_9928-10" data-name="Path 9928" d="M474.613,580.266c.575-.728.464-1.756-.421-.241-.5-1.093-1.027-.87-.36.221-1.179.143-1,.542-.419.454a3.1,3.1,0,0,1,.8-.106C474.447,582.027,475.4,581.536,474.613,580.266Z" fill="#98dfc5"/></g></g></g><g id="Group_5033-11" data-name="Group 5033"><g id="Group_5032-11" data-name="Group 5032"><path id="Path_9919-11" data-name="Path 9919" d="M626.342,605.9a5.945,5.945,0,0,1,5.264-3.466c3.712-.06,4.841,1.445,4.923,1.562,0,.012,0,.01.01,0,.194-.133,5.806-3.944,10.357-1.149,4.5,2.764,3.637,6.222,3.585,6.418,0,.015-.011,0,0,.011a7.133,7.133,0,0,1,3.641,6.6,9.587,9.587,0,0,1-3.053,6.913c.134.088.386,6.983-4.358,10.42-5.224,3.785-10,4.948-15.137,3.515-4.089-1.143-8.178-7.806-8.178-7.806a10.947,10.947,0,0,1-6.812-10.523C616.483,612.109,620.813,606.616,626.342,605.9Z" fill="#b4dcea"/><path id="Path_9920-11" data-name="Path 9920" d="M637,611.229c-.768-5.451-4.794-4.076-3.068.958-6.565-6.471-8.612-1.893-4.252,2.753-.3.688-3.148.017-4.084-.008-6.648-.172,2.024,4.474,3.716,5.146-6.118.1-8.344,5.463-.688,4.913-5.125,4.537,1.468,6.055,4.628,1.878.055,3.468,4.1,8.269,4.568,3.68.192-1.921-.954-2.367-.557-4.63,1.284,1.721.664,1.782,1.792,3.653,1.063,1.767,2.831,1.02,3.4-1.1a5.069,5.069,0,0,0-.274-2.894c2.349,1.093,3.932.9,2.337-3.5,6.326-3.211,5.23-7.673-.554-3.561,1.244-2.922,3.24-7.223-1.381-6.17C642.4,608.07,638.7,607.232,637,611.229Z" fill="#9bcdd1"/><g id="Group_5028-11" data-name="Group 5028"><path id="Path_9921-11" data-name="Path 9921" d="M638.829,630.87c.342,1.328,1.372.785.486-.527,1.256-.612.712-1.471-.191-.754.067-.8-.578-.931-.709-.553a1.485,1.485,0,0,0,0,.556c-.814-.1-.8.516-.26.835C637.436,631.374,638.369,631.388,638.829,630.87Z" fill="#74c4a5"/><path id="Path_9922-11" data-name="Path 9922" d="M638.615,630.57c.15.826.912,1.367.413-.142,1.037.319,1.2-.175.066-.377.609-.883.231-1-.057-.556-.18.28-.367.634-.408.608C637.519,629.406,637.284,630.34,638.615,630.57Z" fill="#98dfc5"/></g><g id="Group_5029-11" data-name="Group 5029"><path id="Path_9923-11" data-name="Path 9923" d="M642.6,612.111c.4,1.556,1.607.92.568-.616,1.473-.718.835-1.725-.224-.883.078-.934-.678-1.09-.833-.648a1.775,1.775,0,0,0,0,.654c-.954-.115-.932.6-.3.977C640.969,612.7,642.07,612.723,642.6,612.111Z" fill="#74c4a5"/><path id="Path_9924-11" data-name="Path 9924" d="M642.349,611.761c.175.968,1.068,1.6.484-.167,1.216.374,1.411-.206.077-.441.714-1.034.27-1.174-.066-.651-.212.328-.429.742-.479.711C641.065,610.4,640.79,611.492,642.349,611.761Z" fill="#98dfc5"/></g><g id="Group_5030-11" data-name="Group 5030"><path id="Path_9925-11" data-name="Path 9925" d="M627.479,619.041c1.565.366,1.56-1-.283-.789.045-1.637-1.142-1.538-.89-.209-.792-.5-1.28.1-.96.437a1.79,1.79,0,0,0,.579.3c-.543.792.105,1.106.726.722C627.251,620.764,627.778,619.8,627.479,619.041Z" fill="#74c4a5"/><path id="Path_9926-11" data-name="Path 9926" d="M627.056,619.1c.937.291,1.914-.2.076-.506.9-.9.471-1.346-.355-.272-.585-1.111-.915-.782-.608-.242a3.347,3.347,0,0,1,.409.753C625.251,619.61,626.1,620.364,627.056,619.1Z" fill="#98dfc5"/></g><g id="Group_5031-11" data-name="Group 5031"><path id="Path_9927-11" data-name="Path 9927" d="M638.608,618.19c1.385-2.039-.575-2.784-1.287-.027-2.324-.964-2.832.792-.788,1.156-1.153.858-.566,1.887.1,1.615a2.721,2.721,0,0,0,.75-.664c.838,1.213,1.643.458,1.434-.642C640.952,619.47,639.856,618.184,638.608,618.19Z" fill="#a7e4c0"/><path id="Path_9928-11" data-name="Path 9928" d="M638.466,618.84c.936-1.186.756-2.858-.686-.393-.806-1.778-1.671-1.415-.585.36-1.92.232-1.625.883-.683.739a5.132,5.132,0,0,1,1.305-.172C638.2,621.707,639.742,620.907,638.466,618.84Z" fill="#98dfc5"/></g></g></g><g id="Group_5033-12" data-name="Group 5033"><g id="Group_5032-12" data-name="Group 5032"><path id="Path_9919-12" data-name="Path 9919" d="M815.221,588.526a5.945,5.945,0,0,1,5.264-3.466c3.712-.06,4.841,1.445,4.923,1.562,0,.012,0,.01.01,0,.194-.133,5.806-3.944,10.357-1.149,4.5,2.764,3.637,6.222,3.585,6.418,0,.015-.011,0,0,.011a7.133,7.133,0,0,1,3.641,6.6,9.587,9.587,0,0,1-3.053,6.913c.134.088.385,6.983-4.358,10.42-5.224,3.785-10,4.948-15.137,3.515-4.089-1.143-8.178-7.806-8.178-7.806a10.944,10.944,0,0,1-6.812-10.523C805.362,594.732,809.692,589.239,815.221,588.526Z" fill="#b4dcea"/><path id="Path_9920-12" data-name="Path 9920" d="M825.879,593.852c-.769-5.451-4.794-4.076-3.069.958-6.565-6.47-8.611-1.893-4.251,2.753-.3.688-3.148.017-4.084-.008-6.648-.172,2.024,4.474,3.716,5.146-6.118.1-8.344,5.463-.689,4.913-5.125,4.537,1.469,6.055,4.629,1.878.055,3.468,4.1,8.269,4.568,3.68.192-1.921-.954-2.367-.557-4.63,1.284,1.721.664,1.782,1.792,3.653,1.063,1.767,2.831,1.02,3.4-1.1a5.069,5.069,0,0,0-.274-2.894c2.349,1.093,3.932.9,2.337-3.5,6.326-3.211,5.229-7.673-.554-3.561,1.244-2.922,3.24-7.223-1.381-6.17C831.276,590.693,827.579,589.855,825.879,593.852Z" fill="#9bcdd1"/><g id="Group_5028-12" data-name="Group 5028"><path id="Path_9921-12" data-name="Path 9921" d="M827.708,613.493c.342,1.328,1.372.785.486-.527,1.256-.612.712-1.47-.192-.754.068-.8-.578-.931-.709-.553a1.506,1.506,0,0,0,0,.556c-.814-.1-.8.516-.26.835C826.315,614,827.248,614.011,827.708,613.493Z" fill="#74c4a5"/><path id="Path_9922-12" data-name="Path 9922" d="M827.494,613.193c.15.826.912,1.367.413-.142,1.037.319,1.2-.175.066-.377.609-.883.231-1-.057-.556-.18.28-.367.634-.408.608C826.4,612.029,826.163,612.963,827.494,613.193Z" fill="#98dfc5"/></g><g id="Group_5029-12" data-name="Group 5029"><path id="Path_9923-12" data-name="Path 9923" d="M831.483,594.734c.4,1.556,1.607.92.568-.616,1.472-.718.835-1.725-.225-.883.079-.934-.677-1.09-.832-.648a1.8,1.8,0,0,0,0,.654c-.954-.115-.931.6-.3.977C829.848,595.326,830.948,595.346,831.483,594.734Z" fill="#74c4a5"/><path id="Path_9924-12" data-name="Path 9924" d="M831.228,594.384c.175.968,1.068,1.6.483-.167,1.217.374,1.412-.206.078-.441.714-1.034.27-1.174-.066-.651-.212.328-.429.742-.479.711C829.944,593.018,829.669,594.115,831.228,594.384Z" fill="#98dfc5"/></g><g id="Group_5030-12" data-name="Group 5030"><path id="Path_9925-12" data-name="Path 9925" d="M816.358,601.665c1.565.365,1.559-1-.283-.79.045-1.637-1.142-1.538-.891-.209-.791-.5-1.279.1-.959.437a1.79,1.79,0,0,0,.579.3c-.543.792.1,1.106.726.722C816.13,603.387,816.657,602.42,816.358,601.665Z" fill="#74c4a5"/><path id="Path_9926-12" data-name="Path 9926" d="M815.935,601.726c.937.291,1.914-.205.076-.506.9-.9.471-1.346-.355-.272-.586-1.111-.915-.782-.609-.242a3.312,3.312,0,0,1,.41.753C814.13,602.233,814.976,602.987,815.935,601.726Z" fill="#98dfc5"/></g><g id="Group_5031-12" data-name="Group 5031"><path id="Path_9927-12" data-name="Path 9927" d="M827.487,600.813c1.385-2.039-.575-2.784-1.288-.027-2.323-.964-2.831.792-.788,1.156-1.152.858-.565,1.887.1,1.615a2.735,2.735,0,0,0,.75-.664c.838,1.213,1.643.458,1.433-.642C829.83,602.093,828.735,600.807,827.487,600.813Z" fill="#a7e4c0"/><path id="Path_9928-12" data-name="Path 9928" d="M827.345,601.463c.935-1.186.755-2.858-.686-.393-.806-1.778-1.671-1.415-.586.36-1.919.233-1.624.883-.682.739a5.13,5.13,0,0,1,1.3-.172C827.074,604.33,828.621,603.53,827.345,601.463Z" fill="#98dfc5"/></g></g></g><g id="Group_5033-13" data-name="Group 5033"><g id="Group_5032-13" data-name="Group 5032"><path id="Path_9919-13" data-name="Path 9919" d="M495.317,575.194a5.947,5.947,0,0,1,5.265-3.467c3.711-.06,4.84,1.446,4.922,1.563,0,.011,0,.009.01,0,.194-.134,5.806-3.945,10.357-1.15,4.5,2.764,3.637,6.223,3.585,6.418,0,.015-.01,0,0,.012a7.131,7.131,0,0,1,3.641,6.6,9.592,9.592,0,0,1-3.054,6.914c.134.088.386,6.982-4.358,10.42-5.224,3.784-10,4.948-15.136,3.514-4.089-1.143-8.179-7.806-8.179-7.806a10.943,10.943,0,0,1-6.811-10.522C485.458,581.4,489.788,575.907,495.317,575.194Z" fill="#b4dcea"/><path id="Path_9920-13" data-name="Path 9920" d="M505.976,580.519c-.769-5.45-4.8-4.075-3.069.959-6.565-6.471-8.612-1.894-4.251,2.753-.3.687-3.148.017-4.085-.008-6.647-.172,2.025,4.473,3.717,5.145-6.119.1-8.344,5.463-.689,4.913-5.125,4.538,1.468,6.055,4.628,1.879.056,3.467,4.1,8.269,4.568,3.68.193-1.922-.954-2.367-.556-4.631,1.283,1.722.663,1.783,1.791,3.654,1.063,1.767,2.831,1.019,3.4-1.1a5.073,5.073,0,0,0-.274-2.895c2.349,1.093,3.933.9,2.337-3.5,6.326-3.21,5.23-7.673-.554-3.561,1.244-2.921,3.241-7.223-1.38-6.17C511.372,577.36,507.676,576.522,505.976,580.519Z" fill="#9bcdd1"/><g id="Group_5028-13" data-name="Group 5028"><path id="Path_9921-13" data-name="Path 9921" d="M507.8,600.16c.343,1.328,1.372.785.486-.526,1.256-.613.713-1.471-.191-.755.067-.8-.578-.93-.709-.552a1.485,1.485,0,0,0,0,.556c-.814-.1-.8.515-.26.834C506.412,600.664,507.344,600.679,507.8,600.16Z" fill="#74c4a5"/><path id="Path_9922-13" data-name="Path 9922" d="M507.59,599.86c.151.827.912,1.367.413-.142,1.038.32,1.205-.175.066-.377.609-.883.231-1-.057-.556-.18.28-.366.634-.408.608C506.494,598.7,506.259,599.631,507.59,599.86Z" fill="#98dfc5"/></g><g id="Group_5029-13" data-name="Group 5029"><path id="Path_9923-13" data-name="Path 9923" d="M511.579,581.4c.4,1.555,1.608.92.569-.617,1.472-.717.835-1.724-.225-.883.078-.934-.678-1.09-.832-.647a1.749,1.749,0,0,0,0,.653c-.954-.114-.932.6-.3.977C509.944,581.993,511.045,582.013,511.579,581.4Z" fill="#74c4a5"/><path id="Path_9924-13" data-name="Path 9924" d="M511.324,581.051c.176.968,1.068,1.6.484-.167,1.216.375,1.412-.205.077-.441.714-1.033.271-1.174-.066-.651-.212.328-.429.742-.479.712C510.04,579.686,509.765,580.783,511.324,581.051Z" fill="#98dfc5"/></g><g id="Group_5030-13" data-name="Group 5030"><path id="Path_9925-13" data-name="Path 9925" d="M496.454,588.332c1.565.366,1.56-1-.283-.79.045-1.637-1.142-1.538-.89-.209-.792-.5-1.28.1-.96.437a1.771,1.771,0,0,0,.579.3c-.542.792.105,1.107.726.723C496.226,590.054,496.753,589.087,496.454,588.332Z" fill="#74c4a5"/><path id="Path_9926-13" data-name="Path 9926" d="M496.031,588.394c.937.29,1.914-.206.076-.506.9-.9.471-1.346-.354-.272-.586-1.112-.916-.783-.609-.243a3.329,3.329,0,0,1,.409.753C494.226,588.9,495.072,589.655,496.031,588.394Z" fill="#98dfc5"/></g><g id="Group_5031-13" data-name="Group 5031"><path id="Path_9927-13" data-name="Path 9927" d="M507.584,587.48c1.385-2.039-.576-2.784-1.288-.027-2.323-.963-2.832.792-.788,1.157-1.153.857-.565,1.886.1,1.614a2.752,2.752,0,0,0,.751-.663c.838,1.213,1.642.457,1.433-.643C509.927,588.761,508.831,587.474,507.584,587.48Z" fill="#a7e4c0"/><path id="Path_9928-13" data-name="Path 9928" d="M507.441,588.13c.936-1.185.756-2.857-.686-.392-.806-1.779-1.67-1.416-.585.36-1.92.232-1.624.883-.683.739a5.089,5.089,0,0,1,1.3-.173C507.171,591,508.717,590.2,507.441,588.13Z" fill="#98dfc5"/></g></g></g></g><g id="campus"><path d="M769.5,295.367l-2.3,53.557a6.2,6.2,0,0,1-6.469,5.924l-170.241-7.655a6.2,6.2,0,0,1-5.918-6.236l.392-52.936a6.2,6.2,0,0,0-5.8-6.229l-27.308-1.771a6.2,6.2,0,0,1-5.79-6.445l3.8-89.956a6.2,6.2,0,0,1,6.282-5.934l60.882.9a6.2,6.2,0,0,1,6.1,6.364L620.6,277.9a6.2,6.2,0,0,0,5.984,6.362l136.934,4.647A6.2,6.2,0,0,1,769.5,295.367Z" fill="#a1bec4"/><path d="M769.5,295.367l-2.3,53.557a6.2,6.2,0,0,1-6.469,5.924l-170.241-7.655a6.2,6.2,0,0,1-5.918-6.236l.392-52.936a6.2,6.2,0,0,0-5.8-6.229l-27.308-1.771a6.2,6.2,0,0,1-5.79-6.445l3.8-89.956a6.2,6.2,0,0,1,6.282-5.934l60.882.9a6.2,6.2,0,0,1,6.1,6.364L620.6,277.9a6.2,6.2,0,0,0,5.984,6.362l136.934,4.647A6.2,6.2,0,0,1,769.5,295.367Z" fill="none" stroke="#a1bec4" stroke-miterlimit="10" stroke-width="3"/><path d="M763.826,286.863l-2.3,53.557a6.2,6.2,0,0,1-6.469,5.924l-170.241-7.655a6.2,6.2,0,0,1-5.918-6.236l.391-52.936a6.2,6.2,0,0,0-5.795-6.229l-27.308-1.771a6.2,6.2,0,0,1-5.789-6.445l3.8-89.956a6.2,6.2,0,0,1,6.282-5.934l60.882.9a6.2,6.2,0,0,1,6.1,6.364L614.928,269.4a6.2,6.2,0,0,0,5.983,6.361L757.846,280.4A6.2,6.2,0,0,1,763.826,286.863Z" fill="#fff"/><path d="M763.826,286.863l-2.3,53.557a6.2,6.2,0,0,1-6.469,5.924l-170.241-7.655a6.2,6.2,0,0,1-5.918-6.236l.391-52.936a6.2,6.2,0,0,0-5.795-6.229l-27.308-1.771a6.2,6.2,0,0,1-5.789-6.445l3.8-89.956a6.2,6.2,0,0,1,6.282-5.934l60.882.9a6.2,6.2,0,0,1,6.1,6.364L614.928,269.4a6.2,6.2,0,0,0,5.983,6.361L757.846,280.4A6.2,6.2,0,0,1,763.826,286.863Z" fill="none" stroke="#5e8da1" stroke-miterlimit="10" stroke-width="3"/></g><g id="train_station" data-name="train station"><rect x="1385.98" y="290.617" width="28.88" height="28.88" rx="6.374" fill="#2371ff"/><path d="M1407.558,308.913v-9.634a3.216,3.216,0,0,0-3.206-3.206h-7.864a3.215,3.215,0,0,0-3.206,3.206v9.634a3.215,3.215,0,0,0,3.206,3.206h2.175a6.692,6.692,0,0,1-3.813,1.012h-.082a1,1,0,0,0-.99,1.032,1.067,1.067,0,0,0,1.072,1.032,9.353,9.353,0,0,1,11.139,0h.082a1,1,0,0,0,.991-1.032,1.068,1.068,0,0,0-1.073-1.032,6.691,6.691,0,0,1-3.812-1.012h2.175A3.215,3.215,0,0,0,1407.558,308.913Zm-6.779-8.253a.912.912,0,0,1,.912-.912h2.945a.912.912,0,0,1,.912.912v2.268a.912.912,0,0,1-.912.913h-2.945a.913.913,0,0,1-.912-.913Zm-5.487,0a.912.912,0,0,1,.912-.912h2.944a.912.912,0,0,1,.913.912v2.268a.913.913,0,0,1-.913.913H1396.2a.912.912,0,0,1-.912-.913Zm.954,8.955a1.256,1.256,0,1,1,1.256-1.256A1.256,1.256,0,0,1,1396.246,309.615Zm7.092-1.256a1.256,1.256,0,1,1,1.256,1.256A1.256,1.256,0,0,1,1403.338,308.359Z" fill="#fff"/></g><g id="floating"><g id="building_names" data-name="building names"><use width="53.659" height="37.432" transform="translate(641.468 287.636) scale(1.327 1.327)" xlink:href="#New_Symbol"/><use width="99.913" height="37.432" transform="translate(510.748 205.821) scale(1.327)" xlink:href="#New_Symbol_4"/></g><g id="accessible_toilet" data-name="accessible toilet"><use id="accessible_toilet-3" data-name="accessible toilet" width="109.597" height="128.241" transform="translate(622.273 160.315)" xlink:href="#New_Symbol_3"/></g><g id="male_toilet" data-name="male toilet"><use id="male_toilet-3" data-name="male toilet" width="109.597" height="128.241" transform="translate(622.273 160.315)" xlink:href="#New_Symbol_2"/></g><g id="female_toilet" data-name="female toilet"><use id="female_toilet-3" data-name="female toilet" width="109.597" height="128.241" transform="translate(622.273 160.315)" xlink:href="#New_Symbol_1"/></g></g><g id="toggle"><g id="entrance"><g id="entrance-2" data-name="entrance"><path d="M568.519,290.582h16.465a9.208,9.208,0,0,1,9.208,9.208v16.465a9.208,9.208,0,0,1-9.208,9.208H568.519a9.208,9.208,0,0,1-9.208-9.208V299.79a9.209,9.209,0,0,1,9.209-9.209Z" transform="translate(1152.343 618.207) rotate(-179.785)" fill="#0a64fe"/><path d="M587.263,314.134a4.813,4.813,0,0,1-4.817,4.781l-11.584-.043a4.814,4.814,0,0,1-4.782-4.818l.047-12.354a4.813,4.813,0,0,1,4.817-4.781l11.584.043a4.813,4.813,0,0,1,4.781,4.818" fill="none" stroke="#fff" stroke-linecap="round" stroke-linejoin="round" stroke-width="3.539"/><polyline points="579.519 312.473 573.806 307.868 579.554 303.305" fill="none" stroke="#fff" stroke-linecap="round" stroke-linejoin="round" stroke-width="3.539"/><line x1="587.559" y1="307.919" x2="573.807" y2="307.868" fill="none" stroke="#fff" stroke-linecap="round" stroke-linejoin="round" stroke-width="3.539"/></g><g id="entrance-3" data-name="entrance"><path d="M531.934,170.809H548.4a9.208,9.208,0,0,1,9.208,9.208v16.465a9.208,9.208,0,0,1-9.208,9.208H531.934a9.208,9.208,0,0,1-9.208-9.208V180.017A9.209,9.209,0,0,1,531.934,170.809Z" transform="translate(0.71 -2.025) rotate(0.215)" fill="#0a64fe"/><path d="M529.655,182.138a4.814,4.814,0,0,1,4.818-4.781l11.583.043a4.814,4.814,0,0,1,4.782,4.818l-.047,12.354a4.812,4.812,0,0,1-4.817,4.781l-11.584-.043a4.814,4.814,0,0,1-4.781-4.818" fill="none" stroke="#fff" stroke-linecap="round" stroke-linejoin="round" stroke-width="3.539"/><polyline points="537.399 183.799 543.112 188.404 537.364 192.967" fill="none" stroke="#fff" stroke-linecap="round" stroke-linejoin="round" stroke-width="3.539"/><line x1="529.359" y1="188.353" x2="543.112" y2="188.404" fill="none" stroke="#fff" stroke-linecap="round" stroke-linejoin="round" stroke-width="3.539"/></g><g id="entrance-4" data-name="entrance"><path d="M752.086,295.032h16.465a9.208,9.208,0,0,1,9.208,9.208v16.465a9.208,9.208,0,0,1-9.208,9.208H752.086a9.208,9.208,0,0,1-9.208-9.208V304.241A9.209,9.209,0,0,1,752.086,295.032Z" transform="translate(1519.459 627.797) rotate(-179.785)" fill="#0a64fe"/><path d="M770.83,318.585a4.814,4.814,0,0,1-4.818,4.781l-11.584-.043a4.814,4.814,0,0,1-4.781-4.818l.046-12.354a4.814,4.814,0,0,1,4.818-4.781l11.583.043a4.814,4.814,0,0,1,4.782,4.818" fill="none" stroke="#fff" stroke-linecap="round" stroke-linejoin="round" stroke-width="3.539"/><polyline points="763.086 316.924 757.373 312.319 763.12 307.756" fill="none" stroke="#fff" stroke-linecap="round" stroke-linejoin="round" stroke-width="3.539"/><line x1="771.125" y1="312.37" x2="757.373" y2="312.319" fill="none" stroke="#fff" stroke-linecap="round" stroke-linejoin="round" stroke-width="3.539"/></g></g><g id="accessible_entrance" data-name="accessible entrance"><g id="accessible_entrance-2" data-name="accessible entrance"><rect x="729.458" y="298.601" width="54.52" height="30.13" rx="7.63" transform="translate(-0.587 1.419) rotate(-0.107)" fill="#0a64fe"/><path d="M758.528,308.418a4.158,4.158,0,0,1,4.138-4.153l10.006-.019a4.158,4.158,0,0,1,4.153,4.138l.02,10.671a4.158,4.158,0,0,1-4.138,4.153l-10,.019a4.159,4.159,0,0,1-4.154-4.138" fill="none" stroke="#fff" stroke-linecap="round" stroke-linejoin="round" stroke-width="3.057"/><polyline points="765.225 309.815 770.182 313.765 765.24 317.734" fill="none" stroke="#fff" stroke-linecap="round" stroke-linejoin="round" stroke-width="3.057"/><line x1="758.303" y1="313.787" x2="770.182" y2="313.765" fill="none" stroke="#fff" stroke-linecap="round" stroke-linejoin="round" stroke-width="3.057"/><g id="accessible-2-2" data-name="accessible-2"><g id="Group_1512-2-2" data-name="Group 1512-2"><path id="Path_142-2-2-2" data-name="Path 142-2-2" d="M753.226,312.711a1.339,1.339,0,0,0-1.049-.418l-3.113.2a.719.719,0,0,1-.595-1.183l1.5-1.747a1.323,1.323,0,0,0,.313-1.467,1.63,1.63,0,0,0-.631-.834l-4.162-2.692a4.289,4.289,0,0,0-5.252.466l-1.5,1.4a1.433,1.433,0,0,0-.1,1.881,1.366,1.366,0,0,0,1.913.194c.03-.026.059-.051.087-.079l1.3-1.187a1.835,1.835,0,0,1,2.181-.2h0a.716.716,0,0,1,.239.984v0a.8.8,0,0,1-.074.1l-2.626,3.046a.749.749,0,0,1-.429.252,6.768,6.768,0,0,0-2.779,1.223.694.694,0,0,0-.185.961h0a.476.476,0,0,0,.1.114l.79.788a.737.737,0,0,0,.932.077,4.565,4.565,0,0,1,2.564-.782,4.466,4.466,0,0,1,4.53,4.4v.091a4.534,4.534,0,0,1-.785,2.567.711.711,0,0,0,.079.91l.775.778a.725.725,0,0,0,1.027,0l0,0a.616.616,0,0,0,.075-.087,7.1,7.1,0,0,0,1.34-4.161,5.671,5.671,0,0,0-.333-2.132.718.718,0,0,1,.428-.921.834.834,0,0,1,.2-.042h0a.72.72,0,0,1,.756.678.488.488,0,0,1,0,.108l-.432,4.611a1.318,1.318,0,0,0,1.161,1.456h.2a1.367,1.367,0,0,0,1.363-1.256l.614-7.106A1.13,1.13,0,0,0,753.226,312.711Z" fill="#fff"/><path id="Path_143-2-2-2" data-name="Path 143-2-2" d="M750.952,306.862a2.575,2.575,0,1,0-2.6-2.57h0A2.61,2.61,0,0,0,750.952,306.862Z" fill="#fff"/><path id="Path_144-2-2-2" data-name="Path 144-2-2" d="M742.681,322.79a4.492,4.492,0,0,1-4.548-4.432h0v-.067a4.973,4.973,0,0,1,.566-2.215.474.474,0,0,0-.086-.551l-1.16-1.146a.477.477,0,0,0-.673,0h0a.51.51,0,0,0-.059.073,6.837,6.837,0,0,0-1.124,3.837,7.047,7.047,0,0,0,7.077,7.018h0a6.779,6.779,0,0,0,3.864-1.134.474.474,0,0,0,.135-.651.465.465,0,0,0-.062-.077l-1.153-1.137a.476.476,0,0,0-.574-.072A4.243,4.243,0,0,1,742.681,322.79Z" fill="#fff"/></g></g></g><g id="accessible_entrance-3" data-name="accessible entrance"><rect x="501.49" y="173.142" width="54.52" height="30.13" rx="7.63" transform="translate(-0.352 0.991) rotate(-0.107)" fill="#0a64fe"/><path d="M530.56,182.959a4.156,4.156,0,0,1,4.138-4.153l10-.019a4.159,4.159,0,0,1,4.154,4.138l.02,10.671a4.158,4.158,0,0,1-4.138,4.153l-10.006.019a4.158,4.158,0,0,1-4.153-4.138" fill="none" stroke="#fff" stroke-linecap="round" stroke-linejoin="round" stroke-width="3.057"/><polyline points="537.256 184.356 542.213 188.306 537.271 192.275" fill="none" stroke="#fff" stroke-linecap="round" stroke-linejoin="round" stroke-width="3.057"/><line x1="530.334" y1="188.328" x2="542.213" y2="188.306" fill="none" stroke="#fff" stroke-linecap="round" stroke-linejoin="round" stroke-width="3.057"/><g id="accessible-2-3" data-name="accessible-2"><g id="Group_1512-2-3" data-name="Group 1512-2"><path id="Path_142-2-2-3" data-name="Path 142-2-2" d="M525.258,187.252a1.34,1.34,0,0,0-1.049-.418l-3.114.2a.719.719,0,0,1-.594-1.183l1.5-1.747a1.322,1.322,0,0,0,.313-1.467,1.619,1.619,0,0,0-.631-.834l-4.161-2.692a4.291,4.291,0,0,0-5.253.466l-1.505,1.4a1.433,1.433,0,0,0-.1,1.881,1.366,1.366,0,0,0,1.913.194c.029-.026.059-.052.086-.079l1.3-1.187a1.833,1.833,0,0,1,2.18-.2h0a.716.716,0,0,1,.24.984v0a.8.8,0,0,1-.075.1l-2.625,3.046a.754.754,0,0,1-.43.252,6.782,6.782,0,0,0-2.778,1.222.7.7,0,0,0-.186.962h0a.523.523,0,0,0,.1.114l.791.788a.736.736,0,0,0,.932.077,4.565,4.565,0,0,1,2.564-.782,4.464,4.464,0,0,1,4.529,4.4v.091a4.536,4.536,0,0,1-.784,2.567.711.711,0,0,0,.078.91l.776.778a.726.726,0,0,0,1.027,0l0,0a.781.781,0,0,0,.075-.087,7.115,7.115,0,0,0,1.34-4.161,5.672,5.672,0,0,0-.334-2.132.719.719,0,0,1,.429-.921.824.824,0,0,1,.2-.042h0a.718.718,0,0,1,.755.678.391.391,0,0,1,0,.108l-.431,4.611a1.315,1.315,0,0,0,1.16,1.455h.2a1.369,1.369,0,0,0,1.364-1.256l.614-7.106A1.132,1.132,0,0,0,525.258,187.252Z" fill="#fff"/><path id="Path_143-2-2-3" data-name="Path 143-2-2" d="M522.983,181.4a2.576,2.576,0,1,0-2.6-2.571h0A2.611,2.611,0,0,0,522.983,181.4Z" fill="#fff"/><path id="Path_144-2-2-3" data-name="Path 144-2-2" d="M514.712,197.331a4.492,4.492,0,0,1-4.547-4.432h0v-.067a4.96,4.96,0,0,1,.566-2.215.474.474,0,0,0-.086-.551l-1.161-1.146a.477.477,0,0,0-.673,0h0a.7.7,0,0,0-.059.073,6.833,6.833,0,0,0-1.123,3.837,7.047,7.047,0,0,0,7.076,7.018h0a6.787,6.787,0,0,0,3.864-1.134.473.473,0,0,0,.135-.651.459.459,0,0,0-.061-.077l-1.153-1.137a.475.475,0,0,0-.574-.072A4.264,4.264,0,0,1,514.712,197.331Z" fill="#fff"/></g></g></g></g></g><g id="hotspots"><g id="Metro_West-Metro_West_" data-name="Metro_West-Metro_West
"><polygon points="665.969 232.733 667.743 98.795 543.52 97.15 541.746 231.088 540.426 330.79 539.961 365.941 795.789 369.328 797.575 234.475 665.969 232.733" fill="#6fe09b"/></g></g></svg>